<svg width="41" height="49" viewBox="0 0 41 49" fill="none" xmlns="http://www.w3.org/2000/svg">
<path d="M33.911 25.9113C33.9356 24.0439 34.4437 22.2128 35.388 20.5886C36.3322 18.9644 37.6819 17.5997 39.3115 16.6216C38.2763 15.1781 36.9106 13.9902 35.3228 13.1522C33.7351 12.3142 31.969 11.8491 30.165 11.794C26.3167 11.3997 22.5859 14.0422 20.6248 14.0422C18.6259 14.0422 15.6065 11.8332 12.3552 11.8985C10.2522 11.9648 8.20261 12.5619 6.4062 13.6315C4.60979 14.7011 3.1278 16.2067 2.10463 18.0018C-2.32742 25.4935 0.978495 36.5038 5.2241 42.5595C7.34828 45.5248 9.83081 48.8372 13.0792 48.7197C16.2579 48.591 17.4451 46.7408 21.2821 46.7408C25.0835 46.7408 26.1973 48.7197 29.5116 48.645C32.9226 48.591 35.0716 45.6665 37.1213 42.6731C38.6475 40.5602 39.8219 38.225 40.601 35.754C38.6194 34.9357 36.9283 33.566 35.7386 31.8157C34.5489 30.0654 33.9133 28.012 33.911 25.9113Z" fill="white"/>
<path d="M27.6498 7.81183C29.5096 5.63215 30.4258 2.83054 30.2039 0.00195312C27.3626 0.293304 24.738 1.61908 22.8531 3.71513C21.9315 4.73911 21.2257 5.93037 20.776 7.22083C20.3262 8.51128 20.1414 9.87563 20.2321 11.2359C21.6533 11.2501 23.0592 10.9494 24.3441 10.3563C25.6289 9.76321 26.7592 8.89321 27.6498 7.81183Z" fill="white"/>
</svg>
