<svg width="234" height="68" viewBox="0 0 234 68" fill="none" xmlns="http://www.w3.org/2000/svg">
<rect width="234" height="68" rx="5.66929" fill="#06C7F2"/>
<path fill-rule="evenodd" clip-rule="evenodd" d="M9.75452 0C4.36725 0 0 2.53823 0 5.66929V62.3307C0 65.4618 4.36725 68 9.75452 68H224.245C229.633 68 234 65.4618 234 62.3307V5.66929C234 2.53823 229.633 0 224.245 0H9.75452ZM26.9616 3C21.5737 3 17.2059 5.53854 17.2059 8.67V50.33C17.2059 53.4615 21.5737 56 26.9616 56H207.038C212.426 56 216.794 53.4615 216.794 50.33V8.67C216.794 5.53855 212.426 3 207.038 3H26.9616Z" fill="#9E9E9E" fill-opacity="0.5"/>
<g filter="url(#filter0_i_64_1356)" style="mix-blend-mode:overlay">
<rect width="234" height="68" rx="5.66929" fill="white" fill-opacity="0.01"/>
</g>
<rect x="17.2059" y="3" width="199.588" height="53" rx="5.67" fill="url(#paint0_linear_64_1356)" fill-opacity="0.2"/>
<rect x="17.7059" y="3.5" width="198.588" height="52" rx="5.17" stroke="url(#paint1_linear_64_1356)" stroke-opacity="0.4"/>
<path d="M200.144 28.5341L193.278 21.6684C193.12 21.5094 192.908 21.4219 192.681 21.4219C192.455 21.4219 192.243 21.5094 192.085 21.6684L191.579 22.1739C191.25 22.5032 191.25 23.0386 191.579 23.3675L197.345 29.133L191.573 34.9048C191.414 35.0638 191.326 35.2756 191.326 35.5015C191.326 35.7277 191.414 35.9395 191.573 36.0986L192.078 36.604C192.237 36.7629 192.449 36.8504 192.675 36.8504C192.901 36.8504 193.113 36.7629 193.272 36.604L200.144 29.7319C200.303 29.5725 200.391 29.3596 200.39 29.1333C200.391 28.9062 200.303 28.6934 200.144 28.5341Z" fill="white"/>
<path opacity="0.5" d="M190.985 56V68H224.245C229.633 68 234 65.4618 234 62.3307V43H216.794V50.33C216.794 53.4615 212.426 56 207.038 56H190.985Z" fill="url(#paint2_linear_64_1356)"/>
<rect opacity="0.5" x="43.0147" y="56" width="147.971" height="12" fill="white" fill-opacity="0.2"/>
<path opacity="0.5" d="M17.2059 43H0V62.3307C0 65.4618 4.36725 68 9.75452 68H43.0147V56H26.9616C21.5737 56 17.2059 53.4615 17.2059 50.33V43Z" fill="url(#paint3_linear_64_1356)"/>
<rect opacity="0.5" y="25" width="17.2059" height="18" fill="white" fill-opacity="0.7"/>
<path opacity="0.5" d="M224.245 0H190.985V3H207.038C212.426 3 216.794 5.53855 216.794 8.67V25H234V5.66929C234 2.53823 229.633 0 224.245 0Z" fill="url(#paint4_linear_64_1356)"/>
<rect opacity="0.5" x="43.0147" width="147.971" height="3" fill="white" fill-opacity="0.15"/>
<path opacity="0.5" d="M9.75452 0C4.36725 0 0 2.53823 0 5.66929V25H17.2059V8.67C17.2059 5.53854 21.5737 3 26.9616 3H43.0147V0H9.75452Z" fill="url(#paint5_linear_64_1356)"/>
<mask id="mask0_64_1356" style="mask-type:alpha" maskUnits="userSpaceOnUse" x="204" y="0" width="30" height="68">
<rect x="234" y="68" width="29.25" height="68" rx="5.66929" transform="rotate(-180 234 68)" fill="#343436"/>
</mask>
<g mask="url(#mask0_64_1356)">
<g opacity="0.2" filter="url(#filter1_d_64_1356)" style="mix-blend-mode:overlay">
<path d="M270.132 59.33C270.132 62.4615 267.594 65 264.462 65L236.176 65C229.273 65 223.676 59.4036 223.676 52.5L223.676 14.5C223.676 7.59644 229.273 2 236.176 2L264.462 2C267.594 2 270.132 4.53855 270.132 7.67001L270.132 59.33Z" fill="black" fill-opacity="0.01"/>
</g>
</g>
<mask id="mask1_64_1356" style="mask-type:alpha" maskUnits="userSpaceOnUse" x="0" y="0" width="30" height="68">
<rect width="29.25" height="68" rx="5.66929" fill="#343436"/>
</mask>
<g mask="url(#mask1_64_1356)">
<g opacity="0.2" filter="url(#filter2_d_64_1356)" style="mix-blend-mode:overlay">
<path d="M-36.1323 10.67C-36.1323 7.53854 -33.5938 5 -30.4623 5H1.21237C4.34383 5 6.88238 7.53855 6.88238 10.67V55.5C6.88238 62.4036 1.28594 68 -5.61762 68H-30.4623C-33.5938 68 -36.1323 65.4615 -36.1323 62.33V10.67Z" fill="black" fill-opacity="0.01"/>
</g>
</g>
<g filter="url(#filter3_d_64_1356)">
<path d="M33.9278 37.3386C33.5465 37.3386 33.2605 37.2726 33.0698 37.1406C32.8792 37.0086 32.7545 36.8326 32.6958 36.6126C32.6518 36.3926 32.6298 36.1506 32.6298 35.8866V23.3906C32.6298 23.1266 32.6592 22.892 32.7178 22.6866C32.7765 22.4666 32.8938 22.2906 33.0698 22.1586C33.2605 22.0266 33.5538 21.9606 33.9498 21.9606H36.4358C37.3158 21.9606 38.0785 22.1366 38.7238 22.4886C39.3692 22.8406 39.8605 23.332 40.1978 23.9626C40.5498 24.5933 40.7258 25.334 40.7258 26.1846C40.7258 26.5806 40.6745 26.9693 40.5718 27.3506C40.4838 27.732 40.3372 28.0766 40.1318 28.3846C39.9412 28.6926 39.6992 28.9346 39.4058 29.1106C39.8165 29.3013 40.1538 29.58 40.4178 29.9466C40.6965 30.2986 40.9018 30.7166 41.0338 31.2006C41.1805 31.6846 41.2465 32.2126 41.2318 32.7846C41.2172 33.4886 41.0998 34.1193 40.8798 34.6766C40.6598 35.234 40.3518 35.7106 39.9558 36.1066C39.5598 36.5026 39.0758 36.8106 38.5038 37.0306C37.9465 37.236 37.3305 37.3386 36.6558 37.3386H33.9278ZM35.2478 34.7426H36.5458C37.0298 34.7426 37.4332 34.6473 37.7558 34.4566C38.0932 34.266 38.3425 34.002 38.5038 33.6646C38.6652 33.3126 38.7458 32.902 38.7458 32.4326C38.7458 32.0513 38.7018 31.7433 38.6138 31.5086C38.5258 31.2593 38.4085 31.0613 38.2618 30.9146C38.1298 30.768 37.9758 30.658 37.7998 30.5846C37.6385 30.5113 37.4845 30.4673 37.3378 30.4526C37.1912 30.438 37.0665 30.4306 36.9638 30.4306H36.8318C36.5825 30.4306 36.4138 30.3353 36.3258 30.1446C36.2525 29.9393 36.2158 29.646 36.2158 29.2646C36.2158 28.898 36.2598 28.6193 36.3478 28.4286C36.4505 28.238 36.6265 28.1426 36.8758 28.1426H36.9418C37.0152 28.1426 37.1178 28.1353 37.2498 28.1206C37.3818 28.0913 37.5138 28.0326 37.6458 27.9446C37.7925 27.842 37.9098 27.6806 37.9978 27.4606C38.0858 27.226 38.1298 26.9033 38.1298 26.4926C38.1298 25.862 37.9758 25.3853 37.6678 25.0626C37.3598 24.74 36.8758 24.5786 36.2158 24.5786H35.2478V34.7426ZM44.3993 37.3606C43.9887 37.3606 43.688 37.2946 43.4973 37.1626C43.3213 37.0453 43.2113 36.884 43.1673 36.6786C43.1233 36.4733 43.1013 36.246 43.1013 35.9966V27.8346C43.1013 27.5706 43.1233 27.3433 43.1673 27.1526C43.226 26.9473 43.3433 26.7933 43.5193 26.6906C43.71 26.5733 44.0107 26.5146 44.4213 26.5146C44.8173 26.5146 45.1033 26.566 45.2793 26.6686C45.47 26.7713 45.5873 26.9033 45.6313 27.0646C45.69 27.2113 45.7193 27.358 45.7193 27.5046L45.6313 27.7906C45.69 27.6 45.7707 27.424 45.8733 27.2626C45.9907 27.0866 46.1227 26.9326 46.2693 26.8006C46.416 26.6686 46.5773 26.566 46.7533 26.4926C46.9293 26.4193 47.12 26.3826 47.3253 26.3826C47.428 26.3826 47.538 26.3973 47.6553 26.4266C47.7873 26.4413 47.9193 26.478 48.0513 26.5366C48.1833 26.5806 48.3007 26.6466 48.4033 26.7346C48.5207 26.808 48.6087 26.9106 48.6673 27.0426C48.7407 27.1746 48.7773 27.3286 48.7773 27.5046C48.7773 27.974 48.6893 28.3846 48.5133 28.7366C48.3373 29.074 48.088 29.2426 47.7653 29.2426C47.6333 29.2426 47.516 29.228 47.4133 29.1986C47.3253 29.1546 47.2373 29.1106 47.1493 29.0666C47.0613 29.008 46.9587 28.964 46.8413 28.9346C46.7387 28.9053 46.6067 28.8906 46.4453 28.8906C46.3133 28.8906 46.2033 28.92 46.1153 28.9786C46.0273 29.0226 45.954 29.096 45.8953 29.1986C45.8367 29.2866 45.7927 29.3966 45.7633 29.5286C45.7487 29.646 45.7413 29.778 45.7413 29.9246V36.0406C45.7413 36.29 45.712 36.5173 45.6533 36.7226C45.6093 36.9133 45.492 37.0673 45.3013 37.1846C45.1253 37.302 44.8247 37.3606 44.3993 37.3606ZM54.0161 37.4706C53.4001 37.4706 52.8354 37.3533 52.3221 37.1186C51.8234 36.8693 51.3981 36.51 51.0461 36.0406C50.6941 35.5566 50.4227 34.9773 50.2321 34.3026C50.0414 33.6133 49.9461 32.8286 49.9461 31.9486C49.9461 31.1126 50.0267 30.3573 50.1881 29.6826C50.3641 28.9933 50.6134 28.4066 50.9361 27.9226C51.2734 27.4386 51.6987 27.0646 52.2121 26.8006C52.7254 26.522 53.3121 26.3826 53.9721 26.3826C54.8961 26.3826 55.6587 26.6173 56.2601 27.0866C56.8614 27.5413 57.3087 28.1866 57.6021 29.0226C57.9101 29.844 58.0641 30.812 58.0641 31.9266C58.0641 32.8213 57.9687 33.6133 57.7781 34.3026C57.5874 34.992 57.3087 35.5713 56.9421 36.0406C56.5901 36.51 56.1647 36.8693 55.6661 37.1186C55.1821 37.3533 54.6321 37.4706 54.0161 37.4706ZM53.9721 35.0506C54.2947 35.0506 54.5661 34.9333 54.7861 34.6986C55.0061 34.464 55.1674 34.112 55.2701 33.6426C55.3874 33.1733 55.4461 32.594 55.4461 31.9046C55.4461 31.2446 55.3947 30.6873 55.2921 30.2326C55.1894 29.778 55.0281 29.4333 54.8081 29.1986C54.6027 28.9493 54.3241 28.8246 53.9721 28.8246C53.6347 28.8246 53.3634 28.9493 53.1581 29.1986C52.9527 29.448 52.7987 29.8073 52.6961 30.2766C52.6081 30.7313 52.5641 31.2813 52.5641 31.9266C52.5641 32.6013 52.6154 33.1733 52.7181 33.6426C52.8207 34.112 52.9747 34.464 53.1801 34.6986C53.4001 34.9333 53.6641 35.0506 53.9721 35.0506ZM62.7023 37.3386C62.3943 37.3386 62.1523 37.2873 61.9763 37.1846C61.815 37.0966 61.6903 36.9866 61.6023 36.8546C61.529 36.708 61.4703 36.5686 61.4263 36.4366L59.3363 28.1426C59.2483 27.82 59.2043 27.5706 59.2043 27.3946C59.219 27.204 59.2923 27.05 59.4243 26.9326C59.571 26.8006 59.7836 26.6833 60.0623 26.5806C60.5023 26.4046 60.8763 26.346 61.1843 26.4046C61.507 26.4633 61.705 26.72 61.7783 27.1746L62.8343 33.1586L63.8903 27.4166C63.9196 27.2113 63.9783 27.0426 64.0663 26.9106C64.1543 26.764 64.2863 26.654 64.4623 26.5806C64.6383 26.4926 64.8656 26.4486 65.1443 26.4486C65.467 26.4486 65.7163 26.4926 65.8923 26.5806C66.083 26.654 66.2223 26.764 66.3103 26.9106C66.413 27.0426 66.4716 27.2113 66.4863 27.4166L67.5423 33.2026L68.5103 27.3726C68.613 26.8593 68.8183 26.5513 69.1263 26.4486C69.449 26.3313 69.823 26.3533 70.2483 26.5146C70.6736 26.6906 70.9523 26.896 71.0843 27.1306C71.2163 27.3653 71.1943 27.71 71.0183 28.1646L68.9283 36.4366C68.8843 36.5833 68.8183 36.7226 68.7303 36.8546C68.6423 36.9866 68.5176 37.0966 68.3563 37.1846C68.195 37.2873 67.9676 37.3386 67.6743 37.3386C67.381 37.3386 67.1463 37.28 66.9703 37.1626C66.809 37.06 66.6843 36.9206 66.5963 36.7446C66.5083 36.554 66.435 36.3706 66.3763 36.1946L65.1883 30.7606L63.9783 36.1946C63.9343 36.4146 63.8683 36.6126 63.7803 36.7886C63.707 36.9646 63.5823 37.0966 63.4063 37.1846C63.245 37.2873 63.0103 37.3386 62.7023 37.3386ZM75.264 37.4926C75 37.4926 74.7286 37.4633 74.45 37.4046C74.186 37.346 73.922 37.258 73.658 37.1406C73.4086 37.038 73.174 36.9133 72.954 36.7666C72.7486 36.6053 72.5726 36.4293 72.426 36.2386C72.2793 36.0626 72.184 35.9013 72.14 35.7546C72.096 35.5933 72.096 35.432 72.14 35.2706C72.1986 35.0946 72.2866 34.9186 72.404 34.7426C72.6533 34.3906 72.888 34.1926 73.108 34.1486C73.3426 34.09 73.6066 34.2073 73.9 34.5006C73.988 34.6033 74.0906 34.706 74.208 34.8086C74.3253 34.9113 74.4426 35.0066 74.56 35.0946C74.692 35.168 74.824 35.2266 74.956 35.2706C75.1026 35.3146 75.2566 35.3366 75.418 35.3366C75.7406 35.3366 75.99 35.234 76.166 35.0286C76.3566 34.8233 76.452 34.5593 76.452 34.2366C76.452 34.1193 76.4153 34.002 76.342 33.8846C76.2833 33.7526 76.1953 33.6353 76.078 33.5326C75.9606 33.43 75.8286 33.3273 75.682 33.2246C75.5353 33.122 75.374 33.0193 75.198 32.9166C75.022 32.814 74.8386 32.7113 74.648 32.6086C74.296 32.3886 73.9806 32.1686 73.702 31.9486C73.438 31.714 73.2106 31.472 73.02 31.2226C72.844 30.9586 72.712 30.6726 72.624 30.3646C72.536 30.0566 72.492 29.712 72.492 29.3306C72.492 28.7733 72.6166 28.2746 72.866 27.8346C73.13 27.3946 73.4966 27.05 73.966 26.8006C74.4353 26.5513 74.9926 26.4266 75.638 26.4266C75.814 26.4266 75.9973 26.4486 76.188 26.4926C76.3786 26.522 76.5693 26.5733 76.76 26.6466C76.9653 26.7053 77.1633 26.7933 77.354 26.9106C77.5593 27.0133 77.75 27.1306 77.926 27.2626C78.2486 27.4973 78.432 27.7393 78.476 27.9886C78.52 28.2233 78.432 28.502 78.212 28.8246C78.0506 29.0446 77.8746 29.1986 77.684 29.2866C77.508 29.3746 77.354 29.3673 77.222 29.2646C77.0753 29.1913 76.914 29.096 76.738 28.9786C76.5766 28.8466 76.4006 28.7366 76.21 28.6486C76.034 28.546 75.836 28.4946 75.616 28.4946C75.4546 28.4946 75.308 28.5313 75.176 28.6046C75.044 28.6633 74.9413 28.7586 74.868 28.8906C74.7946 29.008 74.758 29.1546 74.758 29.3306C74.758 29.5213 74.7946 29.69 74.868 29.8366C74.9413 29.9833 75.044 30.1226 75.176 30.2546C75.3226 30.372 75.4913 30.4893 75.682 30.6066C75.8726 30.7093 76.078 30.8266 76.298 30.9586C76.6206 31.12 76.9286 31.3033 77.222 31.5086C77.5153 31.714 77.7793 31.9486 78.014 32.2126C78.2486 32.462 78.432 32.7553 78.564 33.0926C78.696 33.43 78.762 33.8113 78.762 34.2366C78.762 35.2486 78.4466 36.048 77.816 36.6346C77.1853 37.2066 76.3346 37.4926 75.264 37.4926ZM84.1581 37.4926C83.3808 37.4926 82.7208 37.3386 82.1781 37.0306C81.6501 36.7226 81.2321 36.3046 80.9241 35.7766C80.6161 35.234 80.3888 34.6326 80.2421 33.9726C80.1101 33.298 80.0441 32.6013 80.0441 31.8826C80.0441 30.8266 80.1981 29.888 80.5061 29.0666C80.8288 28.2453 81.2908 27.6 81.8921 27.1306C82.4935 26.6613 83.2415 26.4266 84.1361 26.4266C84.7375 26.4266 85.2508 26.5513 85.6761 26.8006C86.1161 27.05 86.4755 27.38 86.7541 27.7906C87.0328 28.1866 87.2381 28.6266 87.3701 29.1106C87.5021 29.5946 87.5681 30.064 87.5681 30.5186C87.5681 31.296 87.3995 31.8753 87.0621 32.2566C86.7395 32.638 86.2921 32.8286 85.7201 32.8286H82.7501C82.7355 33.3126 82.7941 33.7306 82.9261 34.0826C83.0581 34.4346 83.2341 34.706 83.4541 34.8966C83.6888 35.0726 83.9528 35.1606 84.2461 35.1606C84.4808 35.1606 84.6861 35.1386 84.8621 35.0946C85.0528 35.0506 85.2141 34.9993 85.3461 34.9406C85.4781 34.882 85.5955 34.816 85.6981 34.7426C85.8155 34.6693 85.9255 34.6106 86.0281 34.5666C86.1455 34.5226 86.2701 34.5006 86.4021 34.5006C86.5928 34.5006 86.7541 34.5593 86.8861 34.6766C87.0181 34.794 87.1355 34.9553 87.2381 35.1606C87.3261 35.3073 87.3775 35.432 87.3921 35.5346C87.4215 35.6373 87.4361 35.7546 87.4361 35.8866C87.4361 36.1506 87.2748 36.4073 86.9521 36.6566C86.6441 36.906 86.2408 37.104 85.7421 37.2506C85.2435 37.412 84.7155 37.4926 84.1581 37.4926ZM82.7061 31.1566H84.5541C84.8035 31.1566 84.9721 31.1273 85.0601 31.0686C85.1628 31.01 85.2141 30.8413 85.2141 30.5626C85.2141 30.2253 85.1701 29.9246 85.0821 29.6606C85.0088 29.3966 84.8915 29.184 84.7301 29.0226C84.5688 28.8613 84.3635 28.7806 84.1141 28.7806C83.8208 28.7806 83.5641 28.8906 83.3441 29.1106C83.1241 29.316 82.9628 29.602 82.8601 29.9686C82.7575 30.3206 82.7061 30.7166 82.7061 31.1566ZM98.4977 37.4486C97.8523 37.4486 97.2657 37.3386 96.7377 37.1186C96.2097 36.884 95.733 36.5466 95.3077 36.1066C94.897 35.652 94.545 35.1093 94.2517 34.4786C93.973 33.8333 93.7603 33.1 93.6137 32.2786C93.467 31.4426 93.3937 30.526 93.3937 29.5286C93.3937 28.5606 93.467 27.6806 93.6137 26.8886C93.7603 26.082 93.973 25.3633 94.2517 24.7326C94.545 24.102 94.9043 23.574 95.3297 23.1486C95.755 22.7233 96.2317 22.4006 96.7597 22.1806C97.2877 21.946 97.8743 21.8286 98.5197 21.8286C98.857 21.8286 99.1723 21.858 99.4657 21.9166C99.759 21.9753 100.045 22.0633 100.324 22.1806C100.617 22.298 100.925 22.4593 101.248 22.6646C101.556 22.8553 101.79 23.0606 101.952 23.2806C102.128 23.5006 102.216 23.6986 102.216 23.8746C102.23 24.0066 102.208 24.146 102.15 24.2926C102.106 24.4393 102.025 24.5933 101.908 24.7546C101.717 24.9893 101.541 25.1726 101.38 25.3046C101.233 25.422 101.086 25.4806 100.94 25.4806C100.837 25.4806 100.712 25.4366 100.566 25.3486C100.434 25.2606 100.243 25.1286 99.9937 24.9526C99.803 24.8206 99.6197 24.718 99.4437 24.6446C99.2823 24.5566 99.121 24.498 98.9597 24.4686C98.7983 24.4393 98.615 24.4246 98.4097 24.4246C98.043 24.4246 97.713 24.542 97.4197 24.7766C97.141 25.0113 96.899 25.356 96.6937 25.8106C96.4883 26.2506 96.327 26.7933 96.2097 27.4386C96.107 28.084 96.0557 28.8173 96.0557 29.6386C96.0557 30.46 96.107 31.1933 96.2097 31.8386C96.327 32.484 96.4883 33.034 96.6937 33.4886C96.899 33.9286 97.141 34.266 97.4197 34.5006C97.713 34.7353 98.043 34.8526 98.4097 34.8526C98.6443 34.8526 98.8497 34.838 99.0257 34.8086C99.2017 34.7793 99.3777 34.728 99.5537 34.6546C99.7443 34.5666 99.9423 34.4566 100.148 34.3246C100.382 34.1633 100.566 34.046 100.698 33.9726C100.83 33.8846 100.969 33.8406 101.116 33.8406C101.262 33.8406 101.416 33.9066 101.578 34.0386C101.739 34.1706 101.9 34.3613 102.062 34.6106C102.179 34.7866 102.26 34.9553 102.304 35.1166C102.348 35.278 102.362 35.4173 102.348 35.5346C102.333 35.7106 102.238 35.9013 102.062 36.1066C101.886 36.312 101.651 36.5026 101.358 36.6786C101.064 36.8546 100.771 37.0013 100.478 37.1186C100.199 37.236 99.8983 37.3166 99.5757 37.3606C99.253 37.4193 98.8937 37.4486 98.4977 37.4486ZM105.566 37.3606C105.155 37.3606 104.855 37.2946 104.664 37.1626C104.473 37.0453 104.356 36.884 104.312 36.6786C104.268 36.4733 104.246 36.2533 104.246 36.0186V22.8846C104.246 22.6353 104.268 22.4153 104.312 22.2246C104.371 22.0193 104.495 21.858 104.686 21.7406C104.877 21.6233 105.177 21.5646 105.588 21.5646C105.999 21.5646 106.292 21.6306 106.468 21.7626C106.659 21.88 106.776 22.0413 106.82 22.2466C106.864 22.4373 106.886 22.6573 106.886 22.9066V27.5046C107.091 27.2406 107.37 27.0133 107.722 26.8226C108.074 26.6173 108.477 26.5146 108.932 26.5146C109.636 26.5146 110.208 26.698 110.648 27.0646C111.103 27.4166 111.44 27.9153 111.66 28.5606C111.88 29.1913 111.99 29.9246 111.99 30.7606V36.0406C111.99 36.2753 111.961 36.4953 111.902 36.7006C111.858 36.8913 111.748 37.0453 111.572 37.1626C111.396 37.28 111.095 37.3386 110.67 37.3386C110.274 37.3386 109.981 37.28 109.79 37.1626C109.599 37.0453 109.475 36.8913 109.416 36.7006C109.372 36.4953 109.35 36.2606 109.35 35.9966V30.8486C109.35 30.5113 109.313 30.2106 109.24 29.9466C109.181 29.6826 109.071 29.47 108.91 29.3086C108.749 29.1473 108.529 29.0666 108.25 29.0666C107.825 29.0666 107.509 29.1913 107.304 29.4406C107.113 29.6753 106.981 29.932 106.908 30.2106L106.886 36.0406C106.886 36.2753 106.857 36.4953 106.798 36.7006C106.754 36.906 106.637 37.0673 106.446 37.1846C106.27 37.302 105.977 37.3606 105.566 37.3606ZM119.62 37.3166C119.268 37.3166 118.975 37.236 118.74 37.0746C118.505 36.8986 118.388 36.6713 118.388 36.3926L118.432 36.1506C118.344 36.312 118.212 36.488 118.036 36.6786C117.875 36.8546 117.655 37.0086 117.376 37.1406C117.097 37.258 116.738 37.3166 116.298 37.3166C115.785 37.3166 115.33 37.1846 114.934 36.9206C114.553 36.642 114.223 36.2606 113.944 35.7766C113.68 35.278 113.475 34.6986 113.328 34.0386C113.196 33.3786 113.13 32.6526 113.13 31.8606C113.13 31.098 113.196 30.394 113.328 29.7486C113.475 29.1033 113.68 28.5386 113.944 28.0546C114.223 27.5706 114.56 27.1966 114.956 26.9326C115.352 26.6686 115.799 26.5366 116.298 26.5366C116.665 26.5366 116.987 26.588 117.266 26.6906C117.559 26.7786 117.801 26.9033 117.992 27.0646C118.197 27.2113 118.344 27.38 118.432 27.5706L118.388 27.4386C118.447 27.1306 118.571 26.896 118.762 26.7346C118.953 26.5733 119.246 26.4926 119.642 26.4926C120.053 26.4926 120.346 26.5586 120.522 26.6906C120.698 26.808 120.808 26.9766 120.852 27.1966C120.911 27.402 120.94 27.6293 120.94 27.8786V35.9966C120.94 36.2313 120.911 36.4513 120.852 36.6566C120.808 36.862 120.691 37.0233 120.5 37.1406C120.324 37.258 120.031 37.3166 119.62 37.3166ZM117.024 34.7426C117.391 34.7426 117.662 34.6253 117.838 34.3906C118.014 34.156 118.124 33.826 118.168 33.4006C118.212 32.9606 118.234 32.462 118.234 31.9046C118.234 31.3473 118.205 30.856 118.146 30.4306C118.102 30.0053 117.992 29.6753 117.816 29.4406C117.64 29.1913 117.361 29.0666 116.98 29.0666C116.716 29.0666 116.489 29.184 116.298 29.4186C116.107 29.6533 115.961 29.9906 115.858 30.4306C115.77 30.856 115.726 31.3546 115.726 31.9266C115.726 32.4986 115.777 32.9973 115.88 33.4226C115.983 33.8333 116.129 34.156 116.32 34.3906C116.511 34.6253 116.745 34.7426 117.024 34.7426ZM124.149 37.3606C123.739 37.3606 123.438 37.2946 123.247 37.1626C123.071 37.0453 122.961 36.884 122.917 36.6786C122.873 36.4733 122.851 36.246 122.851 35.9966V27.8346C122.851 27.5706 122.873 27.3433 122.917 27.1526C122.976 26.9473 123.093 26.7933 123.269 26.6906C123.46 26.5733 123.761 26.5146 124.171 26.5146C124.567 26.5146 124.853 26.566 125.029 26.6686C125.22 26.7713 125.337 26.9033 125.381 27.0646C125.44 27.2113 125.469 27.358 125.469 27.5046L125.381 27.7906C125.44 27.6 125.521 27.424 125.623 27.2626C125.741 27.0866 125.873 26.9326 126.019 26.8006C126.166 26.6686 126.327 26.566 126.503 26.4926C126.679 26.4193 126.87 26.3826 127.075 26.3826C127.178 26.3826 127.288 26.3973 127.405 26.4266C127.537 26.4413 127.669 26.478 127.801 26.5366C127.933 26.5806 128.051 26.6466 128.153 26.7346C128.271 26.808 128.359 26.9106 128.417 27.0426C128.491 27.1746 128.527 27.3286 128.527 27.5046C128.527 27.974 128.439 28.3846 128.263 28.7366C128.087 29.074 127.838 29.2426 127.515 29.2426C127.383 29.2426 127.266 29.228 127.163 29.1986C127.075 29.1546 126.987 29.1106 126.899 29.0666C126.811 29.008 126.709 28.964 126.591 28.9346C126.489 28.9053 126.357 28.8906 126.195 28.8906C126.063 28.8906 125.953 28.92 125.865 28.9786C125.777 29.0226 125.704 29.096 125.645 29.1986C125.587 29.2866 125.543 29.3966 125.513 29.5286C125.499 29.646 125.491 29.778 125.491 29.9246V36.0406C125.491 36.29 125.462 36.5173 125.403 36.7226C125.359 36.9133 125.242 37.0673 125.051 37.1846C124.875 37.302 124.575 37.3606 124.149 37.3606ZM135.905 37.3166C135.553 37.3166 135.26 37.236 135.025 37.0746C134.791 36.8986 134.673 36.6713 134.673 36.3926L134.717 36.1506C134.629 36.312 134.497 36.488 134.321 36.6786C134.16 36.8546 133.94 37.0086 133.661 37.1406C133.383 37.258 133.023 37.3166 132.583 37.3166C132.07 37.3166 131.615 37.1846 131.219 36.9206C130.838 36.642 130.508 36.2606 130.229 35.7766C129.965 35.278 129.76 34.6986 129.613 34.0386C129.481 33.3786 129.415 32.6526 129.415 31.8606C129.415 31.098 129.481 30.394 129.613 29.7486C129.76 29.1033 129.965 28.5386 130.229 28.0546C130.508 27.5706 130.845 27.1966 131.241 26.9326C131.637 26.6686 132.085 26.5366 132.583 26.5366C132.95 26.5366 133.273 26.588 133.551 26.6906C133.845 26.7786 134.087 26.9033 134.277 27.0646C134.483 27.2113 134.629 27.38 134.717 27.5706L134.673 27.4386C134.732 27.1306 134.857 26.896 135.047 26.7346C135.238 26.5733 135.531 26.4926 135.927 26.4926C136.338 26.4926 136.631 26.5586 136.807 26.6906C136.983 26.808 137.093 26.9766 137.137 27.1966C137.196 27.402 137.225 27.6293 137.225 27.8786V35.9966C137.225 36.2313 137.196 36.4513 137.137 36.6566C137.093 36.862 136.976 37.0233 136.785 37.1406C136.609 37.258 136.316 37.3166 135.905 37.3166ZM133.309 34.7426C133.676 34.7426 133.947 34.6253 134.123 34.3906C134.299 34.156 134.409 33.826 134.453 33.4006C134.497 32.9606 134.519 32.462 134.519 31.9046C134.519 31.3473 134.49 30.856 134.431 30.4306C134.387 30.0053 134.277 29.6753 134.101 29.4406C133.925 29.1913 133.647 29.0666 133.265 29.0666C133.001 29.0666 132.774 29.184 132.583 29.4186C132.393 29.6533 132.246 29.9906 132.143 30.4306C132.055 30.856 132.011 31.3546 132.011 31.9266C132.011 32.4986 132.063 32.9973 132.165 33.4226C132.268 33.8333 132.415 34.156 132.605 34.3906C132.796 34.6253 133.031 34.7426 133.309 34.7426ZM142.788 37.4046C142.143 37.4046 141.564 37.28 141.05 37.0306C140.552 36.7666 140.126 36.3926 139.774 35.9086C139.422 35.4246 139.151 34.8453 138.96 34.1706C138.784 33.496 138.696 32.748 138.696 31.9266C138.696 31.1053 138.784 30.3646 138.96 29.7046C139.151 29.03 139.415 28.4506 139.752 27.9666C140.104 27.4826 140.53 27.1086 141.028 26.8446C141.527 26.5806 142.099 26.4486 142.744 26.4486C143.126 26.4486 143.47 26.5073 143.778 26.6246C144.101 26.7273 144.38 26.8593 144.614 27.0206C144.849 27.182 145.018 27.3506 145.12 27.5266C145.296 27.6586 145.458 27.82 145.604 28.0106C145.751 28.1866 145.802 28.3993 145.758 28.6486C145.729 28.7953 145.67 28.9273 145.582 29.0446C145.509 29.162 145.399 29.2866 145.252 29.4186C144.886 29.844 144.541 29.998 144.218 29.8806C144.057 29.7926 143.918 29.7046 143.8 29.6166C143.698 29.514 143.595 29.426 143.492 29.3526C143.404 29.2646 143.302 29.1986 143.184 29.1546C143.082 29.096 142.935 29.0666 142.744 29.0666C142.422 29.0666 142.158 29.1913 141.952 29.4406C141.747 29.6753 141.6 30.0053 141.512 30.4306C141.424 30.856 141.38 31.3546 141.38 31.9266C141.38 32.4986 141.424 32.9973 141.512 33.4226C141.6 33.848 141.74 34.1853 141.93 34.4346C142.136 34.6693 142.392 34.7866 142.7 34.7866C142.818 34.7866 142.928 34.7793 143.03 34.7646C143.148 34.7353 143.25 34.6913 143.338 34.6326C143.441 34.5593 143.529 34.4786 143.602 34.3906C143.72 34.3026 143.837 34.2146 143.954 34.1266C144.086 34.024 144.226 33.958 144.372 33.9286C144.548 33.87 144.724 33.914 144.9 34.0606C145.076 34.2073 145.267 34.4126 145.472 34.6766C145.648 34.8966 145.758 35.102 145.802 35.2926C145.861 35.4833 145.839 35.6666 145.736 35.8426C145.634 36.0186 145.428 36.2093 145.12 36.4146C145.003 36.5906 144.82 36.7593 144.57 36.9206C144.336 37.0673 144.064 37.1846 143.756 37.2726C143.448 37.3606 143.126 37.4046 142.788 37.4046ZM151.085 37.3606C150.542 37.3606 150.08 37.2873 149.699 37.1406C149.317 37.0086 149.002 36.8033 148.753 36.5246C148.503 36.246 148.32 35.9013 148.203 35.4906C148.085 35.08 148.027 34.6033 148.027 34.0606V24.1826C148.027 23.9186 148.049 23.6913 148.093 23.5006C148.151 23.31 148.269 23.1633 148.445 23.0606C148.621 22.9433 148.914 22.8846 149.325 22.8846C149.735 22.8846 150.029 22.9433 150.205 23.0606C150.395 23.178 150.513 23.3393 150.557 23.5446C150.615 23.7353 150.645 23.948 150.645 24.1826V33.8626C150.645 34.0533 150.652 34.2073 150.667 34.3246C150.681 34.442 150.711 34.5446 150.755 34.6326C150.799 34.706 150.85 34.7646 150.909 34.8086C150.982 34.838 151.077 34.8526 151.195 34.8526C151.4 34.8526 151.583 34.8746 151.745 34.9186C151.906 34.9626 152.038 35.0726 152.141 35.2486C152.243 35.41 152.295 35.6813 152.295 36.0626C152.295 36.4733 152.236 36.774 152.119 36.9646C152.001 37.1406 151.847 37.2506 151.657 37.2946C151.466 37.3386 151.275 37.3606 151.085 37.3606ZM147.741 26.7346L149.523 26.7566L151.195 26.6686C151.444 26.654 151.664 26.676 151.855 26.7346C152.06 26.7786 152.221 26.896 152.339 27.0866C152.456 27.2773 152.515 27.578 152.515 27.9886C152.515 28.37 152.463 28.656 152.361 28.8466C152.258 29.0373 152.119 29.162 151.943 29.2206C151.767 29.2646 151.554 29.2866 151.305 29.2866L149.523 29.2426L147.675 29.2646C147.308 29.2646 147.051 29.162 146.905 28.9566C146.773 28.7513 146.707 28.4213 146.707 27.9666C146.707 27.5413 146.787 27.226 146.949 27.0206C147.125 26.8153 147.389 26.72 147.741 26.7346ZM157.678 37.4926C156.9 37.4926 156.24 37.3386 155.698 37.0306C155.17 36.7226 154.752 36.3046 154.444 35.7766C154.136 35.234 153.908 34.6326 153.762 33.9726C153.63 33.298 153.564 32.6013 153.564 31.8826C153.564 30.8266 153.718 29.888 154.026 29.0666C154.348 28.2453 154.81 27.6 155.412 27.1306C156.013 26.6613 156.761 26.4266 157.656 26.4266C158.257 26.4266 158.77 26.5513 159.196 26.8006C159.636 27.05 159.995 27.38 160.274 27.7906C160.552 28.1866 160.758 28.6266 160.89 29.1106C161.022 29.5946 161.088 30.064 161.088 30.5186C161.088 31.296 160.919 31.8753 160.582 32.2566C160.259 32.638 159.812 32.8286 159.24 32.8286H156.27C156.255 33.3126 156.314 33.7306 156.446 34.0826C156.578 34.4346 156.754 34.706 156.974 34.8966C157.208 35.0726 157.472 35.1606 157.766 35.1606C158 35.1606 158.206 35.1386 158.382 35.0946C158.572 35.0506 158.734 34.9993 158.866 34.9406C158.998 34.882 159.115 34.816 159.218 34.7426C159.335 34.6693 159.445 34.6106 159.548 34.5666C159.665 34.5226 159.79 34.5006 159.922 34.5006C160.112 34.5006 160.274 34.5593 160.406 34.6766C160.538 34.794 160.655 34.9553 160.758 35.1606C160.846 35.3073 160.897 35.432 160.912 35.5346C160.941 35.6373 160.956 35.7546 160.956 35.8866C160.956 36.1506 160.794 36.4073 160.472 36.6566C160.164 36.906 159.76 37.104 159.262 37.2506C158.763 37.412 158.235 37.4926 157.678 37.4926ZM156.226 31.1566H158.074C158.323 31.1566 158.492 31.1273 158.58 31.0686C158.682 31.01 158.734 30.8413 158.734 30.5626C158.734 30.2253 158.69 29.9246 158.602 29.6606C158.528 29.3966 158.411 29.184 158.25 29.0226C158.088 28.8613 157.883 28.7806 157.634 28.7806C157.34 28.7806 157.084 28.8906 156.864 29.1106C156.644 29.316 156.482 29.602 156.38 29.9686C156.277 30.3206 156.226 30.7166 156.226 31.1566ZM163.917 37.3606C163.506 37.3606 163.206 37.2946 163.015 37.1626C162.839 37.0453 162.729 36.884 162.685 36.6786C162.641 36.4733 162.619 36.246 162.619 35.9966V27.8346C162.619 27.5706 162.641 27.3433 162.685 27.1526C162.744 26.9473 162.861 26.7933 163.037 26.6906C163.228 26.5733 163.528 26.5146 163.939 26.5146C164.335 26.5146 164.621 26.566 164.797 26.6686C164.988 26.7713 165.105 26.9033 165.149 27.0646C165.208 27.2113 165.237 27.358 165.237 27.5046L165.149 27.7906C165.208 27.6 165.288 27.424 165.391 27.2626C165.508 27.0866 165.64 26.9326 165.787 26.8006C165.934 26.6686 166.095 26.566 166.271 26.4926C166.447 26.4193 166.638 26.3826 166.843 26.3826C166.946 26.3826 167.056 26.3973 167.173 26.4266C167.305 26.4413 167.437 26.478 167.569 26.5366C167.701 26.5806 167.818 26.6466 167.921 26.7346C168.038 26.808 168.126 26.9106 168.185 27.0426C168.258 27.1746 168.295 27.3286 168.295 27.5046C168.295 27.974 168.207 28.3846 168.031 28.7366C167.855 29.074 167.606 29.2426 167.283 29.2426C167.151 29.2426 167.034 29.228 166.931 29.1986C166.843 29.1546 166.755 29.1106 166.667 29.0666C166.579 29.008 166.476 28.964 166.359 28.9346C166.256 28.9053 166.124 28.8906 165.963 28.8906C165.831 28.8906 165.721 28.92 165.633 28.9786C165.545 29.0226 165.472 29.096 165.413 29.1986C165.354 29.2866 165.31 29.3966 165.281 29.5286C165.266 29.646 165.259 29.778 165.259 29.9246V36.0406C165.259 36.29 165.23 36.5173 165.171 36.7226C165.127 36.9133 165.01 37.0673 164.819 37.1846C164.643 37.302 164.342 37.3606 163.917 37.3606ZM172.18 37.4926C171.916 37.4926 171.645 37.4633 171.366 37.4046C171.102 37.346 170.838 37.258 170.574 37.1406C170.325 37.038 170.09 36.9133 169.87 36.7666C169.665 36.6053 169.489 36.4293 169.342 36.2386C169.195 36.0626 169.1 35.9013 169.056 35.7546C169.012 35.5933 169.012 35.432 169.056 35.2706C169.115 35.0946 169.203 34.9186 169.32 34.7426C169.569 34.3906 169.804 34.1926 170.024 34.1486C170.259 34.09 170.523 34.2073 170.816 34.5006C170.904 34.6033 171.007 34.706 171.124 34.8086C171.241 34.9113 171.359 35.0066 171.476 35.0946C171.608 35.168 171.74 35.2266 171.872 35.2706C172.019 35.3146 172.173 35.3366 172.334 35.3366C172.657 35.3366 172.906 35.234 173.082 35.0286C173.273 34.8233 173.368 34.5593 173.368 34.2366C173.368 34.1193 173.331 34.002 173.258 33.8846C173.199 33.7526 173.111 33.6353 172.994 33.5326C172.877 33.43 172.745 33.3273 172.598 33.2246C172.451 33.122 172.29 33.0193 172.114 32.9166C171.938 32.814 171.755 32.7113 171.564 32.6086C171.212 32.3886 170.897 32.1686 170.618 31.9486C170.354 31.714 170.127 31.472 169.936 31.2226C169.76 30.9586 169.628 30.6726 169.54 30.3646C169.452 30.0566 169.408 29.712 169.408 29.3306C169.408 28.7733 169.533 28.2746 169.782 27.8346C170.046 27.3946 170.413 27.05 170.882 26.8006C171.351 26.5513 171.909 26.4266 172.554 26.4266C172.73 26.4266 172.913 26.4486 173.104 26.4926C173.295 26.522 173.485 26.5733 173.676 26.6466C173.881 26.7053 174.079 26.7933 174.27 26.9106C174.475 27.0133 174.666 27.1306 174.842 27.2626C175.165 27.4973 175.348 27.7393 175.392 27.9886C175.436 28.2233 175.348 28.502 175.128 28.8246C174.967 29.0446 174.791 29.1986 174.6 29.2866C174.424 29.3746 174.27 29.3673 174.138 29.2646C173.991 29.1913 173.83 29.096 173.654 28.9786C173.493 28.8466 173.317 28.7366 173.126 28.6486C172.95 28.546 172.752 28.4946 172.532 28.4946C172.371 28.4946 172.224 28.5313 172.092 28.6046C171.96 28.6633 171.857 28.7586 171.784 28.8906C171.711 29.008 171.674 29.1546 171.674 29.3306C171.674 29.5213 171.711 29.69 171.784 29.8366C171.857 29.9833 171.96 30.1226 172.092 30.2546C172.239 30.372 172.407 30.4893 172.598 30.6066C172.789 30.7093 172.994 30.8266 173.214 30.9586C173.537 31.12 173.845 31.3033 174.138 31.5086C174.431 31.714 174.695 31.9486 174.93 32.2126C175.165 32.462 175.348 32.7553 175.48 33.0926C175.612 33.43 175.678 33.8113 175.678 34.2366C175.678 35.2486 175.363 36.048 174.732 36.6346C174.101 37.2066 173.251 37.4926 172.18 37.4926Z" fill="white"/>
</g>
<defs>
<filter id="filter0_i_64_1356" x="-1" y="0" width="235" height="68" filterUnits="userSpaceOnUse" color-interpolation-filters="sRGB">
<feFlood flood-opacity="0" result="BackgroundImageFix"/>
<feBlend mode="normal" in="SourceGraphic" in2="BackgroundImageFix" result="shape"/>
<feColorMatrix in="SourceAlpha" type="matrix" values="0 0 0 0 0 0 0 0 0 0 0 0 0 0 0 0 0 0 127 0" result="hardAlpha"/>
<feOffset dx="-1"/>
<feGaussianBlur stdDeviation="5"/>
<feComposite in2="hardAlpha" operator="arithmetic" k2="-1" k3="1"/>
<feColorMatrix type="matrix" values="0 0 0 0 0.258333 0 0 0 0 0.258333 0 0 0 0 0.258333 0 0 0 0.6 0"/>
<feBlend mode="normal" in2="shape" result="effect1_innerShadow_64_1356"/>
</filter>
<filter id="filter1_d_64_1356" x="220.676" y="-1" width="52.4559" height="69" filterUnits="userSpaceOnUse" color-interpolation-filters="sRGB">
<feFlood flood-opacity="0" result="BackgroundImageFix"/>
<feColorMatrix in="SourceAlpha" type="matrix" values="0 0 0 0 0 0 0 0 0 0 0 0 0 0 0 0 0 0 127 0" result="hardAlpha"/>
<feMorphology radius="1" operator="dilate" in="SourceAlpha" result="effect1_dropShadow_64_1356"/>
<feOffset/>
<feGaussianBlur stdDeviation="1"/>
<feColorMatrix type="matrix" values="0 0 0 0 0 0 0 0 0 0 0 0 0 0 0 0 0 0 1 0"/>
<feBlend mode="normal" in2="BackgroundImageFix" result="effect1_dropShadow_64_1356"/>
<feBlend mode="normal" in="SourceGraphic" in2="effect1_dropShadow_64_1356" result="shape"/>
</filter>
<filter id="filter2_d_64_1356" x="-39.1323" y="2" width="49.0147" height="69" filterUnits="userSpaceOnUse" color-interpolation-filters="sRGB">
<feFlood flood-opacity="0" result="BackgroundImageFix"/>
<feColorMatrix in="SourceAlpha" type="matrix" values="0 0 0 0 0 0 0 0 0 0 0 0 0 0 0 0 0 0 127 0" result="hardAlpha"/>
<feMorphology radius="1" operator="dilate" in="SourceAlpha" result="effect1_dropShadow_64_1356"/>
<feOffset/>
<feGaussianBlur stdDeviation="1"/>
<feColorMatrix type="matrix" values="0 0 0 0 0 0 0 0 0 0 0 0 0 0 0 0 0 0 1 0"/>
<feBlend mode="normal" in2="BackgroundImageFix" result="effect1_dropShadow_64_1356"/>
<feBlend mode="normal" in="SourceGraphic" in2="effect1_dropShadow_64_1356" result="shape"/>
</filter>
<filter id="filter3_d_64_1356" x="22.6298" y="11.5645" width="163.048" height="35.9277" filterUnits="userSpaceOnUse" color-interpolation-filters="sRGB">
<feFlood flood-opacity="0" result="BackgroundImageFix"/>
<feColorMatrix in="SourceAlpha" type="matrix" values="0 0 0 0 0 0 0 0 0 0 0 0 0 0 0 0 0 0 127 0" result="hardAlpha"/>
<feOffset/>
<feGaussianBlur stdDeviation="5"/>
<feColorMatrix type="matrix" values="0 0 0 0 0.466667 0 0 0 0 0.466667 0 0 0 0 0.466667 0 0 0 0.25 0"/>
<feBlend mode="normal" in2="BackgroundImageFix" result="effect1_dropShadow_64_1356"/>
<feBlend mode="normal" in="SourceGraphic" in2="effect1_dropShadow_64_1356" result="shape"/>
</filter>
<linearGradient id="paint0_linear_64_1356" x1="17.2059" y1="29.0182" x2="216.794" y2="29.0182" gradientUnits="userSpaceOnUse">
<stop stop-opacity="0.4"/>
<stop offset="0.0625" stop-color="#C5C5C5" stop-opacity="0.44375"/>
<stop offset="0.5" stop-color="white" stop-opacity="0.75"/>
<stop offset="1" stop-color="white"/>
</linearGradient>
<linearGradient id="paint1_linear_64_1356" x1="17.2059" y1="29.0182" x2="216.794" y2="29.0182" gradientUnits="userSpaceOnUse">
<stop stop-color="white" stop-opacity="0.56"/>
<stop offset="0.51098" stop-color="white" stop-opacity="0"/>
<stop offset="1" stop-color="white" stop-opacity="0.14"/>
</linearGradient>
<linearGradient id="paint2_linear_64_1356" x1="211.632" y1="63" x2="220.646" y2="49.9398" gradientUnits="userSpaceOnUse">
<stop stop-color="white" stop-opacity="0.2"/>
<stop offset="0.5" stop-color="white" stop-opacity="0.3"/>
<stop offset="1" stop-color="white" stop-opacity="0"/>
</linearGradient>
<linearGradient id="paint3_linear_64_1356" x1="21.5074" y1="63" x2="11.4204" y2="49.9834" gradientUnits="userSpaceOnUse">
<stop stop-color="white" stop-opacity="0.2"/>
<stop offset="0.5" stop-color="white" stop-opacity="0.5"/>
<stop offset="1" stop-color="white" stop-opacity="0.7"/>
</linearGradient>
<linearGradient id="paint4_linear_64_1356" x1="211.632" y1="2" x2="214.91" y2="14.4068" gradientUnits="userSpaceOnUse">
<stop stop-color="white" stop-opacity="0.15"/>
<stop offset="0.505208" stop-color="white" stop-opacity="0.5"/>
<stop offset="1" stop-color="white" stop-opacity="0"/>
</linearGradient>
<linearGradient id="paint5_linear_64_1356" x1="22.3676" y1="2" x2="19.09" y2="14.4068" gradientUnits="userSpaceOnUse">
<stop stop-color="white" stop-opacity="0.15"/>
<stop offset="0.494792" stop-color="white" stop-opacity="0.5"/>
<stop offset="1" stop-color="white" stop-opacity="0.7"/>
</linearGradient>
</defs>
</svg>
