<svg width="277" height="138" viewBox="0 0 277 138" fill="none" xmlns="http://www.w3.org/2000/svg">
<path d="M-35.921 97.1569C-35.5634 92.8236 -34.0012 88.4903 -31.0462 84.4147C-30.4815 83.6254 -18.2287 73.8633 -17.137 76.779C-22.3882 62.5709 -22.2377 46.768 -15.5748 33.0109C-8.91195 19.2377 4.4514 7.752 20.9203 2.9193C32.2321 -0.399151 44.5226 -0.560241 56.3803 0.809024C86.3254 4.27246 116.572 19.8499 124.985 44.6899C131.516 37.5859 144.955 36.8932 153.519 42.193C162.082 47.4929 165.696 57.3999 164.04 66.3404C169.724 57.4482 175.54 48.4111 183.991 41.307C194.794 32.2216 211.207 28.887 225.549 33.0592C239.929 37.2315 252.389 48.6527 256.454 61.2016C259.691 71.1892 257.527 82.6427 249.509 90.4233C255.024 87.0888 262.816 86.831 268.632 89.7629C286.832 98.9772 271.455 118.099 259.221 125.332C248.154 131.872 234.96 132.774 221.916 132.806C211.903 132.822 200.497 131.453 194.832 124.381C188.226 130.551 178.1 133.805 168.388 132.887C158.676 131.968 149.623 126.878 144.748 119.629C128.053 132.742 104.225 137.123 81.5636 137.043C65.2452 136.994 47.2141 134.079 37.2387 122.996C23.6871 127.249 9.34502 131.018 -4.95941 129.407C-22.7647 127.377 -37.2008 112.573 -35.921 97.1569Z" fill="white"/>
</svg>
