<svg width="60" height="60" viewBox="0 0 60 60" fill="none" xmlns="http://www.w3.org/2000/svg">
<g clip-path="url(#clip0_114_1757)">
<path d="M22.9688 26.4844L30 24.7266L26.754 21.2109L22.9688 19.4531C21.998 19.4531 19.4531 21.998 19.4531 22.9688C19.4531 23.9395 21.998 26.4844 22.9688 26.4844Z" fill="white"/>
<path d="M37.0312 26.4844L30 24.7266L33.246 21.2109L37.0312 19.4531C38.002 19.4531 40.5469 21.998 40.5469 22.9688C40.5469 23.9395 38.002 26.4844 37.0312 26.4844Z" fill="white"/>
<path d="M30 24.7266L33.5156 33.5157L30 40.9688C29.0507 41.7773 27.8203 42.3047 26.4844 42.3047H20.8944C17.5195 42.3047 14.2148 41.0391 11.7186 38.7891H5.39062C4.40613 38.7891 3.51562 38.0155 3.51562 37.0313V28.2422C3.51562 26.3005 5.20676 24.7266 7.14844 24.7266H11.6835L19.9805 16.4648C20.6484 15.7617 21.7732 15.7617 22.4413 16.4648L26.754 21.211H22.9688C21.9843 21.211 21.2109 21.9843 21.2109 22.9688C21.2109 23.953 21.9843 24.7266 22.9688 24.7266H30Z" fill="#222443"/>
<path d="M52.8516 24.7266C54.7932 24.7266 56.4844 26.3005 56.4844 28.2422V37.0313C56.4844 38.0155 55.5939 38.7891 54.6094 38.7891H48.2812C45.785 41.0391 42.4804 42.3047 39.1055 42.3047H33.5156C32.1797 42.3047 30.9493 41.7773 30 40.9688V24.7266H37.0312C38.0157 24.7266 38.7891 23.953 38.7891 22.9688C38.7891 21.9843 38.0157 21.211 37.0312 21.211H33.246L37.5586 16.4648C38.2266 15.7617 39.3513 15.7617 40.0194 16.4648L48.3165 24.7266H52.8516Z" fill="#222443"/>
<path d="M30 10.6641C29.0284 10.6641 28.2422 9.87785 28.2422 8.90625V5.39062C28.2422 4.41902 29.0284 3.63281 30 3.63281C30.9716 3.63281 31.7578 4.41902 31.7578 5.39062V8.90625C31.7578 9.87785 30.9716 10.6641 30 10.6641Z" fill="#D7F6FF"/>
<path d="M30 56.3672C29.0284 56.3672 28.2422 55.581 28.2422 54.6094V51.0938C28.2422 50.1221 29.0284 49.3359 30 49.3359C30.9716 49.3359 31.7578 50.1221 31.7578 51.0938V54.6094C31.7578 55.581 30.9716 56.3672 30 56.3672Z" fill="#D7F6FF"/>
<path d="M20.3324 13.2537C19.4875 13.7387 18.4115 13.4482 17.9325 12.61L16.1747 9.5664C15.6872 8.72523 15.9756 7.65062 16.8167 7.16488C17.6544 6.68254 18.7325 6.96402 19.2166 7.80859L20.9744 10.8522C21.4619 11.6934 21.1735 12.768 20.3324 13.2537Z" fill="#FFD358"/>
<path d="M40.784 52.1893L39.0262 49.1457C38.5387 48.3045 38.8271 47.2299 39.6683 46.7442C40.5095 46.2601 41.5841 46.5416 42.0682 47.3879L43.826 50.4315C44.3135 51.2726 44.0251 52.3473 43.1839 52.833C42.339 53.318 41.2631 53.0276 40.784 52.1893Z" fill="#FFD358"/>
<path d="M39.6683 13.2549C38.8271 12.7691 38.5387 11.6946 39.0262 10.8534L40.784 7.80982C41.2681 6.96701 42.3461 6.68892 43.1839 7.16611C44.0251 7.65197 44.3135 8.72646 43.826 9.56763L42.0682 12.6112C41.5896 13.4486 40.5143 13.7407 39.6683 13.2549Z" fill="#FFD358"/>
<path d="M16.8167 52.8342C15.9756 52.3484 15.6872 51.2739 16.1747 50.4327L17.9325 47.3891C18.4166 46.5445 19.498 46.2665 20.3324 46.7454C21.1735 47.2313 21.4619 48.3058 20.9744 49.1469L19.2166 52.1905C18.738 53.0278 17.6627 53.3199 16.8167 52.8342Z" fill="#FFD358"/>
<path d="M7.14844 40.5469C7.14844 41.5185 6.36223 42.3047 5.39062 42.3047H1.75781C0.786211 42.3047 0 41.5185 0 40.5469V26.4844C0 25.5128 0.786211 24.7266 1.75781 24.7266H7.14844V40.5469Z" fill="#AED032"/>
<path d="M60 40.5469C60 41.5185 59.2138 42.3047 58.2422 42.3047H54.6094C53.6378 42.3047 52.8516 41.5185 52.8516 40.5469V24.7266H58.2422C59.2138 24.7266 60 25.5128 60 26.4844V40.5469Z" fill="#F73B50"/>
<path d="M31.7578 8.90625V5.39062C31.7578 4.41902 30.9716 3.63281 30 3.63281V10.6641C30.9716 10.6641 31.7578 9.87785 31.7578 8.90625Z" fill="#D7F6FF"/>
<path d="M31.7578 54.6094V51.0938C31.7578 50.1221 30.9716 49.3359 30 49.3359V56.3672C30.9716 56.3672 31.7578 55.581 31.7578 54.6094Z" fill="#D7F6FF"/>
</g>
<defs>
<clipPath id="clip0_114_1757">
<rect width="60" height="60" fill="white"/>
</clipPath>
</defs>
</svg>
