<svg width="56" height="56" viewBox="0 0 56 56" fill="none" xmlns="http://www.w3.org/2000/svg">
<g clip-path="url(#clip0_114_1863)">
<path d="M36.5737 54.4732C35.0057 53.1527 33.4306 51.5737 31.9068 49.8236C30.55 48.2653 29.234 46.5712 28 44.8034L41.2526 31.5508C43.4685 33.0973 45.5682 34.773 47.4304 36.4961C48.7224 37.6916 49.8999 38.9102 50.9225 40.1245C52.3592 41.8305 52.2475 44.3532 50.6703 45.9304L42.3796 54.221C40.8025 55.798 38.2797 55.9098 36.5737 54.4732Z" fill="#222443"/>
<path d="M47.4303 36.4961C45.5681 34.773 43.4685 33.0973 41.2525 31.5508L28 44.8033C29.234 46.5711 30.55 48.2653 31.9068 49.8235C32.2322 50.1973 32.5602 50.5613 32.8896 50.9185C35.0987 50.4269 37.216 49.5146 39.2168 48.1864C41.6882 46.5459 44.2426 44.325 46.2252 42.0934C47.4194 40.7491 48.385 39.4252 49.1148 38.137C48.579 37.5871 48.0172 37.0391 47.4303 36.4961Z" fill="white"/>
<path d="M45.6503 29.6162C44.2545 28.2205 41.9917 28.2205 40.596 29.6162C41.9917 28.2205 41.9917 25.9576 40.596 24.5619C39.2002 23.1661 36.9374 23.1661 35.5416 24.5619C36.9374 23.1661 36.9374 20.9033 35.5416 19.5075C34.1459 18.1118 31.883 18.1118 30.4873 19.5075C31.883 18.1118 31.883 15.8489 30.4873 14.4532C28.7696 12.7355 26.6843 13.2518 24.4813 14.6845C23.3562 15.4163 22.2003 16.387 21.0469 17.4212C22.0653 22.6551 17.1453 24.2713 15.2036 23.0672C13.1768 26.1201 12.4879 29.3424 12.7555 32.3957C12.8075 32.9888 12.5668 33.5687 12.1018 33.9402C10.9833 34.8339 9.91605 35.7533 8.91953 36.6858C7.70733 37.82 6.59958 38.9734 5.63128 40.1233C4.19453 41.8293 4.30631 44.3521 5.8835 45.9293L14.1741 54.2199C15.7568 55.8025 18.2845 55.9017 19.9956 54.459C21.1768 53.463 22.3617 52.32 23.5256 51.068C24.4207 50.105 25.3035 49.0775 26.1624 48.0025C26.5343 47.5371 27.1142 47.2959 27.7075 47.3479C30.7608 47.6156 33.9831 46.9265 37.0361 44.8998C38.9548 43.626 41.3394 41.6546 43.2772 39.4732C44.6376 37.9419 45.7777 36.3073 46.3821 34.7382C47.1157 32.8339 47.0599 31.0259 45.6503 29.6162Z" fill="#222443"/>
<path d="M21.4417 21.6585L20.7107 20.9648C19.5598 23.3363 16.6055 23.9377 15.2036 23.0682C13.1768 26.1212 12.4879 29.3435 12.7555 32.3968C12.8075 32.9899 12.5668 33.5698 12.1018 33.9413C10.9833 34.835 9.91616 35.7544 8.91953 36.6868C7.70733 37.8211 6.59958 38.9746 5.63128 40.1244C4.19453 41.8304 4.30631 44.3532 5.8835 45.9302L14.1741 54.2209C15.7568 55.8035 18.2845 55.9027 19.9956 54.46C21.1768 53.464 22.3617 52.321 23.5256 51.069C24.4207 50.106 25.3035 49.0785 26.1624 48.0034C26.5343 47.5382 27.1142 47.2969 27.7075 47.3488C28.2173 47.3936 28.7319 47.4108 29.2496 47.4005C22.0484 44.4251 18.2364 29.7924 21.4417 21.6585Z" fill="#222443"/>
<path d="M7.67114 28.3645C6.44035 29.5953 6.44035 31.5907 7.67114 32.8215L9.0753 34.2257C10.3061 35.4565 12.3015 35.4565 13.5323 34.2257C14.7631 32.9949 14.7631 30.9995 13.5323 29.7687L12.1282 28.3645C10.8975 27.1337 8.90194 27.1337 7.67114 28.3645Z" fill="white"/>
<path d="M11.4876 23.2668C10.2568 24.4976 10.2568 26.4931 11.4876 27.7239L12.8917 29.128C14.1225 30.3588 16.1179 30.3588 17.3487 29.128C18.5795 27.8972 18.5795 25.9018 17.3487 24.671L15.9446 23.2668C14.7138 22.0361 12.7183 22.0361 11.4876 23.2668Z" fill="white"/>
<path d="M15.9446 18.8098C14.7138 20.0406 14.7138 22.0361 15.9446 23.2668L17.3487 24.671C18.5795 25.9018 20.575 25.9018 21.8058 24.671C23.0366 23.4402 23.0366 21.4448 21.8058 20.214L20.4016 18.8098C19.1708 17.579 17.1754 17.579 15.9446 18.8098Z" fill="white"/>
<path d="M20.4016 14.3528C19.1708 15.5836 19.1708 17.579 20.4016 18.8098L21.8058 20.214C23.0366 21.4448 25.032 21.4448 26.2628 20.214C27.4936 18.9832 27.4936 16.9877 26.2628 15.7569L24.8586 14.3528C23.6278 13.122 21.6324 13.122 20.4016 14.3528Z" fill="white"/>
<path d="M11.8629 2.84189C11.3279 2.40242 10.6461 1.98636 10.0018 1.66206C9.13384 1.225 8.08329 1.76028 7.92667 2.71939C7.81062 3.43 7.74642 4.2245 7.78711 4.91477C7.80023 5.13767 7.69468 5.35259 7.50656 5.4728C6.92261 5.84587 6.31525 6.3665 5.80698 6.87969C5.12306 7.57017 5.30747 8.73458 6.17131 9.17995C6.81345 9.51103 7.55206 9.81859 8.22286 9.99294C8.43723 10.0486 8.60425 10.2157 8.66003 10.43C8.83437 11.1008 9.14194 11.8394 9.4729 12.4815C9.91828 13.3454 11.0827 13.5298 11.7733 12.8459C12.2865 12.3376 12.8071 11.7302 13.1802 11.1463C13.3004 10.9582 13.5153 10.8526 13.7382 10.8657C14.4284 10.9064 15.223 10.8422 15.9336 10.7262C16.8927 10.5696 17.428 9.51912 16.9909 8.65102C16.6665 8.0068 16.2505 7.32495 15.8111 6.79C15.6699 6.61806 15.6324 6.38105 15.7135 6.17389C15.9662 5.52934 16.1511 4.75223 16.2605 4.03933C16.4079 3.07869 15.5743 2.24503 14.6136 2.39247C13.9007 2.50184 13.1236 2.6868 12.4791 2.93945C12.2717 3.02072 12.0347 2.98309 11.8629 2.84189Z" fill="#FFD358"/>
<path d="M17.143 9.27866C11.0899 9.90701 8.75125 4.61173 9.27133 1.51172C8.62656 1.55066 8.04042 2.02152 7.92667 2.71845C7.81062 3.42906 7.74642 4.22356 7.78711 4.91383C7.80023 5.13673 7.69468 5.35166 7.50656 5.47186C6.92261 5.84494 6.31525 6.36556 5.80698 6.87875C5.12306 7.56923 5.30747 8.73375 6.17131 9.17913C6.81345 9.5102 7.55206 9.81777 8.22286 9.992C8.43723 10.0477 8.60425 10.2148 8.66003 10.4291C8.83437 11.0999 9.14194 11.8385 9.47301 12.4806C9.91839 13.3445 11.0828 13.5289 11.7733 12.8449C12.2865 12.3367 12.8071 11.7293 13.1802 11.1454C13.3004 10.9572 13.5153 10.8517 13.7382 10.8648C14.4284 10.9054 15.223 10.8413 15.9336 10.7253C16.6669 10.6054 17.1507 9.96269 17.143 9.27866Z" fill="#FFD358"/>
<path d="M28.0007 8.14494C26.5797 8.14494 25.4277 6.993 25.4277 5.572V3.09247C25.4277 1.67147 26.5797 0.519531 28.0007 0.519531C29.4217 0.519531 30.5736 1.67147 30.5736 3.09247V5.572C30.5736 6.99289 29.4217 8.14494 28.0007 8.14494Z" fill="#AED032"/>
<path d="M30.4525 6.35225C28.4522 5.82605 26.5664 2.9905 27.3374 0.605469C26.238 0.898047 25.4277 1.90014 25.4277 3.09167V5.5712C25.4277 6.9922 26.5797 8.14414 28.0007 8.14414C29.1493 8.14425 30.1218 7.39131 30.4525 6.35225Z" fill="#AED032"/>
<path d="M4.96573 21.6577H2.57294C1.15194 21.6577 0 20.5057 0 19.0847C0 17.6637 1.15194 16.5117 2.57294 16.5117H4.96563C6.38663 16.5117 7.53856 17.6637 7.53856 19.0847C7.53856 20.5057 6.38673 21.6577 4.96573 21.6577Z" fill="#D7F6FF"/>
<path d="M3.55797 16.5117H2.57294C1.15194 16.5117 0 17.6637 0 19.0847C0 20.5057 1.15194 21.6576 2.57294 21.6576H4.96563C5.22638 21.6576 5.47794 21.6184 5.71517 21.5464C4.2817 20.824 2.88258 18.4652 3.55797 16.5117Z" fill="#D7F6FF"/>
<path d="M44.1377 2.84189C44.6726 2.40242 45.3545 1.98636 45.9987 1.66206C46.8667 1.225 47.9172 1.76028 48.0739 2.71939C48.1899 3.43 48.2541 4.2245 48.2134 4.91477C48.2003 5.13767 48.3058 5.35259 48.494 5.4728C49.0779 5.84587 49.6853 6.3665 50.1935 6.87969C50.8775 7.57017 50.6931 8.73458 49.8292 9.17995C49.1872 9.51103 48.4485 9.81859 47.7777 9.99294C47.5633 10.0486 47.3963 10.2157 47.3405 10.43C47.1662 11.1008 46.8586 11.8394 46.5276 12.4815C46.0823 13.3454 44.9178 13.5298 44.2274 12.8459C43.7142 12.3376 43.1935 11.7302 42.8205 11.1463C42.7003 10.9582 42.4853 10.8526 42.2624 10.8657C41.5722 10.9064 40.7777 10.8422 40.0671 10.7262C39.1078 10.5696 38.5727 9.51912 39.0097 8.65102C39.3341 8.0068 39.7501 7.32495 40.1896 6.79C40.3308 6.61806 40.3683 6.38105 40.2871 6.17389C40.0345 5.52934 39.8495 4.75223 39.7401 4.03933C39.5927 3.07869 40.4264 2.24503 41.387 2.39247C42.0999 2.50184 42.877 2.6868 43.5216 2.93945C43.7287 3.02072 43.9657 2.98309 44.1377 2.84189Z" fill="#FFD358"/>
<path d="M46.5276 12.4811C46.8587 11.8389 47.1663 11.1003 47.3405 10.4295C47.3962 10.2153 47.5633 10.0481 47.7777 9.99247C48.3455 9.84492 48.9615 9.60145 49.5269 9.32944C44.8156 9.33742 42.6519 5.53751 42.5413 2.62814C42.1579 2.52926 41.7637 2.44986 41.387 2.392C40.4263 2.24456 39.5927 3.07822 39.7401 4.03886C39.8495 4.75176 40.0345 5.52887 40.2871 6.17342C40.3683 6.38058 40.3308 6.61759 40.1895 6.78942C39.7501 7.32437 39.334 8.00622 39.0097 8.65044C38.5727 9.51844 39.1079 10.569 40.067 10.7256C40.7777 10.8417 41.5722 10.9059 42.2624 10.8652C42.4853 10.852 42.7002 10.9576 42.8205 11.1457C43.1935 11.7297 43.7142 12.337 44.2273 12.8453C44.9178 13.5293 46.0822 13.3449 46.5276 12.4811Z" fill="#FFD358"/>
<path d="M53.4266 21.6576H51.0339C49.6129 21.6576 48.4609 20.5057 48.4609 19.0847C48.4609 17.6637 49.6129 16.5117 51.0339 16.5117H53.4266C54.8476 16.5117 55.9995 17.6637 55.9995 19.0847C55.9995 20.5057 54.8476 21.6576 53.4266 21.6576Z" fill="#F73B50"/>
<path d="M52.0189 16.5117H51.0339C49.6129 16.5117 48.4609 17.6637 48.4609 19.0847C48.4609 20.5057 49.6129 21.6576 51.0339 21.6576H53.4266C53.6873 21.6576 53.9389 21.6184 54.1761 21.5464C52.7426 20.824 51.3435 18.4652 52.0189 16.5117Z" fill="#F73B50"/>
</g>
<defs>
<clipPath id="clip0_114_1863">
<rect width="56" height="56" fill="white"/>
</clipPath>
</defs>
</svg>
