<svg width="56" height="56" viewBox="0 0 56 56" fill="none" xmlns="http://www.w3.org/2000/svg">
<g clip-path="url(#clip0_114_1431)">
<path d="M22.2602 23.9774C20.4674 24.2485 18.8023 23.1329 18.5411 21.4853L17.0913 11.7842C16.8302 10.1368 18.0719 8.58128 19.8647 8.31013C21.6575 8.03898 23.3225 9.15464 23.5836 10.8022L25.0335 20.5032C25.2947 22.1507 24.053 23.7061 22.2602 23.9774Z" fill="#D7F6FF"/>
<path d="M41.1948 24.6251C42.9719 24.793 44.5745 23.6021 44.7744 21.9651L45.8645 12.3309C46.0644 10.6938 44.7856 9.23068 43.0086 9.06266C41.2315 8.89475 39.6289 10.0857 39.429 11.7227L38.3389 21.3569C38.1391 22.9939 39.4178 24.4571 41.1948 24.6251Z" fill="#F73B50"/>
<path d="M49.355 30.5499C50.9842 30.9239 52.5515 30.153 52.8557 28.8279L54.5666 21.0184C54.8708 19.6934 53.7967 18.3161 52.1675 17.9421C50.5383 17.568 48.971 18.3389 48.6668 19.664L46.9558 27.4735C46.6517 28.7985 47.7258 30.1758 49.355 30.5499Z" fill="#AED032"/>
<path d="M32.2099 21.3023C30.3966 21.3294 28.9047 19.8814 28.8776 18.0681L28.6039 6.96941C28.5768 5.15611 30.0247 3.6642 31.838 3.63709C33.6513 3.60999 35.1433 5.05794 35.1704 6.87124L35.444 17.97C35.471 19.7833 34.0231 21.2752 32.2099 21.3023Z" fill="#FFD358"/>
<path d="M36.3538 55.0145L23.8655 54.1442C20.4219 53.9042 17.8468 50.5976 17.6631 46.6173C17.6099 45.4629 18.2832 44.399 19.3342 43.9184C20.5887 43.3448 36.9649 51.8604 37.7135 41.1296C37.8992 38.4686 31.1261 36.4243 29.0348 36.1107C23.8287 35.3297 21.4575 31.5254 26.3474 29.707L39.1592 30.7526C42.8918 31.0573 45.6303 34.9871 45.2738 39.5273L44.7468 46.2373C44.3418 51.3956 40.5985 55.3103 36.3538 55.0145Z" fill="#222443"/>
<path d="M16.9674 36.0524L15.5575 37.5413C14.3086 38.86 12.2272 38.9168 10.9084 37.668L6.86722 33.8411C5.54851 32.5923 5.49177 30.5109 6.74052 29.1921L8.15046 27.7031C9.39932 26.3844 11.4807 26.3277 12.7994 27.5766L16.8406 31.4033C18.1594 32.6522 18.2162 34.7337 16.9674 36.0524Z" fill="#AED032"/>
<path d="M4.74328 7.89332L5.73565 10.6838C5.77817 10.8032 5.86224 10.898 5.96834 10.9458L8.44755 12.0628C8.79781 12.2205 8.79781 12.7786 8.44755 12.9365L5.96834 14.0534C5.86213 14.1013 5.77806 14.1959 5.73565 14.3155L4.74328 17.1059C4.60313 17.5001 4.10722 17.5001 3.96708 17.1059L2.97471 14.3155C2.93218 14.1959 2.84811 14.1013 2.7419 14.0534L0.262691 12.9365C-0.0875635 12.7787 -0.0875635 12.2206 0.262691 12.0628L2.7419 10.9458C2.84811 10.898 2.93218 10.8033 2.97471 10.6838L3.96708 7.89332C4.10733 7.4991 4.60313 7.4991 4.74328 7.89332Z" fill="#FFD358"/>
<path d="M53.0575 1.18814L53.7936 3.25804C53.8251 3.34663 53.8875 3.41692 53.9663 3.4524L55.8053 4.28093C56.0651 4.39794 56.0651 4.81199 55.8053 4.929L53.9663 5.75753C53.8875 5.79301 53.8251 5.86319 53.7936 5.95188L53.0575 8.02179C52.9535 8.3142 52.5857 8.3142 52.4817 8.02179L51.7456 5.95188C51.7141 5.8633 51.6517 5.79301 51.573 5.75753L49.7339 4.929C49.4741 4.81199 49.4741 4.39794 49.7339 4.28093L51.573 3.4524C51.6518 3.41692 51.7141 3.34674 51.7456 3.25804L52.4817 1.18814C52.5856 0.89562 52.9535 0.89562 53.0575 1.18814Z" fill="#FFD358"/>
<path d="M55.7649 43.5201C56.0385 42.3626 55.322 41.2026 54.1646 40.929C53.0072 40.6554 51.8471 41.3719 51.5735 42.5293C51.2999 43.6867 52.0164 44.8468 53.1738 45.1204C54.3313 45.394 55.4913 44.6775 55.7649 43.5201Z" fill="#FFD358"/>
<path d="M11.4291 5.34653C11.9423 5.34653 12.3583 4.93055 12.3583 4.41741C12.3583 3.90427 11.9423 3.48828 11.4291 3.48828C10.916 3.48828 10.5 3.90427 10.5 4.41741C10.5 4.93055 10.916 5.34653 11.4291 5.34653Z" fill="#FFD358"/>
</g>
<defs>
<clipPath id="clip0_114_1431">
<rect width="56" height="56" fill="white"/>
</clipPath>
</defs>
</svg>
