<svg width="64" height="64" viewBox="0 0 64 64" fill="none" xmlns="http://www.w3.org/2000/svg">
<g clip-path="url(#clip0_3_23737)">
<path d="M34.934 24.1797L37.5798 29.7518C37.8543 30.351 38.41 30.7735 39.0609 30.8778L44.9297 31.7645C45.6915 31.9158 46.3084 32.4737 46.5352 33.2165C46.762 33.9593 46.5619 34.7666 46.0145 35.3176L41.8007 39.5843C41.3246 40.075 41.1109 40.7633 41.2251 41.4374L42.2284 47.4918C42.39 48.2423 42.1062 49.019 41.4988 49.4884C40.8913 49.9579 40.0682 50.0367 39.3827 49.6911L34.0796 46.7943C33.5151 46.4843 32.8313 46.4843 32.2668 46.7943L26.9646 49.692C26.2789 50.0383 25.4551 49.9597 24.8473 49.4899C24.2394 49.0201 23.9557 48.2427 24.118 47.4918L25.1168 41.4374C25.2311 40.7633 25.0173 40.075 24.5412 39.5843L20.3274 35.3176C19.78 34.7666 19.58 33.9593 19.8068 33.2165C20.0336 32.4737 20.6505 31.9158 21.4123 31.7645L27.2811 30.8778C27.9319 30.7735 28.4877 30.351 28.7622 29.7518L31.4079 24.1797C31.7147 23.4796 32.4066 23.0273 33.171 23.0273C33.9353 23.0273 34.6273 23.4796 34.934 24.1797Z" fill="#FFD358"/>
<path d="M41.8059 39.5824C41.3292 40.0741 41.1131 40.7623 41.2231 41.4383L42.2273 47.49C42.3889 48.2419 42.1046 49.0199 41.4962 49.4905C40.8879 49.9611 40.0635 50.0408 39.3762 49.6955L34.0776 46.7943C33.5124 46.4895 32.8318 46.4895 32.2666 46.7943L26.968 49.6991C26.2807 50.0444 25.4563 49.9647 24.848 49.4941C24.2396 49.0235 23.9554 48.2455 24.1169 47.4936L24.3411 46.1577C37.6549 38.1067 35.5838 27.1957 34.3735 23.457C34.6101 23.6551 34.8 23.9031 34.9293 24.1832L37.5742 29.7598C37.8563 30.355 38.4125 30.7738 39.0625 30.8805L44.9259 31.7681C45.6873 31.9188 46.3041 32.4762 46.5309 33.2185C46.7578 33.9609 46.5579 34.7678 46.0107 35.3184L41.8059 39.5824Z" fill="#FFD358"/>
<path d="M19.3377 6.91885L21.4544 11.381C21.6757 11.8581 22.1195 12.1941 22.6388 12.2775L27.3331 12.9867C27.9425 13.1076 28.436 13.5538 28.6176 14.1479C28.7992 14.742 28.6395 15.3878 28.2019 15.8288L24.8344 19.2411C24.4536 19.6338 24.2828 20.1846 24.3745 20.724L25.1733 25.5653C25.302 26.1655 25.0747 26.7863 24.589 27.1616C24.1033 27.5369 23.4453 27.6002 22.897 27.3244L18.6545 25.0086C18.2034 24.7594 17.6559 24.7594 17.2048 25.0086L12.9632 27.3262C12.4149 27.602 11.7569 27.5387 11.2712 27.1634C10.7855 26.7881 10.5582 26.1673 10.6869 25.5671L11.4857 20.7258C11.5774 20.1864 11.4066 19.6356 11.0257 19.2429L7.6574 15.8288C7.2198 15.3878 7.06007 14.742 7.24168 14.1479C7.42328 13.5538 7.91681 13.1076 8.52616 12.9867L13.2205 12.2775C13.7397 12.1941 14.1836 11.8581 14.4049 11.381L16.5216 6.92334C16.7671 6.36541 17.3186 6.00488 17.9282 6.00391C18.5377 6.00294 19.0904 6.36171 19.3377 6.91885Z" fill="#F73B50"/>
<path d="M24.8337 19.2412C24.4523 19.6346 24.2795 20.1851 24.3675 20.7259L25.1744 25.5673C25.3035 26.1686 25.0762 26.7908 24.5898 27.1672C24.1034 27.5436 23.4442 27.6076 22.8944 27.3317L18.6529 25.0096C18.201 24.7657 17.6568 24.7657 17.2049 25.0096L12.966 27.3335C12.4163 27.6094 11.7571 27.5454 11.2706 27.169C10.7842 26.7925 10.5569 26.1704 10.6861 25.5691L10.8654 24.5004C21.5164 18.0578 19.8578 9.33074 18.8895 6.33984C19.0802 6.4979 19.2333 6.69633 19.3378 6.92081L21.4501 11.3821C21.6758 11.8581 22.1208 12.1932 22.6407 12.2786L27.3306 12.9887C27.9398 13.1092 28.4333 13.5551 28.6148 14.149C28.7963 14.7429 28.6363 15.3885 28.1984 15.8289L24.8337 19.2412Z" fill="#F73B50"/>
<path d="M40.829 45.4142L47.5352 39.8018C48.6417 38.8725 50.2831 38.9766 51.2633 40.0383C52.2435 41.1 52.2166 42.7445 51.2021 43.7735L40.0131 55.1687C39.3815 55.8092 38.5274 56.1817 37.6283 56.2087H21.4366C20.291 56.2104 19.1563 56.4294 18.0924 56.8542L15.2414 58.0018H0V56.2087C0 56.2087 4.48276 52.6225 6.27586 50.8293C13.4483 43.6569 18.8007 42.7604 22.3869 42.7604C23.8397 42.7552 25.2483 43.2596 26.3676 44.1859C26.6754 44.4309 27.0591 44.5609 27.4524 44.5535H36.6869C37.2262 44.63 37.748 44.7999 38.229 45.0556C38.3681 45.1534 38.5 45.2613 38.6235 45.3783C38.9703 45.7317 39.223 46.1663 39.3586 46.6425L40.829 45.4142Z" fill="#222443"/>
<path d="M41.2323 47.0458C41.3025 48.03 40.9579 48.9987 40.282 49.7175C39.5946 50.4308 38.6457 50.8324 37.6551 50.8292H27.793C27.2979 50.8292 26.8965 50.4278 26.8965 49.9327C26.8965 49.4375 27.2979 49.0361 27.793 49.0361H37.6551C38.1551 49.0417 38.6352 48.8405 38.982 48.4803C39.3155 48.1223 39.4845 47.6413 39.4482 47.1534C39.4322 46.9809 39.4022 46.81 39.3586 46.6423C39.3496 46.6423 40.8289 45.4141 40.8289 45.4141C41.0656 45.9275 41.2025 46.4812 41.2323 47.0458Z" fill="white"/>
<path d="M41.1651 8.33087L42.3996 10.9309C42.5283 11.21 42.7874 11.407 43.0909 11.4562L45.8298 11.8705C46.184 11.9428 46.4702 12.2032 46.5756 12.5489C46.6811 12.8947 46.5889 13.2704 46.3355 13.5282L44.3711 15.5185C44.1486 15.7475 44.0486 16.0689 44.1022 16.3837L44.5675 19.2087C44.6425 19.5589 44.51 19.921 44.2267 20.14C43.9435 20.359 43.5596 20.396 43.2397 20.2353L40.7661 18.8824C40.5028 18.7381 40.184 18.7381 39.9207 18.8824L37.4462 20.2353C37.1262 20.396 36.7424 20.359 36.4591 20.14C36.1759 19.921 36.0433 19.5589 36.1184 19.2087L36.5846 16.3837C36.6377 16.0689 36.5378 15.7477 36.3156 15.5185L34.3513 13.5282C34.0978 13.2703 34.0058 12.8944 34.1114 12.5486C34.2171 12.2028 34.5035 11.9426 34.8578 11.8705L37.5959 11.4562C37.8995 11.4073 38.1587 11.2103 38.2871 10.9309L39.5217 8.33087C39.6643 8.00416 39.9869 7.79297 40.3434 7.79297C40.6999 7.79297 41.0225 8.00416 41.1651 8.33087Z" fill="#AED032"/>
<path d="M44.3731 15.5187C44.1516 15.7483 44.0518 16.0692 44.1042 16.3839L44.5731 19.208C44.6486 19.559 44.516 19.9221 44.2321 20.1418C43.9481 20.3615 43.5633 20.3986 43.2426 20.2373L40.7663 18.8817C40.5028 18.7392 40.1852 18.7392 39.9217 18.8817L37.4491 20.2373C37.1284 20.3986 36.7435 20.3615 36.4596 20.1418C36.1756 19.9221 36.043 19.559 36.1186 19.208L36.2235 18.5849C42.4357 14.8284 41.4692 9.73688 40.9044 7.99219C41.0148 8.0848 41.1035 8.20048 41.1644 8.33108L42.398 10.9338C42.5299 11.2114 42.7895 11.4068 43.0929 11.4565L45.8282 11.8707C46.1822 11.943 46.4682 12.2031 46.5739 12.5486C46.6795 12.894 46.5878 13.2696 46.3348 13.5275L44.3731 15.5187Z" fill="#AED032"/>
<path d="M8.92981 39.3091C10.6836 38.368 11.735 36.9148 11.2781 36.0633C10.8212 35.2119 9.02902 35.2845 7.27519 36.2256C5.52136 37.1668 4.47001 38.6199 4.92692 39.4714C5.38383 40.3229 7.17599 40.2502 8.92981 39.3091Z" fill="#D7F6FF"/>
<path d="M51.5546 27.3347C51.7996 26.2982 51.158 25.2593 50.1215 25.0143C49.085 24.7693 48.0461 25.4109 47.8011 26.4474C47.556 27.484 48.1977 28.5228 49.2342 28.7679C50.2707 29.0129 51.3096 28.3712 51.5546 27.3347Z" fill="#FFD358"/>
</g>
<defs>
<clipPath id="clip0_3_23737">
<rect width="52" height="52" fill="white" transform="translate(0 6)"/>
</clipPath>
</defs>
</svg>
