<svg width="41" height="48" viewBox="0 0 41 48" fill="none" xmlns="http://www.w3.org/2000/svg">
<g clip-path="url(#clip0_27_299)">
<path d="M36.8921 0.130859H3.678C1.00086 0.130859 0.000610352 1.13111 0.000610352 3.82295V36.3163C0.000610352 36.6252 0.0153199 36.9047 0.044739 37.1695C0.103577 37.7579 0.118287 38.3315 0.66254 38.9788C0.721378 39.0376 1.28034 39.4642 1.28034 39.4642C1.57453 39.6113 1.78046 39.7142 2.11878 39.8613L18.4611 46.716C19.3142 47.0984 19.6673 47.2602 20.2851 47.2455C20.9029 47.2602 21.2559 47.1131 22.109 46.716L38.4513 39.8613C38.7897 39.7289 38.9956 39.6113 39.2898 39.4642C39.2898 39.4642 39.8488 39.0523 39.9076 38.9788C40.4518 38.3315 40.4666 37.7579 40.5254 37.1695C40.5548 36.9047 40.5695 36.6252 40.5695 36.3163V3.82295C40.5695 1.13111 39.584 0.130859 36.8921 0.130859Z" fill="#5F5F5F"/>
<path d="M34.6562 32.8037L34.6415 32.8773L34.6268 32.9655L34.6121 33.0391L34.5827 33.1126L34.5679 33.1862L34.5385 33.2597L34.5091 33.3333L34.4797 33.3921L34.4503 33.4656L34.4061 33.5245L34.362 33.5833L34.3179 33.6422L34.2738 33.701L34.2296 33.7598L34.1708 33.8187L34.1267 33.8628L34.0678 33.9216L34.009 33.9658L33.9501 34.0099L33.8913 34.0393L33.8325 34.0834L33.7589 34.1276L33.6854 34.157L33.6118 34.2011L33.5383 34.2305L33.4647 34.26L33.3912 34.2894V34.2747L33.3176 34.3041L33.2441 34.3188L33.1117 34.3482L33.0382 34.3629L32.9646 34.3776L32.8911 34.3923L32.8175 34.407L32.7292 34.4218L32.6557 34.4365H32.3615L32.288 34.4218H32.1997L32.1262 34.407L32.0526 34.3923L31.9644 34.3776L31.8908 34.3629L31.8173 34.3482L31.7437 34.3335L31.6702 34.3188L31.5966 34.3041L31.5231 34.2894L31.4495 34.26L31.376 34.2452L31.3024 34.2158L31.2289 34.1864L31.1553 34.157L31.0818 34.1276L31.0082 34.0981L30.9347 34.0687L30.8611 34.0393L30.7876 34.0099L30.714 33.9805L30.6405 33.9511L30.5669 33.9069L30.5081 33.8628L30.4346 33.8187L30.3757 33.7745L30.3169 33.7304L30.258 33.6863L30.1992 33.6422L30.1404 33.598L30.0815 33.5539L30.0227 33.5098L29.9639 33.4509L30.008 33.3921L30.0668 33.3333L30.1109 33.2744L30.1698 33.2156L30.2139 33.1567L30.258 33.0979L30.3169 33.0391L30.361 32.9802L30.4198 32.9214L30.464 32.8625L30.5228 32.8037L30.5669 32.7449L30.6111 32.686L30.6699 32.6272L30.714 32.5684L30.7729 32.5095L30.817 32.4507L30.8758 32.4948L30.9494 32.5389L31.0082 32.5831L31.0818 32.6272L31.1406 32.6713L31.2142 32.7155L31.273 32.7596L31.3466 32.789L31.4054 32.8331L31.4789 32.8625L31.5525 32.892L31.626 32.9214L31.6996 32.9508L31.7731 32.9802L31.8467 33.0096L31.9202 33.0391L31.9938 33.0685L32.0673 33.0832L32.2144 33.1126L32.3027 33.1273L32.3762 33.142H32.4498L32.538 33.1567H32.6998L32.7881 33.142L32.8616 33.1273L32.9352 33.1126L33.0087 33.0979L33.0676 33.0685L33.1264 33.0391L33.1852 32.9949L33.2294 32.9361L33.2588 32.8773L33.2882 32.8037L33.3029 32.7302V32.7155L33.2882 32.6272L33.2588 32.5536L33.2147 32.4948L33.1558 32.4507L33.097 32.4066L33.0382 32.3771L32.9646 32.3477L32.8911 32.3183L32.8028 32.2742L32.744 32.2595L32.6851 32.2447L32.6116 32.2153L32.538 32.2006L32.4645 32.1712L32.3909 32.1565L32.3027 32.1271L32.2291 32.1124L32.1409 32.0829L32.0673 32.0682L31.9938 32.0388L31.9202 32.0241L31.8467 31.9947L31.7731 31.9653L31.6996 31.9506L31.626 31.9211L31.5525 31.8917L31.4789 31.8623L31.3907 31.8329L31.3171 31.8035L31.2436 31.774L31.17 31.7446L31.0965 31.7005L31.0229 31.6564L30.9641 31.6122L30.8906 31.5681L30.8317 31.524L30.7729 31.4799L30.714 31.4357L30.6552 31.3769L30.5964 31.318L30.5522 31.2592L30.5081 31.2004L30.464 31.1415L30.4198 31.0827L30.3757 31.0091L30.3463 30.9503L30.3169 30.8915L30.3022 30.8179L30.2728 30.7591L30.258 30.6855L30.2433 30.612L30.2286 30.5384L30.2139 30.4649L30.1992 30.3766V30.2001L30.2139 30.1266L30.2286 30.053L30.2433 29.9795L30.258 29.9059L30.2728 29.8324L30.3022 29.7588L30.3169 29.6853L30.3463 29.6117L30.3757 29.5382L30.4051 29.4646L30.4493 29.3911L30.4934 29.3175L30.5375 29.2587L30.5817 29.1999L30.6405 29.141L30.6993 29.0822L30.7582 29.0234L30.817 28.9645L30.8758 28.9204L30.9347 28.8763L30.9935 28.8321L31.0524 28.788L31.1259 28.7439L31.1995 28.7145L31.273 28.6703L31.3466 28.6409L31.4201 28.6115L31.4936 28.5821L31.5672 28.5527L31.626 28.5379L31.6996 28.5232L31.7731 28.5085L31.8467 28.4938L31.9202 28.4791L31.9938 28.4644L32.0673 28.4497L32.1409 28.435L32.2144 28.4203H32.538L32.6263 28.435L32.7145 28.4497H32.7881L32.8763 28.4644L32.9499 28.4791L33.0382 28.4938L33.1117 28.5085L33.1852 28.5232L33.2588 28.5379L33.3323 28.5527L33.4059 28.5674L33.4794 28.5968L33.553 28.6262L33.6265 28.6409L33.7001 28.6703L33.7736 28.6998L33.8472 28.7292L33.9207 28.7586L33.9943 28.788L34.0678 28.8321L34.1267 28.8616L34.2002 28.9057L34.2738 28.9498L34.3326 28.9939L34.4061 29.0381L34.465 29.0822L34.5238 29.1263L34.5827 29.1705L34.6415 29.2146L34.5974 29.2734L34.5532 29.3323L34.5091 29.3911L34.465 29.4499L34.4208 29.5235L34.3767 29.5823L34.3326 29.6412L34.2885 29.7L34.2443 29.7588L34.2002 29.8177L34.1561 29.8765L34.1119 29.9354L34.0678 30.0089L34.0237 30.0677L33.9796 30.1266L33.8325 30.4502L33.7883 30.509L33.7295 30.4649L33.6559 30.4208L33.5971 30.3766L33.5383 30.3325L33.4647 30.3031L33.4059 30.259L33.3323 30.2295L33.2735 30.2001L33.2 30.1707L33.1411 30.1413L33.0676 30.1119L33.0087 30.0824L32.9205 30.053L32.8469 30.0236L32.7734 29.9942L32.6998 29.9795L32.6557 30.0089L32.5822 29.9942L32.5086 29.9795L32.4351 29.9648L32.3615 29.9501H32.1997L32.1114 29.9648L32.0379 29.9795L31.9644 29.9942L31.9055 30.0236L31.8467 30.053L31.7731 30.1119L31.729 30.1854L31.6996 30.259L31.6849 30.3325V30.3472L31.6996 30.4502L31.729 30.5384L31.7584 30.5826L31.8173 30.6414L31.8908 30.6855L31.9496 30.7297L32.0232 30.7591L32.1114 30.7885L32.1997 30.8179L32.2585 30.8326L32.3174 30.862L32.3909 30.8768L32.4645 30.9062L32.538 30.9209L32.6263 30.9503L32.7145 30.9797L32.8028 31.0091L32.8911 31.0239L32.9646 31.0533L33.0529 31.0827L33.1264 31.0974L33.2 31.1268L33.2735 31.1562L33.347 31.1857L33.4206 31.2151L33.4941 31.2445L33.5677 31.2592L33.6559 31.2886L33.7295 31.3328L33.803 31.3622L33.8766 31.4063L33.9501 31.4504L34.0237 31.4946L34.0825 31.5387L34.1414 31.5828L34.2002 31.6269L34.259 31.6858L34.3179 31.7446L34.3767 31.8035L34.4356 31.8623L34.4797 31.9211L34.5238 31.9947L34.5679 32.0535L34.6121 32.1271L34.6415 32.1859L34.6709 32.2595L34.6856 32.333L34.7003 32.4066L34.7297 32.5536L34.7445 32.6272L34.7592 32.7155V32.892L34.6562 32.8037ZM29.4343 34.3041H25.1538V28.8468H29.4637V30.0824H26.5807V30.9797H29.1695V32.1418H26.5807V33.0685H29.5079V34.3041H29.4343ZM23.9771 34.3041H22.6091V31.0827L22.565 31.1415L22.5208 31.2151L22.4767 31.2739L22.4326 31.3328L22.3884 31.4063L22.3443 31.4651L22.3002 31.524L22.2561 31.5975L22.2119 31.6564L22.1678 31.7152L22.1237 31.774L22.0795 31.8476L22.0354 31.9064L21.9913 31.9653L21.9472 32.0388L21.903 32.0977L21.8589 32.1565L21.8148 32.23L21.7854 32.2889L21.7412 32.3477L21.6971 32.4213L21.653 32.4801L21.6088 32.5389L21.5647 32.6125L21.5206 32.6713L21.4912 32.7302L21.447 32.789L21.4029 32.8625L21.3588 32.9214L21.3146 32.9802L21.2852 33.0538L21.2411 33.1126L21.197 33.1714L21.1528 33.245L21.1087 33.3038H21.0793L21.0352 33.2303L20.991 33.1714L20.9469 33.0979L20.9028 33.0391L20.8587 32.9655L20.8145 32.9067L20.7704 32.8331L20.7263 32.7743L20.6821 32.7007L20.6527 32.6419L20.6086 32.5684L20.5645 32.5095L20.5203 32.436L20.5939 32.3624L20.5497 32.2889L20.5056 32.23L20.4615 32.1565L20.4174 32.0977L20.3732 32.0241L20.3291 31.9653L20.2997 31.9211L20.2556 31.8623L20.2114 31.7888L20.1673 31.7299L20.1232 31.6564L20.079 31.5975L20.0349 31.524L20.0055 31.4799L19.9614 31.4063L19.9172 31.3475L19.8731 31.2739L19.829 31.2151L19.7849 31.1415L19.7407 31.0827V34.2894H18.3286V28.8321H19.8584L19.9025 28.891L19.9467 28.9645L19.9908 29.0234L20.0349 29.0969L20.079 29.1557L20.1232 29.2293L20.1673 29.2881L20.2114 29.3617L20.2556 29.4205L20.2997 29.4794L20.3438 29.5529L20.3879 29.6117L20.4321 29.6853L20.4762 29.7441L20.5203 29.8177L20.5645 29.8765L20.6086 29.9354L20.6527 30.0089L20.6968 30.0677L20.741 30.1413L20.7851 30.2001L20.8292 30.2737L20.8734 30.3325L20.9028 30.4061L20.9469 30.4649L20.9763 30.5237L21.0205 30.5973L21.0646 30.6561L21.1087 30.7297L21.1528 30.7885L21.1823 30.862L21.2264 30.9209L21.2705 30.9944L21.3146 31.0533L21.3588 30.9944L21.4029 30.9209L21.447 30.862L21.4912 30.7885L21.5353 30.7297L21.5794 30.6561L21.6235 30.5973L21.6677 30.5237L21.7118 30.4649L21.7412 30.4061L21.7854 30.3325L21.8295 30.2737L21.8736 30.2001L21.9177 30.1413L21.9619 30.0677L22.006 30.0089L22.0501 29.9354L22.0943 29.8765L22.1384 29.8177L22.1825 29.7441L22.2266 29.6853L22.2708 29.6117L22.3149 29.5529L22.359 29.4794L22.3884 29.4205L22.4326 29.3617L22.4767 29.2881L22.5208 29.2293L22.565 29.1557L22.6091 29.0969L22.6532 29.0234L22.6973 28.9645L22.7415 28.891L22.7856 28.8321H24.3154V34.2894L23.9771 34.3041ZM15.3279 32.0535L15.2984 31.98L15.269 31.9064L15.2396 31.8329L15.2102 31.7593L15.1808 31.6858L15.1513 31.6122L15.1219 31.5387L15.0925 31.4651L15.0631 31.3916L15.0337 31.318L15.0043 31.2445L14.9748 31.171L14.9454 31.0974L14.916 31.0239L14.8866 30.9503L14.8572 30.8768L14.8277 30.8032L14.7983 30.7297L14.7689 30.6561L14.7395 30.5826L14.7101 30.509L14.6806 30.4355L14.6512 30.509L14.6218 30.5826L14.5924 30.6561L14.563 30.7297L14.5335 30.8032L14.5041 30.8768L14.4747 30.9503L14.4453 31.0239L14.4159 31.0974L14.3865 31.171L14.357 31.2445L14.3276 31.318L14.2982 31.3916L14.2688 31.4651L14.2394 31.5387L14.2099 31.6122L14.1805 31.6858L14.1511 31.7593L14.1217 31.8329L14.0923 31.9064L14.0628 31.98L14.0334 32.0535L14.004 32.1271H15.269L15.3279 32.0535ZM17.6667 34.3041H16.2104L16.181 34.2305L16.1516 34.157L16.1222 34.0834L16.0928 34.0099L16.0633 33.9363L16.0339 33.8628L16.0045 33.7892L15.9751 33.7157L15.9457 33.6422L15.9162 33.5686L15.8868 33.4951L15.8574 33.4215L15.828 33.348L15.7986 33.2744L15.7691 33.2009H13.651L13.6216 33.2744L13.5921 33.348L13.5627 33.4215L13.5333 33.4951L13.5039 33.5686L13.445 33.701L13.4156 33.7745L13.3862 33.8481L13.3568 33.9216L13.3274 33.9952L13.2979 34.0687L13.2685 34.1423L13.2391 34.2158L13.2097 34.2894H11.7387L11.7682 34.2158L11.827 34.0834L11.8564 34.0099L11.8858 33.9363L11.9447 33.804L11.9741 33.7304L12.0035 33.6569L12.0329 33.5833L12.0623 33.5392L12.0918 33.4656L12.1212 33.3921L12.1506 33.3185L12.18 33.245L12.2094 33.1714L12.2389 33.0979L12.2683 33.0244L12.2977 32.9508L12.3271 32.8773L12.3565 32.8037L12.386 32.7302L12.4448 32.5978L12.4742 32.5242L12.5036 32.4507L12.5331 32.3771L12.5625 32.3036L12.5919 32.23L12.6213 32.1565L12.6507 32.0829L12.6801 32.0094L12.7096 31.9358L12.739 31.8623L12.7684 31.7888L12.7978 31.7152L12.8272 31.6417L12.8567 31.5681L12.8861 31.4946L12.9155 31.421L12.9449 31.3475L12.9743 31.2739L13.0038 31.2004L13.0332 31.1268L13.0626 31.0533L13.092 30.9797L13.1214 30.9062L13.1509 30.8326L13.1803 30.7591L13.2097 30.6855L13.2391 30.612L13.2685 30.5384L13.2979 30.4649L13.3274 30.3913L13.3568 30.3178L13.3862 30.2443L13.445 30.1119L13.4745 30.0383L13.5039 29.9648L13.5333 29.8912L13.5627 29.8177L13.5921 29.7441L13.6216 29.6706L13.651 29.597L13.6804 29.5235L13.7098 29.4499L13.7392 29.3764L13.7539 29.3028L13.7834 29.2293L13.8128 29.1557L13.8422 29.0822L13.8716 29.0086L13.901 28.9351L13.9305 28.8616L13.9599 28.788L13.9893 28.7145L14.0481 28.5821L14.0776 28.5085H15.4602L15.4897 28.5821L15.5191 28.6556L15.5485 28.7292L15.5779 28.8027L15.6073 28.8763L15.6368 28.9498L15.6662 29.0234L15.6956 29.0969L15.725 29.1705L15.7544 29.244L15.7839 29.3175L15.8133 29.3911L15.8427 29.4646L15.8721 29.5382L15.9015 29.6117L15.931 29.6853L15.9604 29.7588L15.9898 29.8324L16.0192 29.9059L16.0486 29.9795L16.078 30.053L16.1075 30.1266L16.1369 30.2001L16.1663 30.2737L16.1957 30.3472L16.2251 30.4208L16.2546 30.4943L16.284 30.5679L16.3134 30.6414L16.3428 30.715L16.4017 30.8473L16.4311 30.9209L16.4605 30.9944L16.4899 31.068L16.5193 31.1415L16.5488 31.2151L16.5782 31.2886L16.6076 31.3622L16.637 31.4357L16.6664 31.5093L16.6959 31.5828L16.7253 31.6564L16.7547 31.7299L16.7841 31.8035L16.8135 31.877L16.8429 31.9506L16.8724 32.0241L16.9018 32.0977L16.9312 32.1712L16.9606 32.2447L16.99 32.3183L17.0195 32.3918L17.0489 32.4654L17.0783 32.5389L17.1077 32.6125L17.1371 32.686L17.1666 32.7596L17.196 32.8331L17.2254 32.9067L17.2548 32.9802L17.2842 33.0538L17.3137 33.1273L17.3431 33.2009L17.3725 33.2744L17.4019 33.348L17.4313 33.4215L17.4607 33.4951L17.4902 33.5686L17.5196 33.6422L17.549 33.7157L17.5784 33.7892L17.6078 33.8628L17.6373 33.9363L17.6667 34.0099L17.6961 34.0834L17.7255 34.157L17.7549 34.2305L17.8138 34.3629L17.6667 34.3041ZM11.1356 33.598L11.0768 33.6422L11.018 33.6863L10.9591 33.7304L10.9003 33.7745L10.8415 33.8187L10.7826 33.8628L10.7238 33.9069L10.6502 33.9511L10.5767 33.9952L10.5031 34.0393L10.4296 34.0687L10.356 34.1129L10.2825 34.1423L10.2089 34.1717L10.1354 34.2011L10.0618 34.2305L9.9883 34.26L9.91475 34.2894L9.84121 34.3188L9.76766 34.3482L9.69411 34.3776L9.62056 34.3923L9.54701 34.407L9.47347 34.4218L9.39992 34.4365L9.32637 34.4512L9.23811 34.4659L9.16457 34.4806L9.07631 34.4953L9.00276 34.51L8.9145 34.5247H8.67915L8.6056 34.51L8.51735 34.4953L8.4438 34.4806L8.37025 34.4659L8.2967 34.4512L8.22316 34.4365L8.14961 34.4218L8.07606 34.407L8.00251 34.3923L7.92896 34.3776L7.85542 34.3629L7.78187 34.3335L7.70832 34.3041L7.63477 34.2747L7.56123 34.2452L7.48768 34.2158L7.41413 34.1864L7.34058 34.157L7.26704 34.1129L7.2082 34.0834L7.13465 34.0393L7.07581 33.9952L7.01697 33.9511L6.95813 33.9069L6.8993 33.8628L6.84046 33.8187L6.78162 33.7745L6.72278 33.7304L6.66394 33.6716L6.60511 33.6274L6.54627 33.5686L6.48743 33.5098L6.4433 33.4509L6.39917 33.3921L6.35504 33.3333L6.31092 33.2744L6.26679 33.2156L6.22266 33.1567L6.19324 33.0979L6.14911 33.0244L6.10498 32.9655L6.07556 32.892L6.04614 32.8184L6.01672 32.7449L5.98731 32.6713L5.95789 32.6125L5.92847 32.5389L5.91376 32.4654L5.88434 32.3918L5.86963 32.3183L5.84021 32.2447L5.8255 32.1712V32.0977L5.81079 32.0241V31.9506L5.79608 31.877V31.2445L5.81079 31.1562L5.8255 31.0827L5.84021 31.0091L5.85492 30.9356L5.88434 30.862L5.89905 30.7885L5.92847 30.715L5.95789 30.6414L5.98731 30.5679L6.01672 30.4943L6.04614 30.4208L6.07556 30.3472L6.10498 30.2737L6.1344 30.2001L6.17853 30.1266L6.22266 30.0677L6.25208 30.0089L6.29621 29.9501L6.34033 29.8912L6.38446 29.8324L6.42859 29.7735L6.47272 29.7147L6.51685 29.6559L6.57569 29.597L6.61982 29.5382L6.67865 29.4794L6.73749 29.4205L6.79633 29.3764L6.85517 29.3175L6.91401 29.2734L6.97284 29.2293L7.03168 29.1852L7.09052 29.141L7.14936 29.0969L7.2082 29.0528L7.28174 29.0086L7.35529 28.9645L7.42884 28.9204L7.50239 28.891L7.57594 28.8616L7.64948 28.8174L7.70832 28.788L7.78187 28.7586L7.85542 28.7292L7.92896 28.7145L8.00251 28.685L8.07606 28.6703L8.14961 28.6409L8.22316 28.6262L8.2967 28.6115L8.37025 28.5968L8.4438 28.5821L8.51735 28.5674L8.59089 28.5527L8.66444 28.5379H8.97334L9.0616 28.5527L9.14986 28.5674H9.2234L9.29695 28.5821L9.38521 28.5968L9.45876 28.6115L9.5323 28.6262L9.60585 28.6409L9.6794 28.6556L9.75295 28.6703L9.8265 28.685L9.90004 28.7145L9.97359 28.7292L10.0324 28.7586L10.106 28.788L10.2384 28.8468L10.3119 28.8763L10.3855 28.9204L10.459 28.9498L10.5178 28.9939L10.5914 29.0381L10.6502 29.0822L10.7238 29.1263L10.7826 29.1705L10.8415 29.2146L10.9003 29.2587L10.9591 29.3028L11.018 29.3617L11.0768 29.4058L11.0327 29.4646L10.9738 29.5235L10.9297 29.5823L10.8709 29.6412L10.8267 29.7L10.7826 29.7588L10.7238 29.8177L10.6796 29.8765L10.6355 29.9354L10.5767 29.9942L10.5326 30.053L10.4737 30.1119L10.4296 30.1707L10.3855 30.2295L10.3266 30.2884L10.2825 30.3472L10.2237 30.4061L10.1795 30.4649L10.1207 30.4208L10.0618 30.3619L10.003 30.3178L9.94417 30.2737L9.88533 30.2295L9.8265 30.1854L9.76766 30.1413L9.69411 30.0972L9.63527 30.0677L9.57643 30.0383L9.51759 30.0089L9.44405 29.9795L9.3705 29.9501L9.29695 29.9354L9.2234 29.9206L9.14986 29.9059L9.07631 29.8912L8.98805 29.8765L8.89979 29.8618H8.73799L8.66444 29.8765L8.59089 29.8912L8.51735 29.9059L8.4438 29.9206L8.37025 29.9501L8.2967 29.9795L8.23786 30.156L8.16432 30.1854L8.10548 30.2295L8.04664 30.2737L7.9878 30.3178L7.92896 30.3619L7.87013 30.4061L7.81129 30.4502L7.76716 30.509L7.70832 30.5679L7.66419 30.6267L7.62006 30.6855L7.57594 30.7444L7.54652 30.8179L7.50239 30.8768L7.47297 30.9503L7.44355 31.0239L7.41413 31.0974L7.38471 31.171L7.37 31.2445L7.35529 31.318L7.34058 31.4063V31.9506L7.35529 32.0241L7.37 32.0977L7.38471 32.1712L7.41413 32.2447L7.50239 32.2153L7.53181 32.2889L7.56123 32.3624L7.60535 32.436L7.6789 32.5536L7.72303 32.6125L7.76716 32.6713L7.826 32.7302L7.87013 32.789L7.92896 32.8331L7.9878 32.8773L8.04664 32.9214L8.10548 32.9655L8.16432 33.0096L8.23786 33.0391L8.31141 33.0685L8.38496 33.0979L8.45851 33.1273L8.53206 33.1567L8.6056 33.1714L8.67915 33.1862L8.7527 33.2009L8.84096 33.2156H8.97334L9.0616 33.2009L9.14986 33.1862L9.2234 33.1714L9.29695 33.1567L9.3705 33.142L9.44405 33.1273L9.51759 33.1126L9.59114 33.0832L9.64998 33.0538L9.72353 33.0244L9.78237 32.9949L9.84121 32.9508V32.2153H8.7527V31.1268H11.1798V33.5686L11.1356 33.598ZM8.73799 16.5055H11.9741V14.0049H8.73799V8.90071H12.1065V6.40009H5.98731V24.4487H12.1506V21.9481H8.73799V16.5055ZM31.8908 17.0498V21.1243C31.8908 21.8451 31.5525 22.1834 30.8611 22.1834H30.3463C29.6255 22.1834 29.2872 21.8451 29.2872 21.1243V9.72444C29.2872 9.00367 29.6255 8.66536 30.3463 8.66536H30.8023C31.4936 8.66536 31.832 9.00367 31.832 9.72444V13.2547H34.5238V9.56264C34.5238 7.32679 33.45 6.23828 31.2142 6.23828H29.8756C27.6397 6.23828 26.5365 7.3415 26.5365 9.59206V21.242C26.5365 23.4926 27.6397 24.5958 29.8756 24.5958H31.2289C33.4647 24.5958 34.5679 23.4926 34.5679 21.242V17.0351H31.8908M22.359 6.40009H25.1097V24.4487H22.359V6.40009ZM18.3727 14.4168C18.3727 15.1376 18.0344 15.4759 17.3431 15.4759H16.2104V8.82716H17.3431C18.0344 8.82716 18.3727 9.16548 18.3727 9.88625V14.4168ZM17.7844 6.40009H13.4745V24.4487H16.2251V17.9029H17.7844C20.0202 17.9029 21.1234 16.7997 21.1234 14.5492V9.75386C21.1234 7.5033 20.0202 6.40009 17.7844 6.40009ZM12.4595 40.7616H28.184L20.1673 43.4093L12.4595 40.7616Z" fill="white"/>
</g>
<defs>
<clipPath id="clip0_27_299">
<rect width="40.601" height="47.3647" fill="white"/>
</clipPath>
</defs>
</svg>
