<svg width="136" height="68" viewBox="0 0 136 68" fill="none" xmlns="http://www.w3.org/2000/svg">
<rect width="136" height="68" rx="5.66929" fill="#06C7F2"/>
<path fill-rule="evenodd" clip-rule="evenodd" d="M5.66929 0C2.53823 0 0 2.53823 0 5.66929V62.3307C0 65.4618 2.53823 68 5.6693 68H130.331C133.462 68 136 65.4618 136 62.3307V5.66929C136 2.53823 133.462 0 130.331 0H5.66929ZM15.67 3C12.5385 3 10 5.53854 10 8.67V50.33C10 53.4615 12.5385 56 15.67 56H120.33C123.461 56 126 53.4615 126 50.33V8.67C126 5.53855 123.461 3 120.33 3H15.67Z" fill="#9E9E9E" fill-opacity="0.5"/>
<g filter="url(#filter0_i_3_3352)" style="mix-blend-mode:overlay">
<rect width="136" height="68" rx="5.66929" fill="white" fill-opacity="0.01"/>
</g>
<rect x="10" y="3" width="116" height="53" rx="5.67" fill="url(#paint0_linear_3_3352)" fill-opacity="0.2"/>
<rect x="10.5" y="3.5" width="115" height="52" rx="5.17" stroke="url(#paint1_linear_3_3352)" stroke-opacity="0.4"/>
<path opacity="0.5" d="M111 56V68H130.331C133.462 68 136 65.4618 136 62.3307V43H126V50.33C126 53.4615 123.461 56 120.33 56H111Z" fill="url(#paint2_linear_3_3352)"/>
<rect opacity="0.5" x="25" y="56" width="86" height="12" fill="white" fill-opacity="0.2"/>
<path opacity="0.5" d="M10 43H0V62.3307C0 65.4618 2.53823 68 5.66929 68H25V56H15.67C12.5385 56 10 53.4615 10 50.33V43Z" fill="url(#paint3_linear_3_3352)"/>
<rect opacity="0.5" y="25" width="10" height="18" fill="white" fill-opacity="0.7"/>
<path opacity="0.5" d="M130.331 0H111V3H120.33C123.461 3 126 5.53855 126 8.67V25H136V5.66929C136 2.53823 133.462 0 130.331 0Z" fill="url(#paint4_linear_3_3352)"/>
<rect opacity="0.5" x="25" width="86" height="3" fill="white" fill-opacity="0.15"/>
<path opacity="0.5" d="M5.66929 0C2.53823 0 0 2.53823 0 5.66929V25H10V8.67C10 5.53854 12.5385 3 15.67 3H25V0H5.66929Z" fill="url(#paint5_linear_3_3352)"/>
<mask id="mask0_3_3352" style="mask-type:alpha" maskUnits="userSpaceOnUse" x="119" y="0" width="17" height="68">
<rect x="136" y="68" width="17" height="68" rx="5.66929" transform="rotate(-180 136 68)" fill="#343436"/>
</mask>
<g mask="url(#mask0_3_3352)">
<g opacity="0.2" filter="url(#filter1_d_3_3352)" style="mix-blend-mode:overlay">
<path d="M157 59.33C157 62.4615 154.461 65 151.33 65L142.5 65C135.596 65 130 59.4036 130 52.5L130 14.5C130 7.59644 135.596 2 142.5 2L151.33 2C154.461 2 157 4.53855 157 7.67001L157 59.33Z" fill="black" fill-opacity="0.01"/>
</g>
</g>
<mask id="mask1_3_3352" style="mask-type:alpha" maskUnits="userSpaceOnUse" x="0" y="0" width="17" height="68">
<rect width="17" height="68" rx="5.66929" fill="#343436"/>
</mask>
<g mask="url(#mask1_3_3352)">
<g opacity="0.2" filter="url(#filter2_d_3_3352)" style="mix-blend-mode:overlay">
<path d="M-21 10.67C-21 7.53854 -18.4615 5 -15.33 5H-1.67C1.46145 5 4 7.53855 4 10.67V55.5C4 62.4036 -1.59644 68 -8.5 68H-15.33C-18.4615 68 -21 65.4615 -21 62.33V10.67Z" fill="black" fill-opacity="0.01"/>
</g>
</g>
<g filter="url(#filter3_d_3_3352)">
<path d="M27.6794 38.22C27.2687 38.22 26.9681 38.154 26.7774 38.022C26.6014 37.9047 26.4841 37.7433 26.4254 37.538C26.3814 37.3327 26.3594 37.1127 26.3594 36.878V24.162C26.3594 23.9127 26.3814 23.6927 26.4254 23.502C26.4841 23.2967 26.6087 23.1353 26.7994 23.018C26.9901 22.9007 27.2907 22.842 27.7014 22.842C28.1267 22.842 28.4274 22.9007 28.6034 23.018C28.7941 23.1353 28.9114 23.2967 28.9554 23.502C29.0141 23.7073 29.0434 23.9347 29.0434 24.184V28.298L31.5074 23.656C31.6834 23.3627 31.8594 23.1573 32.0354 23.04C32.2114 22.9227 32.4094 22.886 32.6294 22.93C32.8494 22.974 33.0987 23.0987 33.3774 23.304C33.8174 23.5973 34.0447 23.8833 34.0594 24.162C34.0887 24.426 33.9714 24.756 33.7074 25.152L30.5614 30.388L33.8174 35.976C34.0814 36.3867 34.1987 36.724 34.1694 36.988C34.1401 37.252 33.9127 37.5307 33.4874 37.824C33.1941 38.0147 32.9374 38.132 32.7174 38.176C32.4974 38.22 32.2994 38.176 32.1234 38.044C31.9621 37.9267 31.7934 37.736 31.6174 37.472L29.0434 32.61V36.9C29.0434 37.1347 29.0141 37.3547 28.9554 37.56C28.9114 37.7653 28.7941 37.9267 28.6034 38.044C28.4127 38.1613 28.1047 38.22 27.6794 38.22ZM37.2128 38.22C36.8168 38.22 36.5235 38.154 36.3328 38.022C36.1568 37.9047 36.0395 37.7433 35.9808 37.538C35.9368 37.3327 35.9148 37.1127 35.9148 36.878V28.65C35.9148 28.4153 35.9441 28.21 36.0028 28.034C36.0615 27.8433 36.1788 27.6893 36.3548 27.572C36.5455 27.4547 36.8388 27.396 37.2348 27.396C37.5721 27.396 37.8288 27.44 38.0048 27.528C38.1808 27.616 38.2981 27.7333 38.3568 27.88C38.4155 28.012 38.4448 28.144 38.4448 28.276C38.4595 28.3933 38.4741 28.4887 38.4888 28.562L38.3568 28.98C38.4008 28.7893 38.4815 28.5987 38.5988 28.408C38.7161 28.2173 38.8628 28.0487 39.0388 27.902C39.2295 27.7407 39.4275 27.616 39.6328 27.528C39.8528 27.4253 40.0801 27.374 40.3148 27.374C40.8281 27.374 41.2681 27.4693 41.6348 27.66C42.0161 27.8507 42.3241 28.1293 42.5588 28.496C42.7935 28.848 42.9621 29.288 43.0648 29.816C43.1821 30.3293 43.2408 30.9233 43.2408 31.598V36.9C43.2408 37.1347 43.2115 37.3547 43.1528 37.56C43.1088 37.7507 42.9915 37.9047 42.8008 38.022C42.6248 38.154 42.3388 38.22 41.9428 38.22C41.5321 38.22 41.2315 38.154 41.0408 38.022C40.8648 37.9047 40.7475 37.7433 40.6888 37.538C40.6301 37.3327 40.6008 37.1127 40.6008 36.878V31.576C40.6008 31.2093 40.5715 30.9087 40.5128 30.674C40.4541 30.4247 40.3515 30.2413 40.2048 30.124C40.0581 30.0067 39.8601 29.948 39.6108 29.948C39.3615 29.948 39.1561 30.0067 38.9948 30.124C38.8335 30.2267 38.7161 30.3733 38.6428 30.564C38.5695 30.7547 38.5328 30.9747 38.5328 31.224V36.9C38.5328 37.1347 38.5035 37.3547 38.4448 37.56C38.3861 37.7507 38.2688 37.9047 38.0928 38.022C37.9168 38.154 37.6235 38.22 37.2128 38.22ZM48.8706 38.33C48.2546 38.33 47.6899 38.2127 47.1766 37.978C46.6779 37.7287 46.2526 37.3693 45.9006 36.9C45.5486 36.416 45.2772 35.8367 45.0866 35.162C44.8959 34.4727 44.8006 33.688 44.8006 32.808C44.8006 31.972 44.8812 31.2167 45.0426 30.542C45.2186 29.8527 45.4679 29.266 45.7906 28.782C46.1279 28.298 46.5532 27.924 47.0666 27.66C47.5799 27.3813 48.1666 27.242 48.8266 27.242C49.7506 27.242 50.5132 27.4767 51.1146 27.946C51.7159 28.4007 52.1632 29.046 52.4566 29.882C52.7646 30.7033 52.9186 31.6713 52.9186 32.786C52.9186 33.6807 52.8232 34.4727 52.6326 35.162C52.4419 35.8513 52.1632 36.4307 51.7966 36.9C51.4446 37.3693 51.0192 37.7287 50.5206 37.978C50.0366 38.2127 49.4866 38.33 48.8706 38.33ZM48.8266 35.91C49.1492 35.91 49.4206 35.7927 49.6406 35.558C49.8606 35.3233 50.0219 34.9713 50.1246 34.502C50.2419 34.0327 50.3006 33.4533 50.3006 32.764C50.3006 32.104 50.2492 31.5467 50.1466 31.092C50.0439 30.6373 49.8826 30.2927 49.6626 30.058C49.4572 29.8087 49.1786 29.684 48.8266 29.684C48.4892 29.684 48.2179 29.8087 48.0126 30.058C47.8072 30.3073 47.6532 30.6667 47.5506 31.136C47.4626 31.5907 47.4186 32.1407 47.4186 32.786C47.4186 33.4607 47.4699 34.0327 47.5726 34.502C47.6752 34.9713 47.8292 35.3233 48.0346 35.558C48.2546 35.7927 48.5186 35.91 48.8266 35.91ZM57.5568 38.198C57.2488 38.198 57.0068 38.1467 56.8308 38.044C56.6695 37.956 56.5448 37.846 56.4568 37.714C56.3835 37.5673 56.3248 37.428 56.2808 37.296L54.1908 29.002C54.1028 28.6793 54.0588 28.43 54.0588 28.254C54.0735 28.0633 54.1468 27.9093 54.2788 27.792C54.4255 27.66 54.6381 27.5427 54.9168 27.44C55.3568 27.264 55.7308 27.2053 56.0388 27.264C56.3615 27.3227 56.5595 27.5793 56.6328 28.034L57.6888 34.018L58.7448 28.276C58.7741 28.0707 58.8328 27.902 58.9208 27.77C59.0088 27.6233 59.1408 27.5133 59.3168 27.44C59.4928 27.352 59.7201 27.308 59.9988 27.308C60.3215 27.308 60.5708 27.352 60.7468 27.44C60.9375 27.5133 61.0768 27.6233 61.1648 27.77C61.2675 27.902 61.3261 28.0707 61.3408 28.276L62.3968 34.062L63.3648 28.232C63.4675 27.7187 63.6728 27.4107 63.9808 27.308C64.3035 27.1907 64.6775 27.2127 65.1028 27.374C65.5281 27.55 65.8068 27.7553 65.9388 27.99C66.0708 28.2247 66.0488 28.5693 65.8728 29.024L63.7828 37.296C63.7388 37.4427 63.6728 37.582 63.5848 37.714C63.4968 37.846 63.3721 37.956 63.2108 38.044C63.0495 38.1467 62.8221 38.198 62.5288 38.198C62.2355 38.198 62.0008 38.1393 61.8248 38.022C61.6635 37.9193 61.5388 37.78 61.4508 37.604C61.3628 37.4133 61.2895 37.23 61.2308 37.054L60.0428 31.62L58.8328 37.054C58.7888 37.274 58.7228 37.472 58.6348 37.648C58.5615 37.824 58.4368 37.956 58.2608 38.044C58.0995 38.1467 57.8648 38.198 57.5568 38.198ZM73.2636 38.198C72.8529 38.198 72.5523 38.1393 72.3616 38.022C72.1856 37.9047 72.0756 37.7433 72.0316 37.538C71.9876 37.3327 71.9656 37.1127 71.9656 36.878V28.65C71.9656 28.4153 71.9876 28.2027 72.0316 28.012C72.0903 27.8213 72.2076 27.6673 72.3836 27.55C72.5743 27.4327 72.8749 27.374 73.2856 27.374C73.7256 27.374 74.0409 27.462 74.2316 27.638C74.4223 27.814 74.5176 28.0927 74.5176 28.474L74.4076 28.804C74.4809 28.628 74.5836 28.4593 74.7156 28.298C74.8623 28.122 75.0309 27.968 75.2216 27.836C75.4123 27.6893 75.6249 27.572 75.8596 27.484C76.1089 27.396 76.3803 27.352 76.6736 27.352C77.0109 27.352 77.3263 27.418 77.6196 27.55C77.9276 27.682 78.2063 27.8873 78.4556 28.166C78.7196 28.43 78.9469 28.7893 79.1376 29.244C79.3869 28.7893 79.6509 28.43 79.9296 28.166C80.2229 27.8873 80.5236 27.682 80.8316 27.55C81.1396 27.418 81.4623 27.352 81.7996 27.352C82.5036 27.352 83.0756 27.5353 83.5156 27.902C83.9703 28.2687 84.3003 28.8187 84.5056 29.552C84.7109 30.2853 84.8136 31.1947 84.8136 32.28V36.878C84.8136 37.1273 84.7916 37.3547 84.7476 37.56C84.7036 37.7507 84.5863 37.9047 84.3956 38.022C84.2196 38.1393 83.9189 38.198 83.4936 38.198C83.0829 38.198 82.7823 38.132 82.5916 38C82.4156 37.8827 82.3056 37.7287 82.2616 37.538C82.2176 37.3327 82.1956 37.1053 82.1956 36.856V32.236C82.1956 31.7227 82.1516 31.2973 82.0636 30.96C81.9756 30.6227 81.8436 30.366 81.6676 30.19C81.5063 30.014 81.3009 29.926 81.0516 29.926C80.7876 29.926 80.5529 30.014 80.3476 30.19C80.1423 30.366 79.9809 30.63 79.8636 30.982C79.7609 31.3193 79.7096 31.7447 79.7096 32.258V36.878C79.7096 37.1273 79.6803 37.3547 79.6216 37.56C79.5776 37.7507 79.4603 37.9047 79.2696 38.022C79.0936 38.1393 78.8003 38.198 78.3896 38.198C77.9789 38.198 77.6783 38.132 77.4876 38C77.2969 37.8827 77.1796 37.7287 77.1356 37.538C77.0916 37.3327 77.0696 37.1053 77.0696 36.856V32.236C77.0696 31.7227 77.0183 31.2973 76.9156 30.96C76.8129 30.6227 76.6663 30.366 76.4756 30.19C76.2849 30.014 76.0723 29.926 75.8376 29.926C75.5443 29.926 75.3023 30.0067 75.1116 30.168C74.9356 30.3147 74.8036 30.5567 74.7156 30.894C74.6276 31.2313 74.5836 31.6787 74.5836 32.236V36.9C74.5836 37.1347 74.5616 37.3547 74.5176 37.56C74.4736 37.7653 74.3563 37.9193 74.1656 38.022C73.9749 38.1393 73.6743 38.198 73.2636 38.198ZM90.3784 38.33C89.7624 38.33 89.1977 38.2127 88.6844 37.978C88.1857 37.7287 87.7604 37.3693 87.4084 36.9C87.0564 36.416 86.785 35.8367 86.5944 35.162C86.4037 34.4727 86.3084 33.688 86.3084 32.808C86.3084 31.972 86.389 31.2167 86.5504 30.542C86.7264 29.8527 86.9757 29.266 87.2984 28.782C87.6357 28.298 88.061 27.924 88.5744 27.66C89.0877 27.3813 89.6744 27.242 90.3344 27.242C91.2584 27.242 92.021 27.4767 92.6224 27.946C93.2237 28.4007 93.671 29.046 93.9644 29.882C94.2724 30.7033 94.4264 31.6713 94.4264 32.786C94.4264 33.6807 94.331 34.4727 94.1404 35.162C93.9497 35.8513 93.671 36.4307 93.3044 36.9C92.9524 37.3693 92.527 37.7287 92.0284 37.978C91.5444 38.2127 90.9944 38.33 90.3784 38.33ZM90.3344 35.91C90.657 35.91 90.9284 35.7927 91.1484 35.558C91.3684 35.3233 91.5297 34.9713 91.6324 34.502C91.7497 34.0327 91.8084 33.4533 91.8084 32.764C91.8084 32.104 91.7571 31.5467 91.6544 31.092C91.5517 30.6373 91.3904 30.2927 91.1704 30.058C90.965 29.8087 90.6864 29.684 90.3344 29.684C89.997 29.684 89.7257 29.8087 89.5204 30.058C89.315 30.3073 89.161 30.6667 89.0584 31.136C88.9704 31.5907 88.9264 32.1407 88.9264 32.786C88.9264 33.4607 88.9777 34.0327 89.0804 34.502C89.183 34.9713 89.337 35.3233 89.5424 35.558C89.7624 35.7927 90.0264 35.91 90.3344 35.91ZM97.3046 38.22C96.8939 38.22 96.5933 38.154 96.4026 38.022C96.2266 37.9047 96.1166 37.7433 96.0726 37.538C96.0286 37.3327 96.0066 37.1053 96.0066 36.856V28.694C96.0066 28.43 96.0286 28.2027 96.0726 28.012C96.1313 27.8067 96.2486 27.6527 96.4246 27.55C96.6153 27.4327 96.9159 27.374 97.3266 27.374C97.7226 27.374 98.0086 27.4253 98.1846 27.528C98.3753 27.6307 98.4926 27.7627 98.5366 27.924C98.5953 28.0707 98.6246 28.2173 98.6246 28.364L98.5366 28.65C98.5953 28.4593 98.6759 28.2833 98.7786 28.122C98.8959 27.946 99.0279 27.792 99.1746 27.66C99.3213 27.528 99.4826 27.4253 99.6586 27.352C99.8346 27.2787 100.025 27.242 100.231 27.242C100.333 27.242 100.443 27.2567 100.561 27.286C100.693 27.3007 100.825 27.3373 100.957 27.396C101.089 27.44 101.206 27.506 101.309 27.594C101.426 27.6673 101.514 27.77 101.573 27.902C101.646 28.034 101.683 28.188 101.683 28.364C101.683 28.8333 101.595 29.244 101.419 29.596C101.243 29.9333 100.993 30.102 100.671 30.102C100.539 30.102 100.421 30.0873 100.319 30.058C100.231 30.014 100.143 29.97 100.055 29.926C99.9666 29.8673 99.8639 29.8233 99.7466 29.794C99.6439 29.7647 99.5119 29.75 99.3506 29.75C99.2186 29.75 99.1086 29.7793 99.0206 29.838C98.9326 29.882 98.8593 29.9553 98.8006 30.058C98.7419 30.146 98.6979 30.256 98.6686 30.388C98.6539 30.5053 98.6466 30.6373 98.6466 30.784V36.9C98.6466 37.1493 98.6173 37.3767 98.5586 37.582C98.5146 37.7727 98.3973 37.9267 98.2066 38.044C98.0306 38.1613 97.7299 38.22 97.3046 38.22ZM106.899 38.352C106.122 38.352 105.462 38.198 104.919 37.89C104.391 37.582 103.973 37.164 103.665 36.636C103.357 36.0933 103.13 35.492 102.983 34.832C102.851 34.1573 102.785 33.4607 102.785 32.742C102.785 31.686 102.939 30.7473 103.247 29.926C103.57 29.1047 104.032 28.4593 104.633 27.99C105.235 27.5207 105.983 27.286 106.877 27.286C107.479 27.286 107.992 27.4107 108.417 27.66C108.857 27.9093 109.217 28.2393 109.495 28.65C109.774 29.046 109.979 29.486 110.111 29.97C110.243 30.454 110.309 30.9233 110.309 31.378C110.309 32.1553 110.141 32.7347 109.803 33.116C109.481 33.4973 109.033 33.688 108.461 33.688H105.491C105.477 34.172 105.535 34.59 105.667 34.942C105.799 35.294 105.975 35.5653 106.195 35.756C106.43 35.932 106.694 36.02 106.987 36.02C107.222 36.02 107.427 35.998 107.603 35.954C107.794 35.91 107.955 35.8587 108.087 35.8C108.219 35.7413 108.337 35.6753 108.439 35.602C108.557 35.5287 108.667 35.47 108.769 35.426C108.887 35.382 109.011 35.36 109.143 35.36C109.334 35.36 109.495 35.4187 109.627 35.536C109.759 35.6533 109.877 35.8147 109.979 36.02C110.067 36.1667 110.119 36.2913 110.133 36.394C110.163 36.4967 110.177 36.614 110.177 36.746C110.177 37.01 110.016 37.2667 109.693 37.516C109.385 37.7653 108.982 37.9633 108.483 38.11C107.985 38.2713 107.457 38.352 106.899 38.352ZM105.447 32.016H107.295C107.545 32.016 107.713 31.9867 107.801 31.928C107.904 31.8693 107.955 31.7007 107.955 31.422C107.955 31.0847 107.911 30.784 107.823 30.52C107.75 30.256 107.633 30.0433 107.471 29.882C107.31 29.7207 107.105 29.64 106.855 29.64C106.562 29.64 106.305 29.75 106.085 29.97C105.865 30.1753 105.704 30.4613 105.601 30.828C105.499 31.18 105.447 31.576 105.447 32.016Z" fill="white"/>
</g>
<defs>
<filter id="filter0_i_3_3352" x="-1" y="0" width="137" height="68" filterUnits="userSpaceOnUse" color-interpolation-filters="sRGB">
<feFlood flood-opacity="0" result="BackgroundImageFix"/>
<feBlend mode="normal" in="SourceGraphic" in2="BackgroundImageFix" result="shape"/>
<feColorMatrix in="SourceAlpha" type="matrix" values="0 0 0 0 0 0 0 0 0 0 0 0 0 0 0 0 0 0 127 0" result="hardAlpha"/>
<feOffset dx="-1"/>
<feGaussianBlur stdDeviation="5"/>
<feComposite in2="hardAlpha" operator="arithmetic" k2="-1" k3="1"/>
<feColorMatrix type="matrix" values="0 0 0 0 0.258333 0 0 0 0 0.258333 0 0 0 0 0.258333 0 0 0 0.6 0"/>
<feBlend mode="normal" in2="shape" result="effect1_innerShadow_3_3352"/>
</filter>
<filter id="filter1_d_3_3352" x="127" y="-1" width="33" height="69" filterUnits="userSpaceOnUse" color-interpolation-filters="sRGB">
<feFlood flood-opacity="0" result="BackgroundImageFix"/>
<feColorMatrix in="SourceAlpha" type="matrix" values="0 0 0 0 0 0 0 0 0 0 0 0 0 0 0 0 0 0 127 0" result="hardAlpha"/>
<feMorphology radius="1" operator="dilate" in="SourceAlpha" result="effect1_dropShadow_3_3352"/>
<feOffset/>
<feGaussianBlur stdDeviation="1"/>
<feColorMatrix type="matrix" values="0 0 0 0 0 0 0 0 0 0 0 0 0 0 0 0 0 0 1 0"/>
<feBlend mode="normal" in2="BackgroundImageFix" result="effect1_dropShadow_3_3352"/>
<feBlend mode="normal" in="SourceGraphic" in2="effect1_dropShadow_3_3352" result="shape"/>
</filter>
<filter id="filter2_d_3_3352" x="-24" y="2" width="31" height="69" filterUnits="userSpaceOnUse" color-interpolation-filters="sRGB">
<feFlood flood-opacity="0" result="BackgroundImageFix"/>
<feColorMatrix in="SourceAlpha" type="matrix" values="0 0 0 0 0 0 0 0 0 0 0 0 0 0 0 0 0 0 127 0" result="hardAlpha"/>
<feMorphology radius="1" operator="dilate" in="SourceAlpha" result="effect1_dropShadow_3_3352"/>
<feOffset/>
<feGaussianBlur stdDeviation="1"/>
<feColorMatrix type="matrix" values="0 0 0 0 0 0 0 0 0 0 0 0 0 0 0 0 0 0 1 0"/>
<feBlend mode="normal" in2="BackgroundImageFix" result="effect1_dropShadow_3_3352"/>
<feBlend mode="normal" in="SourceGraphic" in2="effect1_dropShadow_3_3352" result="shape"/>
</filter>
<filter id="filter3_d_3_3352" x="16.3594" y="12.8418" width="103.95" height="35.5098" filterUnits="userSpaceOnUse" color-interpolation-filters="sRGB">
<feFlood flood-opacity="0" result="BackgroundImageFix"/>
<feColorMatrix in="SourceAlpha" type="matrix" values="0 0 0 0 0 0 0 0 0 0 0 0 0 0 0 0 0 0 127 0" result="hardAlpha"/>
<feOffset/>
<feGaussianBlur stdDeviation="5"/>
<feColorMatrix type="matrix" values="0 0 0 0 0.466667 0 0 0 0 0.466667 0 0 0 0 0.466667 0 0 0 0.25 0"/>
<feBlend mode="normal" in2="BackgroundImageFix" result="effect1_dropShadow_3_3352"/>
<feBlend mode="normal" in="SourceGraphic" in2="effect1_dropShadow_3_3352" result="shape"/>
</filter>
<linearGradient id="paint0_linear_3_3352" x1="10" y1="29.0182" x2="126" y2="29.0182" gradientUnits="userSpaceOnUse">
<stop stop-opacity="0.4"/>
<stop offset="0.0625" stop-color="#C5C5C5" stop-opacity="0.44375"/>
<stop offset="0.5" stop-color="white" stop-opacity="0.75"/>
<stop offset="1" stop-color="white"/>
</linearGradient>
<linearGradient id="paint1_linear_3_3352" x1="10" y1="29.0182" x2="126" y2="29.0182" gradientUnits="userSpaceOnUse">
<stop stop-color="white" stop-opacity="0.56"/>
<stop offset="0.51098" stop-color="white" stop-opacity="0"/>
<stop offset="1" stop-color="white" stop-opacity="0.14"/>
</linearGradient>
<linearGradient id="paint2_linear_3_3352" x1="123" y1="63" x2="132.5" y2="55" gradientUnits="userSpaceOnUse">
<stop stop-color="white" stop-opacity="0.2"/>
<stop offset="0.5" stop-color="white" stop-opacity="0.3"/>
<stop offset="1" stop-color="white" stop-opacity="0"/>
</linearGradient>
<linearGradient id="paint3_linear_3_3352" x1="12.5" y1="63" x2="2.5" y2="55.5" gradientUnits="userSpaceOnUse">
<stop stop-color="white" stop-opacity="0.2"/>
<stop offset="0.5" stop-color="white" stop-opacity="0.5"/>
<stop offset="1" stop-color="white" stop-opacity="0.7"/>
</linearGradient>
<linearGradient id="paint4_linear_3_3352" x1="123" y1="2" x2="128" y2="13" gradientUnits="userSpaceOnUse">
<stop stop-color="white" stop-opacity="0.15"/>
<stop offset="0.505208" stop-color="white" stop-opacity="0.5"/>
<stop offset="1" stop-color="white" stop-opacity="0"/>
</linearGradient>
<linearGradient id="paint5_linear_3_3352" x1="13" y1="2" x2="8" y2="13" gradientUnits="userSpaceOnUse">
<stop stop-color="white" stop-opacity="0.15"/>
<stop offset="0.494792" stop-color="white" stop-opacity="0.5"/>
<stop offset="1" stop-color="white" stop-opacity="0.7"/>
</linearGradient>
</defs>
</svg>
