<svg width="69" height="69" viewBox="0 0 69 69" fill="none" xmlns="http://www.w3.org/2000/svg">
<rect width="68" height="68" rx="5.66929" fill="#06C7F2"/>
<path fill-rule="evenodd" clip-rule="evenodd" d="M5.66929 0C2.53823 0 0 2.53823 0 5.66929V62.3622C0 65.4933 2.53823 68.0315 5.66929 68.0315H62.3622C65.4933 68.0315 68.0315 65.4933 68.0315 62.3622V5.66929C68.0315 2.53823 65.4933 0 62.3622 0H5.66929ZM15.67 3C12.5385 3 10 5.53854 10 8.67V50.33C10 53.4615 12.5385 56 15.67 56H52.33C55.4615 56 58 53.4615 58 50.33V8.67C58 5.53855 55.4615 3 52.33 3H15.67Z" fill="#9E9E9E" fill-opacity="0.5"/>
<g filter="url(#filter0_i_27_392)" style="mix-blend-mode:overlay">
<rect width="68" height="68" rx="5.66929" fill="white" fill-opacity="0.01"/>
</g>
<rect x="10" y="3" width="48" height="53" rx="5.67" fill="url(#paint0_linear_27_392)" fill-opacity="0.2"/>
<rect x="10.5" y="3.5" width="47" height="52" rx="5.17" stroke="url(#paint1_linear_27_392)" stroke-opacity="0.4"/>
<path opacity="0.5" d="M42.9801 56.0004V67.9689H62.2992C65.4303 67.9689 67.9685 65.4307 67.9685 62.2996V42.9805H58V50.3304C58 53.4618 55.4615 56.0004 52.33 56.0004H42.9801Z" fill="url(#paint2_linear_27_392)"/>
<rect opacity="0.5" x="25" y="56" width="18" height="12" fill="white" fill-opacity="0.2"/>
<path opacity="0.5" d="M10 42.9805H0V62.2996C0 65.4307 2.53823 67.9689 5.6693 67.9689H24.9884V56.0004H15.67C12.5385 56.0004 10 53.4618 10 50.3304V42.9805Z" fill="url(#paint3_linear_27_392)"/>
<rect opacity="0.5" y="24.9883" width="9.99537" height="17.9917" fill="white" fill-opacity="0.7"/>
<path opacity="0.5" d="M62.2992 0H42.9801V3H52.33C55.4615 3 58 5.53855 58 8.67V24.9884H67.9685V5.66929C67.9685 2.53823 65.4303 0 62.2992 0Z" fill="url(#paint4_linear_27_392)"/>
<rect opacity="0.5" x="24.9884" width="17.9917" height="2.99861" fill="white" fill-opacity="0.15"/>
<path opacity="0.5" d="M5.66929 0C2.53823 0 0 2.53823 0 5.6693V24.9884H10V8.67C10 5.53854 12.5385 3 15.67 3H24.9884V0H5.66929Z" fill="url(#paint5_linear_27_392)"/>
<mask id="mask0_27_392" style="mask-type:alpha" maskUnits="userSpaceOnUse" x="50" y="0" width="18" height="68">
<rect x="67.9685" y="67.9688" width="16.9921" height="67.9685" rx="5.66929" transform="rotate(-180 67.9685 67.9688)" fill="#343436"/>
</mask>
<g mask="url(#mask0_27_392)">
<g opacity="0.2" filter="url(#filter1_d_27_392)" style="mix-blend-mode:overlay">
<path d="M88.9588 59.3007C88.9588 62.4322 86.4203 64.9707 83.2888 64.9707L74.4713 64.9707C67.5677 64.9707 61.9713 59.3743 61.9713 52.4707L61.9713 14.4999C61.9713 7.59631 67.5677 1.99988 74.4713 1.99988L83.2888 1.99988C86.4203 1.99988 88.9588 4.53842 88.9588 7.66988L88.9588 59.3007Z" fill="black" fill-opacity="0.01"/>
</g>
</g>
<mask id="mask1_27_392" style="mask-type:alpha" maskUnits="userSpaceOnUse" x="0" y="0" width="17" height="68">
<rect width="16.9921" height="67.9685" rx="5.66929" fill="#343436"/>
</mask>
<g mask="url(#mask1_27_392)">
<g opacity="0.2" filter="url(#filter2_d_27_392)" style="mix-blend-mode:overlay">
<path d="M-20.9903 10.6681C-20.9903 7.5366 -18.4517 4.99805 -15.3203 4.99805H-1.67187C1.45958 4.99805 3.99813 7.53659 3.99813 10.668V55.4689C3.99813 62.3724 -1.59831 67.9689 -8.50187 67.9689H-15.3203C-18.4517 67.9689 -20.9903 65.4303 -20.9903 62.2989V10.6681Z" fill="black" fill-opacity="0.01"/>
</g>
</g>
<g clip-path="url(#clip0_27_392)">
<path d="M27.889 28.3916L37.6793 18.6015C37.9057 18.3748 38.208 18.25 38.5303 18.25C38.8526 18.25 39.1549 18.3748 39.3813 18.6015L40.1023 19.3223C40.5715 19.792 40.5715 20.5553 40.1023 21.0243L31.8812 29.2454L40.1114 37.4757C40.3379 37.7023 40.4629 38.0044 40.4629 38.3265C40.4629 38.649 40.3379 38.9511 40.1114 39.1779L39.3904 39.8985C39.1638 40.1252 38.8617 40.25 38.5394 40.25C38.2171 40.25 37.9148 40.1252 37.6884 39.8985L27.889 30.0995C27.662 29.8722 27.5374 29.5686 27.5381 29.246C27.5374 28.9221 27.662 28.6187 27.889 28.3916Z" fill="black"/>
</g>
<defs>
<filter id="filter0_i_27_392" x="-1" y="0" width="69" height="68" filterUnits="userSpaceOnUse" color-interpolation-filters="sRGB">
<feFlood flood-opacity="0" result="BackgroundImageFix"/>
<feBlend mode="normal" in="SourceGraphic" in2="BackgroundImageFix" result="shape"/>
<feColorMatrix in="SourceAlpha" type="matrix" values="0 0 0 0 0 0 0 0 0 0 0 0 0 0 0 0 0 0 127 0" result="hardAlpha"/>
<feOffset dx="-1"/>
<feGaussianBlur stdDeviation="5"/>
<feComposite in2="hardAlpha" operator="arithmetic" k2="-1" k3="1"/>
<feColorMatrix type="matrix" values="0 0 0 0 0 0 0 0 0 0 0 0 0 0 0 0 0 0 0.6 0"/>
<feBlend mode="normal" in2="shape" result="effect1_innerShadow_27_392"/>
</filter>
<filter id="filter1_d_27_392" x="58.9713" y="-1" width="32.9875" height="68.9707" filterUnits="userSpaceOnUse" color-interpolation-filters="sRGB">
<feFlood flood-opacity="0" result="BackgroundImageFix"/>
<feColorMatrix in="SourceAlpha" type="matrix" values="0 0 0 0 0 0 0 0 0 0 0 0 0 0 0 0 0 0 127 0" result="hardAlpha"/>
<feMorphology radius="1" operator="dilate" in="SourceAlpha" result="effect1_dropShadow_27_392"/>
<feOffset/>
<feGaussianBlur stdDeviation="1"/>
<feColorMatrix type="matrix" values="0 0 0 0 0 0 0 0 0 0 0 0 0 0 0 0 0 0 1 0"/>
<feBlend mode="normal" in2="BackgroundImageFix" result="effect1_dropShadow_27_392"/>
<feBlend mode="normal" in="SourceGraphic" in2="effect1_dropShadow_27_392" result="shape"/>
</filter>
<filter id="filter2_d_27_392" x="-23.9903" y="1.99805" width="30.9884" height="68.9707" filterUnits="userSpaceOnUse" color-interpolation-filters="sRGB">
<feFlood flood-opacity="0" result="BackgroundImageFix"/>
<feColorMatrix in="SourceAlpha" type="matrix" values="0 0 0 0 0 0 0 0 0 0 0 0 0 0 0 0 0 0 127 0" result="hardAlpha"/>
<feMorphology radius="1" operator="dilate" in="SourceAlpha" result="effect1_dropShadow_27_392"/>
<feOffset/>
<feGaussianBlur stdDeviation="1"/>
<feColorMatrix type="matrix" values="0 0 0 0 0 0 0 0 0 0 0 0 0 0 0 0 0 0 1 0"/>
<feBlend mode="normal" in2="BackgroundImageFix" result="effect1_dropShadow_27_392"/>
<feBlend mode="normal" in="SourceGraphic" in2="effect1_dropShadow_27_392" result="shape"/>
</filter>
<linearGradient id="paint0_linear_27_392" x1="10" y1="29.0182" x2="58" y2="29.0182" gradientUnits="userSpaceOnUse">
<stop stop-opacity="0.4"/>
<stop offset="0.0625" stop-color="#C5C5C5" stop-opacity="0.44375"/>
<stop offset="0.5" stop-color="white" stop-opacity="0.75"/>
<stop offset="1" stop-color="white"/>
</linearGradient>
<linearGradient id="paint1_linear_27_392" x1="10" y1="29.0182" x2="58" y2="29.0182" gradientUnits="userSpaceOnUse">
<stop stop-color="white" stop-opacity="0.56"/>
<stop offset="0.51098" stop-color="white" stop-opacity="0"/>
<stop offset="1" stop-color="white" stop-opacity="0.14"/>
</linearGradient>
<linearGradient id="paint2_linear_27_392" x1="54.9745" y1="62.9712" x2="64.4702" y2="54.9749" gradientUnits="userSpaceOnUse">
<stop stop-color="white" stop-opacity="0.2"/>
<stop offset="0.5" stop-color="white" stop-opacity="0.3"/>
<stop offset="1" stop-color="white" stop-opacity="0"/>
</linearGradient>
<linearGradient id="paint3_linear_27_392" x1="12.4942" y1="62.9712" x2="2.49884" y2="55.4747" gradientUnits="userSpaceOnUse">
<stop stop-color="white" stop-opacity="0.2"/>
<stop offset="0.5" stop-color="white" stop-opacity="0.5"/>
<stop offset="1" stop-color="white" stop-opacity="0.7"/>
</linearGradient>
<linearGradient id="paint4_linear_27_392" x1="54.9745" y1="1.99907" x2="59.9722" y2="12.994" gradientUnits="userSpaceOnUse">
<stop stop-color="white" stop-opacity="0.15"/>
<stop offset="0.505208" stop-color="white" stop-opacity="0.5"/>
<stop offset="1" stop-color="white" stop-opacity="0"/>
</linearGradient>
<linearGradient id="paint5_linear_27_392" x1="12.994" y1="1.99907" x2="7.9963" y2="12.994" gradientUnits="userSpaceOnUse">
<stop stop-color="white" stop-opacity="0.15"/>
<stop offset="0.494792" stop-color="white" stop-opacity="0.5"/>
<stop offset="1" stop-color="white" stop-opacity="0.7"/>
</linearGradient>
<clipPath id="clip0_27_392">
<rect width="22" height="22" fill="white" transform="matrix(-1 0 0 1 45 18.25)"/>
</clipPath>
</defs>
</svg>
