<svg width="135" height="65" viewBox="0 0 135 65" fill="none" xmlns="http://www.w3.org/2000/svg">
<g id="keycaps">
<g clip-path="url(#clip0_27_253)">
<rect width="135" height="65" rx="4" fill="#D2D0CB"/>
<rect width="135" height="65" rx="4" fill="url(#paint0_linear_27_253)"/>
<g id="Vector 1" filter="url(#filter0_f_27_253)">
<path d="M13 3.5L0 0V65L13 50.5V3.5Z" fill="#DBDBDB"/>
<path d="M13 3.5L0 0V65L13 50.5V3.5Z" fill="url(#paint1_linear_27_253)"/>
</g>
<g id="Vector 2" filter="url(#filter1_f_27_253)">
<path d="M122 3.5L135 0V65L122 50.5V3.5Z" fill="#C29595"/>
<path d="M122 3.5L135 0V65L122 50.5V3.5Z" fill="url(#paint2_linear_27_253)"/>
</g>
<g id="Frame 9" filter="url(#filter2_d_27_253)">
<rect x="13" y="6" width="109" height="46" rx="6" fill="#F7F7F6"/>
<rect x="13" y="6" width="109" height="46" rx="6" fill="url(#paint3_radial_27_253)" fill-opacity="0.2" style="mix-blend-mode:multiply"/>
<rect x="13.5" y="6.5" width="108" height="45" rx="5.5" stroke="white" stroke-opacity="0.3" style="mix-blend-mode:overlay"/>
<g id="LOGIN">
<mask id="path-7-outside-1_27_253" maskUnits="userSpaceOnUse" x="38.5" y="19.5" width="58" height="20" fill="black">
<rect fill="white" x="38.5" y="19.5" width="58" height="20"/>
<path d="M41.6607 37.716C41.0847 37.716 40.6687 37.636 40.4127 37.476C40.1567 37.3 39.9967 37.068 39.9327 36.78C39.8687 36.492 39.8367 36.196 39.8367 35.892V22.764C39.8367 22.444 39.8607 22.148 39.9087 21.876C39.9727 21.604 40.1327 21.38 40.3887 21.204C40.6447 21.028 41.0687 20.94 41.6607 20.94C42.2687 20.94 42.6927 21.028 42.9327 21.204C43.1887 21.38 43.3407 21.604 43.3887 21.876C43.4527 22.148 43.4847 22.444 43.4847 22.764V34.548H47.2527C47.5247 34.548 47.7727 34.572 47.9967 34.62C48.2367 34.668 48.4287 34.804 48.5727 35.028C48.7327 35.252 48.8127 35.62 48.8127 36.132C48.8127 36.628 48.7327 36.996 48.5727 37.236C48.4287 37.46 48.2367 37.596 47.9967 37.644C47.7727 37.692 47.5247 37.716 47.2527 37.716H41.6607ZM56.4003 37.932C55.4563 37.932 54.6083 37.748 53.8563 37.38C53.1203 36.996 52.4883 36.444 51.9603 35.724C51.4483 34.988 51.0563 34.1 50.7843 33.06C50.5283 32.004 50.4003 30.796 50.4003 29.436C50.4003 28.044 50.5283 26.812 50.7843 25.74C51.0403 24.652 51.4163 23.74 51.9123 23.004C52.4083 22.252 53.0163 21.684 53.7363 21.3C54.4563 20.916 55.2803 20.724 56.2083 20.724C57.1523 20.724 57.9923 20.916 58.7283 21.3C59.4643 21.684 60.0803 22.252 60.5763 23.004C61.0883 23.74 61.4803 24.636 61.7523 25.692C62.0243 26.748 62.1603 27.964 62.1603 29.34C62.1603 30.716 62.0243 31.94 61.7523 33.012C61.4963 34.068 61.1203 34.964 60.6243 35.7C60.1443 36.436 59.5443 36.996 58.8243 37.38C58.1203 37.748 57.3123 37.932 56.4003 37.932ZM56.2563 34.284C56.5923 34.284 56.8883 34.18 57.1443 33.972C57.4003 33.748 57.6163 33.428 57.7923 33.012C57.9843 32.58 58.1203 32.06 58.2003 31.452C58.2963 30.844 58.3443 30.14 58.3443 29.34C58.3443 28.54 58.2963 27.836 58.2003 27.228C58.1203 26.62 57.9923 26.1 57.8163 25.668C57.6403 25.236 57.4243 24.916 57.1683 24.708C56.9123 24.484 56.6163 24.372 56.2803 24.372C55.9443 24.372 55.6483 24.484 55.3923 24.708C55.1363 24.916 54.9203 25.236 54.7443 25.668C54.5683 26.1 54.4323 26.62 54.3363 27.228C54.2563 27.836 54.2163 28.54 54.2163 29.34C54.2163 30.14 54.2563 30.852 54.3363 31.476C54.4323 32.084 54.5683 32.596 54.7443 33.012C54.9203 33.428 55.1283 33.748 55.3683 33.972C55.6243 34.18 55.9203 34.284 56.2563 34.284ZM69.7786 37.908C68.8666 37.908 68.0426 37.7 67.3066 37.284C66.5866 36.852 65.9706 36.252 65.4586 35.484C64.9466 34.7 64.5546 33.772 64.2826 32.7C64.0266 31.612 63.8986 30.404 63.8986 29.076C63.8986 27.828 64.0346 26.692 64.3066 25.668C64.5946 24.628 65.0026 23.74 65.5306 23.004C66.0586 22.252 66.6906 21.676 67.4266 21.276C68.1786 20.876 69.0266 20.676 69.9706 20.676C70.2106 20.676 70.5386 20.724 70.9546 20.82C71.3706 20.916 71.8026 21.044 72.2506 21.204C72.7146 21.364 73.1146 21.564 73.4506 21.804C73.8346 22.028 74.1386 22.276 74.3626 22.548C74.5866 22.82 74.7066 23.052 74.7226 23.244C74.7226 23.388 74.6826 23.572 74.6026 23.796C74.5226 24.004 74.4186 24.204 74.2906 24.396C74.0826 24.716 73.8426 24.972 73.5706 25.164C73.3146 25.356 73.0666 25.452 72.8266 25.452C72.7146 25.452 72.5466 25.412 72.3226 25.332C72.1146 25.236 71.8826 25.116 71.6266 24.972C71.4346 24.828 71.2346 24.716 71.0266 24.636C70.8346 24.54 70.6426 24.468 70.4506 24.42C70.2586 24.372 70.0586 24.348 69.8506 24.348C69.3546 24.348 68.9306 24.548 68.5786 24.948C68.2266 25.348 67.9626 25.908 67.7866 26.628C67.6266 27.332 67.5466 28.172 67.5466 29.148C67.5626 30.156 67.6586 31.044 67.8346 31.812C68.0106 32.564 68.2666 33.156 68.6026 33.588C68.9546 34.004 69.3786 34.212 69.8746 34.212C70.0666 34.212 70.2346 34.204 70.3786 34.188C70.5386 34.172 70.6906 34.148 70.8346 34.116C70.9786 34.084 71.1386 34.036 71.3146 33.972V30.804H70.5226C70.2666 30.804 70.0586 30.78 69.8986 30.732C69.7386 30.668 69.6186 30.532 69.5386 30.324C69.4586 30.1 69.4186 29.732 69.4186 29.22C69.4186 28.724 69.4586 28.364 69.5386 28.14C69.6346 27.916 69.7706 27.78 69.9466 27.732C70.1226 27.684 70.3306 27.66 70.5706 27.66H73.3546C73.6906 27.676 73.9706 27.756 74.1946 27.9C74.4346 28.044 74.6186 28.244 74.7466 28.5C74.8906 28.756 74.9626 29.06 74.9626 29.412V34.74C74.9626 35.124 74.7866 35.532 74.4346 35.964C74.0826 36.396 73.6266 36.756 73.0666 37.044C72.7466 37.204 72.3946 37.356 72.0106 37.5C71.6266 37.628 71.2426 37.724 70.8586 37.788C70.4746 37.868 70.1146 37.908 69.7786 37.908ZM79.1122 37.716C78.5362 37.716 78.1202 37.628 77.8642 37.452C77.6082 37.276 77.4482 37.052 77.3842 36.78C77.3362 36.492 77.3122 36.196 77.3122 35.892V22.764C77.3122 22.46 77.3362 22.172 77.3842 21.9C77.4482 21.612 77.6082 21.38 77.8642 21.204C78.1202 21.028 78.5442 20.94 79.1362 20.94C79.7282 20.94 80.1442 21.028 80.3842 21.204C80.6402 21.38 80.8002 21.612 80.8642 21.9C80.9282 22.172 80.9602 22.468 80.9602 22.788V35.916C80.9602 36.22 80.9282 36.508 80.8642 36.78C80.8002 37.052 80.6402 37.276 80.3842 37.452C80.1282 37.628 79.7042 37.716 79.1122 37.716ZM84.8978 37.716C84.3378 37.716 83.9298 37.628 83.6738 37.452C83.4178 37.276 83.2578 37.052 83.1938 36.78C83.1458 36.492 83.1218 36.188 83.1218 35.868V22.692C83.1218 22.388 83.1538 22.108 83.2178 21.852C83.2818 21.596 83.4418 21.388 83.6978 21.228C83.9698 21.052 84.3938 20.964 84.9698 20.964C85.5618 20.964 85.9698 21.036 86.1938 21.18C86.4178 21.324 86.6178 21.516 86.7938 21.756L91.6898 30.588V22.692C91.6898 22.388 91.7218 22.108 91.7858 21.852C91.8658 21.596 92.0338 21.388 92.2898 21.228C92.5458 21.052 92.9618 20.964 93.5378 20.964C94.1298 20.964 94.5458 21.052 94.7858 21.228C95.0418 21.404 95.1938 21.636 95.2418 21.924C95.3058 22.196 95.3378 22.484 95.3378 22.788V35.892C95.3378 36.196 95.3058 36.492 95.2418 36.78C95.1778 37.052 95.0098 37.276 94.7378 37.452C94.4818 37.628 94.0578 37.716 93.4658 37.716C93.0178 37.716 92.6658 37.676 92.4098 37.596C92.1698 37.516 91.9698 37.356 91.8098 37.116L86.7458 28.212V35.892C86.7458 36.196 86.7138 36.492 86.6498 36.78C86.5858 37.052 86.4258 37.276 86.1698 37.452C85.9138 37.628 85.4898 37.716 84.8978 37.716Z"/>
</mask>
<path d="M41.6607 37.716C41.0847 37.716 40.6687 37.636 40.4127 37.476C40.1567 37.3 39.9967 37.068 39.9327 36.78C39.8687 36.492 39.8367 36.196 39.8367 35.892V22.764C39.8367 22.444 39.8607 22.148 39.9087 21.876C39.9727 21.604 40.1327 21.38 40.3887 21.204C40.6447 21.028 41.0687 20.94 41.6607 20.94C42.2687 20.94 42.6927 21.028 42.9327 21.204C43.1887 21.38 43.3407 21.604 43.3887 21.876C43.4527 22.148 43.4847 22.444 43.4847 22.764V34.548H47.2527C47.5247 34.548 47.7727 34.572 47.9967 34.62C48.2367 34.668 48.4287 34.804 48.5727 35.028C48.7327 35.252 48.8127 35.62 48.8127 36.132C48.8127 36.628 48.7327 36.996 48.5727 37.236C48.4287 37.46 48.2367 37.596 47.9967 37.644C47.7727 37.692 47.5247 37.716 47.2527 37.716H41.6607ZM56.4003 37.932C55.4563 37.932 54.6083 37.748 53.8563 37.38C53.1203 36.996 52.4883 36.444 51.9603 35.724C51.4483 34.988 51.0563 34.1 50.7843 33.06C50.5283 32.004 50.4003 30.796 50.4003 29.436C50.4003 28.044 50.5283 26.812 50.7843 25.74C51.0403 24.652 51.4163 23.74 51.9123 23.004C52.4083 22.252 53.0163 21.684 53.7363 21.3C54.4563 20.916 55.2803 20.724 56.2083 20.724C57.1523 20.724 57.9923 20.916 58.7283 21.3C59.4643 21.684 60.0803 22.252 60.5763 23.004C61.0883 23.74 61.4803 24.636 61.7523 25.692C62.0243 26.748 62.1603 27.964 62.1603 29.34C62.1603 30.716 62.0243 31.94 61.7523 33.012C61.4963 34.068 61.1203 34.964 60.6243 35.7C60.1443 36.436 59.5443 36.996 58.8243 37.38C58.1203 37.748 57.3123 37.932 56.4003 37.932ZM56.2563 34.284C56.5923 34.284 56.8883 34.18 57.1443 33.972C57.4003 33.748 57.6163 33.428 57.7923 33.012C57.9843 32.58 58.1203 32.06 58.2003 31.452C58.2963 30.844 58.3443 30.14 58.3443 29.34C58.3443 28.54 58.2963 27.836 58.2003 27.228C58.1203 26.62 57.9923 26.1 57.8163 25.668C57.6403 25.236 57.4243 24.916 57.1683 24.708C56.9123 24.484 56.6163 24.372 56.2803 24.372C55.9443 24.372 55.6483 24.484 55.3923 24.708C55.1363 24.916 54.9203 25.236 54.7443 25.668C54.5683 26.1 54.4323 26.62 54.3363 27.228C54.2563 27.836 54.2163 28.54 54.2163 29.34C54.2163 30.14 54.2563 30.852 54.3363 31.476C54.4323 32.084 54.5683 32.596 54.7443 33.012C54.9203 33.428 55.1283 33.748 55.3683 33.972C55.6243 34.18 55.9203 34.284 56.2563 34.284ZM69.7786 37.908C68.8666 37.908 68.0426 37.7 67.3066 37.284C66.5866 36.852 65.9706 36.252 65.4586 35.484C64.9466 34.7 64.5546 33.772 64.2826 32.7C64.0266 31.612 63.8986 30.404 63.8986 29.076C63.8986 27.828 64.0346 26.692 64.3066 25.668C64.5946 24.628 65.0026 23.74 65.5306 23.004C66.0586 22.252 66.6906 21.676 67.4266 21.276C68.1786 20.876 69.0266 20.676 69.9706 20.676C70.2106 20.676 70.5386 20.724 70.9546 20.82C71.3706 20.916 71.8026 21.044 72.2506 21.204C72.7146 21.364 73.1146 21.564 73.4506 21.804C73.8346 22.028 74.1386 22.276 74.3626 22.548C74.5866 22.82 74.7066 23.052 74.7226 23.244C74.7226 23.388 74.6826 23.572 74.6026 23.796C74.5226 24.004 74.4186 24.204 74.2906 24.396C74.0826 24.716 73.8426 24.972 73.5706 25.164C73.3146 25.356 73.0666 25.452 72.8266 25.452C72.7146 25.452 72.5466 25.412 72.3226 25.332C72.1146 25.236 71.8826 25.116 71.6266 24.972C71.4346 24.828 71.2346 24.716 71.0266 24.636C70.8346 24.54 70.6426 24.468 70.4506 24.42C70.2586 24.372 70.0586 24.348 69.8506 24.348C69.3546 24.348 68.9306 24.548 68.5786 24.948C68.2266 25.348 67.9626 25.908 67.7866 26.628C67.6266 27.332 67.5466 28.172 67.5466 29.148C67.5626 30.156 67.6586 31.044 67.8346 31.812C68.0106 32.564 68.2666 33.156 68.6026 33.588C68.9546 34.004 69.3786 34.212 69.8746 34.212C70.0666 34.212 70.2346 34.204 70.3786 34.188C70.5386 34.172 70.6906 34.148 70.8346 34.116C70.9786 34.084 71.1386 34.036 71.3146 33.972V30.804H70.5226C70.2666 30.804 70.0586 30.78 69.8986 30.732C69.7386 30.668 69.6186 30.532 69.5386 30.324C69.4586 30.1 69.4186 29.732 69.4186 29.22C69.4186 28.724 69.4586 28.364 69.5386 28.14C69.6346 27.916 69.7706 27.78 69.9466 27.732C70.1226 27.684 70.3306 27.66 70.5706 27.66H73.3546C73.6906 27.676 73.9706 27.756 74.1946 27.9C74.4346 28.044 74.6186 28.244 74.7466 28.5C74.8906 28.756 74.9626 29.06 74.9626 29.412V34.74C74.9626 35.124 74.7866 35.532 74.4346 35.964C74.0826 36.396 73.6266 36.756 73.0666 37.044C72.7466 37.204 72.3946 37.356 72.0106 37.5C71.6266 37.628 71.2426 37.724 70.8586 37.788C70.4746 37.868 70.1146 37.908 69.7786 37.908ZM79.1122 37.716C78.5362 37.716 78.1202 37.628 77.8642 37.452C77.6082 37.276 77.4482 37.052 77.3842 36.78C77.3362 36.492 77.3122 36.196 77.3122 35.892V22.764C77.3122 22.46 77.3362 22.172 77.3842 21.9C77.4482 21.612 77.6082 21.38 77.8642 21.204C78.1202 21.028 78.5442 20.94 79.1362 20.94C79.7282 20.94 80.1442 21.028 80.3842 21.204C80.6402 21.38 80.8002 21.612 80.8642 21.9C80.9282 22.172 80.9602 22.468 80.9602 22.788V35.916C80.9602 36.22 80.9282 36.508 80.8642 36.78C80.8002 37.052 80.6402 37.276 80.3842 37.452C80.1282 37.628 79.7042 37.716 79.1122 37.716ZM84.8978 37.716C84.3378 37.716 83.9298 37.628 83.6738 37.452C83.4178 37.276 83.2578 37.052 83.1938 36.78C83.1458 36.492 83.1218 36.188 83.1218 35.868V22.692C83.1218 22.388 83.1538 22.108 83.2178 21.852C83.2818 21.596 83.4418 21.388 83.6978 21.228C83.9698 21.052 84.3938 20.964 84.9698 20.964C85.5618 20.964 85.9698 21.036 86.1938 21.18C86.4178 21.324 86.6178 21.516 86.7938 21.756L91.6898 30.588V22.692C91.6898 22.388 91.7218 22.108 91.7858 21.852C91.8658 21.596 92.0338 21.388 92.2898 21.228C92.5458 21.052 92.9618 20.964 93.5378 20.964C94.1298 20.964 94.5458 21.052 94.7858 21.228C95.0418 21.404 95.1938 21.636 95.2418 21.924C95.3058 22.196 95.3378 22.484 95.3378 22.788V35.892C95.3378 36.196 95.3058 36.492 95.2418 36.78C95.1778 37.052 95.0098 37.276 94.7378 37.452C94.4818 37.628 94.0578 37.716 93.4658 37.716C93.0178 37.716 92.6658 37.676 92.4098 37.596C92.1698 37.516 91.9698 37.356 91.8098 37.116L86.7458 28.212V35.892C86.7458 36.196 86.7138 36.492 86.6498 36.78C86.5858 37.052 86.4258 37.276 86.1698 37.452C85.9138 37.628 85.4898 37.716 84.8978 37.716Z" fill="black"/>
<path d="M40.4127 37.476L39.8462 38.3L39.8642 38.3124L39.8827 38.324L40.4127 37.476ZM39.9327 36.78L40.9089 36.5631L39.9327 36.78ZM39.9087 21.876L38.9353 21.647L38.9288 21.6744L38.9239 21.7022L39.9087 21.876ZM40.3887 21.204L40.9552 22.028L40.9552 22.028L40.3887 21.204ZM42.9327 21.204L42.3414 22.0104L42.3536 22.0194L42.3662 22.028L42.9327 21.204ZM43.3887 21.876L42.4039 22.0498L42.4088 22.0776L42.4153 22.105L43.3887 21.876ZM43.4847 34.548H42.4847V35.548H43.4847V34.548ZM47.9967 34.62L47.7872 35.5979L47.8006 35.6006L47.9967 34.62ZM48.5727 35.028L47.7315 35.5688L47.7448 35.5893L47.759 35.6092L48.5727 35.028ZM48.5727 37.236L47.7407 36.6813L47.736 36.6882L47.7315 36.6952L48.5727 37.236ZM47.9967 37.644L47.8006 36.6633L47.7872 36.6662L47.9967 37.644ZM41.6607 37.716V36.716C41.4152 36.716 41.2337 36.6986 41.1056 36.674C40.9734 36.6486 40.9333 36.6221 40.9427 36.628L40.4127 37.476L39.8827 38.324C40.3862 38.6387 41.0403 38.716 41.6607 38.716V37.716ZM40.4127 37.476L40.9792 36.652C40.9414 36.626 40.928 36.6081 40.9239 36.6023C40.9204 36.5972 40.9143 36.5874 40.9089 36.5631L39.9327 36.78L38.9565 36.9969C39.0785 37.5459 39.3939 37.9891 39.8462 38.3L40.4127 37.476ZM39.9327 36.78L40.9089 36.5631C40.8612 36.3484 40.8367 36.1253 40.8367 35.892H39.8367H38.8367C38.8367 36.2667 38.8762 36.6356 38.9565 36.9969L39.9327 36.78ZM39.8367 35.892H40.8367V22.764H39.8367H38.8367V35.892H39.8367ZM39.8367 22.764H40.8367C40.8367 22.4933 40.8571 22.2562 40.8935 22.0498L39.9087 21.876L38.9239 21.7022C38.8644 22.0398 38.8367 22.3947 38.8367 22.764H39.8367ZM39.9087 21.876L40.8821 22.105C40.8848 22.0938 40.8873 22.0897 40.8905 22.0852C40.8947 22.0793 40.9109 22.0585 40.9552 22.028L40.3887 21.204L39.8222 20.38C39.386 20.6798 39.0628 21.1052 38.9353 21.647L39.9087 21.876ZM40.3887 21.204L40.9552 22.028C40.9396 22.0388 40.9724 22.012 41.1019 21.9851C41.2278 21.959 41.41 21.94 41.6607 21.94V20.94V19.94C41.0219 19.94 40.3385 20.025 39.8222 20.38L40.3887 21.204ZM41.6607 20.94V21.94C41.9215 21.94 42.1071 21.9593 42.2315 21.9851C42.362 22.0122 42.3771 22.0366 42.3414 22.0104L42.9327 21.204L43.5241 20.3976C43.008 20.0191 42.2983 19.94 41.6607 19.94V20.94ZM42.9327 21.204L42.3662 22.028C42.4066 22.0558 42.4147 22.0705 42.4112 22.0655C42.4098 22.0634 42.4077 22.0597 42.4058 22.055C42.4039 22.0503 42.4036 22.0481 42.4039 22.0498L43.3887 21.876L44.3735 21.7022C44.2729 21.1321 43.946 20.6871 43.4992 20.38L42.9327 21.204ZM43.3887 21.876L42.4153 22.105C42.4593 22.2921 42.4847 22.5102 42.4847 22.764H43.4847H44.4847C44.4847 22.3778 44.4461 22.0039 44.3621 21.647L43.3887 21.876ZM43.4847 22.764H42.4847V34.548H43.4847H44.4847V22.764H43.4847ZM43.4847 34.548V35.548H47.2527V34.548V33.548H43.4847V34.548ZM47.2527 34.548V35.548C47.467 35.548 47.6434 35.567 47.7872 35.5978L47.9967 34.62L48.2062 33.6422C47.902 33.577 47.5825 33.548 47.2527 33.548V34.548ZM47.9967 34.62L47.8006 35.6006C47.7963 35.5997 47.7875 35.5975 47.7759 35.5925C47.7641 35.5875 47.7527 35.5811 47.7427 35.574C47.7213 35.5589 47.7197 35.5504 47.7315 35.5688L48.5727 35.028L49.4139 34.4872C49.1376 34.0575 48.7234 33.7455 48.1928 33.6394L47.9967 34.62ZM48.5727 35.028L47.759 35.6092C47.7367 35.578 47.7544 35.5873 47.7755 35.6844C47.7961 35.7788 47.8127 35.9238 47.8127 36.132H48.8127H49.8127C49.8127 35.566 49.7339 34.9333 49.3865 34.4468L48.5727 35.028ZM48.8127 36.132H47.8127C47.8127 36.3296 47.7965 36.4713 47.7755 36.5676C47.7544 36.6649 47.7337 36.6917 47.7407 36.6813L48.5727 37.236L49.4048 37.7907C49.7278 37.3061 49.8127 36.6995 49.8127 36.132H48.8127ZM48.5727 37.236L47.7315 36.6952C47.7197 36.7136 47.7213 36.7051 47.7427 36.69C47.7527 36.6829 47.7641 36.6765 47.7759 36.6715C47.7875 36.6665 47.7963 36.6643 47.8006 36.6634L47.9967 37.644L48.1928 38.6246C48.7234 38.5185 49.1376 38.2065 49.4139 37.7768L48.5727 37.236ZM47.9967 37.644L47.7872 36.6662C47.6434 36.697 47.467 36.716 47.2527 36.716V37.716V38.716C47.5825 38.716 47.902 38.687 48.2062 38.6218L47.9967 37.644ZM47.2527 37.716V36.716H41.6607V37.716V38.716H47.2527V37.716ZM53.8563 37.38L53.3937 38.2666L53.4051 38.2725L53.4167 38.2782L53.8563 37.38ZM51.9603 35.724L51.1394 36.2951L51.1465 36.3053L51.1539 36.3154L51.9603 35.724ZM50.7843 33.06L49.8124 33.2956L49.8145 33.3043L49.8168 33.313L50.7843 33.06ZM50.7843 25.74L51.7569 25.9723L51.7577 25.969L50.7843 25.74ZM51.9123 23.004L52.7416 23.5629L52.7471 23.5546L51.9123 23.004ZM53.7363 21.3L54.2069 22.1824L54.2069 22.1824L53.7363 21.3ZM58.7283 21.3L58.2657 22.1866H58.2657L58.7283 21.3ZM60.5763 23.004L59.7415 23.5546L59.7483 23.5649L59.7554 23.5751L60.5763 23.004ZM61.7523 25.692L62.7207 25.4426V25.4426L61.7523 25.692ZM61.7523 33.012L60.7829 32.766L60.7804 32.7764L61.7523 33.012ZM60.6243 35.7L59.795 35.1411L59.7908 35.1474L59.7867 35.1537L60.6243 35.7ZM58.8243 37.38L59.2876 38.2663L59.2949 38.2624L58.8243 37.38ZM57.1443 33.972L57.7749 34.7481L57.789 34.7366L57.8028 34.7246L57.1443 33.972ZM57.7923 33.012L56.8785 32.6059L56.8748 32.6141L56.8713 32.6224L57.7923 33.012ZM58.2003 31.452L57.2125 31.296L57.2105 31.3088L57.2088 31.3215L58.2003 31.452ZM58.2003 27.228L57.2088 27.3585L57.2105 27.3712L57.2125 27.384L58.2003 27.228ZM57.8163 25.668L56.8902 26.0453L56.8902 26.0453L57.8163 25.668ZM57.1683 24.708L56.5098 25.4606L56.5235 25.4726L56.5377 25.4841L57.1683 24.708ZM55.3923 24.708L56.0229 25.4841L56.037 25.4726L56.0508 25.4606L55.3923 24.708ZM54.7443 25.668L55.6704 26.0453V26.0453L54.7443 25.668ZM54.3363 27.228L53.3485 27.072L53.3465 27.0848L53.3448 27.0975L54.3363 27.228ZM54.3363 31.476L53.3444 31.6032L53.3462 31.6176L53.3485 31.632L54.3363 31.476ZM54.7443 33.012L55.6652 32.6224V32.6224L54.7443 33.012ZM55.3683 33.972L54.686 34.7031L54.7111 34.7265L54.7377 34.7481L55.3683 33.972ZM56.4003 37.932V36.932C55.5891 36.932 54.8944 36.7747 54.2958 36.4818L53.8563 37.38L53.4167 38.2782C54.3221 38.7213 55.3235 38.932 56.4003 38.932V37.932ZM53.8563 37.38L54.3188 36.4934C53.7286 36.1855 53.2112 35.7387 52.7667 35.1326L51.9603 35.724L51.1539 36.3154C51.7654 37.1493 52.5119 37.8065 53.3937 38.2666L53.8563 37.38ZM51.9603 35.724L52.7812 35.1529C52.3482 34.5306 51.9997 33.7552 51.7517 32.807L50.7843 33.06L49.8168 33.313C50.1128 34.4448 50.5483 35.4454 51.1394 36.2951L51.9603 35.724ZM50.7843 33.06L51.7561 32.8244C51.5228 31.862 51.4003 30.7356 51.4003 29.436H50.4003H49.4003C49.4003 30.8564 49.5337 32.146 49.8124 33.2956L50.7843 33.06ZM50.4003 29.436H51.4003C51.4003 28.1028 51.5231 26.9514 51.7569 25.9723L50.7843 25.74L49.8116 25.5077C49.5334 26.6726 49.4003 27.9852 49.4003 29.436H50.4003ZM50.7843 25.74L51.7577 25.969C51.9929 24.9695 52.3281 24.1763 52.7415 23.5629L51.9123 23.004L51.083 22.4451C50.5044 23.3037 50.0877 24.3345 49.8109 25.511L50.7843 25.74ZM51.9123 23.004L52.7471 23.5546C53.161 22.927 53.6489 22.4799 54.2069 22.1824L53.7363 21.3L53.2657 20.4176C52.3837 20.8881 51.6556 21.577 51.0775 22.4534L51.9123 23.004ZM53.7363 21.3L54.2069 22.1824C54.7632 21.8856 55.4217 21.724 56.2083 21.724V20.724V19.724C55.1389 19.724 54.1494 19.9464 53.2657 20.4176L53.7363 21.3ZM56.2083 20.724V21.724C57.0135 21.724 57.6911 21.8868 58.2657 22.1866L58.7283 21.3L59.1908 20.4134C58.2935 19.9452 57.2911 19.724 56.2083 19.724V20.724ZM58.7283 21.3L58.2657 22.1866C58.8385 22.4854 59.3308 22.932 59.7415 23.5546L60.5763 23.004L61.4111 22.4534C60.8297 21.572 60.0901 20.8826 59.1908 20.4134L58.7283 21.3ZM60.5763 23.004L59.7554 23.5751C60.1866 24.1949 60.5353 24.9764 60.7839 25.9414L61.7523 25.692L62.7207 25.4426C62.4252 24.2956 61.99 23.2851 61.3972 22.4329L60.5763 23.004ZM61.7523 25.692L60.7839 25.9414C61.0303 26.898 61.1603 28.0273 61.1603 29.34H62.1603H63.1603C63.1603 27.9007 63.0183 26.598 62.7207 25.4426L61.7523 25.692ZM62.1603 29.34H61.1603C61.1603 30.6523 61.0304 31.7912 60.783 32.7661L61.7523 33.012L62.7216 33.2579C63.0182 32.0888 63.1603 30.7797 63.1603 29.34H62.1603ZM61.7523 33.012L60.7804 32.7764C60.5463 33.7421 60.2117 34.5229 59.795 35.1411L60.6243 35.7L61.4535 36.2589C62.0289 35.4051 62.4462 34.3939 62.7241 33.2476L61.7523 33.012ZM60.6243 35.7L59.7867 35.1537C59.3915 35.7597 58.9137 36.199 58.3537 36.4976L58.8243 37.38L59.2949 38.2624C60.1749 37.793 60.8971 37.1123 61.4619 36.2463L60.6243 35.7ZM58.8243 37.38L58.361 36.4938C57.8199 36.7766 57.175 36.932 56.4003 36.932V37.932V38.932C57.4496 38.932 58.4207 38.7194 59.2875 38.2662L58.8243 37.38ZM56.2563 34.284V35.284C56.8173 35.284 57.337 35.1039 57.7749 34.7481L57.1443 33.972L56.5137 33.1959C56.4395 33.2561 56.3673 33.284 56.2563 33.284V34.284ZM57.1443 33.972L57.8028 34.7246C58.2036 34.3739 58.4968 33.9133 58.7132 33.4016L57.7923 33.012L56.8713 32.6224C56.7358 32.9427 56.597 33.1221 56.4858 33.2194L57.1443 33.972ZM57.7923 33.012L58.7061 33.4181C58.9466 32.8769 59.1027 32.259 59.1917 31.5825L58.2003 31.452L57.2088 31.3215C57.1378 31.861 57.0219 32.2831 56.8785 32.6059L57.7923 33.012ZM58.2003 31.452L59.188 31.608C59.2942 30.9357 59.3443 30.1777 59.3443 29.34H58.3443H57.3443C57.3443 30.1023 57.2984 30.7523 57.2125 31.296L58.2003 31.452ZM58.3443 29.34H59.3443C59.3443 28.5023 59.2942 27.7443 59.188 27.072L58.2003 27.228L57.2125 27.384C57.2984 27.9277 57.3443 28.5777 57.3443 29.34H58.3443ZM58.2003 27.228L59.1917 27.0975C59.1039 26.4297 58.9589 25.8222 58.7424 25.2907L57.8163 25.668L56.8902 26.0453C57.0257 26.3778 57.1367 26.8103 57.2088 27.3585L58.2003 27.228ZM57.8163 25.668L58.7424 25.2907C58.5277 24.7638 58.2282 24.2807 57.7989 23.9319L57.1683 24.708L56.5377 25.4841C56.6203 25.5513 56.7528 25.7082 56.8902 26.0453L57.8163 25.668ZM57.1683 24.708L57.8268 23.9554C57.391 23.5741 56.8618 23.372 56.2803 23.372V24.372V25.372C56.3708 25.372 56.4336 25.3939 56.5098 25.4606L57.1683 24.708ZM56.2803 24.372V23.372C55.6988 23.372 55.1696 23.5741 54.7338 23.9554L55.3923 24.708L56.0508 25.4606C56.127 25.3939 56.1898 25.372 56.2803 25.372V24.372ZM55.3923 24.708L54.7617 23.9319C54.3323 24.2807 54.0328 24.7638 53.8182 25.2907L54.7443 25.668L55.6704 26.0453C55.8077 25.7082 55.9402 25.5513 56.0229 25.4841L55.3923 24.708ZM54.7443 25.668L53.8182 25.2907C53.6057 25.8123 53.4529 26.4107 53.3485 27.072L54.3363 27.228L55.324 27.384C55.4116 26.8293 55.5309 26.3877 55.6704 26.0453L54.7443 25.668ZM54.3363 27.228L53.3448 27.0975C53.2577 27.7595 53.2163 28.5087 53.2163 29.34H54.2163H55.2163C55.2163 28.5713 55.2548 27.9125 55.3277 27.3585L54.3363 27.228ZM54.2163 29.34H53.2163C53.2163 30.1717 53.2578 30.9275 53.3444 31.6032L54.3363 31.476L55.3282 31.3488C55.2548 30.7765 55.2163 30.1083 55.2163 29.34H54.2163ZM54.3363 31.476L53.3485 31.632C53.453 32.2934 53.6066 32.8893 53.8233 33.4016L54.7443 33.012L55.6652 32.6224C55.53 32.3027 55.4116 31.8746 55.324 31.32L54.3363 31.476ZM54.7443 33.012L53.8233 33.4016C54.0347 33.9013 54.3124 34.3544 54.686 34.7031L55.3683 33.972L56.0506 33.2409C55.9441 33.1416 55.8058 32.9547 55.6652 32.6224L54.7443 33.012ZM55.3683 33.972L54.7377 34.7481C55.1755 35.1039 55.6953 35.284 56.2563 35.284V34.284V33.284C56.1453 33.284 56.073 33.2561 55.9989 33.1959L55.3683 33.972ZM67.3066 37.284L66.7921 38.1415L66.8032 38.1482L66.8145 38.1546L67.3066 37.284ZM65.4586 35.484L64.6213 36.0308L64.6265 36.0387L65.4586 35.484ZM64.2826 32.7L63.3092 32.929L63.3112 32.9375L63.3133 32.9459L64.2826 32.7ZM64.3066 25.668L63.3428 25.4011L63.3401 25.4113L64.3066 25.668ZM65.5306 23.004L66.3432 23.5869L66.349 23.5786L65.5306 23.004ZM67.4266 21.276L66.957 20.3931L66.9491 20.3974L67.4266 21.276ZM70.9546 20.82L71.1795 19.8456H71.1795L70.9546 20.82ZM72.2506 21.204L71.9142 22.1458L71.9246 22.1494L72.2506 21.204ZM73.4506 21.804L72.8694 22.6177L72.9069 22.6445L72.9467 22.6678L73.4506 21.804ZM74.7226 23.244H75.7226V23.2024L75.7191 23.161L74.7226 23.244ZM74.6026 23.796L75.5359 24.155L75.5403 24.1437L75.5443 24.1323L74.6026 23.796ZM74.2906 24.396L73.4585 23.8413L73.4522 23.851L74.2906 24.396ZM73.5706 25.164L72.9939 24.347L72.9821 24.3553L72.9706 24.364L73.5706 25.164ZM72.3226 25.332L71.9035 26.24L71.9441 26.2587L71.9863 26.2737L72.3226 25.332ZM71.6266 24.972L71.0266 25.772L71.0791 25.8114L71.1363 25.8436L71.6266 24.972ZM71.0266 24.636L70.5794 25.5304L70.6226 25.552L70.6676 25.5693L71.0266 24.636ZM70.4506 24.42L70.2081 25.3901L70.2081 25.3901L70.4506 24.42ZM68.5786 24.948L69.3293 25.6086V25.6086L68.5786 24.948ZM67.7866 26.628L66.8152 26.3905L66.8133 26.3984L66.8115 26.4064L67.7866 26.628ZM67.5466 29.148H66.5466V29.1559L66.5467 29.1639L67.5466 29.148ZM67.8346 31.812L66.8599 32.0354L66.8609 32.0399L67.8346 31.812ZM68.6026 33.588L67.8132 34.2019L67.8259 34.2182L67.8392 34.2339L68.6026 33.588ZM70.3786 34.188L70.2791 33.1929L70.2682 33.1941L70.3786 34.188ZM70.8346 34.116L71.0515 35.0922V35.0922L70.8346 34.116ZM71.3146 33.972L71.6563 34.9118L72.3146 34.6724V33.972H71.3146ZM71.3146 30.804H72.3146V29.804H71.3146V30.804ZM69.8986 30.732L69.5272 31.6605L69.5686 31.677L69.6112 31.6898L69.8986 30.732ZM69.5386 30.324L68.5969 30.6603L68.6009 30.6717L68.6052 30.683L69.5386 30.324ZM69.5386 28.14L68.6194 27.7461L68.6073 27.7745L68.5969 27.8037L69.5386 28.14ZM69.9466 27.732L70.2097 28.6968L70.2097 28.6968L69.9466 27.732ZM73.3546 27.66L73.4022 26.6611L73.3784 26.66H73.3546V27.66ZM74.1946 27.9L73.6538 28.7412L73.6668 28.7495L73.6801 28.7575L74.1946 27.9ZM74.7466 28.5L73.8522 28.9472L73.8631 28.969L73.875 28.9903L74.7466 28.5ZM74.4346 35.964L75.2098 36.5957V36.5957L74.4346 35.964ZM73.0666 37.044L73.5138 37.9385L73.5239 37.9333L73.0666 37.044ZM72.0106 37.5L72.3268 38.4487L72.3444 38.4428L72.3617 38.4363L72.0106 37.5ZM70.8586 37.788L70.6942 36.8016L70.6743 36.8049L70.6546 36.809L70.8586 37.788ZM69.7786 37.908V36.908C69.025 36.908 68.3728 36.738 67.7987 36.4134L67.3066 37.284L66.8145 38.1546C67.7124 38.662 68.7082 38.908 69.7786 38.908V37.908ZM67.3066 37.284L67.8211 36.4265C67.2402 36.078 66.7288 35.5865 66.2906 34.9293L65.4586 35.484L64.6265 36.0387C65.2124 36.9175 65.933 37.626 66.7921 38.1415L67.3066 37.284ZM65.4586 35.484L66.2959 34.9372C65.854 34.2605 65.5015 33.4381 65.2519 32.4541L64.2826 32.7L63.3133 32.9459C63.6076 34.1059 64.0392 35.1395 64.6213 36.0308L65.4586 35.484ZM64.2826 32.7L65.256 32.471C65.0206 31.4705 64.8986 30.3409 64.8986 29.076H63.8986H62.8986C62.8986 30.4671 63.0326 31.7535 63.3092 32.929L64.2826 32.7ZM63.8986 29.076H64.8986C64.8986 27.8997 65.0269 26.8517 65.2731 25.9247L64.3066 25.668L63.3401 25.4113C63.0423 26.5323 62.8986 27.7563 62.8986 29.076H63.8986ZM64.3066 25.668L65.2703 25.9349C65.5328 24.9871 65.8955 24.2109 66.3431 23.5869L65.5306 23.004L64.7181 22.4211C64.1097 23.2691 63.6564 24.2689 63.3429 25.4011L64.3066 25.668ZM65.5306 23.004L66.349 23.5786C66.7971 22.9405 67.3164 22.474 67.9041 22.1546L67.4266 21.276L66.9491 20.3974C66.0648 20.878 65.3201 21.5635 64.7122 22.4294L65.5306 23.004ZM67.4266 21.276L67.8962 22.1589C68.4885 21.8438 69.1723 21.676 69.9706 21.676V20.676V19.676C68.8809 19.676 67.8687 19.9082 66.957 20.3931L67.4266 21.276ZM69.9706 20.676V21.676C70.0981 21.676 70.3399 21.7044 70.7297 21.7944L70.9546 20.82L71.1795 19.8456C70.7373 19.7436 70.3231 19.676 69.9706 19.676V20.676ZM70.9546 20.82L70.7297 21.7944C71.104 21.8808 71.4987 21.9973 71.9143 22.1457L72.2506 21.204L72.5869 20.2623C72.1065 20.0907 71.6372 19.9512 71.1795 19.8456L70.9546 20.82ZM72.2506 21.204L71.9246 22.1494C72.3142 22.2837 72.6248 22.443 72.8694 22.6177L73.4506 21.804L74.0318 20.9903C73.6044 20.685 73.1149 20.4443 72.5766 20.2586L72.2506 21.204ZM73.4506 21.804L72.9467 22.6678C73.2542 22.8471 73.4586 23.0233 73.5907 23.1837L74.3626 22.548L75.1345 21.9123C74.8186 21.5287 74.415 21.2089 73.9545 20.9402L73.4506 21.804ZM74.3626 22.548L73.5907 23.1837C73.6722 23.2828 73.7138 23.3495 73.7324 23.3854C73.7521 23.4235 73.7321 23.4002 73.726 23.327L74.7226 23.244L75.7191 23.161C75.6772 22.6578 75.3951 22.2287 75.1345 21.9123L74.3626 22.548ZM74.7226 23.244H73.7226C73.7226 23.2267 73.7246 23.2353 73.7154 23.2776C73.7066 23.3183 73.69 23.3782 73.6609 23.4597L74.6026 23.796L75.5443 24.1323C75.6412 23.8613 75.7226 23.5531 75.7226 23.244H74.7226ZM74.6026 23.796L73.6693 23.437C73.6166 23.5738 73.5471 23.7084 73.4585 23.8413L74.2906 24.396L75.1226 24.9507C75.2901 24.6996 75.4286 24.4341 75.5359 24.155L74.6026 23.796ZM74.2906 24.396L73.4522 23.851C73.3033 24.08 73.1481 24.2382 72.9939 24.347L73.5706 25.164L74.1473 25.981C74.537 25.7058 74.8619 25.352 75.129 24.941L74.2906 24.396ZM73.5706 25.164L72.9706 24.364C72.8304 24.4692 72.7881 24.452 72.8266 24.452V25.452V26.452C73.345 26.452 73.7988 26.2428 74.1706 25.964L73.5706 25.164ZM72.8266 25.452V24.452C72.8563 24.452 72.8732 24.4545 72.8735 24.4545C72.8746 24.4547 72.8667 24.4536 72.8482 24.4492C72.81 24.4401 72.7484 24.4222 72.6589 24.3903L72.3226 25.332L71.9863 26.2737C72.2247 26.3589 72.5309 26.452 72.8266 26.452V25.452ZM72.3226 25.332L72.7417 24.424C72.5635 24.3418 72.3557 24.2348 72.1169 24.1004L71.6266 24.972L71.1363 25.8436C71.4095 25.9972 71.6657 26.1302 71.9035 26.24L72.3226 25.332ZM71.6266 24.972L72.2266 24.172C71.9664 23.9769 71.686 23.8182 71.3856 23.7027L71.0266 24.636L70.6676 25.5693C70.7832 25.6138 70.9027 25.6791 71.0266 25.772L71.6266 24.972ZM71.0266 24.636L71.4738 23.7416C71.222 23.6157 70.9616 23.517 70.6931 23.4499L70.4506 24.42L70.2081 25.3901C70.3236 25.419 70.4472 25.4643 70.5794 25.5304L71.0266 24.636ZM70.4506 24.42L70.6931 23.4499C70.4179 23.381 70.1362 23.348 69.8506 23.348V24.348V25.348C69.981 25.348 70.0993 25.363 70.2081 25.3901L70.4506 24.42ZM69.8506 24.348V23.348C69.044 23.348 68.3538 23.6897 67.8279 24.2874L68.5786 24.948L69.3293 25.6086C69.5074 25.4063 69.6652 25.348 69.8506 25.348V24.348ZM68.5786 24.948L67.8279 24.2874C67.3358 24.8466 67.0154 25.5717 66.8152 26.3905L67.7866 26.628L68.758 26.8655C68.9098 26.2443 69.1174 25.8494 69.3293 25.6086L68.5786 24.948ZM67.7866 26.628L66.8115 26.4064C66.6303 27.2034 66.5466 28.1216 66.5466 29.148H67.5466H68.5466C68.5466 28.2224 68.6229 27.4606 68.7617 26.8496L67.7866 26.628ZM67.5466 29.148L66.5467 29.1639C66.5635 30.2234 66.6646 31.1835 66.8599 32.0354L67.8346 31.812L68.8093 31.5886C68.6526 30.9045 68.5616 30.0886 68.5465 29.1321L67.5466 29.148ZM67.8346 31.812L66.8609 32.0399C67.0572 32.8785 67.3601 33.6193 67.8132 34.2019L68.6026 33.588L69.3919 32.9741C69.1731 32.6927 68.964 32.2495 68.8083 31.5841L67.8346 31.812ZM68.6026 33.588L67.8392 34.2339C68.36 34.8495 69.0532 35.212 69.8746 35.212V34.212V33.212C69.704 33.212 69.5492 33.1585 69.366 32.9421L68.6026 33.588ZM69.8746 34.212V35.212C70.0924 35.212 70.2988 35.203 70.489 35.1819L70.3786 34.188L70.2682 33.1941C70.1704 33.205 70.0408 33.212 69.8746 33.212V34.212ZM70.3786 34.188L70.4781 35.183C70.6741 35.1634 70.8655 35.1335 71.0515 35.0922L70.8346 34.116L70.6177 33.1398C70.5157 33.1625 70.4031 33.1806 70.2791 33.193L70.3786 34.188ZM70.8346 34.116L71.0515 35.0922C71.2474 35.0487 71.4499 34.9869 71.6563 34.9118L71.3146 33.972L70.9729 33.0322C70.8273 33.0851 70.7098 33.1193 70.6177 33.1398L70.8346 34.116ZM71.3146 33.972H72.3146V30.804H71.3146H70.3146V33.972H71.3146ZM71.3146 30.804V29.804H70.5226V30.804V31.804H71.3146V30.804ZM70.5226 30.804V29.804C70.318 29.804 70.2171 29.7835 70.1859 29.7742L69.8986 30.732L69.6112 31.6898C69.9001 31.7765 70.2152 31.804 70.5226 31.804V30.804ZM69.8986 30.732L70.27 29.8035C70.3429 29.8327 70.4005 29.8774 70.4384 29.9204C70.4728 29.9593 70.4787 29.9826 70.4719 29.965L69.5386 30.324L68.6052 30.683C68.7542 31.0702 69.0383 31.4649 69.5272 31.6605L69.8986 30.732ZM69.5386 30.324L70.4803 29.9877C70.4804 29.9878 70.4788 29.9833 70.4761 29.9733C70.4734 29.9633 70.47 29.9492 70.4662 29.9303C70.4584 29.8921 70.4501 29.84 70.4427 29.7719C70.4278 29.6345 70.4186 29.4525 70.4186 29.22H69.4186H68.4186C68.4186 29.7455 68.4548 30.2626 68.5969 30.6603L69.5386 30.324ZM69.4186 29.22H70.4186C70.4186 28.7419 70.4617 28.5285 70.4803 28.4763L69.5386 28.14L68.5969 27.8037C68.4555 28.1995 68.4186 28.7061 68.4186 29.22H69.4186ZM69.5386 28.14L70.4577 28.5339C70.4685 28.5089 70.4622 28.5347 70.4197 28.5771C70.3716 28.6252 70.2988 28.6725 70.2097 28.6968L69.9466 27.732L69.6835 26.7672C69.1213 26.9205 68.7923 27.3427 68.6194 27.7461L69.5386 28.14ZM69.9466 27.732L70.2097 28.6968C70.2779 28.6782 70.3933 28.66 70.5706 28.66V27.66V26.66C70.2679 26.66 69.9673 26.6898 69.6835 26.7672L69.9466 27.732ZM70.5706 27.66V28.66H73.3546V27.66V26.66H70.5706V27.66ZM73.3546 27.66L73.307 28.6589C73.5131 28.6687 73.6116 28.714 73.6538 28.7412L74.1946 27.9L74.7354 27.0588C74.3296 26.798 73.8681 26.6833 73.4022 26.6611L73.3546 27.66ZM74.1946 27.9L73.6801 28.7575C73.7532 28.8013 73.8072 28.8573 73.8522 28.9472L74.7466 28.5L75.641 28.0528C75.43 27.6307 75.116 27.2867 74.7091 27.0425L74.1946 27.9ZM74.7466 28.5L73.875 28.9903C73.9196 29.0695 73.9626 29.1977 73.9626 29.412H74.9626H75.9626C75.9626 28.9223 75.8616 28.4425 75.6182 28.0097L74.7466 28.5ZM74.9626 29.412H73.9626V34.74H74.9626H75.9626V29.412H74.9626ZM74.9626 34.74H73.9626C73.9626 34.8099 73.9298 35.0005 73.6594 35.3323L74.4346 35.964L75.2098 36.5957C75.6434 36.0635 75.9626 35.4381 75.9626 34.74H74.9626ZM74.4346 35.964L73.6594 35.3323C73.4051 35.6444 73.0626 35.9216 72.6092 36.1547L73.0666 37.044L73.5239 37.9333C74.1906 37.5904 74.7601 37.1476 75.2098 36.5957L74.4346 35.964ZM73.0666 37.044L72.6194 36.1496C72.3348 36.2919 72.0154 36.4302 71.6595 36.5637L72.0106 37.5L72.3617 38.4363C72.7738 38.2818 73.1584 38.1161 73.5138 37.9384L73.0666 37.044ZM72.0106 37.5L71.6944 36.5513C71.358 36.6635 71.0247 36.7465 70.6942 36.8016L70.8586 37.788L71.023 38.7744C71.4605 38.7015 71.8952 38.5925 72.3268 38.4487L72.0106 37.5ZM70.8586 37.788L70.6546 36.809C70.3269 36.8773 70.0358 36.908 69.7786 36.908V37.908V38.908C70.1934 38.908 70.6223 38.8587 71.0625 38.767L70.8586 37.788ZM77.8642 37.452L77.2976 38.276V38.276L77.8642 37.452ZM77.3842 36.78L76.3978 36.9444L76.4032 36.9769L76.4107 37.009L77.3842 36.78ZM77.3842 21.9L76.408 21.6831L76.4032 21.7045L76.3994 21.7262L77.3842 21.9ZM77.8642 21.204L78.4307 22.028L78.4307 22.028L77.8642 21.204ZM80.3842 21.204L79.7928 22.0104L79.8051 22.0194L79.8176 22.028L80.3842 21.204ZM80.8642 21.9L79.8879 22.1169L79.8907 22.129L80.8642 21.9ZM80.8642 36.78L81.8376 37.009V37.009L80.8642 36.78ZM80.3842 37.452L80.9507 38.276V38.276L80.3842 37.452ZM79.1122 37.716V36.716C78.871 36.716 78.696 36.6972 78.5751 36.6716C78.4515 36.6455 78.4181 36.6193 78.4307 36.628L77.8642 37.452L77.2976 38.276C77.8109 38.6289 78.4824 38.716 79.1122 38.716V37.716ZM77.8642 37.452L78.4307 36.628C78.3864 36.5975 78.3701 36.5767 78.3659 36.5708C78.3627 36.5663 78.3602 36.5622 78.3576 36.551L77.3842 36.78L76.4107 37.009C76.5382 37.5508 76.8615 37.9762 77.2976 38.276L77.8642 37.452ZM77.3842 36.78L78.3706 36.6156C78.332 36.3841 78.3122 36.1432 78.3122 35.892H77.3122H76.3122C76.3122 36.2488 76.3403 36.5999 76.3978 36.9444L77.3842 36.78ZM77.3122 35.892H78.3122V22.764H77.3122H76.3122V35.892H77.3122ZM77.3122 22.764H78.3122C78.3122 22.5125 78.332 22.283 78.3689 22.0738L77.3842 21.9L76.3994 21.7262C76.3403 22.061 76.3122 22.4075 76.3122 22.764H77.3122ZM77.3842 21.9L78.3603 22.1169C78.3657 22.0926 78.3719 22.0828 78.3754 22.0777C78.3794 22.0719 78.3929 22.054 78.4307 22.028L77.8642 21.204L77.2976 20.38C76.8454 20.6909 76.53 21.1341 76.408 21.6831L77.3842 21.9ZM77.8642 21.204L78.4307 22.028C78.415 22.0388 78.4478 22.012 78.5774 21.9851C78.7033 21.959 78.8854 21.94 79.1362 21.94V20.94V19.94C78.4973 19.94 77.8139 20.025 77.2976 20.38L77.8642 21.204ZM79.1362 20.94V21.94C79.3875 21.94 79.5659 21.9591 79.6852 21.9843C79.8095 22.0106 79.8254 22.0343 79.7928 22.0104L80.3842 21.204L80.9755 20.3976C80.4623 20.0212 79.7648 19.94 79.1362 19.94V20.94ZM80.3842 21.204L79.8176 22.028C79.8554 22.054 79.8689 22.0719 79.8729 22.0777C79.8764 22.0828 79.8826 22.0926 79.888 22.1169L80.8642 21.9L81.8403 21.6831C81.7184 21.1341 81.4029 20.6909 80.9507 20.38L80.3842 21.204ZM80.8642 21.9L79.8907 22.129C79.9347 22.3161 79.9602 22.5342 79.9602 22.788H80.9602H81.9602C81.9602 22.4018 81.9216 22.0279 81.8376 21.671L80.8642 21.9ZM80.9602 22.788H79.9602V35.916H80.9602H81.9602V22.788H80.9602ZM80.9602 35.916H79.9602C79.9602 36.1496 79.9356 36.3603 79.8907 36.551L80.8642 36.78L81.8376 37.009C81.9207 36.6557 81.9602 36.2904 81.9602 35.916H80.9602ZM80.8642 36.78L79.8907 36.551C79.8881 36.5622 79.8856 36.5663 79.8824 36.5708C79.8782 36.5767 79.8619 36.5975 79.8176 36.628L80.3842 37.452L80.9507 38.276C81.3868 37.9762 81.7101 37.5508 81.8376 37.009L80.8642 36.78ZM80.3842 37.452L79.8176 36.628C79.8333 36.6172 79.8005 36.644 79.6709 36.6709C79.5451 36.697 79.3629 36.716 79.1122 36.716V37.716V38.716C79.751 38.716 80.4344 38.631 80.9507 38.276L80.3842 37.452ZM83.6738 37.452L83.1073 38.276V38.276L83.6738 37.452ZM83.1938 36.78L82.2075 36.9444L82.2129 36.9769L82.2204 37.009L83.1938 36.78ZM83.2178 21.852L84.188 22.0945L84.188 22.0945L83.2178 21.852ZM83.6978 21.228L84.2278 22.076L84.2345 22.0718L84.2411 22.0676L83.6978 21.228ZM86.7938 21.756L87.6684 21.2712L87.6377 21.2157L87.6003 21.1646L86.7938 21.756ZM91.6898 30.588L90.8152 31.0728L92.6898 34.4545V30.588H91.6898ZM91.7858 21.852L90.8314 21.5537L90.8227 21.5814L90.8157 21.6095L91.7858 21.852ZM92.2898 21.228L92.8198 22.076L92.8384 22.0644L92.8564 22.052L92.2898 21.228ZM94.7858 21.228L94.1945 22.0344L94.2068 22.0434L94.2193 22.052L94.7858 21.228ZM95.2418 21.924L94.2555 22.0884L94.2609 22.1209L94.2684 22.153L95.2418 21.924ZM95.2418 36.78L96.2153 37.0091L96.218 36.9969L95.2418 36.78ZM94.7378 37.452L94.1946 36.6124L94.1828 36.62L94.1713 36.628L94.7378 37.452ZM92.4098 37.596L92.0936 38.5447L92.1026 38.5477L92.1116 38.5505L92.4098 37.596ZM91.8098 37.116L90.9406 37.6104L90.9581 37.6412L90.9778 37.6707L91.8098 37.116ZM86.7458 28.212L87.6151 27.7176L85.7458 24.4309V28.212H86.7458ZM86.6498 36.78L87.6233 37.0091L87.626 36.9969L86.6498 36.78ZM86.1698 37.452L85.6033 36.628V36.628L86.1698 37.452ZM84.8978 37.716V36.716C84.6663 36.716 84.4985 36.6975 84.3827 36.6725C84.2649 36.6471 84.2309 36.6215 84.2404 36.628L83.6738 37.452L83.1073 38.276C83.6174 38.6267 84.2769 38.716 84.8978 38.716V37.716ZM83.6738 37.452L84.2404 36.628C84.1961 36.5975 84.1798 36.5767 84.1756 36.5708C84.1724 36.5663 84.1699 36.5622 84.1673 36.551L83.1938 36.78L82.2204 37.009C82.3479 37.5508 82.6712 37.9762 83.1073 38.276L83.6738 37.452ZM83.1938 36.78L84.1802 36.6156C84.1421 36.3868 84.1218 36.1381 84.1218 35.868H83.1218H82.1218C82.1218 36.2379 82.1496 36.5972 82.2075 36.9444L83.1938 36.78ZM83.1218 35.868H84.1218V22.692H83.1218H82.1218V35.868H83.1218ZM83.1218 22.692H84.1218C84.1218 22.4577 84.1465 22.2603 84.188 22.0945L83.2178 21.852L82.2477 21.6095C82.1611 21.9557 82.1218 22.3183 82.1218 22.692H83.1218ZM83.2178 21.852L84.188 22.0945C84.1878 22.0952 84.1868 22.0987 84.1844 22.1037C84.182 22.1088 84.1796 22.1123 84.1785 22.1137C84.1758 22.1172 84.1859 22.1022 84.2278 22.076L83.6978 21.228L83.1678 20.38C82.7264 20.6559 82.3836 21.0657 82.2477 21.6095L83.2178 21.852ZM83.6978 21.228L84.2411 22.0676C84.2685 22.0498 84.456 21.964 84.9698 21.964V20.964V19.964C84.3317 19.964 83.6712 20.0542 83.1546 20.3884L83.6978 21.228ZM84.9698 20.964V21.964C85.2301 21.964 85.418 21.9802 85.5461 22.0028C85.6843 22.0272 85.6972 22.0495 85.6531 22.0212L86.1938 21.18L86.7346 20.3388C86.4665 20.1665 86.1634 20.0808 85.8936 20.0332C85.6137 19.9838 85.3016 19.964 84.9698 19.964V20.964ZM86.1938 21.18L85.6531 22.0212C85.7626 22.0915 85.8754 22.1946 85.9874 22.3474L86.7938 21.756L87.6003 21.1646C87.3602 20.8374 87.0731 20.5565 86.7346 20.3388L86.1938 21.18ZM86.7938 21.756L85.9192 22.2408L90.8152 31.0728L91.6898 30.588L92.5644 30.1032L87.6684 21.2712L86.7938 21.756ZM91.6898 30.588H92.6898V22.692H91.6898H90.6898V30.588H91.6898ZM91.6898 22.692H92.6898C92.6898 22.4577 92.7146 22.2603 92.756 22.0945L91.7858 21.852L90.8157 21.6095C90.7291 21.9557 90.6898 22.3183 90.6898 22.692H91.6898ZM91.7858 21.852L92.7403 22.1503C92.7429 22.142 92.7451 22.1381 92.7498 22.1323C92.7555 22.1252 92.7741 22.1046 92.8198 22.076L92.2898 21.228L91.7598 20.38C91.3284 20.6497 90.9916 21.0408 90.8314 21.5537L91.7858 21.852ZM92.2898 21.228L92.8564 22.052C92.8438 22.0607 92.8772 22.0345 93.0008 22.0083C93.1217 21.9828 93.2967 21.964 93.5378 21.964V20.964V19.964C92.9081 19.964 92.2366 20.0511 91.7233 20.404L92.2898 21.228ZM93.5378 20.964V21.964C93.7892 21.964 93.9676 21.9831 94.0869 22.0083C94.2112 22.0346 94.2271 22.0583 94.1945 22.0344L94.7858 21.228L95.3772 20.4216C94.8639 20.0452 94.1665 19.964 93.5378 19.964V20.964ZM94.7858 21.228L94.2193 22.052C94.2368 22.0641 94.2466 22.073 94.2512 22.0776C94.2557 22.0821 94.2564 22.0836 94.2554 22.082C94.2543 22.0804 94.2534 22.0785 94.253 22.0775C94.2527 22.0766 94.254 22.0797 94.2555 22.0884L95.2418 21.924L96.2282 21.7596C96.1325 21.1853 95.8161 20.7228 95.3524 20.404L94.7858 21.228ZM95.2418 21.924L94.2684 22.153C94.3133 22.3437 94.3378 22.5544 94.3378 22.788H95.3378H96.3378C96.3378 22.4136 96.2984 22.0483 96.2153 21.695L95.2418 21.924ZM95.3378 22.788H94.3378V35.892H95.3378H96.3378V22.788H95.3378ZM95.3378 35.892H94.3378C94.3378 36.1253 94.3134 36.3484 94.2657 36.5631L95.2418 36.78L96.218 36.9969C96.2983 36.6356 96.3378 36.2667 96.3378 35.892H95.3378ZM95.2418 36.78L94.2684 36.551C94.2679 36.5533 94.2678 36.553 94.2685 36.5513C94.2693 36.5497 94.2695 36.5497 94.2678 36.552C94.2648 36.5561 94.2469 36.5786 94.1946 36.6124L94.7378 37.452L95.2811 38.2916C95.7328 37.9993 96.0827 37.5725 96.2153 37.009L95.2418 36.78ZM94.7378 37.452L94.1713 36.628C94.187 36.6172 94.1542 36.644 94.0246 36.6709C93.8988 36.697 93.7166 36.716 93.4658 36.716V37.716V38.716C94.1047 38.716 94.7881 38.631 95.3044 38.276L94.7378 37.452ZM93.4658 37.716V36.716C93.0609 36.716 92.8245 36.6779 92.7081 36.6415L92.4098 37.596L92.1116 38.5505C92.5072 38.6741 92.9748 38.716 93.4658 38.716V37.716ZM92.4098 37.596L92.7261 36.6473C92.7194 36.6451 92.7136 36.6424 92.7045 36.6351C92.6943 36.6269 92.6719 36.6063 92.6419 36.5613L91.8098 37.116L90.9778 37.6707C91.243 38.0685 91.6136 38.3847 92.0936 38.5447L92.4098 37.596ZM91.8098 37.116L92.6791 36.6216L87.6151 27.7176L86.7458 28.212L85.8766 28.7064L90.9406 37.6104L91.8098 37.116ZM86.7458 28.212H85.7458V35.892H86.7458H87.7458V28.212H86.7458ZM86.7458 35.892H85.7458C85.7458 36.1253 85.7214 36.3484 85.6737 36.5631L86.6498 36.78L87.626 36.9969C87.7063 36.6356 87.7458 36.2667 87.7458 35.892H86.7458ZM86.6498 36.78L85.6764 36.551C85.6738 36.5622 85.6713 36.5663 85.6681 36.5708C85.6639 36.5767 85.6476 36.5975 85.6033 36.628L86.1698 37.452L86.7364 38.276C87.1725 37.9762 87.4958 37.5508 87.6233 37.009L86.6498 36.78ZM86.1698 37.452L85.6033 36.628C85.619 36.6172 85.5862 36.644 85.4566 36.6709C85.3307 36.697 85.1486 36.716 84.8978 36.716V37.716V38.716C85.5367 38.716 86.2201 38.631 86.7364 38.276L86.1698 37.452Z" fill="white" fill-opacity="0.2" mask="url(#path-7-outside-1_27_253)"/>
</g>
</g>
<g id="Rectangle 10" style="mix-blend-mode:overlay">
<rect x="0.906006" width="135" height="65" fill="#A9A8A0"/>
</g>
</g>
<rect x="0.5" y="0.5" width="134" height="64" rx="3.5" stroke="black" stroke-opacity="0.2"/>
</g>
<defs>
<filter id="filter0_f_27_253" x="-1" y="-1" width="15" height="67" filterUnits="userSpaceOnUse" color-interpolation-filters="sRGB">
<feFlood flood-opacity="0" result="BackgroundImageFix"/>
<feBlend mode="normal" in="SourceGraphic" in2="BackgroundImageFix" result="shape"/>
<feGaussianBlur stdDeviation="0.5" result="effect1_foregroundBlur_27_253"/>
</filter>
<filter id="filter1_f_27_253" x="121" y="-1" width="15" height="67" filterUnits="userSpaceOnUse" color-interpolation-filters="sRGB">
<feFlood flood-opacity="0" result="BackgroundImageFix"/>
<feBlend mode="normal" in="SourceGraphic" in2="BackgroundImageFix" result="shape"/>
<feGaussianBlur stdDeviation="0.5" result="effect1_foregroundBlur_27_253"/>
</filter>
<filter id="filter2_d_27_253" x="5" y="-2" width="117" height="54" filterUnits="userSpaceOnUse" color-interpolation-filters="sRGB">
<feFlood flood-opacity="0" result="BackgroundImageFix"/>
<feColorMatrix in="SourceAlpha" type="matrix" values="0 0 0 0 0 0 0 0 0 0 0 0 0 0 0 0 0 0 127 0" result="hardAlpha"/>
<feOffset dx="-4" dy="-4"/>
<feGaussianBlur stdDeviation="2"/>
<feComposite in2="hardAlpha" operator="out"/>
<feColorMatrix type="matrix" values="0 0 0 0 1 0 0 0 0 1 0 0 0 0 1 0 0 0 1 0"/>
<feBlend mode="normal" in2="BackgroundImageFix" result="effect1_dropShadow_27_253"/>
<feBlend mode="normal" in="SourceGraphic" in2="effect1_dropShadow_27_253" result="shape"/>
</filter>
<linearGradient id="paint0_linear_27_253" x1="67.5" y1="0" x2="67.5" y2="65" gradientUnits="userSpaceOnUse">
<stop stop-color="#A8A8A7" stop-opacity="0"/>
<stop offset="0.0585032" stop-color="#FDFDFD" stop-opacity="0.52"/>
<stop offset="0.112237" stop-color="#E0E0E0"/>
<stop offset="0.788353" stop-color="#D5D5D5"/>
<stop offset="0.814262" stop-color="#B3B3B3"/>
<stop offset="1" stop-color="#777777"/>
</linearGradient>
<linearGradient id="paint1_linear_27_253" x1="6.24" y1="32" x2="11.44" y2="32" gradientUnits="userSpaceOnUse">
<stop stop-color="white" stop-opacity="0.13"/>
<stop offset="1" stop-color="white"/>
</linearGradient>
<linearGradient id="paint2_linear_27_253" x1="128.76" y1="32" x2="123.56" y2="32" gradientUnits="userSpaceOnUse">
<stop stop-color="#757575"/>
<stop offset="1" stop-color="#686868" stop-opacity="0.68"/>
</linearGradient>
<radialGradient id="paint3_radial_27_253" cx="0" cy="0" r="1" gradientTransform="matrix(97.0366 43.7 -103.599 29.9 19.6463 8.3)" gradientUnits="userSpaceOnUse">
<stop stop-color="#111111"/>
<stop offset="0.97358" stop-opacity="0.191839"/>
</radialGradient>
<clipPath id="clip0_27_253">
<rect width="135" height="65" rx="4" fill="white"/>
</clipPath>
</defs>
</svg>
