<svg width="234" height="68" viewBox="0 0 234 68" fill="none" xmlns="http://www.w3.org/2000/svg">
<rect width="234" height="68" rx="5.66929" fill="#06C7F2"/>
<path fill-rule="evenodd" clip-rule="evenodd" d="M9.75452 0C4.36725 0 0 2.53823 0 5.66929V62.3307C0 65.4618 4.36725 68 9.75452 68H224.245C229.633 68 234 65.4618 234 62.3307V5.66929C234 2.53823 229.633 0 224.245 0H9.75452ZM26.9616 3C21.5737 3 17.2059 5.53854 17.2059 8.67V50.33C17.2059 53.4615 21.5737 56 26.9616 56H207.038C212.426 56 216.794 53.4615 216.794 50.33V8.67C216.794 5.53855 212.426 3 207.038 3H26.9616Z" fill="#9E9E9E" fill-opacity="0.5"/>
<g filter="url(#filter0_i_3_21274)" style="mix-blend-mode:overlay">
<rect width="234" height="68" rx="5.66929" fill="white" fill-opacity="0.01"/>
</g>
<rect x="17.2051" y="3" width="199.588" height="53" rx="5.67" fill="url(#paint0_linear_3_21274)" fill-opacity="0.2"/>
<rect x="17.7051" y="3.5" width="198.588" height="52" rx="5.17" stroke="url(#paint1_linear_3_21274)" stroke-opacity="0.4"/>
<path d="M200.144 28.5341L193.278 21.6684C193.12 21.5094 192.908 21.4219 192.681 21.4219C192.455 21.4219 192.243 21.5094 192.085 21.6684L191.579 22.1739C191.25 22.5032 191.25 23.0386 191.579 23.3675L197.345 29.133L191.573 34.9048C191.414 35.0638 191.326 35.2756 191.326 35.5015C191.326 35.7277 191.414 35.9395 191.573 36.0986L192.078 36.604C192.237 36.7629 192.449 36.8504 192.675 36.8504C192.901 36.8504 193.113 36.7629 193.272 36.604L200.144 29.7319C200.303 29.5725 200.391 29.3596 200.39 29.1333C200.391 28.9062 200.303 28.6934 200.144 28.5341Z" fill="white"/>
<path opacity="0.5" d="M190.984 56V68H224.245C229.632 68 233.999 65.4618 233.999 62.3307V43H216.793V50.33C216.793 53.4615 212.425 56 207.037 56H190.984Z" fill="url(#paint2_linear_3_21274)"/>
<rect opacity="0.5" x="43.0156" y="56" width="147.971" height="12" fill="white" fill-opacity="0.2"/>
<path opacity="0.5" d="M17.2059 43H0V62.3307C0 65.4618 4.36725 68 9.75452 68H43.0147V56H26.9616C21.5737 56 17.2059 53.4615 17.2059 50.33V43Z" fill="url(#paint3_linear_3_21274)"/>
<rect opacity="0.5" y="25" width="17.2059" height="18" fill="white" fill-opacity="0.7"/>
<path opacity="0.5" d="M224.245 0H190.984V3H207.037C212.425 3 216.793 5.53855 216.793 8.67V25H233.999V5.66929C233.999 2.53823 229.632 0 224.245 0Z" fill="url(#paint4_linear_3_21274)"/>
<rect opacity="0.5" x="43.0156" width="147.971" height="3" fill="white" fill-opacity="0.15"/>
<path opacity="0.5" d="M9.75452 0C4.36725 0 0 2.53823 0 5.66929V25H17.2059V8.67C17.2059 5.53854 21.5737 3 26.9616 3H43.0147V0H9.75452Z" fill="url(#paint5_linear_3_21274)"/>
<mask id="mask0_3_21274" style="mask-type:alpha" maskUnits="userSpaceOnUse" x="204" y="0" width="30" height="68">
<rect x="234" y="68" width="29.25" height="68" rx="5.66929" transform="rotate(-180 234 68)" fill="#343436"/>
</mask>
<g mask="url(#mask0_3_21274)">
<g opacity="0.2" filter="url(#filter1_d_3_21274)" style="mix-blend-mode:overlay">
<path d="M270.133 59.33C270.133 62.4615 267.594 65 264.463 65L236.177 65C229.273 65 223.677 59.4036 223.677 52.5L223.677 14.5C223.677 7.59644 229.273 2 236.177 2L264.463 2C267.594 2 270.133 4.53855 270.133 7.67001L270.133 59.33Z" fill="black" fill-opacity="0.01"/>
</g>
</g>
<mask id="mask1_3_21274" style="mask-type:alpha" maskUnits="userSpaceOnUse" x="0" y="0" width="30" height="68">
<rect width="29.25" height="68" rx="5.66929" fill="#343436"/>
</mask>
<g mask="url(#mask1_3_21274)">
<g opacity="0.2" filter="url(#filter2_d_3_21274)" style="mix-blend-mode:overlay">
<path d="M-36.1328 10.67C-36.1328 7.53854 -33.5943 5 -30.4628 5H1.21188C4.34334 5 6.88189 7.53855 6.88189 10.67V55.5C6.88189 62.4036 1.28545 68 -5.61811 68H-30.4628C-33.5943 68 -36.1328 65.4615 -36.1328 62.33V10.67Z" fill="black" fill-opacity="0.01"/>
</g>
</g>
<g filter="url(#filter3_d_3_21274)">
<path d="M28.1173 37.3386C27.7213 37.3386 27.4279 37.28 27.2373 37.1626C27.0613 37.0453 26.9439 36.884 26.8853 36.6786C26.8266 36.4733 26.7973 36.246 26.7973 35.9966V23.3026C26.7973 23.068 26.8266 22.8553 26.8853 22.6646C26.9439 22.4593 27.0686 22.298 27.2593 22.1806C27.4499 22.0486 27.7506 21.9826 28.1613 21.9826C28.4253 21.9826 28.6453 22.0046 28.8213 22.0486C28.9973 22.078 29.1366 22.1293 29.2393 22.2026C29.3566 22.276 29.4446 22.3786 29.5033 22.5106L33.3973 30.6066H32.5833L36.4993 22.4666C36.5726 22.3346 36.6606 22.2393 36.7633 22.1806C36.8806 22.1073 37.0273 22.056 37.2033 22.0266C37.3939 21.9973 37.6139 21.9826 37.8633 21.9826C38.2739 21.9826 38.5673 22.0486 38.7433 22.1806C38.9339 22.298 39.0586 22.4593 39.1173 22.6646C39.1759 22.87 39.2053 23.0973 39.2053 23.3466V36.0406C39.2053 36.2606 39.1759 36.4733 39.1173 36.6786C39.0586 36.884 38.9339 37.0453 38.7433 37.1626C38.5526 37.28 38.2519 37.3386 37.8413 37.3386C37.4453 37.3386 37.1519 37.2726 36.9613 37.1406C36.7853 37.0233 36.6679 36.862 36.6093 36.6566C36.5506 36.4513 36.5213 36.2313 36.5213 35.9966V26.8666L34.1233 32.3226C34.0793 32.44 34.0059 32.55 33.9033 32.6526C33.8153 32.7406 33.6979 32.814 33.5513 32.8726C33.4046 32.9166 33.2139 32.9386 32.9793 32.9386C32.7446 32.9386 32.5539 32.9093 32.4073 32.8506C32.2606 32.792 32.1433 32.7186 32.0553 32.6306C31.9673 32.528 31.8866 32.4253 31.8133 32.3226L29.4593 26.8886V36.0406C29.4593 36.2606 29.4299 36.4733 29.3713 36.6786C29.3126 36.884 29.1879 37.0453 28.9973 37.1626C28.8213 37.28 28.5279 37.3386 28.1173 37.3386ZM44.9706 37.4926C44.1933 37.4926 43.5333 37.3386 42.9906 37.0306C42.4626 36.7226 42.0446 36.3046 41.7366 35.7766C41.4286 35.234 41.2013 34.6326 41.0546 33.9726C40.9226 33.298 40.8566 32.6013 40.8566 31.8826C40.8566 30.8266 41.0106 29.888 41.3186 29.0666C41.6413 28.2453 42.1033 27.6 42.7046 27.1306C43.306 26.6613 44.054 26.4266 44.9486 26.4266C45.55 26.4266 46.0633 26.5513 46.4886 26.8006C46.9286 27.05 47.288 27.38 47.5666 27.7906C47.8453 28.1866 48.0506 28.6266 48.1826 29.1106C48.3146 29.5946 48.3806 30.064 48.3806 30.5186C48.3806 31.296 48.212 31.8753 47.8746 32.2566C47.552 32.638 47.1046 32.8286 46.5326 32.8286H43.5626C43.548 33.3126 43.6066 33.7306 43.7386 34.0826C43.8706 34.4346 44.0466 34.706 44.2666 34.8966C44.5013 35.0726 44.7653 35.1606 45.0586 35.1606C45.2933 35.1606 45.4986 35.1386 45.6746 35.0946C45.8653 35.0506 46.0266 34.9993 46.1586 34.9406C46.2906 34.882 46.408 34.816 46.5106 34.7426C46.628 34.6693 46.738 34.6106 46.8406 34.5666C46.958 34.5226 47.0826 34.5006 47.2146 34.5006C47.4053 34.5006 47.5666 34.5593 47.6986 34.6766C47.8306 34.794 47.948 34.9553 48.0506 35.1606C48.1386 35.3073 48.19 35.432 48.2046 35.5346C48.234 35.6373 48.2486 35.7546 48.2486 35.8866C48.2486 36.1506 48.0873 36.4073 47.7646 36.6566C47.4566 36.906 47.0533 37.104 46.5546 37.2506C46.056 37.412 45.528 37.4926 44.9706 37.4926ZM43.5186 31.1566H45.3666C45.616 31.1566 45.7846 31.1273 45.8726 31.0686C45.9753 31.01 46.0266 30.8413 46.0266 30.5626C46.0266 30.2253 45.9826 29.9246 45.8946 29.6606C45.8213 29.3966 45.704 29.184 45.5426 29.0226C45.3813 28.8613 45.176 28.7806 44.9266 28.7806C44.6333 28.7806 44.3766 28.8906 44.1566 29.1106C43.9366 29.316 43.7753 29.602 43.6726 29.9686C43.57 30.3206 43.5186 30.7166 43.5186 31.1566ZM53.5859 37.4926C52.8085 37.4926 52.1485 37.3386 51.6059 37.0306C51.0779 36.7226 50.6599 36.3046 50.3519 35.7766C50.0439 35.234 49.8165 34.6326 49.6699 33.9726C49.5379 33.298 49.4719 32.6013 49.4719 31.8826C49.4719 30.8266 49.6259 29.888 49.9339 29.0666C50.2565 28.2453 50.7185 27.6 51.3199 27.1306C51.9212 26.6613 52.6692 26.4266 53.5639 26.4266C54.1652 26.4266 54.6785 26.5513 55.1039 26.8006C55.5439 27.05 55.9032 27.38 56.1819 27.7906C56.4605 28.1866 56.6659 28.6266 56.7979 29.1106C56.9299 29.5946 56.9959 30.064 56.9959 30.5186C56.9959 31.296 56.8272 31.8753 56.4899 32.2566C56.1672 32.638 55.7199 32.8286 55.1479 32.8286H52.1779C52.1632 33.3126 52.2219 33.7306 52.3539 34.0826C52.4859 34.4346 52.6619 34.706 52.8819 34.8966C53.1165 35.0726 53.3805 35.1606 53.6739 35.1606C53.9085 35.1606 54.1139 35.1386 54.2899 35.0946C54.4805 35.0506 54.6419 34.9993 54.7739 34.9406C54.9059 34.882 55.0232 34.816 55.1259 34.7426C55.2432 34.6693 55.3532 34.6106 55.4559 34.5666C55.5732 34.5226 55.6979 34.5006 55.8299 34.5006C56.0205 34.5006 56.1819 34.5593 56.3139 34.6766C56.4459 34.794 56.5632 34.9553 56.6659 35.1606C56.7539 35.3073 56.8052 35.432 56.8199 35.5346C56.8492 35.6373 56.8639 35.7546 56.8639 35.8866C56.8639 36.1506 56.7025 36.4073 56.3799 36.6566C56.0719 36.906 55.6685 37.104 55.1699 37.2506C54.6712 37.412 54.1432 37.4926 53.5859 37.4926ZM52.1339 31.1566H53.9819C54.2312 31.1566 54.3999 31.1273 54.4879 31.0686C54.5905 31.01 54.6419 30.8413 54.6419 30.5626C54.6419 30.2253 54.5979 29.9246 54.5099 29.6606C54.4365 29.3966 54.3192 29.184 54.1579 29.0226C53.9965 28.8613 53.7912 28.7806 53.5419 28.7806C53.2485 28.7806 52.9919 28.8906 52.7719 29.1106C52.5519 29.316 52.3905 29.602 52.2879 29.9686C52.1852 30.3206 52.1339 30.7166 52.1339 31.1566ZM62.3111 37.3606C61.7684 37.3606 61.3064 37.2873 60.9251 37.1406C60.5438 37.0086 60.2284 36.8033 59.9791 36.5246C59.7298 36.246 59.5464 35.9013 59.4291 35.4906C59.3118 35.08 59.2531 34.6033 59.2531 34.0606V24.1826C59.2531 23.9186 59.2751 23.6913 59.3191 23.5006C59.3778 23.31 59.4951 23.1633 59.6711 23.0606C59.8471 22.9433 60.1404 22.8846 60.5511 22.8846C60.9618 22.8846 61.2551 22.9433 61.4311 23.0606C61.6218 23.178 61.7391 23.3393 61.7831 23.5446C61.8418 23.7353 61.8711 23.948 61.8711 24.1826V33.8626C61.8711 34.0533 61.8784 34.2073 61.8931 34.3246C61.9078 34.442 61.9371 34.5446 61.9811 34.6326C62.0251 34.706 62.0764 34.7646 62.1351 34.8086C62.2084 34.838 62.3038 34.8526 62.4211 34.8526C62.6264 34.8526 62.8098 34.8746 62.9711 34.9186C63.1324 34.9626 63.2644 35.0726 63.3671 35.2486C63.4698 35.41 63.5211 35.6813 63.5211 36.0626C63.5211 36.4733 63.4624 36.774 63.3451 36.9646C63.2278 37.1406 63.0738 37.2506 62.8831 37.2946C62.6924 37.3386 62.5018 37.3606 62.3111 37.3606ZM58.9671 26.7346L60.7491 26.7566L62.4211 26.6686C62.6704 26.654 62.8904 26.676 63.0811 26.7346C63.2864 26.7786 63.4478 26.896 63.5651 27.0866C63.6824 27.2773 63.7411 27.578 63.7411 27.9886C63.7411 28.37 63.6898 28.656 63.5871 28.8466C63.4844 29.0373 63.3451 29.162 63.1691 29.2206C62.9931 29.2646 62.7804 29.2866 62.5311 29.2866L60.7491 29.2426L58.9011 29.2646C58.5344 29.2646 58.2778 29.162 58.1311 28.9566C57.9991 28.7513 57.9331 28.4213 57.9331 27.9666C57.9331 27.5413 58.0138 27.226 58.1751 27.0206C58.3511 26.8153 58.6151 26.72 58.9671 26.7346ZM73.4185 37.3606C72.8759 37.3606 72.4139 37.2873 72.0325 37.1406C71.6512 37.0086 71.3359 36.8033 71.0865 36.5246C70.8372 36.246 70.6539 35.9013 70.5365 35.4906C70.4192 35.08 70.3605 34.6033 70.3605 34.0606V24.1826C70.3605 23.9186 70.3825 23.6913 70.4265 23.5006C70.4852 23.31 70.6025 23.1633 70.7785 23.0606C70.9545 22.9433 71.2479 22.8846 71.6585 22.8846C72.0692 22.8846 72.3625 22.9433 72.5385 23.0606C72.7292 23.178 72.8465 23.3393 72.8905 23.5446C72.9492 23.7353 72.9785 23.948 72.9785 24.1826V33.8626C72.9785 34.0533 72.9859 34.2073 73.0005 34.3246C73.0152 34.442 73.0445 34.5446 73.0885 34.6326C73.1325 34.706 73.1839 34.7646 73.2425 34.8086C73.3159 34.838 73.4112 34.8526 73.5285 34.8526C73.7339 34.8526 73.9172 34.8746 74.0785 34.9186C74.2399 34.9626 74.3719 35.0726 74.4745 35.2486C74.5772 35.41 74.6285 35.6813 74.6285 36.0626C74.6285 36.4733 74.5699 36.774 74.4525 36.9646C74.3352 37.1406 74.1812 37.2506 73.9905 37.2946C73.7999 37.3386 73.6092 37.3606 73.4185 37.3606ZM70.0745 26.7346L71.8565 26.7566L73.5285 26.6686C73.7779 26.654 73.9979 26.676 74.1885 26.7346C74.3939 26.7786 74.5552 26.896 74.6725 27.0866C74.7899 27.2773 74.8485 27.578 74.8485 27.9886C74.8485 28.37 74.7972 28.656 74.6945 28.8466C74.5919 29.0373 74.4525 29.162 74.2765 29.2206C74.1005 29.2646 73.8879 29.2866 73.6385 29.2866L71.8565 29.2426L70.0085 29.2646C69.6419 29.2646 69.3852 29.162 69.2385 28.9566C69.1065 28.7513 69.0405 28.4213 69.0405 27.9666C69.0405 27.5413 69.1212 27.226 69.2825 27.0206C69.4585 26.8153 69.7225 26.72 70.0745 26.7346ZM77.6577 37.3606C77.247 37.3606 76.9463 37.2946 76.7557 37.1626C76.565 37.0453 76.4477 36.884 76.4037 36.6786C76.3597 36.4733 76.3377 36.2533 76.3377 36.0186V22.8846C76.3377 22.6353 76.3597 22.4153 76.4037 22.2246C76.4623 22.0193 76.587 21.858 76.7777 21.7406C76.9683 21.6233 77.269 21.5646 77.6797 21.5646C78.0903 21.5646 78.3837 21.6306 78.5597 21.7626C78.7503 21.88 78.8677 22.0413 78.9117 22.2466C78.9557 22.4373 78.9777 22.6573 78.9777 22.9066V27.5046C79.183 27.2406 79.4617 27.0133 79.8137 26.8226C80.1657 26.6173 80.569 26.5146 81.0237 26.5146C81.7277 26.5146 82.2997 26.698 82.7397 27.0646C83.1943 27.4166 83.5317 27.9153 83.7517 28.5606C83.9717 29.1913 84.0817 29.9246 84.0817 30.7606V36.0406C84.0817 36.2753 84.0523 36.4953 83.9937 36.7006C83.9497 36.8913 83.8397 37.0453 83.6637 37.1626C83.4877 37.28 83.187 37.3386 82.7617 37.3386C82.3657 37.3386 82.0723 37.28 81.8817 37.1626C81.691 37.0453 81.5663 36.8913 81.5077 36.7006C81.4637 36.4953 81.4417 36.2606 81.4417 35.9966V30.8486C81.4417 30.5113 81.405 30.2106 81.3317 29.9466C81.273 29.6826 81.163 29.47 81.0017 29.3086C80.8403 29.1473 80.6203 29.0666 80.3417 29.0666C79.9163 29.0666 79.601 29.1913 79.3957 29.4406C79.205 29.6753 79.073 29.932 78.9997 30.2106L78.9777 36.0406C78.9777 36.2753 78.9483 36.4953 78.8897 36.7006C78.8457 36.906 78.7283 37.0673 78.5377 37.1846C78.3617 37.302 78.0683 37.3606 77.6577 37.3606ZM89.5507 37.4926C88.7734 37.4926 88.1134 37.3386 87.5707 37.0306C87.0427 36.7226 86.6247 36.3046 86.3167 35.7766C86.0087 35.234 85.7814 34.6326 85.6347 33.9726C85.5027 33.298 85.4367 32.6013 85.4367 31.8826C85.4367 30.8266 85.5907 29.888 85.8987 29.0666C86.2214 28.2453 86.6834 27.6 87.2847 27.1306C87.8861 26.6613 88.6341 26.4266 89.5287 26.4266C90.1301 26.4266 90.6434 26.5513 91.0687 26.8006C91.5087 27.05 91.8681 27.38 92.1467 27.7906C92.4254 28.1866 92.6307 28.6266 92.7627 29.1106C92.8947 29.5946 92.9607 30.064 92.9607 30.5186C92.9607 31.296 92.7921 31.8753 92.4547 32.2566C92.1321 32.638 91.6847 32.8286 91.1127 32.8286H88.1427C88.1281 33.3126 88.1867 33.7306 88.3187 34.0826C88.4507 34.4346 88.6267 34.706 88.8467 34.8966C89.0814 35.0726 89.3454 35.1606 89.6387 35.1606C89.8734 35.1606 90.0787 35.1386 90.2547 35.0946C90.4454 35.0506 90.6067 34.9993 90.7387 34.9406C90.8707 34.882 90.9881 34.816 91.0907 34.7426C91.2081 34.6693 91.3181 34.6106 91.4207 34.5666C91.5381 34.5226 91.6627 34.5006 91.7947 34.5006C91.9854 34.5006 92.1467 34.5593 92.2787 34.6766C92.4107 34.794 92.5281 34.9553 92.6307 35.1606C92.7187 35.3073 92.7701 35.432 92.7847 35.5346C92.8141 35.6373 92.8287 35.7546 92.8287 35.8866C92.8287 36.1506 92.6674 36.4073 92.3447 36.6566C92.0367 36.906 91.6334 37.104 91.1347 37.2506C90.6361 37.412 90.1081 37.4926 89.5507 37.4926ZM88.0987 31.1566H89.9467C90.1961 31.1566 90.3647 31.1273 90.4527 31.0686C90.5554 31.01 90.6067 30.8413 90.6067 30.5626C90.6067 30.2253 90.5627 29.9246 90.4747 29.6606C90.4014 29.3966 90.2841 29.184 90.1227 29.0226C89.9614 28.8613 89.7561 28.7806 89.5067 28.7806C89.2134 28.7806 88.9567 28.8906 88.7367 29.1106C88.5167 29.316 88.3554 29.602 88.2527 29.9686C88.1501 30.3206 88.0987 30.7166 88.0987 31.1566ZM103.89 37.4486C103.245 37.4486 102.658 37.3386 102.13 37.1186C101.602 36.884 101.126 36.5466 100.7 36.1066C100.29 35.652 99.9376 35.1093 99.6443 34.4786C99.3656 33.8333 99.1529 33.1 99.0063 32.2786C98.8596 31.4426 98.7863 30.526 98.7863 29.5286C98.7863 28.5606 98.8596 27.6806 99.0063 26.8886C99.1529 26.082 99.3656 25.3633 99.6443 24.7326C99.9376 24.102 100.297 23.574 100.722 23.1486C101.148 22.7233 101.624 22.4006 102.152 22.1806C102.68 21.946 103.267 21.8286 103.912 21.8286C104.25 21.8286 104.565 21.858 104.858 21.9166C105.152 21.9753 105.438 22.0633 105.716 22.1806C106.01 22.298 106.318 22.4593 106.64 22.6646C106.948 22.8553 107.183 23.0606 107.344 23.2806C107.52 23.5006 107.608 23.6986 107.608 23.8746C107.623 24.0066 107.601 24.146 107.542 24.2926C107.498 24.4393 107.418 24.5933 107.3 24.7546C107.11 24.9893 106.934 25.1726 106.772 25.3046C106.626 25.422 106.479 25.4806 106.332 25.4806C106.23 25.4806 106.105 25.4366 105.958 25.3486C105.826 25.2606 105.636 25.1286 105.386 24.9526C105.196 24.8206 105.012 24.718 104.836 24.6446C104.675 24.5566 104.514 24.498 104.352 24.4686C104.191 24.4393 104.008 24.4246 103.802 24.4246C103.436 24.4246 103.106 24.542 102.812 24.7766C102.534 25.0113 102.292 25.356 102.086 25.8106C101.881 26.2506 101.72 26.7933 101.602 27.4386C101.5 28.084 101.448 28.8173 101.448 29.6386C101.448 30.46 101.5 31.1933 101.602 31.8386C101.72 32.484 101.881 33.034 102.086 33.4886C102.292 33.9286 102.534 34.266 102.812 34.5006C103.106 34.7353 103.436 34.8526 103.802 34.8526C104.037 34.8526 104.242 34.838 104.418 34.8086C104.594 34.7793 104.77 34.728 104.946 34.6546C105.137 34.5666 105.335 34.4566 105.54 34.3246C105.775 34.1633 105.958 34.046 106.09 33.9726C106.222 33.8846 106.362 33.8406 106.508 33.8406C106.655 33.8406 106.809 33.9066 106.97 34.0386C107.132 34.1706 107.293 34.3613 107.454 34.6106C107.572 34.7866 107.652 34.9553 107.696 35.1166C107.74 35.278 107.755 35.4173 107.74 35.5346C107.726 35.7106 107.63 35.9013 107.454 36.1066C107.278 36.312 107.044 36.5026 106.75 36.6786C106.457 36.8546 106.164 37.0013 105.87 37.1186C105.592 37.236 105.291 37.3166 104.968 37.3606C104.646 37.4193 104.286 37.4486 103.89 37.4486ZM110.958 37.3606C110.548 37.3606 110.247 37.2946 110.056 37.1626C109.866 37.0453 109.748 36.884 109.704 36.6786C109.66 36.4733 109.638 36.2533 109.638 36.0186V22.8846C109.638 22.6353 109.66 22.4153 109.704 22.2246C109.763 22.0193 109.888 21.858 110.078 21.7406C110.269 21.6233 110.57 21.5646 110.98 21.5646C111.391 21.5646 111.684 21.6306 111.86 21.7626C112.051 21.88 112.168 22.0413 112.212 22.2466C112.256 22.4373 112.278 22.6573 112.278 22.9066V27.5046C112.484 27.2406 112.762 27.0133 113.114 26.8226C113.466 26.6173 113.87 26.5146 114.324 26.5146C115.028 26.5146 115.6 26.698 116.04 27.0646C116.495 27.4166 116.832 27.9153 117.052 28.5606C117.272 29.1913 117.382 29.9246 117.382 30.7606V36.0406C117.382 36.2753 117.353 36.4953 117.294 36.7006C117.25 36.8913 117.14 37.0453 116.964 37.1626C116.788 37.28 116.488 37.3386 116.062 37.3386C115.666 37.3386 115.373 37.28 115.182 37.1626C114.992 37.0453 114.867 36.8913 114.808 36.7006C114.764 36.4953 114.742 36.2606 114.742 35.9966V30.8486C114.742 30.5113 114.706 30.2106 114.632 29.9466C114.574 29.6826 114.464 29.47 114.302 29.3086C114.141 29.1473 113.921 29.0666 113.642 29.0666C113.217 29.0666 112.902 29.1913 112.696 29.4406C112.506 29.6753 112.374 29.932 112.3 30.2106L112.278 36.0406C112.278 36.2753 112.249 36.4953 112.19 36.7006C112.146 36.906 112.029 37.0673 111.838 37.1846C111.662 37.302 111.369 37.3606 110.958 37.3606ZM125.013 37.3166C124.661 37.3166 124.367 37.236 124.133 37.0746C123.898 36.8986 123.781 36.6713 123.781 36.3926L123.825 36.1506C123.737 36.312 123.605 36.488 123.429 36.6786C123.267 36.8546 123.047 37.0086 122.769 37.1406C122.49 37.258 122.131 37.3166 121.691 37.3166C121.177 37.3166 120.723 37.1846 120.327 36.9206C119.945 36.642 119.615 36.2606 119.337 35.7766C119.073 35.278 118.867 34.6986 118.721 34.0386C118.589 33.3786 118.523 32.6526 118.523 31.8606C118.523 31.098 118.589 30.394 118.721 29.7486C118.867 29.1033 119.073 28.5386 119.337 28.0546C119.615 27.5706 119.953 27.1966 120.349 26.9326C120.745 26.6686 121.192 26.5366 121.691 26.5366C122.057 26.5366 122.38 26.588 122.659 26.6906C122.952 26.7786 123.194 26.9033 123.385 27.0646C123.59 27.2113 123.737 27.38 123.825 27.5706L123.781 27.4386C123.839 27.1306 123.964 26.896 124.155 26.7346C124.345 26.5733 124.639 26.4926 125.035 26.4926C125.445 26.4926 125.739 26.5586 125.915 26.6906C126.091 26.808 126.201 26.9766 126.245 27.1966C126.303 27.402 126.333 27.6293 126.333 27.8786V35.9966C126.333 36.2313 126.303 36.4513 126.245 36.6566C126.201 36.862 126.083 37.0233 125.893 37.1406C125.717 37.258 125.423 37.3166 125.013 37.3166ZM122.417 34.7426C122.783 34.7426 123.055 34.6253 123.231 34.3906C123.407 34.156 123.517 33.826 123.561 33.4006C123.605 32.9606 123.627 32.462 123.627 31.9046C123.627 31.3473 123.597 30.856 123.539 30.4306C123.495 30.0053 123.385 29.6753 123.209 29.4406C123.033 29.1913 122.754 29.0666 122.373 29.0666C122.109 29.0666 121.881 29.184 121.691 29.4186C121.5 29.6533 121.353 29.9906 121.251 30.4306C121.163 30.856 121.119 31.3546 121.119 31.9266C121.119 32.4986 121.17 32.9973 121.273 33.4226C121.375 33.8333 121.522 34.156 121.713 34.3906C121.903 34.6253 122.138 34.7426 122.417 34.7426ZM129.542 37.3606C129.131 37.3606 128.831 37.2946 128.64 37.1626C128.464 37.0453 128.354 36.884 128.31 36.6786C128.266 36.4733 128.244 36.246 128.244 35.9966V27.8346C128.244 27.5706 128.266 27.3433 128.31 27.1526C128.369 26.9473 128.486 26.7933 128.662 26.6906C128.853 26.5733 129.153 26.5146 129.564 26.5146C129.96 26.5146 130.246 26.566 130.422 26.6686C130.613 26.7713 130.73 26.9033 130.774 27.0646C130.833 27.2113 130.862 27.358 130.862 27.5046L130.774 27.7906C130.833 27.6 130.913 27.424 131.016 27.2626C131.133 27.0866 131.265 26.9326 131.412 26.8006C131.559 26.6686 131.72 26.566 131.896 26.4926C132.072 26.4193 132.263 26.3826 132.468 26.3826C132.571 26.3826 132.681 26.3973 132.798 26.4266C132.93 26.4413 133.062 26.478 133.194 26.5366C133.326 26.5806 133.443 26.6466 133.546 26.7346C133.663 26.808 133.751 26.9106 133.81 27.0426C133.883 27.1746 133.92 27.3286 133.92 27.5046C133.92 27.974 133.832 28.3846 133.656 28.7366C133.48 29.074 133.231 29.2426 132.908 29.2426C132.776 29.2426 132.659 29.228 132.556 29.1986C132.468 29.1546 132.38 29.1106 132.292 29.0666C132.204 29.008 132.101 28.964 131.984 28.9346C131.881 28.9053 131.749 28.8906 131.588 28.8906C131.456 28.8906 131.346 28.92 131.258 28.9786C131.17 29.0226 131.097 29.096 131.038 29.1986C130.979 29.2866 130.935 29.3966 130.906 29.5286C130.891 29.646 130.884 29.778 130.884 29.9246V36.0406C130.884 36.29 130.855 36.5173 130.796 36.7226C130.752 36.9133 130.635 37.0673 130.444 37.1846C130.268 37.302 129.967 37.3606 129.542 37.3606ZM141.298 37.3166C140.946 37.3166 140.652 37.236 140.418 37.0746C140.183 36.8986 140.066 36.6713 140.066 36.3926L140.11 36.1506C140.022 36.312 139.89 36.488 139.714 36.6786C139.552 36.8546 139.332 37.0086 139.054 37.1406C138.775 37.258 138.416 37.3166 137.976 37.3166C137.462 37.3166 137.008 37.1846 136.612 36.9206C136.23 36.642 135.9 36.2606 135.622 35.7766C135.358 35.278 135.152 34.6986 135.006 34.0386C134.874 33.3786 134.808 32.6526 134.808 31.8606C134.808 31.098 134.874 30.394 135.006 29.7486C135.152 29.1033 135.358 28.5386 135.622 28.0546C135.9 27.5706 136.238 27.1966 136.634 26.9326C137.03 26.6686 137.477 26.5366 137.976 26.5366C138.342 26.5366 138.665 26.588 138.944 26.6906C139.237 26.7786 139.479 26.9033 139.67 27.0646C139.875 27.2113 140.022 27.38 140.11 27.5706L140.066 27.4386C140.124 27.1306 140.249 26.896 140.44 26.7346C140.63 26.5733 140.924 26.4926 141.32 26.4926C141.73 26.4926 142.024 26.5586 142.2 26.6906C142.376 26.808 142.486 26.9766 142.53 27.1966C142.588 27.402 142.618 27.6293 142.618 27.8786V35.9966C142.618 36.2313 142.588 36.4513 142.53 36.6566C142.486 36.862 142.368 37.0233 142.178 37.1406C142.002 37.258 141.708 37.3166 141.298 37.3166ZM138.702 34.7426C139.068 34.7426 139.34 34.6253 139.516 34.3906C139.692 34.156 139.802 33.826 139.846 33.4006C139.89 32.9606 139.912 32.462 139.912 31.9046C139.912 31.3473 139.882 30.856 139.824 30.4306C139.78 30.0053 139.67 29.6753 139.494 29.4406C139.318 29.1913 139.039 29.0666 138.658 29.0666C138.394 29.0666 138.166 29.184 137.976 29.4186C137.785 29.6533 137.638 29.9906 137.536 30.4306C137.448 30.856 137.404 31.3546 137.404 31.9266C137.404 32.4986 137.455 32.9973 137.558 33.4226C137.66 33.8333 137.807 34.156 137.998 34.3906C138.188 34.6253 138.423 34.7426 138.702 34.7426ZM148.181 37.4046C147.536 37.4046 146.956 37.28 146.443 37.0306C145.944 36.7666 145.519 36.3926 145.167 35.9086C144.815 35.4246 144.544 34.8453 144.353 34.1706C144.177 33.496 144.089 32.748 144.089 31.9266C144.089 31.1053 144.177 30.3646 144.353 29.7046C144.544 29.03 144.808 28.4506 145.145 27.9666C145.497 27.4826 145.922 27.1086 146.421 26.8446C146.92 26.5806 147.492 26.4486 148.137 26.4486C148.518 26.4486 148.863 26.5073 149.171 26.6246C149.494 26.7273 149.772 26.8593 150.007 27.0206C150.242 27.182 150.41 27.3506 150.513 27.5266C150.689 27.6586 150.85 27.82 150.997 28.0106C151.144 28.1866 151.195 28.3993 151.151 28.6486C151.122 28.7953 151.063 28.9273 150.975 29.0446C150.902 29.162 150.792 29.2866 150.645 29.4186C150.278 29.844 149.934 29.998 149.611 29.8806C149.45 29.7926 149.31 29.7046 149.193 29.6166C149.09 29.514 148.988 29.426 148.885 29.3526C148.797 29.2646 148.694 29.1986 148.577 29.1546C148.474 29.096 148.328 29.0666 148.137 29.0666C147.814 29.0666 147.55 29.1913 147.345 29.4406C147.14 29.6753 146.993 30.0053 146.905 30.4306C146.817 30.856 146.773 31.3546 146.773 31.9266C146.773 32.4986 146.817 32.9973 146.905 33.4226C146.993 33.848 147.132 34.1853 147.323 34.4346C147.528 34.6693 147.785 34.7866 148.093 34.7866C148.21 34.7866 148.32 34.7793 148.423 34.7646C148.54 34.7353 148.643 34.6913 148.731 34.6326C148.834 34.5593 148.922 34.4786 148.995 34.3906C149.112 34.3026 149.23 34.2146 149.347 34.1266C149.479 34.024 149.618 33.958 149.765 33.9286C149.941 33.87 150.117 33.914 150.293 34.0606C150.469 34.2073 150.66 34.4126 150.865 34.6766C151.041 34.8966 151.151 35.102 151.195 35.2926C151.254 35.4833 151.232 35.6666 151.129 35.8426C151.026 36.0186 150.821 36.2093 150.513 36.4146C150.396 36.5906 150.212 36.7593 149.963 36.9206C149.728 37.0673 149.457 37.1846 149.149 37.2726C148.841 37.3606 148.518 37.4046 148.181 37.4046ZM156.477 37.3606C155.934 37.3606 155.472 37.2873 155.091 37.1406C154.71 37.0086 154.394 36.8033 154.145 36.5246C153.896 36.246 153.712 35.9013 153.595 35.4906C153.478 35.08 153.419 34.6033 153.419 34.0606V24.1826C153.419 23.9186 153.441 23.6913 153.485 23.5006C153.544 23.31 153.661 23.1633 153.837 23.0606C154.013 22.9433 154.306 22.8846 154.717 22.8846C155.128 22.8846 155.421 22.9433 155.597 23.0606C155.788 23.178 155.905 23.3393 155.949 23.5446C156.008 23.7353 156.037 23.948 156.037 24.1826V33.8626C156.037 34.0533 156.044 34.2073 156.059 34.3246C156.074 34.442 156.103 34.5446 156.147 34.6326C156.191 34.706 156.242 34.7646 156.301 34.8086C156.374 34.838 156.47 34.8526 156.587 34.8526C156.792 34.8526 156.976 34.8746 157.137 34.9186C157.298 34.9626 157.43 35.0726 157.533 35.2486C157.636 35.41 157.687 35.6813 157.687 36.0626C157.687 36.4733 157.628 36.774 157.511 36.9646C157.394 37.1406 157.24 37.2506 157.049 37.2946C156.858 37.3386 156.668 37.3606 156.477 37.3606ZM153.133 26.7346L154.915 26.7566L156.587 26.6686C156.836 26.654 157.056 26.676 157.247 26.7346C157.452 26.7786 157.614 26.896 157.731 27.0866C157.848 27.2773 157.907 27.578 157.907 27.9886C157.907 28.37 157.856 28.656 157.753 28.8466C157.65 29.0373 157.511 29.162 157.335 29.2206C157.159 29.2646 156.946 29.2866 156.697 29.2866L154.915 29.2426L153.067 29.2646C152.7 29.2646 152.444 29.162 152.297 28.9566C152.165 28.7513 152.099 28.4213 152.099 27.9666C152.099 27.5413 152.18 27.226 152.341 27.0206C152.517 26.8153 152.781 26.72 153.133 26.7346ZM163.07 37.4926C162.293 37.4926 161.633 37.3386 161.09 37.0306C160.562 36.7226 160.144 36.3046 159.836 35.7766C159.528 35.234 159.301 34.6326 159.154 33.9726C159.022 33.298 158.956 32.6013 158.956 31.8826C158.956 30.8266 159.11 29.888 159.418 29.0666C159.741 28.2453 160.203 27.6 160.804 27.1306C161.406 26.6613 162.154 26.4266 163.048 26.4266C163.65 26.4266 164.163 26.5513 164.588 26.8006C165.028 27.05 165.388 27.38 165.666 27.7906C165.945 28.1866 166.15 28.6266 166.282 29.1106C166.414 29.5946 166.48 30.064 166.48 30.5186C166.48 31.296 166.312 31.8753 165.974 32.2566C165.652 32.638 165.204 32.8286 164.632 32.8286H161.662C161.648 33.3126 161.706 33.7306 161.838 34.0826C161.97 34.4346 162.146 34.706 162.366 34.8966C162.601 35.0726 162.865 35.1606 163.158 35.1606C163.393 35.1606 163.598 35.1386 163.774 35.0946C163.965 35.0506 164.126 34.9993 164.258 34.9406C164.39 34.882 164.508 34.816 164.61 34.7426C164.728 34.6693 164.838 34.6106 164.94 34.5666C165.058 34.5226 165.182 34.5006 165.314 34.5006C165.505 34.5006 165.666 34.5593 165.798 34.6766C165.93 34.794 166.048 34.9553 166.15 35.1606C166.238 35.3073 166.29 35.432 166.304 35.5346C166.334 35.6373 166.348 35.7546 166.348 35.8866C166.348 36.1506 166.187 36.4073 165.864 36.6566C165.556 36.906 165.153 37.104 164.654 37.2506C164.156 37.412 163.628 37.4926 163.07 37.4926ZM161.618 31.1566H163.466C163.716 31.1566 163.884 31.1273 163.972 31.0686C164.075 31.01 164.126 30.8413 164.126 30.5626C164.126 30.2253 164.082 29.9246 163.994 29.6606C163.921 29.3966 163.804 29.184 163.642 29.0226C163.481 28.8613 163.276 28.7806 163.026 28.7806C162.733 28.7806 162.476 28.8906 162.256 29.1106C162.036 29.316 161.875 29.602 161.772 29.9686C161.67 30.3206 161.618 30.7166 161.618 31.1566ZM169.309 37.3606C168.899 37.3606 168.598 37.2946 168.407 37.1626C168.231 37.0453 168.121 36.884 168.077 36.6786C168.033 36.4733 168.011 36.246 168.011 35.9966V27.8346C168.011 27.5706 168.033 27.3433 168.077 27.1526C168.136 26.9473 168.253 26.7933 168.429 26.6906C168.62 26.5733 168.921 26.5146 169.331 26.5146C169.727 26.5146 170.013 26.566 170.189 26.6686C170.38 26.7713 170.497 26.9033 170.541 27.0646C170.6 27.2113 170.629 27.358 170.629 27.5046L170.541 27.7906C170.6 27.6 170.681 27.424 170.783 27.2626C170.901 27.0866 171.033 26.9326 171.179 26.8006C171.326 26.6686 171.487 26.566 171.663 26.4926C171.839 26.4193 172.03 26.3826 172.235 26.3826C172.338 26.3826 172.448 26.3973 172.565 26.4266C172.697 26.4413 172.829 26.478 172.961 26.5366C173.093 26.5806 173.211 26.6466 173.313 26.7346C173.431 26.808 173.519 26.9106 173.577 27.0426C173.651 27.1746 173.687 27.3286 173.687 27.5046C173.687 27.974 173.599 28.3846 173.423 28.7366C173.247 29.074 172.998 29.2426 172.675 29.2426C172.543 29.2426 172.426 29.228 172.323 29.1986C172.235 29.1546 172.147 29.1106 172.059 29.0666C171.971 29.008 171.869 28.964 171.751 28.9346C171.649 28.9053 171.517 28.8906 171.355 28.8906C171.223 28.8906 171.113 28.92 171.025 28.9786C170.937 29.0226 170.864 29.096 170.805 29.1986C170.747 29.2866 170.703 29.3966 170.673 29.5286C170.659 29.646 170.651 29.778 170.651 29.9246V36.0406C170.651 36.29 170.622 36.5173 170.563 36.7226C170.519 36.9133 170.402 37.0673 170.211 37.1846C170.035 37.302 169.735 37.3606 169.309 37.3606ZM177.573 37.4926C177.309 37.4926 177.037 37.4633 176.759 37.4046C176.495 37.346 176.231 37.258 175.967 37.1406C175.717 37.038 175.483 36.9133 175.263 36.7666C175.057 36.6053 174.881 36.4293 174.735 36.2386C174.588 36.0626 174.493 35.9013 174.449 35.7546C174.405 35.5933 174.405 35.432 174.449 35.2706C174.507 35.0946 174.595 34.9186 174.713 34.7426C174.962 34.3906 175.197 34.1926 175.417 34.1486C175.651 34.09 175.915 34.2073 176.209 34.5006C176.297 34.6033 176.399 34.706 176.517 34.8086C176.634 34.9113 176.751 35.0066 176.869 35.0946C177.001 35.168 177.133 35.2266 177.265 35.2706C177.411 35.3146 177.565 35.3366 177.727 35.3366C178.049 35.3366 178.299 35.234 178.475 35.0286C178.665 34.8233 178.761 34.5593 178.761 34.2366C178.761 34.1193 178.724 34.002 178.651 33.8846C178.592 33.7526 178.504 33.6353 178.387 33.5326C178.269 33.43 178.137 33.3273 177.991 33.2246C177.844 33.122 177.683 33.0193 177.507 32.9166C177.331 32.814 177.147 32.7113 176.957 32.6086C176.605 32.3886 176.289 32.1686 176.011 31.9486C175.747 31.714 175.519 31.472 175.329 31.2226C175.153 30.9586 175.021 30.6726 174.933 30.3646C174.845 30.0566 174.801 29.712 174.801 29.3306C174.801 28.7733 174.925 28.2746 175.175 27.8346C175.439 27.3946 175.805 27.05 176.275 26.8006C176.744 26.5513 177.301 26.4266 177.947 26.4266C178.123 26.4266 178.306 26.4486 178.497 26.4926C178.687 26.522 178.878 26.5733 179.069 26.6466C179.274 26.7053 179.472 26.7933 179.663 26.9106C179.868 27.0133 180.059 27.1306 180.235 27.2626C180.557 27.4973 180.741 27.7393 180.785 27.9886C180.829 28.2233 180.741 28.502 180.521 28.8246C180.359 29.0446 180.183 29.1986 179.993 29.2866C179.817 29.3746 179.663 29.3673 179.531 29.2646C179.384 29.1913 179.223 29.096 179.047 28.9786C178.885 28.8466 178.709 28.7366 178.519 28.6486C178.343 28.546 178.145 28.4946 177.925 28.4946C177.763 28.4946 177.617 28.5313 177.485 28.6046C177.353 28.6633 177.25 28.7586 177.177 28.8906C177.103 29.008 177.067 29.1546 177.067 29.3306C177.067 29.5213 177.103 29.69 177.177 29.8366C177.25 29.9833 177.353 30.1226 177.485 30.2546C177.631 30.372 177.8 30.4893 177.991 30.6066C178.181 30.7093 178.387 30.8266 178.607 30.9586C178.929 31.12 179.237 31.3033 179.531 31.5086C179.824 31.714 180.088 31.9486 180.323 32.2126C180.557 32.462 180.741 32.7553 180.873 33.0926C181.005 33.43 181.071 33.8113 181.071 34.2366C181.071 35.2486 180.755 36.048 180.125 36.6346C179.494 37.2066 178.643 37.4926 177.573 37.4926Z" fill="white"/>
</g>
<defs>
<filter id="filter0_i_3_21274" x="-1" y="0" width="235" height="68" filterUnits="userSpaceOnUse" color-interpolation-filters="sRGB">
<feFlood flood-opacity="0" result="BackgroundImageFix"/>
<feBlend mode="normal" in="SourceGraphic" in2="BackgroundImageFix" result="shape"/>
<feColorMatrix in="SourceAlpha" type="matrix" values="0 0 0 0 0 0 0 0 0 0 0 0 0 0 0 0 0 0 127 0" result="hardAlpha"/>
<feOffset dx="-1"/>
<feGaussianBlur stdDeviation="5"/>
<feComposite in2="hardAlpha" operator="arithmetic" k2="-1" k3="1"/>
<feColorMatrix type="matrix" values="0 0 0 0 0.258333 0 0 0 0 0.258333 0 0 0 0 0.258333 0 0 0 0.6 0"/>
<feBlend mode="normal" in2="shape" result="effect1_innerShadow_3_21274"/>
</filter>
<filter id="filter1_d_3_21274" x="220.678" y="-1" width="52.4551" height="69" filterUnits="userSpaceOnUse" color-interpolation-filters="sRGB">
<feFlood flood-opacity="0" result="BackgroundImageFix"/>
<feColorMatrix in="SourceAlpha" type="matrix" values="0 0 0 0 0 0 0 0 0 0 0 0 0 0 0 0 0 0 127 0" result="hardAlpha"/>
<feMorphology radius="1" operator="dilate" in="SourceAlpha" result="effect1_dropShadow_3_21274"/>
<feOffset/>
<feGaussianBlur stdDeviation="1"/>
<feColorMatrix type="matrix" values="0 0 0 0 0 0 0 0 0 0 0 0 0 0 0 0 0 0 1 0"/>
<feBlend mode="normal" in2="BackgroundImageFix" result="effect1_dropShadow_3_21274"/>
<feBlend mode="normal" in="SourceGraphic" in2="effect1_dropShadow_3_21274" result="shape"/>
</filter>
<filter id="filter2_d_3_21274" x="-39.1328" y="2" width="49.0156" height="69" filterUnits="userSpaceOnUse" color-interpolation-filters="sRGB">
<feFlood flood-opacity="0" result="BackgroundImageFix"/>
<feColorMatrix in="SourceAlpha" type="matrix" values="0 0 0 0 0 0 0 0 0 0 0 0 0 0 0 0 0 0 127 0" result="hardAlpha"/>
<feMorphology radius="1" operator="dilate" in="SourceAlpha" result="effect1_dropShadow_3_21274"/>
<feOffset/>
<feGaussianBlur stdDeviation="1"/>
<feColorMatrix type="matrix" values="0 0 0 0 0 0 0 0 0 0 0 0 0 0 0 0 0 0 1 0"/>
<feBlend mode="normal" in2="BackgroundImageFix" result="effect1_dropShadow_3_21274"/>
<feBlend mode="normal" in="SourceGraphic" in2="effect1_dropShadow_3_21274" result="shape"/>
</filter>
<filter id="filter3_d_3_21274" x="16.7969" y="11.5645" width="174.273" height="35.9277" filterUnits="userSpaceOnUse" color-interpolation-filters="sRGB">
<feFlood flood-opacity="0" result="BackgroundImageFix"/>
<feColorMatrix in="SourceAlpha" type="matrix" values="0 0 0 0 0 0 0 0 0 0 0 0 0 0 0 0 0 0 127 0" result="hardAlpha"/>
<feOffset/>
<feGaussianBlur stdDeviation="5"/>
<feColorMatrix type="matrix" values="0 0 0 0 0.466667 0 0 0 0 0.466667 0 0 0 0 0.466667 0 0 0 0.25 0"/>
<feBlend mode="normal" in2="BackgroundImageFix" result="effect1_dropShadow_3_21274"/>
<feBlend mode="normal" in="SourceGraphic" in2="effect1_dropShadow_3_21274" result="shape"/>
</filter>
<linearGradient id="paint0_linear_3_21274" x1="17.2051" y1="29.0182" x2="216.793" y2="29.0182" gradientUnits="userSpaceOnUse">
<stop stop-opacity="0.4"/>
<stop offset="0.0625" stop-color="#C5C5C5" stop-opacity="0.44375"/>
<stop offset="0.5" stop-color="white" stop-opacity="0.75"/>
<stop offset="1" stop-color="white"/>
</linearGradient>
<linearGradient id="paint1_linear_3_21274" x1="17.2051" y1="29.0182" x2="216.793" y2="29.0182" gradientUnits="userSpaceOnUse">
<stop stop-color="white" stop-opacity="0.56"/>
<stop offset="0.51098" stop-color="white" stop-opacity="0"/>
<stop offset="1" stop-color="white" stop-opacity="0.14"/>
</linearGradient>
<linearGradient id="paint2_linear_3_21274" x1="211.631" y1="63" x2="220.645" y2="49.9398" gradientUnits="userSpaceOnUse">
<stop stop-color="white" stop-opacity="0.2"/>
<stop offset="0.5" stop-color="white" stop-opacity="0.3"/>
<stop offset="1" stop-color="white" stop-opacity="0"/>
</linearGradient>
<linearGradient id="paint3_linear_3_21274" x1="21.5074" y1="63" x2="11.4204" y2="49.9834" gradientUnits="userSpaceOnUse">
<stop stop-color="white" stop-opacity="0.2"/>
<stop offset="0.5" stop-color="white" stop-opacity="0.5"/>
<stop offset="1" stop-color="white" stop-opacity="0.7"/>
</linearGradient>
<linearGradient id="paint4_linear_3_21274" x1="211.631" y1="2" x2="214.909" y2="14.4068" gradientUnits="userSpaceOnUse">
<stop stop-color="white" stop-opacity="0.15"/>
<stop offset="0.505208" stop-color="white" stop-opacity="0.5"/>
<stop offset="1" stop-color="white" stop-opacity="0"/>
</linearGradient>
<linearGradient id="paint5_linear_3_21274" x1="22.3676" y1="2" x2="19.09" y2="14.4068" gradientUnits="userSpaceOnUse">
<stop stop-color="white" stop-opacity="0.15"/>
<stop offset="0.494792" stop-color="white" stop-opacity="0.5"/>
<stop offset="1" stop-color="white" stop-opacity="0.7"/>
</linearGradient>
</defs>
</svg>
