<svg width="69" height="69" viewBox="0 0 69 69" fill="none" xmlns="http://www.w3.org/2000/svg">
<rect width="68" height="68" rx="5.66929" fill="#06C7F2"/>
<path fill-rule="evenodd" clip-rule="evenodd" d="M5.66929 0C2.53823 0 0 2.53823 0 5.66929V62.3622C0 65.4933 2.53823 68.0315 5.66929 68.0315H62.3622C65.4933 68.0315 68.0315 65.4933 68.0315 62.3622V5.66929C68.0315 2.53823 65.4933 0 62.3622 0H5.66929ZM15.67 3C12.5385 3 10 5.53854 10 8.67V50.33C10 53.4615 12.5385 56 15.67 56H52.33C55.4615 56 58 53.4615 58 50.33V8.67C58 5.53855 55.4615 3 52.33 3H15.67Z" fill="#9E9E9E" fill-opacity="0.5"/>
<g filter="url(#filter0_i_114_2385)" style="mix-blend-mode:overlay">
<rect width="68" height="68" rx="5.66929" fill="white" fill-opacity="0.01"/>
</g>
<rect x="10" y="3" width="48" height="53" rx="5.67" fill="url(#paint0_linear_114_2385)" fill-opacity="0.2"/>
<rect x="10.5" y="3.5" width="47" height="52" rx="5.17" stroke="url(#paint1_linear_114_2385)" stroke-opacity="0.4"/>
<path opacity="0.5" d="M42.9805 56.0004V67.9689H62.2996C65.4307 67.9689 67.9689 65.4307 67.9689 62.2996V42.9805H58.0004V50.3304C58.0004 53.4618 55.4618 56.0004 52.3304 56.0004H42.9805Z" fill="url(#paint2_linear_114_2385)"/>
<rect opacity="0.5" x="25" y="56" width="18" height="12" fill="white" fill-opacity="0.2"/>
<path opacity="0.5" d="M10 42.9805H0V62.2996C0 65.4307 2.53823 67.9689 5.6693 67.9689H24.9884V56.0004H15.67C12.5385 56.0004 10 53.4618 10 50.3304V42.9805Z" fill="url(#paint3_linear_114_2385)"/>
<rect opacity="0.5" y="24.9883" width="9.99537" height="17.9917" fill="white" fill-opacity="0.7"/>
<path opacity="0.5" d="M62.2996 0H42.9805V3H52.3304C55.4618 3 58.0004 5.53855 58.0004 8.67V24.9884H67.9689V5.66929C67.9689 2.53823 65.4307 0 62.2996 0Z" fill="url(#paint4_linear_114_2385)"/>
<rect opacity="0.5" x="24.9883" width="17.9917" height="2.99861" fill="white" fill-opacity="0.15"/>
<path opacity="0.5" d="M5.66929 0C2.53823 0 0 2.53823 0 5.6693V24.9884H10V8.67C10 5.53854 12.5385 3 15.67 3H24.9884V0H5.66929Z" fill="url(#paint5_linear_114_2385)"/>
<mask id="mask0_114_2385" style="mask-type:alpha" maskUnits="userSpaceOnUse" x="50" y="0" width="18" height="68">
<rect x="67.9688" y="67.9688" width="16.9921" height="67.9685" rx="5.66929" transform="rotate(-180 67.9688 67.9688)" fill="#343436"/>
</mask>
<g mask="url(#mask0_114_2385)">
<g opacity="0.2" filter="url(#filter1_d_114_2385)" style="mix-blend-mode:overlay">
<path d="M88.959 59.2987C88.959 62.4302 86.4204 64.9687 83.289 64.9687L74.4715 64.9687C67.5679 64.9687 61.9715 59.3723 61.9715 52.4687L61.9715 14.4979C61.9715 7.59436 67.5679 1.99792 74.4715 1.99792L83.289 1.99792C86.4204 1.99792 88.959 4.53647 88.959 7.66792L88.959 59.2987Z" fill="black" fill-opacity="0.01"/>
</g>
</g>
<mask id="mask1_114_2385" style="mask-type:alpha" maskUnits="userSpaceOnUse" x="0" y="0" width="17" height="68">
<rect width="16.9921" height="67.9685" rx="5.66929" fill="#343436"/>
</mask>
<g mask="url(#mask1_114_2385)">
<g opacity="0.2" filter="url(#filter2_d_114_2385)" style="mix-blend-mode:overlay">
<path d="M-20.9902 10.6661C-20.9902 7.53464 -18.4517 4.99609 -15.3202 4.99609H-1.67181C1.45964 4.99609 3.99819 7.53464 3.99819 10.6661V55.4669C3.99819 62.3705 -1.59825 67.9669 -8.50181 67.9669H-15.3202C-18.4517 67.9669 -20.9902 65.4284 -20.9902 62.2969V10.6661Z" fill="black" fill-opacity="0.01"/>
</g>
</g>
<g clip-path="url(#clip0_114_2385)">
<path d="M41.3149 29.2539L42.5998 27.9689C42.8001 27.7688 42.8001 27.4441 42.5998 27.2439C42.3996 27.0437 42.075 27.0437 41.8748 27.2439L40.5899 28.5289L39.3049 27.2439C39.1048 27.0437 38.7801 27.0437 38.5799 27.2439C38.3796 27.4441 38.3796 27.7688 38.5799 27.969L39.8648 29.2539L38.5799 30.5388C38.3796 30.739 38.3796 31.0637 38.5799 31.2639C38.68 31.364 38.8112 31.4141 38.9424 31.4141C39.0735 31.4141 39.2048 31.364 39.3049 31.2639L40.5898 29.979L41.8747 31.2639C41.9749 31.364 42.1061 31.4141 42.2373 31.4141C42.3684 31.4141 42.4997 31.364 42.5998 31.2639C42.8 31.0637 42.8 30.7391 42.5998 30.5388L41.3149 29.2539Z" fill="white"/>
<path d="M41.3149 29.25H39.8648L39.8648 29.25L38.5799 30.535C38.3796 30.7352 38.3796 31.0598 38.5799 31.26C38.68 31.3602 38.8112 31.4102 38.9424 31.4102C39.0735 31.4102 39.2048 31.3602 39.3049 31.26L40.5898 29.9751L41.8747 31.26C41.9749 31.3602 42.1061 31.4102 42.2373 31.4102C42.3684 31.4102 42.4997 31.3602 42.5998 31.26C42.8 31.0598 42.8 30.7352 42.5998 30.535L41.3149 29.25Z" fill="white"/>
<path d="M36.1536 21.0625C35.8801 21.0625 35.5992 21.1573 35.3185 21.3445L29.8709 24.9762C29.7283 25.0713 29.6426 25.2314 29.6426 25.4028V33.091C29.6426 33.2624 29.7283 33.4225 29.8709 33.5175L35.3185 37.1493C35.5992 37.3364 35.8801 37.4313 36.1536 37.4313H36.1537C36.4914 37.4313 36.7885 37.2844 36.9903 37.0176C37.1653 36.7861 37.2578 36.4728 37.2578 36.1114V22.3825C37.2578 21.4706 36.7032 21.0625 36.1536 21.0625Z" fill="white"/>
<path d="M27.1356 24.8906C26.0958 24.8906 25.25 25.7365 25.25 26.7763V31.7186C25.25 32.7583 26.0958 33.6042 27.1356 33.6042H30.0007V24.8906H27.1356Z" fill="white"/>
</g>
<defs>
<filter id="filter0_i_114_2385" x="-1" y="0" width="69" height="68" filterUnits="userSpaceOnUse" color-interpolation-filters="sRGB">
<feFlood flood-opacity="0" result="BackgroundImageFix"/>
<feBlend mode="normal" in="SourceGraphic" in2="BackgroundImageFix" result="shape"/>
<feColorMatrix in="SourceAlpha" type="matrix" values="0 0 0 0 0 0 0 0 0 0 0 0 0 0 0 0 0 0 127 0" result="hardAlpha"/>
<feOffset dx="-1"/>
<feGaussianBlur stdDeviation="5"/>
<feComposite in2="hardAlpha" operator="arithmetic" k2="-1" k3="1"/>
<feColorMatrix type="matrix" values="0 0 0 0 0 0 0 0 0 0 0 0 0 0 0 0 0 0 0.6 0"/>
<feBlend mode="normal" in2="shape" result="effect1_innerShadow_114_2385"/>
</filter>
<filter id="filter1_d_114_2385" x="58.9707" y="-1.00391" width="32.9883" height="68.9727" filterUnits="userSpaceOnUse" color-interpolation-filters="sRGB">
<feFlood flood-opacity="0" result="BackgroundImageFix"/>
<feColorMatrix in="SourceAlpha" type="matrix" values="0 0 0 0 0 0 0 0 0 0 0 0 0 0 0 0 0 0 127 0" result="hardAlpha"/>
<feMorphology radius="1" operator="dilate" in="SourceAlpha" result="effect1_dropShadow_114_2385"/>
<feOffset/>
<feGaussianBlur stdDeviation="1"/>
<feColorMatrix type="matrix" values="0 0 0 0 0 0 0 0 0 0 0 0 0 0 0 0 0 0 1 0"/>
<feBlend mode="normal" in2="BackgroundImageFix" result="effect1_dropShadow_114_2385"/>
<feBlend mode="normal" in="SourceGraphic" in2="effect1_dropShadow_114_2385" result="shape"/>
</filter>
<filter id="filter2_d_114_2385" x="-23.9902" y="1.99609" width="30.9883" height="68.9727" filterUnits="userSpaceOnUse" color-interpolation-filters="sRGB">
<feFlood flood-opacity="0" result="BackgroundImageFix"/>
<feColorMatrix in="SourceAlpha" type="matrix" values="0 0 0 0 0 0 0 0 0 0 0 0 0 0 0 0 0 0 127 0" result="hardAlpha"/>
<feMorphology radius="1" operator="dilate" in="SourceAlpha" result="effect1_dropShadow_114_2385"/>
<feOffset/>
<feGaussianBlur stdDeviation="1"/>
<feColorMatrix type="matrix" values="0 0 0 0 0 0 0 0 0 0 0 0 0 0 0 0 0 0 1 0"/>
<feBlend mode="normal" in2="BackgroundImageFix" result="effect1_dropShadow_114_2385"/>
<feBlend mode="normal" in="SourceGraphic" in2="effect1_dropShadow_114_2385" result="shape"/>
</filter>
<linearGradient id="paint0_linear_114_2385" x1="10" y1="29.0182" x2="58" y2="29.0182" gradientUnits="userSpaceOnUse">
<stop stop-opacity="0.4"/>
<stop offset="0.0625" stop-color="#C5C5C5" stop-opacity="0.44375"/>
<stop offset="0.5" stop-color="white" stop-opacity="0.75"/>
<stop offset="1" stop-color="white"/>
</linearGradient>
<linearGradient id="paint1_linear_114_2385" x1="10" y1="29.0182" x2="58" y2="29.0182" gradientUnits="userSpaceOnUse">
<stop stop-color="white" stop-opacity="0.56"/>
<stop offset="0.51098" stop-color="white" stop-opacity="0"/>
<stop offset="1" stop-color="white" stop-opacity="0.14"/>
</linearGradient>
<linearGradient id="paint2_linear_114_2385" x1="54.9749" y1="62.9712" x2="64.4705" y2="54.9749" gradientUnits="userSpaceOnUse">
<stop stop-color="white" stop-opacity="0.2"/>
<stop offset="0.5" stop-color="white" stop-opacity="0.3"/>
<stop offset="1" stop-color="white" stop-opacity="0"/>
</linearGradient>
<linearGradient id="paint3_linear_114_2385" x1="12.4942" y1="62.9712" x2="2.49884" y2="55.4747" gradientUnits="userSpaceOnUse">
<stop stop-color="white" stop-opacity="0.2"/>
<stop offset="0.5" stop-color="white" stop-opacity="0.5"/>
<stop offset="1" stop-color="white" stop-opacity="0.7"/>
</linearGradient>
<linearGradient id="paint4_linear_114_2385" x1="54.9749" y1="1.99907" x2="59.9726" y2="12.994" gradientUnits="userSpaceOnUse">
<stop stop-color="white" stop-opacity="0.15"/>
<stop offset="0.505208" stop-color="white" stop-opacity="0.5"/>
<stop offset="1" stop-color="white" stop-opacity="0"/>
</linearGradient>
<linearGradient id="paint5_linear_114_2385" x1="12.994" y1="1.99907" x2="7.9963" y2="12.994" gradientUnits="userSpaceOnUse">
<stop stop-color="white" stop-opacity="0.15"/>
<stop offset="0.494792" stop-color="white" stop-opacity="0.5"/>
<stop offset="1" stop-color="white" stop-opacity="0.7"/>
</linearGradient>
<clipPath id="clip0_114_2385">
<rect width="17.5" height="17.5" fill="white" transform="translate(25.25 20.5)"/>
</clipPath>
</defs>
</svg>
