<svg width="16" height="13" viewBox="0 0 16 13" fill="none" xmlns="http://www.w3.org/2000/svg">
<path d="M6.825 12.0176C7.12031 12.1215 7.4375 11.9055 7.4375 11.5938V1.27422C7.4375 1.15938 7.39375 1.04453 7.30078 0.973437C6.76484 0.546875 5.53438 0 3.9375 0C2.55664 0 1.26602 0.363672 0.494922 0.658984C0.185937 0.779297 0 1.08555 0 1.41641V11.5418C0 11.8672 0.35 12.0941 0.658984 11.993C1.52031 11.7059 2.88477 11.375 3.9375 11.375C4.86445 11.375 6.09766 11.7578 6.825 12.0176ZM8.925 12.0176C9.65234 11.7578 10.8855 11.375 11.8125 11.375C12.8652 11.375 14.2297 11.7059 15.091 11.993C15.4 12.0969 15.75 11.8672 15.75 11.5418V1.41641C15.75 1.08555 15.5641 0.779297 15.2551 0.661719C14.484 0.363672 13.1934 0 11.8125 0C10.2156 0 8.98516 0.546875 8.44922 0.973437C8.35898 1.04453 8.3125 1.15938 8.3125 1.27422V11.5938C8.3125 11.9055 8.63242 12.1215 8.925 12.0176Z" fill="#961900"/>
</svg>
