<svg width="28" height="28" viewBox="0 0 28 28" fill="none" xmlns="http://www.w3.org/2000/svg">
<g clip-path="url(#clip0_3_3357)">
<path d="M8.05854 25.3856L2.31641 19.7012C2.31641 19.7012 16.4585 6.08109 22.158 0.467023C24.2474 -1.60132 29.1794 3.78763 27.7296 5.19466C21.8453 11.0057 8.05854 25.3856 8.05854 25.3856Z" fill="#06C7F2"/>
<path d="M6.5096 21.2475C4.76138 19.756 2.89945 19.0807 2.34514 19.7138C1.79082 20.347 2.52991 22.3591 4.27813 23.8505C6.02635 25.342 7.63244 25.9189 8.18676 25.2716C8.74107 24.6244 8.25783 22.7249 6.5096 21.2475Z" fill="white"/>
<path d="M10.3188 16.8871C9.48021 16.0429 8.51372 15.2972 7.46194 14.7344C6.65179 15.5223 5.89849 16.2399 5.23047 16.8871C5.71372 17.0841 6.18275 17.3233 6.62336 17.5907C7.36245 18.0409 8.0589 18.5897 8.67006 19.1947C9.28123 19.7997 9.83555 20.4891 10.2904 21.2067C10.532 21.5726 10.7452 21.9665 10.93 22.3605C11.5269 21.7414 12.1807 21.052 12.9056 20.3203C12.5929 19.7856 12.2376 19.251 11.868 18.7444C11.4132 18.0972 10.8873 17.464 10.3188 16.8871Z" fill="white"/>
<path d="M24.8434 2.99954C23.9053 2.14125 22.7967 1.46588 21.6028 1.01562C20.8495 1.74728 19.9967 2.5915 19.0586 3.50608C19.4992 3.64678 19.9256 3.82969 20.3378 4.05482C21.7022 4.81462 22.7967 5.98246 23.6352 7.291C23.9053 7.71311 24.1469 8.13522 24.3743 8.58547C25.3408 7.60055 26.2505 6.70005 27.0464 5.89804C26.4921 4.80055 25.753 3.81562 24.8434 2.99954Z" fill="white"/>
<path d="M7.00755 23.5293C6.68065 22.6006 5.88471 21.9393 5.06034 21.3906C4.77608 21.2077 4.4776 21.0248 4.13649 20.9403C3.80958 20.8559 3.42583 20.87 3.14156 21.0529C2.91415 21.1936 2.75781 21.4328 2.61567 21.6439C1.99029 22.6006 1.3507 23.5574 0.725319 24.5142C0.369989 25.0489 0.0146589 25.6258 0.000445717 26.2589C-0.0137675 26.8358 0.313136 27.4268 0.810598 27.7222C1.30806 28.0177 1.94765 28.1021 2.62989 27.666L2.8573 27.5253C3.95171 26.7092 5.08877 25.9353 6.25425 25.2037C6.55273 25.0207 6.85121 24.8238 7.00755 24.5142C7.1639 24.2328 7.12126 23.867 7.00755 23.5293Z" fill="#06C7F2"/>
</g>
<defs>
<clipPath id="clip0_3_3357">
<rect width="28" height="28" fill="white"/>
</clipPath>
</defs>
</svg>
