<svg width="159" height="159" viewBox="0 0 159 159" fill="none" xmlns="http://www.w3.org/2000/svg">
<circle cx="79.3388" cy="79.3388" r="79.3388" fill="#FFAD00"/>
<path d="M75.187 128.481C75.4627 128.523 75.6633 128.596 75.7887 128.699C75.9024 128.787 75.9696 128.903 75.9902 129.047C76.0087 129.205 76.0034 129.38 75.9743 129.573L74.082 142.127C74.055 142.307 74.0035 142.461 73.9276 142.591C73.8517 142.72 73.7385 142.816 73.5882 142.878C73.4378 142.94 73.2386 142.952 72.9904 142.915L69.8466 142.441C69.2262 142.347 68.6764 142.159 68.1975 141.875C67.7026 141.603 67.3002 141.232 66.9903 140.762C66.6645 140.304 66.4418 139.77 66.3223 139.16C66.1889 138.547 66.1794 137.862 66.2937 137.104C66.4059 136.359 66.616 135.714 66.9239 135.168C67.218 134.62 67.5882 134.175 68.0346 133.834C68.4788 133.506 68.9785 133.278 69.5337 133.15C70.075 133.02 70.6559 133.002 71.2764 133.095L73.4687 133.426L74.0953 129.269C74.1244 129.076 74.17 128.913 74.2322 128.782C74.2943 128.65 74.3995 128.56 74.5478 128.512C74.6982 128.45 74.9112 128.44 75.187 128.481ZM73.185 135.308L70.9513 134.971C70.455 134.897 70.0188 134.937 69.643 135.091C69.2512 135.258 68.9276 135.534 68.6723 135.918C68.4148 136.316 68.2403 136.819 68.1489 137.426C68.0616 138.005 68.0764 138.515 68.1933 138.955C68.3102 139.396 68.5313 139.754 68.8565 140.028C69.1818 140.303 69.6064 140.48 70.1303 140.559L72.3433 140.892L73.185 135.308Z" fill="white"/>
<path d="M60.6363 124.727C60.8875 124.848 61.0578 124.976 61.1471 125.112C61.2425 125.236 61.2788 125.369 61.256 125.513C61.2332 125.657 61.1794 125.817 61.0947 125.992L55.5861 137.431C55.4954 137.62 55.4072 137.771 55.3216 137.884C55.2234 137.992 55.0963 138.046 54.9405 138.049C54.7785 138.064 54.5782 138.014 54.3395 137.899C54.0883 137.778 53.9242 137.652 53.8475 137.522C53.7521 137.399 53.7158 137.266 53.7386 137.122C53.7489 136.972 53.7963 136.809 53.881 136.633L59.0448 125.911L54.3713 123.66C54.208 123.581 54.0789 123.496 53.9839 123.404C53.8765 123.306 53.8185 123.185 53.8102 123.042C53.8018 122.898 53.8521 122.713 53.961 122.487C54.0638 122.274 54.1769 122.119 54.3002 122.024C54.4175 121.941 54.5417 121.908 54.673 121.925C54.8042 121.942 54.9514 121.989 55.1148 122.068L60.6363 124.727Z" fill="white"/>
<path d="M41.105 112.266C41.186 112.056 41.2786 111.895 41.3829 111.782C41.4778 111.68 41.5989 111.621 41.7463 111.606C41.8835 111.581 42.062 111.604 42.2817 111.675C42.6219 111.8 42.8402 111.965 42.9366 112.168C43.033 112.372 43.0225 112.619 42.9051 112.909L38.0133 123.778L48.4566 118.089C48.7273 117.941 48.9631 117.912 49.1638 118.003C49.374 118.084 49.5642 118.289 49.7344 118.618C49.8316 118.842 49.8729 119.023 49.8583 119.161C49.8343 119.31 49.7603 119.441 49.6363 119.554C49.4925 119.668 49.3042 119.779 49.0715 119.886L37.2249 126.042C37.0607 126.137 36.8738 126.154 36.6643 126.093C36.4548 126.032 36.2734 125.93 36.1201 125.788C36.0179 125.693 35.935 125.588 35.8715 125.472C35.7977 125.346 35.7535 125.219 35.7389 125.092C35.7242 124.964 35.7439 124.83 35.7978 124.69L41.105 112.266ZM45.6712 120.384L44.0829 121.05L40.2958 117.536L40.8568 115.916L45.6712 120.384Z" fill="white"/>
<path d="M22.3274 107.205C22.331 106.849 22.3974 106.602 22.5265 106.463C22.6556 106.324 22.8732 106.254 23.1793 106.255L31.4776 106.028L35.9155 103.466C36.0725 103.376 36.2313 103.316 36.3921 103.288C36.5337 103.254 36.6696 103.28 36.7997 103.366C36.9349 103.433 37.0722 103.587 37.2117 103.829C37.3511 104.07 37.4195 104.272 37.4167 104.435C37.4191 104.579 37.3643 104.707 37.2524 104.82C37.1405 104.933 37 105.038 36.8309 105.135L32.5561 107.604L28.1546 114.83C28.0018 115.096 27.833 115.249 27.6481 115.292C27.4442 115.329 27.1966 115.263 26.9052 115.093C26.6729 114.969 26.5124 114.844 26.4236 114.719C26.3349 114.593 26.3049 114.457 26.3336 114.312C26.3433 114.161 26.4083 113.995 26.5286 113.813L30.4399 107.787L23.2552 108.143C23.0373 108.156 22.8643 108.135 22.7361 108.081C22.6078 108.026 22.5114 107.928 22.4468 107.789C22.3631 107.644 22.3233 107.449 22.3274 107.205Z" fill="white"/>
<path d="M30.7977 74.9316C30.7789 75.1819 30.7216 75.3873 30.6257 75.5479C30.5297 75.7085 30.3818 75.8163 30.1819 75.8712L16.9429 79.2838C16.6008 79.37 16.3639 79.3593 16.2322 79.2515C16.1004 79.1438 15.9759 78.9387 15.8588 78.6362C15.7899 78.4353 15.7613 78.2584 15.7727 78.1054C15.7842 77.9525 15.8427 77.824 15.9484 77.7201C16.0541 77.6161 16.2138 77.5372 16.4276 77.4833L28.1681 74.7555L17.1306 70.3417C16.9272 70.2565 16.7666 70.1606 16.6488 70.0539C16.518 69.9322 16.445 69.7869 16.4297 69.618C16.4144 69.449 16.4723 69.2366 16.6033 68.9808C16.7994 68.6039 17.0086 68.4239 17.2311 68.4405C17.4407 68.4423 17.6735 68.5086 17.9293 68.6397L30.3289 73.9106C30.4905 73.9927 30.6137 74.1208 30.6986 74.2949C30.7834 74.4691 30.8164 74.6813 30.7977 74.9316Z" fill="white"/>
<path d="M34.2744 60.4198C34.1827 60.6534 34.0725 60.8199 33.9437 60.9191C33.8278 61.0234 33.6974 61.0696 33.5523 61.0576C33.3942 61.0405 33.2243 60.9963 33.0426 60.925L21.2242 56.2866C21.0555 56.2204 20.9138 56.1423 20.7993 56.0524C20.6899 55.9496 20.6192 55.8245 20.5871 55.6771C20.5602 55.5167 20.5951 55.3132 20.6919 55.0666C20.7938 54.807 20.9066 54.6341 21.0303 54.5478C21.1541 54.4615 21.2885 54.4244 21.4336 54.4364C21.5837 54.4354 21.7497 54.4706 21.9314 54.5419L33.7498 59.1803C33.9315 59.2516 34.0771 59.3387 34.1865 59.4416C34.301 59.5315 34.3653 59.654 34.3792 59.8093C34.4113 59.9567 34.3763 60.1602 34.2744 60.4198Z" fill="white"/>
<path d="M39.5124 50.6511C39.3559 50.8473 39.2015 50.9739 39.0492 51.0307C38.9055 51.0767 38.7618 51.078 38.618 51.0347C38.4633 50.9826 38.3151 50.9001 38.1733 50.7871L28.2309 42.8582C28.0891 42.7452 27.9768 42.6289 27.8939 42.5092C27.8196 42.3787 27.7933 42.2328 27.8148 42.0716C27.8363 41.9105 27.9351 41.7306 28.1112 41.5322L29.8457 39.3573C30.489 38.5505 31.1904 37.9506 31.9498 37.5574C32.6983 37.1556 33.483 36.9431 34.304 36.9201C35.1249 36.8971 35.9625 37.0656 36.8167 37.4258C37.6796 37.7751 38.5363 38.2888 39.3866 38.9669C40.2696 39.6711 40.9829 40.4093 41.5263 41.1816C42.0698 41.9538 42.427 42.747 42.5982 43.5612C42.7693 44.3754 42.7433 45.2019 42.5203 46.0407C42.306 46.8685 41.8728 47.6913 41.2208 48.5089L39.5124 50.6511ZM38.6112 48.7285L39.7718 47.2731C40.3978 46.4882 40.7417 45.7102 40.8037 44.9392C40.8634 44.1486 40.6783 43.3856 40.2481 42.6502C39.8071 41.9061 39.1559 41.1907 38.2947 40.5039C37.4225 39.8083 36.5747 39.3284 35.7511 39.064C34.9275 38.7996 34.1424 38.7888 33.3959 39.0317C32.6471 39.255 31.9554 39.7645 31.3207 40.5604L30.1731 41.9994L38.6112 48.7285Z" fill="white"/>
<path d="M49.944 39.7916C49.7251 39.9408 49.5344 40.0202 49.3721 40.0296C49.2291 40.0427 49.1011 40.0034 48.988 39.9118C48.867 39.8086 48.7515 39.6764 48.6416 39.5151L41.4897 29.0251C41.2854 28.7256 41.2056 28.4847 41.2501 28.3025C41.2983 28.1008 41.4721 27.8979 41.7717 27.6937L47.0771 24.0765C47.2384 23.9665 47.3885 23.8895 47.5272 23.8456C47.666 23.8016 47.8035 23.8175 47.9396 23.8935C48.0873 23.9616 48.2397 24.1108 48.3968 24.3412C48.5539 24.5717 48.6372 24.768 48.6466 24.9304C48.6597 25.0733 48.6146 25.2053 48.5115 25.3263C48.4198 25.4394 48.2934 25.5509 48.1321 25.6609L43.587 28.7597L46.026 32.337L49.0848 30.2515C49.2461 30.1415 49.3904 30.0685 49.5176 30.0323C49.6564 29.9883 49.7899 29.9986 49.9182 30.063C50.0465 30.1274 50.1853 30.269 50.3346 30.4879C50.4759 30.6953 50.5532 30.8705 50.5663 31.0135C50.5794 31.1564 50.5401 31.2845 50.4484 31.3976C50.3489 31.4992 50.2128 31.6089 50.04 31.7267L47.0157 33.7886L49.6785 37.6943L54.2408 34.5837C54.4021 34.4737 54.5522 34.3968 54.691 34.3528C54.8297 34.3088 54.9672 34.3248 55.1033 34.4007C55.2432 34.4573 55.3916 34.6008 55.5487 34.8312C55.7058 35.0616 55.7891 35.258 55.7985 35.4203C55.8116 35.5633 55.7666 35.6952 55.6634 35.8162C55.5717 35.9293 55.4453 36.0409 55.284 36.1508L49.944 39.7916Z" fill="white"/>
<path d="M65.9842 31.8025C65.1314 32.0656 64.3005 32.1394 63.4916 32.0242C62.6826 31.9089 61.9238 31.6249 61.2151 31.1723C60.5197 30.7156 59.9006 30.1039 59.3577 29.3375C58.8107 28.5577 58.3749 27.6415 58.0502 26.5889C57.7173 25.5096 57.5484 24.4891 57.5437 23.5275C57.5481 22.5485 57.7002 21.6698 58.0001 20.8914C58.2958 20.0998 58.7321 19.4326 59.3089 18.8899C59.8949 18.3297 60.6009 17.9222 61.4271 17.6674C62.2665 17.4085 63.0907 17.3366 63.8997 17.4519C64.7086 17.5672 65.4562 17.8619 66.1424 18.3361C66.8419 18.8062 67.4671 19.4378 68.0182 20.2309C68.5652 21.0107 69.0051 21.9402 69.3381 23.0195C69.6627 24.0721 69.8275 25.0792 69.8323 26.0409C69.8329 26.9891 69.6767 27.8545 69.3635 28.6369C69.0637 29.4153 68.6254 30.0758 68.0486 30.6185C67.4851 31.1571 66.797 31.5518 65.9842 31.8025ZM65.3094 30.0407C65.869 29.8681 66.345 29.5899 66.7374 29.2062C67.139 28.8051 67.4344 28.32 67.6237 27.7509C67.8263 27.1777 67.9201 26.5358 67.9053 25.8254C67.8904 25.1149 67.7597 24.36 67.5131 23.5605C67.2665 22.761 66.9513 22.0703 66.5674 21.4883C66.1795 20.8929 65.7404 20.4155 65.2501 20.056C64.7731 19.6924 64.2624 19.4559 63.718 19.3466C63.1735 19.2373 62.6215 19.2689 62.0619 19.4416C61.5022 19.6142 61.0216 19.901 60.62 20.3022C60.2318 20.6992 59.9363 21.1843 59.7338 21.7575C59.5312 22.3308 59.4373 22.9726 59.4522 23.683C59.4803 24.3894 59.6177 25.1423 59.8643 25.9417C60.1109 26.7412 60.4282 27.4386 60.8161 28.034C61.2 28.616 61.6304 29.0888 62.1073 29.4524C62.5976 29.8119 63.115 30.0463 63.6594 30.1557C64.1998 30.2516 64.7498 30.2133 65.3094 30.0407Z" fill="white"/>
<path d="M92.3304 31.1076C92.0639 31.0254 91.8764 30.9238 91.7678 30.8028C91.6684 30.6992 91.6193 30.5746 91.6204 30.429C91.6257 30.2701 91.6571 30.0974 91.7146 29.9108L95.4568 17.7789C95.5102 17.6056 95.5842 17.4606 95.6786 17.3438C95.773 17.227 95.8991 17.1492 96.057 17.1103C96.2149 17.0715 96.4138 17.0891 96.6536 17.163L99.6916 18.1001C100.291 18.2851 100.807 18.5535 101.238 18.9055C101.687 19.2482 102.029 19.6749 102.266 20.1856C102.52 20.6871 102.66 21.2485 102.688 21.8698C102.728 22.4952 102.635 23.1743 102.409 23.9071C102.187 24.6267 101.884 25.2334 101.498 25.7272C101.125 26.2252 100.693 26.6099 100.201 26.8812C99.7125 27.1392 99.1844 27.29 98.6164 27.3337C98.0617 27.3815 97.4846 27.3129 96.885 27.128L94.7664 26.4745L93.5272 30.4918C93.4697 30.6784 93.4004 30.8321 93.3193 30.953C93.2382 31.0739 93.1208 31.1471 92.967 31.1727C92.8091 31.2115 92.5969 31.1898 92.3304 31.1076ZM95.3274 24.6557L97.486 25.3215C97.9657 25.4695 98.4029 25.4949 98.7977 25.3978C99.2099 25.2915 99.5709 25.0672 99.8807 24.725C100.195 24.3695 100.442 23.8986 100.623 23.3123C100.796 22.7527 100.857 22.2463 100.807 21.7931C100.757 21.34 100.592 20.9533 100.311 20.6333C100.03 20.3132 99.6369 20.0751 99.1306 19.9189L96.992 19.2593L95.3274 24.6557Z" fill="white"/>
<path d="M106.155 36.9807C105.924 36.8236 105.775 36.6712 105.707 36.5235C105.631 36.3873 105.615 36.2499 105.659 36.1111C105.703 35.9723 105.78 35.8223 105.89 35.661L113.042 25.1711C113.16 24.9982 113.269 24.8621 113.371 24.7626C113.484 24.6709 113.618 24.6356 113.772 24.6565C113.935 24.6659 114.125 24.7453 114.344 24.8945C114.575 25.0516 114.718 25.2001 114.775 25.3399C114.851 25.4761 114.867 25.6135 114.823 25.7523C114.79 25.8989 114.719 26.0529 114.609 26.2142L107.905 36.0474L112.191 38.9695C112.34 39.0716 112.455 39.1753 112.535 39.2805C112.627 39.3936 112.666 39.5217 112.653 39.6646C112.64 39.8076 112.563 39.9828 112.422 40.1901C112.288 40.386 112.153 40.5219 112.017 40.5978C111.889 40.6623 111.761 40.6764 111.634 40.6403C111.506 40.6041 111.368 40.535 111.218 40.4329L106.155 36.9807Z" fill="white"/>
<path d="M123.616 52.2139C123.505 52.4097 123.389 52.5554 123.269 52.651C123.16 52.738 123.031 52.7781 122.883 52.7713C122.744 52.7754 122.571 52.7262 122.364 52.6235C122.047 52.4488 121.855 52.2536 121.79 52.0379C121.725 51.8222 121.772 51.5795 121.932 51.3097L128.389 41.2914L117.214 45.3606C116.925 45.4668 116.687 45.4599 116.502 45.3399C116.306 45.2285 116.149 44.9974 116.03 44.6467C115.967 44.4114 115.953 44.2262 115.988 44.0913C116.034 43.9476 116.127 43.8291 116.266 43.7357C116.425 43.6444 116.628 43.5631 116.874 43.4916L129.506 39.1699C129.683 39.1005 129.87 39.1116 130.068 39.2034C130.266 39.2952 130.43 39.4228 130.56 39.5863C130.647 39.6954 130.714 39.812 130.759 39.9362C130.813 40.0713 130.838 40.2031 130.834 40.3315C130.829 40.46 130.79 40.5895 130.716 40.7201L123.616 52.2139ZM120.311 43.5067L121.98 43.0846L125.202 47.1238L124.405 48.6415L120.311 43.5067Z" fill="white"/>
<path d="M141.428 60.0154C141.372 60.3672 141.269 60.6022 141.121 60.7203C140.973 60.8385 140.747 60.8745 140.444 60.8286L132.205 59.8156L127.435 61.6877C127.266 61.754 127.1 61.7891 126.937 61.7932C126.792 61.8053 126.661 61.7591 126.546 61.6548C126.422 61.5685 126.309 61.3956 126.207 61.136C126.105 60.8764 126.068 60.6664 126.095 60.506C126.114 60.3637 126.187 60.2451 126.315 60.1501C126.442 60.0551 126.597 59.972 126.778 59.9007L131.373 58.0973L136.803 51.6073C136.993 51.3678 137.183 51.2408 137.372 51.2265C137.58 51.2201 137.815 51.3226 138.077 51.5341C138.289 51.6908 138.429 51.838 138.498 51.9757C138.567 52.1134 138.576 52.252 138.526 52.3915C138.494 52.5389 138.405 52.6937 138.259 52.8558L133.493 58.2315L140.651 58.95C140.868 58.9695 141.036 59.016 141.155 59.0892C141.273 59.1625 141.354 59.2731 141.397 59.421C141.459 59.5767 141.469 59.7749 141.428 60.0154Z" fill="white"/>
<path d="M128.24 90.6682C128.296 90.4235 128.383 90.2289 128.502 90.0844C128.62 89.9399 128.783 89.8554 128.989 89.8309L142.588 88.4296C142.939 88.3953 143.172 88.4413 143.286 88.5675C143.401 88.6936 143.493 88.915 143.564 89.2315C143.602 89.4404 143.604 89.6197 143.57 89.7692C143.536 89.9188 143.459 90.037 143.339 90.1241C143.219 90.2111 143.049 90.2653 142.83 90.2868L130.814 91.2343L141.07 97.2439C141.258 97.3584 141.403 97.4772 141.504 97.6003C141.615 97.74 141.665 97.8946 141.655 98.0639C141.645 98.2333 141.556 98.4347 141.389 98.6682C141.139 99.0116 140.905 99.1584 140.687 99.1088C140.48 99.0759 140.26 98.9755 140.027 98.8078L128.551 91.7477C128.403 91.6425 128.301 91.4974 128.243 91.3126C128.185 91.1277 128.184 90.9129 128.24 90.6682Z" fill="white"/>
<path d="M122.644 104.503C122.769 104.285 122.903 104.137 123.045 104.058C123.175 103.972 123.311 103.946 123.453 103.98C123.607 104.02 123.768 104.089 123.937 104.187L134.932 110.535C135.089 110.626 135.218 110.724 135.318 110.83C135.41 110.948 135.462 111.082 135.471 111.233C135.474 111.395 135.409 111.591 135.277 111.821C135.137 112.062 135 112.216 134.865 112.283C134.73 112.35 134.591 112.367 134.45 112.333C134.301 112.312 134.142 112.252 133.973 112.155L122.978 105.807C122.809 105.709 122.678 105.601 122.585 105.483C122.485 105.377 122.44 105.246 122.449 105.091C122.44 104.94 122.504 104.744 122.644 104.503Z" fill="white"/>
<path d="M116.004 113.382C116.188 113.211 116.36 113.109 116.519 113.075C116.668 113.051 116.81 113.071 116.946 113.136C117.091 113.21 117.225 113.314 117.349 113.447L125.999 122.769C126.122 122.902 126.216 123.034 126.28 123.164C126.334 123.304 126.338 123.453 126.293 123.609C126.247 123.765 126.123 123.928 125.919 124.098L123.88 125.99C123.124 126.692 122.341 127.181 121.531 127.456C120.731 127.742 119.923 127.835 119.108 127.736C118.293 127.636 117.49 127.345 116.699 126.861C115.898 126.387 115.127 125.751 114.387 124.954C113.619 124.126 113.024 123.29 112.602 122.445C112.179 121.601 111.944 120.763 111.896 119.932C111.849 119.102 111.997 118.288 112.343 117.492C112.678 116.706 113.229 115.957 113.996 115.245L116.004 113.382ZM116.609 115.417L115.244 116.683C114.509 117.366 114.052 118.084 113.876 118.837C113.699 119.61 113.769 120.392 114.084 121.184C114.41 121.985 114.947 122.79 115.696 123.597C116.455 124.415 117.222 125.016 117.997 125.4C118.772 125.784 119.546 125.912 120.321 125.783C121.095 125.674 121.854 125.273 122.601 124.581L123.95 123.329L116.609 115.417Z" fill="white"/>
<path d="M104.069 122.567C104.308 122.452 104.508 122.402 104.67 122.417C104.813 122.425 104.934 122.483 105.032 122.59C105.137 122.711 105.231 122.858 105.316 123.034L110.824 134.473C110.982 134.8 111.025 135.05 110.954 135.223C110.876 135.416 110.674 135.59 110.347 135.748L104.562 138.534C104.386 138.618 104.226 138.672 104.082 138.695C103.938 138.718 103.805 138.681 103.682 138.586C103.546 138.497 103.417 138.326 103.296 138.075C103.175 137.824 103.122 137.617 103.137 137.455C103.145 137.312 103.21 137.188 103.33 137.084C103.437 136.986 103.579 136.894 103.755 136.81L108.711 134.423L106.832 130.522L103.497 132.128C103.321 132.213 103.167 132.264 103.036 132.281C102.892 132.303 102.762 132.273 102.645 132.191C102.527 132.108 102.411 131.947 102.296 131.708C102.187 131.482 102.137 131.297 102.146 131.154C102.154 131.011 102.212 130.89 102.319 130.792C102.433 130.706 102.584 130.618 102.772 130.527L106.07 128.939L104.019 124.68L99.0441 127.076C98.8682 127.161 98.7084 127.215 98.5646 127.237C98.4208 127.26 98.2873 127.224 98.164 127.129C98.0341 127.052 97.9087 126.888 97.7877 126.637C97.6667 126.385 97.6136 126.179 97.6285 126.017C97.6369 125.873 97.7011 125.75 97.8211 125.645C97.9286 125.547 98.0703 125.456 98.2462 125.371L104.069 122.567Z" fill="white"/>
<path d="M87.0181 128.077C87.9005 127.944 88.7331 127.995 89.5158 128.229C90.2986 128.464 91.0066 128.858 91.6399 129.411C92.2595 129.966 92.7805 130.663 93.2031 131.502C93.6277 132.355 93.9222 133.326 94.0863 134.415C94.2547 135.532 94.2695 136.566 94.1309 137.518C93.9806 138.485 93.6992 139.331 93.2867 140.056C92.8763 140.795 92.3455 141.39 91.6943 141.84C91.0313 142.307 90.2724 142.605 89.4175 142.733C88.5489 142.864 87.7232 142.813 86.9404 142.578C86.1577 142.343 85.4624 141.941 84.8546 141.369C84.2329 140.8 83.7088 140.083 83.282 139.216C82.8574 138.364 82.5609 137.379 82.3926 136.262C82.2284 135.173 82.2156 134.152 82.3542 133.201C82.4949 132.263 82.7784 131.431 83.2046 130.704C83.6171 129.979 84.149 129.391 84.8002 128.94C85.4377 128.492 86.177 128.204 87.0181 128.077ZM87.4227 129.92C86.8436 130.007 86.3315 130.211 85.8863 130.532C85.4294 130.869 85.065 131.305 84.793 131.839C84.5072 132.376 84.3188 132.996 84.2276 133.701C84.1364 134.406 84.1531 135.172 84.2778 135.999C84.4025 136.826 84.6112 137.556 84.904 138.189C85.1989 138.836 85.5619 139.373 85.9932 139.802C86.4106 140.232 86.8804 140.542 87.4025 140.732C87.9245 140.921 88.4751 140.972 89.0542 140.885C89.6333 140.797 90.1513 140.585 90.6082 140.248C91.0513 139.914 91.4158 139.478 91.7015 138.941C91.9873 138.405 92.1758 137.784 92.267 137.079C92.3444 136.377 92.3207 135.612 92.196 134.784C92.0713 133.957 91.8616 133.22 91.5667 132.574C91.2739 131.941 90.9188 131.409 90.5013 130.979C90.0701 130.55 89.5934 130.241 89.0714 130.052C88.5514 129.877 88.0018 129.832 87.4227 129.92Z" fill="white"/>
<path d="M69.3691 63.72C66.3846 61.9763 63.965 63.4048 63.965 66.9082V92.7615C63.965 96.2683 66.3846 97.695 69.3691 95.9529L91.5542 82.9936C94.5397 81.2492 94.5397 78.4231 91.5542 76.6791L69.3691 63.72Z" fill="white"/>
</svg>
