<svg width="41" height="47" viewBox="0 0 41 47" fill="none" xmlns="http://www.w3.org/2000/svg">
<path d="M18.9567 22.1629L0.173462 42.549C0.175226 42.5526 0.175226 42.558 0.17699 42.5616C0.753877 44.7752 2.72976 46.4043 5.07612 46.4043C6.01466 46.4043 6.89499 46.1445 7.65006 45.6899L7.71004 45.6538L28.852 33.1786L18.9567 22.1629Z" fill="#EA4335"/>
<path d="M37.9584 18.6869L37.9408 18.6743L28.8129 13.2639L18.5295 22.6216L28.8499 33.1719L37.9284 27.8156C39.5197 26.9352 40.6011 25.2195 40.6011 23.2422C40.6011 21.2758 39.5356 19.5691 37.9584 18.6869Z" fill="#FBBC04"/>
<path d="M0.17289 3.85875C0.0599821 4.28451 0 4.73192 0 5.19377V41.2176C0 41.6794 0.0599822 42.1268 0.174654 42.5508L19.6018 22.6861L0.17289 3.85875Z" fill="#4285F4"/>
<path d="M19.0961 23.2031L28.8167 13.2645L7.69946 0.744175C6.93204 0.273312 6.03583 0.00270081 5.07788 0.00270081C2.73152 0.00270081 0.752112 1.63539 0.175225 3.8508C0.175225 3.8526 0.173462 3.8544 0.173462 3.85621L19.0961 23.2031Z" fill="#34A853"/>
</svg>
