<svg width="153" height="57" viewBox="0 0 153 57" fill="none" xmlns="http://www.w3.org/2000/svg">
<rect width="153" height="57" rx="5.66929" fill="#06C7F2"/>
<path fill-rule="evenodd" clip-rule="evenodd" d="M6.37795 0C2.85551 0 0 2.12763 0 4.7522V52.2478C0 54.8724 2.85551 57 6.37796 57H146.622C150.145 57 153 54.8724 153 52.2478V4.7522C153 2.12763 150.144 0 146.622 0H6.37795ZM17.6287 2.51471C14.1059 2.51471 11.25 4.6426 11.25 7.2675V42.1884C11.25 44.8133 14.1059 46.9412 17.6287 46.9412H135.371C138.894 46.9412 141.75 44.8133 141.75 42.1884V7.2675C141.75 4.6426 138.894 2.51471 135.371 2.51471H17.6287Z" fill="#9E9E9E" fill-opacity="0.5"/>
<g filter="url(#filter0_i_3_28094)" style="mix-blend-mode:overlay">
<rect width="153" height="57" rx="5.66929" fill="white" fill-opacity="0.01"/>
</g>
<rect x="11.25" y="2.51562" width="130.5" height="44.4265" rx="5.67" fill="url(#paint0_linear_3_28094)" fill-opacity="0.2"/>
<rect x="11.75" y="3.01562" width="129.5" height="43.4265" rx="5.17" stroke="url(#paint1_linear_3_28094)" stroke-opacity="0.4"/>
<path d="M123.554 25.2765L117.833 19.555C117.701 19.4226 117.524 19.3496 117.335 19.3496C117.147 19.3496 116.97 19.4226 116.838 19.555L116.417 19.9763C116.143 20.2508 116.143 20.6969 116.417 20.971L121.221 25.7755L116.411 30.5854C116.279 30.7178 116.206 30.8944 116.206 31.0827C116.206 31.2711 116.279 31.4477 116.411 31.5802L116.833 32.0014C116.965 32.1338 117.142 32.2068 117.33 32.2068C117.519 32.2068 117.695 32.1338 117.828 32.0014L123.554 26.2746C123.687 26.1418 123.76 25.9644 123.76 25.7758C123.76 25.5865 123.687 25.4092 123.554 25.2765Z" fill="white"/>
<path opacity="0.5" d="M124.875 46.942V57.0008H146.622C150.144 57.0008 153 54.8732 153 52.2486V36.0449H141.75V42.1892C141.75 44.8141 138.894 46.942 135.371 46.942H124.875Z" fill="url(#paint2_linear_3_28094)"/>
<rect opacity="0.5" x="28.125" y="46.9414" width="96.75" height="10.0588" fill="white" fill-opacity="0.2"/>
<path opacity="0.5" d="M11.25 36.0449H0V52.2486C0 54.8732 2.85551 57.0008 6.37795 57.0008H28.125V46.942H17.6287C14.1059 46.942 11.25 44.8141 11.25 42.1892V36.0449Z" fill="url(#paint3_linear_3_28094)"/>
<rect opacity="0.5" y="20.9551" width="11.25" height="15.0882" fill="white" fill-opacity="0.7"/>
<path opacity="0.5" d="M146.622 0H124.875V2.51471H135.371C138.894 2.51471 141.75 4.6426 141.75 7.2675V20.9559H153V4.7522C153 2.12763 150.144 0 146.622 0Z" fill="url(#paint4_linear_3_28094)"/>
<rect opacity="0.5" x="28.125" width="96.75" height="2.51471" fill="white" fill-opacity="0.15"/>
<path opacity="0.5" d="M6.37795 0C2.85551 0 0 2.12763 0 4.7522V20.9559H11.25V7.2675C11.25 4.6426 14.1059 2.51471 17.6287 2.51471H28.125V0H6.37795Z" fill="url(#paint5_linear_3_28094)"/>
<mask id="mask0_3_28094" style="mask-type:alpha" maskUnits="userSpaceOnUse" x="133" y="0" width="20" height="57">
<rect x="153" y="57" width="19.125" height="57" rx="5.66929" transform="rotate(-180 153 57)" fill="#343436"/>
</mask>
<g mask="url(#mask0_3_28094)">
<g opacity="0.2" filter="url(#filter1_d_3_28094)" style="mix-blend-mode:overlay">
<path d="M176.625 48.8144C176.625 51.9458 174.086 54.4844 170.955 54.4844L158.75 54.4844C151.846 54.4844 146.25 48.8879 146.25 41.9844L146.25 14.1756C146.25 7.27199 151.846 1.67555 158.75 1.67556L170.955 1.67556C174.086 1.67556 176.625 4.2141 176.625 7.34555L176.625 48.8144Z" fill="black" fill-opacity="0.01"/>
</g>
</g>
<mask id="mask1_3_28094" style="mask-type:alpha" maskUnits="userSpaceOnUse" x="0" y="0" width="20" height="57">
<rect width="19.125" height="57" rx="5.66929" fill="#343436"/>
</mask>
<g mask="url(#mask1_3_28094)">
<g opacity="0.2" filter="url(#filter2_d_3_28094)" style="mix-blend-mode:overlay">
<path d="M-23.625 9.86141C-23.625 6.72995 -21.0865 4.19141 -17.955 4.19141H-1.17C1.96145 4.19141 4.5 6.72995 4.5 9.86141V44.5002C4.5 51.4038 -1.09644 57.0002 -8 57.0002H-17.955C-21.0865 57.0002 -23.625 54.4617 -23.625 51.3302V9.86141Z" fill="black" fill-opacity="0.01"/>
</g>
</g>
<g filter="url(#filter3_d_3_28094)">
<path d="M34.1184 32.8601C33.7077 32.8601 33.407 32.8014 33.2164 32.6841C33.0404 32.5668 32.923 32.4054 32.8644 32.2001C32.8204 31.9801 32.7984 31.7528 32.7984 31.5181V18.8241C32.7984 18.5894 32.8277 18.3768 32.8864 18.1861C32.945 17.9808 33.0697 17.8194 33.2604 17.7021C33.451 17.5701 33.7444 17.5041 34.1404 17.5041H36.2744C36.8757 17.5041 37.4477 17.6141 37.9904 17.8341C38.5477 18.0541 39.039 18.3841 39.4644 18.8241C39.9044 19.2641 40.249 19.8068 40.4984 20.4521C40.7624 21.0974 40.8944 21.8528 40.8944 22.7181C40.8944 23.5688 40.7624 24.3168 40.4984 24.9621C40.249 25.5928 39.9044 26.1281 39.4644 26.5681C39.039 27.0081 38.5477 27.3381 37.9904 27.5581C37.433 27.7781 36.8537 27.8881 36.2524 27.8881H35.4824V31.5401C35.4824 31.7748 35.453 31.9948 35.3944 32.2001C35.3504 32.4054 35.233 32.5668 35.0424 32.6841C34.8517 32.8014 34.5437 32.8601 34.1184 32.8601ZM35.4824 25.2041H36.2964C36.6777 25.2041 37.015 25.1161 37.3084 24.9401C37.6017 24.7494 37.829 24.4708 37.9904 24.1041C38.1517 23.7228 38.2324 23.2461 38.2324 22.6741C38.2324 22.1608 38.159 21.7208 38.0124 21.3541C37.8804 20.9728 37.6677 20.6794 37.3744 20.4741C37.081 20.2688 36.7144 20.1661 36.2744 20.1661H35.4824V25.2041ZM45.6051 32.8821C45.2825 32.8821 44.9745 32.8454 44.6811 32.7721C44.3878 32.6988 44.1091 32.5814 43.8451 32.4201C43.5811 32.2441 43.3538 32.0094 43.1631 31.7161C42.9725 31.4228 42.8185 31.0634 42.7011 30.6381C42.5985 30.2128 42.5471 29.6994 42.5471 29.0981V18.4061C42.5471 18.1421 42.5691 17.9148 42.6131 17.7241C42.6718 17.5188 42.7891 17.3574 42.9651 17.2401C43.1558 17.1081 43.4565 17.0421 43.8671 17.0421C44.2778 17.0421 44.5711 17.1008 44.7471 17.2181C44.9378 17.3354 45.0551 17.4968 45.0991 17.7021C45.1578 17.8928 45.1871 18.1128 45.1871 18.3621V28.9881C45.1871 29.2228 45.1945 29.4281 45.2091 29.6041C45.2238 29.7654 45.2458 29.9048 45.2751 30.0221C45.3045 30.1248 45.3411 30.1981 45.3851 30.2421C45.4438 30.2861 45.5171 30.3081 45.6051 30.3081C45.7958 30.3081 45.9645 30.3301 46.1111 30.3741C46.2725 30.4181 46.3971 30.5281 46.4851 30.7041C46.5878 30.8801 46.6391 31.1661 46.6391 31.5621C46.6391 31.9728 46.5878 32.2734 46.4851 32.4641C46.3971 32.6548 46.2725 32.7721 46.1111 32.8161C45.9498 32.8601 45.7811 32.8821 45.6051 32.8821ZM53.9682 32.8381C53.6162 32.8381 53.3229 32.7574 53.0882 32.5961C52.8536 32.4201 52.7362 32.1928 52.7362 31.9141L52.7802 31.6721C52.6922 31.8334 52.5602 32.0094 52.3842 32.2001C52.2229 32.3761 52.0029 32.5301 51.7242 32.6621C51.4456 32.7794 51.0862 32.8381 50.6462 32.8381C50.1329 32.8381 49.6782 32.7061 49.2822 32.4421C48.9009 32.1634 48.5709 31.7821 48.2922 31.2981C48.0282 30.7994 47.8229 30.2201 47.6762 29.5601C47.5442 28.9001 47.4782 28.1741 47.4782 27.3821C47.4782 26.6194 47.5442 25.9154 47.6762 25.2701C47.8229 24.6248 48.0282 24.0601 48.2922 23.5761C48.5709 23.0921 48.9082 22.7181 49.3042 22.4541C49.7002 22.1901 50.1476 22.0581 50.6462 22.0581C51.0129 22.0581 51.3356 22.1094 51.6142 22.2121C51.9076 22.3001 52.1496 22.4248 52.3402 22.5861C52.5456 22.7328 52.6922 22.9014 52.7802 23.0921L52.7362 22.9601C52.7949 22.6521 52.9196 22.4174 53.1102 22.2561C53.3009 22.0948 53.5942 22.0141 53.9902 22.0141C54.4009 22.0141 54.6942 22.0801 54.8702 22.2121C55.0462 22.3294 55.1562 22.4981 55.2002 22.7181C55.2589 22.9234 55.2882 23.1508 55.2882 23.4001V31.5181C55.2882 31.7528 55.2589 31.9728 55.2002 32.1781C55.1562 32.3834 55.0389 32.5448 54.8482 32.6621C54.6722 32.7794 54.3789 32.8381 53.9682 32.8381ZM51.3722 30.2641C51.7389 30.2641 52.0102 30.1468 52.1862 29.9121C52.3622 29.6774 52.4722 29.3474 52.5162 28.9221C52.5602 28.4821 52.5822 27.9834 52.5822 27.4261C52.5822 26.8688 52.5529 26.3774 52.4942 25.9521C52.4502 25.5268 52.3402 25.1968 52.1642 24.9621C51.9882 24.7128 51.7096 24.5881 51.3282 24.5881C51.0642 24.5881 50.8369 24.7054 50.6462 24.9401C50.4556 25.1748 50.3089 25.5121 50.2062 25.9521C50.1182 26.3774 50.0742 26.8761 50.0742 27.4481C50.0742 28.0201 50.1256 28.5188 50.2282 28.9441C50.3309 29.3548 50.4776 29.6774 50.6682 29.9121C50.8589 30.1468 51.0936 30.2641 51.3722 30.2641ZM58.8495 37.2381C58.3801 37.0474 58.1015 36.8201 58.0135 36.5561C57.9255 36.3068 57.9695 35.9621 58.1455 35.5221L62.1935 22.8721C62.3695 22.4028 62.5748 22.1094 62.8095 21.9921C63.0588 21.8748 63.4255 21.9114 63.9095 22.1021C64.3788 22.2928 64.6575 22.5054 64.7455 22.7401C64.8335 22.9748 64.7968 23.3121 64.6355 23.7521L60.5655 36.4901C60.4041 36.9594 60.1988 37.2454 59.9495 37.3481C59.7148 37.4508 59.3481 37.4141 58.8495 37.2381ZM59.7955 31.8041L56.9135 23.6421C56.7668 23.2021 56.7448 22.8648 56.8475 22.6301C56.9501 22.3808 57.2361 22.1754 57.7055 22.0141C58.2041 21.8528 58.5708 21.8308 58.8055 21.9481C59.0401 22.0654 59.2381 22.3514 59.3995 22.8061L61.4895 29.2301L59.7955 31.8041ZM72.1426 32.8601C71.7613 32.8601 71.4753 32.7941 71.2846 32.6621C71.1086 32.5448 70.9913 32.3834 70.9326 32.1781C70.874 31.9728 70.8446 31.7528 70.8446 31.5181V18.7581C70.8446 18.5381 70.874 18.3328 70.9326 18.1421C70.9913 17.9514 71.116 17.7974 71.3066 17.6801C71.512 17.5628 71.82 17.5041 72.2306 17.5041C72.656 17.5041 72.9566 17.5554 73.1326 17.6581C73.3233 17.7608 73.4846 17.9148 73.6166 18.1201L78.1926 27.6021V18.7581C78.1926 18.5381 78.222 18.3328 78.2806 18.1421C78.3393 17.9514 78.464 17.7974 78.6546 17.6801C78.8453 17.5628 79.146 17.5041 79.5566 17.5041C79.9526 17.5041 80.2386 17.5701 80.4146 17.7021C80.6053 17.8194 80.7226 17.9808 80.7666 18.1861C80.8253 18.3914 80.8546 18.6188 80.8546 18.8681V31.5401C80.8546 31.7748 80.8253 31.9948 80.7666 32.2001C80.708 32.3908 80.576 32.5448 80.3706 32.6621C80.18 32.7941 79.8793 32.8601 79.4686 32.8601C79.146 32.8601 78.882 32.8234 78.6766 32.7501C78.4713 32.6914 78.31 32.5594 78.1926 32.3541L73.5066 22.8941V31.5401C73.5066 31.7748 73.4773 31.9948 73.4186 32.2001C73.36 32.3908 73.2353 32.5448 73.0446 32.6621C72.854 32.7941 72.5533 32.8601 72.1426 32.8601ZM86.6338 32.9921C86.0178 32.9921 85.4531 32.8748 84.9398 32.6401C84.4411 32.3908 84.0158 32.0314 83.6638 31.5621C83.3118 31.0781 83.0404 30.4988 82.8498 29.8241C82.6591 29.1348 82.5638 28.3501 82.5638 27.4701C82.5638 26.6341 82.6444 25.8788 82.8058 25.2041C82.9818 24.5148 83.2311 23.9281 83.5538 23.4441C83.8911 22.9601 84.3164 22.5861 84.8298 22.3221C85.3431 22.0434 85.9298 21.9041 86.5898 21.9041C87.5138 21.9041 88.2764 22.1388 88.8778 22.6081C89.4791 23.0628 89.9264 23.7081 90.2198 24.5441C90.5278 25.3654 90.6818 26.3334 90.6818 27.4481C90.6818 28.3428 90.5864 29.1348 90.3958 29.8241C90.2051 30.5134 89.9264 31.0928 89.5598 31.5621C89.2078 32.0314 88.7824 32.3908 88.2838 32.6401C87.7998 32.8748 87.2498 32.9921 86.6338 32.9921ZM86.5898 30.5721C86.9124 30.5721 87.1838 30.4548 87.4038 30.2201C87.6238 29.9854 87.7851 29.6334 87.8878 29.1641C88.0051 28.6948 88.0638 28.1154 88.0638 27.4261C88.0638 26.7661 88.0124 26.2088 87.9098 25.7541C87.8071 25.2994 87.6458 24.9548 87.4258 24.7201C87.2204 24.4708 86.9418 24.3461 86.5898 24.3461C86.2524 24.3461 85.9811 24.4708 85.7758 24.7201C85.5704 24.9694 85.4164 25.3288 85.3138 25.7981C85.2258 26.2528 85.1818 26.8028 85.1818 27.4481C85.1818 28.1228 85.2331 28.6948 85.3358 29.1641C85.4384 29.6334 85.5924 29.9854 85.7978 30.2201C86.0178 30.4548 86.2818 30.5721 86.5898 30.5721ZM95.32 32.8601C95.012 32.8601 94.77 32.8088 94.594 32.7061C94.4326 32.6181 94.308 32.5081 94.22 32.3761C94.1466 32.2294 94.088 32.0901 94.044 31.9581L91.954 23.6641C91.866 23.3414 91.822 23.0921 91.822 22.9161C91.8366 22.7254 91.91 22.5714 92.042 22.4541C92.1886 22.3221 92.4013 22.2048 92.68 22.1021C93.12 21.9261 93.494 21.8674 93.802 21.9261C94.1246 21.9848 94.3226 22.2414 94.396 22.6961L95.452 28.6801L96.508 22.9381C96.5373 22.7328 96.596 22.5641 96.684 22.4321C96.772 22.2854 96.904 22.1754 97.08 22.1021C97.256 22.0141 97.4833 21.9701 97.762 21.9701C98.0846 21.9701 98.334 22.0141 98.51 22.1021C98.7006 22.1754 98.84 22.2854 98.928 22.4321C99.0306 22.5641 99.0893 22.7328 99.104 22.9381L100.16 28.7241L101.128 22.8941C101.231 22.3808 101.436 22.0728 101.744 21.9701C102.067 21.8528 102.441 21.8748 102.866 22.0361C103.291 22.2121 103.57 22.4174 103.702 22.6521C103.834 22.8868 103.812 23.2314 103.636 23.6861L101.546 31.9581C101.502 32.1048 101.436 32.2441 101.348 32.3761C101.26 32.5081 101.135 32.6181 100.974 32.7061C100.813 32.8088 100.585 32.8601 100.292 32.8601C99.9986 32.8601 99.764 32.8014 99.588 32.6841C99.4266 32.5814 99.302 32.4421 99.214 32.2661C99.126 32.0754 99.0526 31.8921 98.994 31.7161L97.806 26.2821L96.596 31.7161C96.552 31.9361 96.486 32.1341 96.398 32.3101C96.3246 32.4861 96.2 32.6181 96.024 32.7061C95.8626 32.8088 95.628 32.8601 95.32 32.8601Z" fill="white"/>
</g>
<defs>
<filter id="filter0_i_3_28094" x="-1" y="0" width="154" height="57" filterUnits="userSpaceOnUse" color-interpolation-filters="sRGB">
<feFlood flood-opacity="0" result="BackgroundImageFix"/>
<feBlend mode="normal" in="SourceGraphic" in2="BackgroundImageFix" result="shape"/>
<feColorMatrix in="SourceAlpha" type="matrix" values="0 0 0 0 0 0 0 0 0 0 0 0 0 0 0 0 0 0 127 0" result="hardAlpha"/>
<feOffset dx="-1"/>
<feGaussianBlur stdDeviation="5"/>
<feComposite in2="hardAlpha" operator="arithmetic" k2="-1" k3="1"/>
<feColorMatrix type="matrix" values="0 0 0 0 0.258333 0 0 0 0 0.258333 0 0 0 0 0.258333 0 0 0 0.6 0"/>
<feBlend mode="normal" in2="shape" result="effect1_innerShadow_3_28094"/>
</filter>
<filter id="filter1_d_3_28094" x="143.25" y="-1.32422" width="36.375" height="58.8086" filterUnits="userSpaceOnUse" color-interpolation-filters="sRGB">
<feFlood flood-opacity="0" result="BackgroundImageFix"/>
<feColorMatrix in="SourceAlpha" type="matrix" values="0 0 0 0 0 0 0 0 0 0 0 0 0 0 0 0 0 0 127 0" result="hardAlpha"/>
<feMorphology radius="1" operator="dilate" in="SourceAlpha" result="effect1_dropShadow_3_28094"/>
<feOffset/>
<feGaussianBlur stdDeviation="1"/>
<feColorMatrix type="matrix" values="0 0 0 0 0 0 0 0 0 0 0 0 0 0 0 0 0 0 1 0"/>
<feBlend mode="normal" in2="BackgroundImageFix" result="effect1_dropShadow_3_28094"/>
<feBlend mode="normal" in="SourceGraphic" in2="effect1_dropShadow_3_28094" result="shape"/>
</filter>
<filter id="filter2_d_3_28094" x="-26.625" y="1.19141" width="34.125" height="58.8086" filterUnits="userSpaceOnUse" color-interpolation-filters="sRGB">
<feFlood flood-opacity="0" result="BackgroundImageFix"/>
<feColorMatrix in="SourceAlpha" type="matrix" values="0 0 0 0 0 0 0 0 0 0 0 0 0 0 0 0 0 0 127 0" result="hardAlpha"/>
<feMorphology radius="1" operator="dilate" in="SourceAlpha" result="effect1_dropShadow_3_28094"/>
<feOffset/>
<feGaussianBlur stdDeviation="1"/>
<feColorMatrix type="matrix" values="0 0 0 0 0 0 0 0 0 0 0 0 0 0 0 0 0 0 1 0"/>
<feBlend mode="normal" in2="BackgroundImageFix" result="effect1_dropShadow_3_28094"/>
<feBlend mode="normal" in="SourceGraphic" in2="effect1_dropShadow_3_28094" result="shape"/>
</filter>
<filter id="filter3_d_3_28094" x="22.7983" y="7.04297" width="91.1016" height="40.459" filterUnits="userSpaceOnUse" color-interpolation-filters="sRGB">
<feFlood flood-opacity="0" result="BackgroundImageFix"/>
<feColorMatrix in="SourceAlpha" type="matrix" values="0 0 0 0 0 0 0 0 0 0 0 0 0 0 0 0 0 0 127 0" result="hardAlpha"/>
<feOffset/>
<feGaussianBlur stdDeviation="5"/>
<feColorMatrix type="matrix" values="0 0 0 0 0.466667 0 0 0 0 0.466667 0 0 0 0 0.466667 0 0 0 0.25 0"/>
<feBlend mode="normal" in2="BackgroundImageFix" result="effect1_dropShadow_3_28094"/>
<feBlend mode="normal" in="SourceGraphic" in2="effect1_dropShadow_3_28094" result="shape"/>
</filter>
<linearGradient id="paint0_linear_3_28094" x1="11.25" y1="24.325" x2="141.75" y2="24.325" gradientUnits="userSpaceOnUse">
<stop stop-opacity="0.4"/>
<stop offset="0.0625" stop-color="#C5C5C5" stop-opacity="0.44375"/>
<stop offset="0.5" stop-color="white" stop-opacity="0.75"/>
<stop offset="1" stop-color="white"/>
</linearGradient>
<linearGradient id="paint1_linear_3_28094" x1="11.25" y1="24.325" x2="141.75" y2="24.325" gradientUnits="userSpaceOnUse">
<stop stop-color="white" stop-opacity="0.56"/>
<stop offset="0.51098" stop-color="white" stop-opacity="0"/>
<stop offset="1" stop-color="white" stop-opacity="0.14"/>
</linearGradient>
<linearGradient id="paint2_linear_3_28094" x1="138.375" y1="52.8096" x2="146.396" y2="43.7444" gradientUnits="userSpaceOnUse">
<stop stop-color="white" stop-opacity="0.2"/>
<stop offset="0.5" stop-color="white" stop-opacity="0.3"/>
<stop offset="1" stop-color="white" stop-opacity="0"/>
</linearGradient>
<linearGradient id="paint3_linear_3_28094" x1="14.0625" y1="52.8096" x2="5.33107" y2="44.0208" gradientUnits="userSpaceOnUse">
<stop stop-color="white" stop-opacity="0.2"/>
<stop offset="0.5" stop-color="white" stop-opacity="0.5"/>
<stop offset="1" stop-color="white" stop-opacity="0.7"/>
</linearGradient>
<linearGradient id="paint4_linear_3_28094" x1="138.375" y1="1.67647" x2="141.755" y2="11.6573" gradientUnits="userSpaceOnUse">
<stop stop-color="white" stop-opacity="0.15"/>
<stop offset="0.505208" stop-color="white" stop-opacity="0.5"/>
<stop offset="1" stop-color="white" stop-opacity="0"/>
</linearGradient>
<linearGradient id="paint5_linear_3_28094" x1="14.625" y1="1.67647" x2="11.2447" y2="11.6573" gradientUnits="userSpaceOnUse">
<stop stop-color="white" stop-opacity="0.15"/>
<stop offset="0.494792" stop-color="white" stop-opacity="0.5"/>
<stop offset="1" stop-color="white" stop-opacity="0.7"/>
</linearGradient>
</defs>
</svg>
