<svg width="178" height="150" viewBox="0 0 178 150" fill="none" xmlns="http://www.w3.org/2000/svg">
<g filter="url(#filter0_d_3_3641)">
<rect x="14" width="150" height="150" rx="30" fill="url(#paint0_linear_3_3641)" shape-rendering="crispEdges"/>
<g clip-path="url(#clip0_3_3641)">
<path d="M42.4305 96.9961H39.5V112.238H42.4305V96.9961Z" fill="white"/>
<path d="M57.8292 101.137C56.3727 101.137 55.0375 101.744 54.2399 103.009C53.6503 101.778 52.4538 101.137 50.9106 101.137C49.6101 101.137 48.3963 101.709 47.6506 102.888V101.345H44.8242V112.234H47.6506V106.183C47.6506 104.657 48.691 103.53 49.9915 103.53H50.165C51.3267 103.53 51.8643 104.258 51.8643 105.714V112.234H54.6734V106.183C54.6734 104.657 55.6964 103.53 56.9969 103.53H57.1703C58.3321 103.53 58.8523 104.258 58.8523 105.714V112.234H61.6787V105.385C61.6787 104.102 61.3666 103.061 60.7597 102.299C60.1355 101.518 59.1644 101.137 57.8292 101.137Z" fill="white"/>
<path d="M76.6261 101.137C75.1696 101.137 73.8344 101.744 73.0367 103.009C72.4472 101.778 71.2507 101.137 69.7074 101.137C68.4069 101.137 67.1931 101.709 66.4475 102.888V101.345H63.6211V112.234H66.4649V106.183C66.4649 104.657 67.5053 103.53 68.8058 103.53H68.9792C70.1409 103.53 70.6785 104.258 70.6785 105.714V112.234H73.5049V106.183C73.5049 104.657 74.528 103.53 75.8285 103.53H76.0019C77.1637 103.53 77.6839 104.258 77.6839 105.714V112.234H80.5103V105.385C80.5103 104.102 80.1982 103.061 79.5913 102.299C78.9497 101.518 77.9786 101.137 76.6261 101.137Z" fill="white"/>
<path d="M98.0577 108.646V103.635H100.485V101.346H98.0577V97.8086H95.2313V101.346H92.0234H89.2837H89.197V107.398C89.197 108.924 88.1912 110.155 86.9601 110.155H86.7867C85.7463 110.155 85.1741 109.392 85.1741 107.987V101.346H82.3477V108.317C82.3477 109.582 82.6598 110.588 83.2667 111.316C83.8736 112.062 84.7926 112.444 86.0237 112.444C87.3763 112.444 88.538 111.75 89.197 110.64V112.236H92.0234V103.635H95.2313V109.409C95.2313 111.247 96.2197 112.236 98.0577 112.236H100.815V109.843H99.2542C98.2658 109.843 98.0577 109.635 98.0577 108.646Z" fill="white"/>
<path d="M110.906 105.04C110.906 102.526 109.068 101.121 106.328 101.121C103.658 101.121 101.872 102.647 101.646 104.71H104.49C104.559 104.052 105.218 103.41 106.241 103.41H106.415C107.455 103.41 108.166 104.156 108.166 105.144V105.404L105.426 105.647C104.247 105.734 103.293 106.08 102.548 106.687C101.802 107.277 101.438 108.126 101.438 109.236C101.403 111.144 103.051 112.461 105.01 112.444C106.397 112.444 107.559 111.855 108.235 110.901C108.253 111.473 108.305 111.924 108.357 112.236H111.01C110.94 111.733 110.906 110.936 110.906 109.843V105.04ZM108.166 107.797C108.166 109.167 107.022 110.173 105.738 110.173H105.565C104.785 110.173 104.212 109.739 104.212 109.063C104.212 108.647 104.369 108.335 104.698 108.109C105.01 107.884 105.392 107.762 105.808 107.728L108.166 107.485V107.797Z" fill="white"/>
<path d="M118.832 101.14C117.376 101.14 116.162 101.973 115.694 102.77V96.9961H112.867V112.238H115.694V110.816C116.162 111.614 117.376 112.446 118.832 112.446C121.884 112.498 123.705 109.758 123.67 106.793C123.705 103.811 121.884 101.088 118.832 101.14ZM118.364 110.157H118.191C116.89 110.192 115.676 108.787 115.711 106.793C115.694 104.799 116.907 103.395 118.191 103.429H118.364C119.786 103.429 120.844 104.73 120.844 106.776C120.844 108.805 119.769 110.157 118.364 110.157Z" fill="white"/>
<path d="M127.916 96.9961H125.09V112.238H127.916V96.9961Z" fill="white"/>
<path d="M134.541 101.137C131.35 101.102 129.322 103.547 129.356 106.79C129.304 110.258 131.801 112.495 134.541 112.443C137.211 112.443 138.928 110.952 139.466 108.784H136.656C136.448 109.582 135.755 110.154 134.749 110.154H134.576C133.396 110.154 132.217 109.131 132.113 107.674H139.466C139.5 107.206 139.5 106.859 139.5 106.651C139.535 103.478 137.731 101.102 134.541 101.137ZM132.113 105.507C132.183 104.224 133.171 103.426 134.35 103.426H134.524C135.72 103.426 136.708 104.224 136.76 105.507H132.113Z" fill="white"/>
<path d="M89.4401 36.5508C76.0363 36.5508 65.1641 47.423 65.1641 60.8268C65.1641 74.2307 76.0363 85.1029 89.4401 85.1029C102.844 85.1029 113.716 74.2307 113.716 60.8268C113.716 47.423 102.844 36.5508 89.4401 36.5508ZM88.3824 46.3479C89.0586 46.0184 89.7696 46.0358 90.4285 46.4173C92.7 47.7178 94.9542 49.0183 97.2085 50.3361C97.9367 50.7696 98.3009 51.4459 98.3009 52.2782C98.3182 55.2087 98.3009 58.1391 98.3009 61.0869C98.3009 61.191 98.2315 61.347 98.1448 61.3991C97.2778 61.9193 96.3935 62.4221 95.4398 62.977C95.4398 62.7863 95.4398 62.6475 95.4398 62.5088C95.4398 59.4916 95.4398 56.4745 95.4398 53.4573C95.4398 52.8851 95.249 52.5036 94.7288 52.2088C92.0931 50.7176 89.4748 49.1917 86.8565 47.6831C86.7351 47.6137 86.631 47.5444 86.4576 47.4403C87.1339 47.0588 87.7408 46.6774 88.3824 46.3479ZM87.9142 76.3808C87.7755 76.3115 87.6541 76.2595 87.5501 76.1901C84.082 74.196 80.614 72.1672 77.1287 70.1905C76.1576 69.6356 75.7068 68.8379 75.7068 67.7282C75.7241 65.3526 75.7241 62.977 75.7068 60.6188C75.7068 59.5437 76.1403 58.7807 77.0767 58.2432C79.5216 56.856 81.9492 55.4341 84.3942 54.0295C84.6022 53.9082 84.7583 53.8908 84.9837 54.0122C85.816 54.5151 86.6831 55.0006 87.5674 55.5208C87.394 55.6248 87.2726 55.6942 87.1339 55.7809C84.4982 57.3068 81.8799 58.8327 79.2268 60.3413C78.7933 60.5841 78.5853 60.9135 78.6026 61.4164C78.6199 63.2891 78.6199 65.1445 78.6026 67.0172C78.6026 67.5374 78.8107 67.8669 79.2442 68.1096C82.0359 69.7049 84.8103 71.3176 87.5847 72.9128C87.8275 73.0516 87.9142 73.1903 87.9142 73.4677C87.8969 74.3867 87.9142 75.3578 87.9142 76.3808ZM87.9142 71.0228C87.6714 70.8841 87.498 70.78 87.3246 70.6933C85.1224 69.4102 82.9029 68.1443 80.7007 66.8785C80.458 66.7398 80.3713 66.6011 80.3713 66.3236C80.3886 64.8844 80.3886 63.4452 80.3713 62.006C80.3713 61.8152 80.406 61.6765 80.5967 61.5725C81.4117 61.1216 82.2093 60.6361 83.0243 60.1853C83.0763 60.1506 83.1457 60.1332 83.2497 60.0812C83.2497 60.6534 83.2497 61.1736 83.2497 61.6938C83.2497 62.5608 83.2671 63.4452 83.2497 64.3122C83.2324 64.815 83.4231 65.1445 83.8566 65.3873C85.1051 66.0982 86.3362 66.8265 87.5847 67.5374C87.8275 67.6761 87.8969 67.8322 87.8969 68.0923C87.8969 69.0287 87.9142 69.9824 87.9142 71.0228ZM85.3652 52.1568C84.897 51.8794 84.4982 51.8794 84.03 52.1568C81.4117 53.6827 78.776 55.2087 76.1403 56.7172C76.0363 56.7866 75.9149 56.8386 75.7241 56.9427C75.7935 55.9369 75.5854 55.0006 75.9149 54.0816C76.1056 53.5787 76.4524 53.2146 76.9033 52.9371C79.1055 51.6713 81.2903 50.3881 83.4925 49.1396C84.2901 48.6715 85.1224 48.6888 85.9201 49.157C88.4171 50.5962 90.914 52.0354 93.411 53.492C93.515 53.5614 93.6537 53.6827 93.6537 53.7868C93.6711 54.8098 93.6711 55.8502 93.6711 56.9427C92.7694 56.4225 91.9197 55.9369 91.0874 55.4514C89.1627 54.3763 87.2553 53.2839 85.3652 52.1568ZM102.931 68.3177C102.861 69.1327 102.393 69.7049 101.7 70.1038C99.0292 71.647 96.3588 73.1903 93.6711 74.7335C92.8388 75.2191 91.9891 75.7046 91.1568 76.1901C91.0527 76.2421 90.9487 76.2941 90.81 76.3635C90.81 76.2248 90.7926 76.1207 90.7926 76.0167C90.7926 75.1324 90.7926 74.248 90.7926 73.3637C90.7926 73.1556 90.8447 73.0342 91.0181 72.9302C94.9196 70.6933 98.8211 68.4391 102.723 66.1849C102.775 66.1502 102.844 66.1155 102.948 66.0635C102.931 66.8612 102.983 67.5894 102.931 68.3177ZM102.948 62.7342C102.948 63.6533 102.445 64.2948 101.665 64.7457C98.613 66.497 95.5611 68.2657 92.5266 70.0171C91.9718 70.3292 91.4169 70.6586 90.81 71.0054C90.81 70.8494 90.7926 70.7453 90.7926 70.6586C90.7926 69.7916 90.7926 68.9073 90.7926 68.0403C90.7926 67.7975 90.8793 67.6588 91.0874 67.5374C93.8618 65.9421 96.6189 64.3295 99.3933 62.7516C99.8788 62.4741 100.104 62.1273 100.104 61.5378C100.087 58.5206 100.087 55.5034 100.087 52.4863C100.087 52.3476 100.087 52.2088 100.087 51.9661C100.815 52.3996 101.491 52.7637 102.116 53.1972C102.688 53.596 102.965 54.2029 102.965 54.8965C102.948 57.5149 102.965 60.1159 102.948 62.7342Z" fill="white"/>
</g>
</g>
<defs>
<filter id="filter0_d_3_3641" x="0" y="-11" width="178" height="178" filterUnits="userSpaceOnUse" color-interpolation-filters="sRGB">
<feFlood flood-opacity="0" result="BackgroundImageFix"/>
<feColorMatrix in="SourceAlpha" type="matrix" values="0 0 0 0 0 0 0 0 0 0 0 0 0 0 0 0 0 0 127 0" result="hardAlpha"/>
<feOffset dy="3"/>
<feGaussianBlur stdDeviation="7"/>
<feComposite in2="hardAlpha" operator="out"/>
<feColorMatrix type="matrix" values="0 0 0 0 0 0 0 0 0 0 0 0 0 0 0 0 0 0 0.19 0"/>
<feBlend mode="normal" in2="BackgroundImageFix" result="effect1_dropShadow_3_3641"/>
<feBlend mode="normal" in="SourceGraphic" in2="effect1_dropShadow_3_3641" result="shape"/>
</filter>
<linearGradient id="paint0_linear_3_3641" x1="164" y1="150" x2="24.9271" y2="11.4238" gradientUnits="userSpaceOnUse">
<stop stop-color="#00B3B2"/>
<stop offset="1" stop-color="#B7ECEC"/>
</linearGradient>
<clipPath id="clip0_3_3641">
<rect width="100" height="75.8973" fill="white" transform="translate(39.5 36.5508)"/>
</clipPath>
</defs>
</svg>
