<svg width="178" height="150" viewBox="0 0 178 150" fill="none" xmlns="http://www.w3.org/2000/svg">
<g filter="url(#filter0_d_3_3637)">
<rect x="14" width="150" height="150" rx="30" fill="url(#paint0_linear_3_3637)" shape-rendering="crispEdges"/>
<g clip-path="url(#clip0_3_3637)">
<path d="M48.5615 17.498H130.367C133.602 17.498 135.524 18.1081 136.673 19.2637C137.823 20.4209 138.425 22.3546 138.425 25.5918V105.622C138.425 106.351 138.39 107.002 138.322 107.613L138.321 107.624C138.173 109.103 138.142 110.2 137.044 111.517C137.04 111.52 137.035 111.526 137.029 111.531C136.992 111.564 136.937 111.609 136.867 111.665C136.728 111.777 136.551 111.915 136.373 112.051C136.196 112.186 136.022 112.316 135.893 112.413C135.834 112.457 135.784 112.493 135.747 112.521C135.029 112.882 134.594 113.129 133.844 113.423L133.832 113.427L133.821 113.432L93.5703 130.314L93.5518 130.322L93.5352 130.33C91.431 131.31 90.7523 131.571 89.4883 131.541H89.4404C88.1805 131.571 87.514 131.28 85.3809 130.324L85.3701 130.319L85.3584 130.314L45.1191 113.437H45.1201C44.3436 113.099 43.8631 112.861 43.1846 112.521C43.1487 112.494 43.1017 112.458 43.0469 112.416C42.9163 112.316 42.7409 112.181 42.5615 112.042C42.3816 111.903 42.2001 111.76 42.0557 111.646C41.9514 111.563 41.8897 111.511 41.8604 111.487C40.7859 110.184 40.7543 109.092 40.6074 107.624L40.6064 107.613C40.5386 107.002 40.5039 106.351 40.5039 105.622V25.5918C40.5039 22.3578 41.1139 20.4229 42.2686 19.2646C43.3502 18.1797 45.1091 17.576 47.9736 17.5049L48.5615 17.498Z" stroke="white" stroke-width="2"/>
<path d="M124.86 96.9597L124.823 97.1409L124.787 97.3582L124.751 97.5394L124.678 97.7205L124.642 97.9017L124.57 98.0828L124.497 98.264L124.425 98.4089L124.352 98.59L124.244 98.735L124.135 98.8799L124.026 99.0248L123.918 99.1697L123.809 99.3146L123.664 99.4595L123.555 99.5682L123.41 99.7132L123.265 99.8218L123.121 99.9305L122.976 100.003L122.831 100.112L122.65 100.22L122.468 100.293L122.287 100.402L122.106 100.474L121.925 100.546L121.744 100.619V100.583L121.563 100.655L121.382 100.691L121.055 100.764L120.874 100.8L120.693 100.836L120.512 100.872L120.331 100.909L120.114 100.945L119.932 100.981H119.208L119.027 100.945H118.809L118.628 100.909L118.447 100.872L118.23 100.836L118.048 100.8L117.867 100.764L117.686 100.728L117.505 100.691L117.324 100.655L117.143 100.619L116.962 100.546L116.78 100.51L116.599 100.438L116.418 100.365L116.237 100.293L116.056 100.22L115.875 100.148L115.694 100.075L115.512 100.003L115.331 99.9305L115.15 99.8581L114.969 99.7856L114.788 99.6769L114.643 99.5682L114.462 99.4595L114.317 99.3509L114.172 99.2422L114.027 99.1335L113.882 99.0248L113.737 98.9161L113.592 98.8074L113.447 98.6987L113.302 98.5538L113.411 98.4089L113.556 98.264L113.665 98.1191L113.81 97.9741L113.918 97.8292L114.027 97.6843L114.172 97.5394L114.281 97.3945L114.425 97.2495L114.534 97.1046L114.679 96.9597L114.788 96.8148L114.896 96.6699L115.041 96.525L115.15 96.38L115.295 96.2351L115.404 96.0902L115.549 96.1989L115.73 96.3076L115.875 96.4163L116.056 96.525L116.201 96.6337L116.382 96.7423L116.527 96.851L116.708 96.9235L116.853 97.0322L117.034 97.1046L117.215 97.1771L117.396 97.2495L117.577 97.322L117.759 97.3945L117.94 97.4669L118.121 97.5394L118.302 97.6118L118.483 97.6481L118.845 97.7205L119.063 97.7568L119.244 97.793H119.425L119.643 97.8292H120.041L120.258 97.793L120.44 97.7568L120.621 97.7205L120.802 97.6843L120.947 97.6118L121.092 97.5394L121.237 97.4307L121.345 97.2858L121.418 97.1409L121.49 96.9597L121.526 96.7786V96.7423L121.49 96.525L121.418 96.3438L121.309 96.1989L121.164 96.0902L121.019 95.9815L120.874 95.9091L120.693 95.8366L120.512 95.7641L120.295 95.6555L120.15 95.6192L120.005 95.583L119.824 95.5105L119.643 95.4743L119.461 95.4018L119.28 95.3656L119.063 95.2932L118.882 95.2569L118.664 95.1845L118.483 95.1482L118.302 95.0758L118.121 95.0395L117.94 94.9671L117.759 94.8946L117.577 94.8584L117.396 94.7859L117.215 94.7135L117.034 94.641L116.817 94.5686L116.635 94.4961L116.454 94.4237L116.273 94.3512L116.092 94.2425L115.911 94.1338L115.766 94.0251L115.585 93.9164L115.44 93.8078L115.295 93.6991L115.15 93.5904L115.005 93.4455L114.86 93.3005L114.752 93.1556L114.643 93.0107L114.534 92.8658L114.425 92.7209L114.317 92.5397L114.244 92.3948L114.172 92.2499L114.136 92.0687L114.063 91.9238L114.027 91.7427L113.991 91.5615L113.954 91.3804L113.918 91.1992L113.882 90.9819V90.5471L113.918 90.366L113.954 90.1848L113.991 90.0037L114.027 89.8225L114.063 89.6414L114.136 89.4602L114.172 89.2791L114.244 89.0979L114.317 88.9168L114.389 88.7356L114.498 88.5545L114.607 88.3733L114.715 88.2284L114.824 88.0835L114.969 87.9386L115.114 87.7937L115.259 87.6487L115.404 87.5038L115.549 87.3951L115.694 87.2864L115.838 87.1778L115.983 87.0691L116.164 86.9604L116.346 86.8879L116.527 86.7792L116.708 86.7068L116.889 86.6343L117.07 86.5619L117.251 86.4894L117.396 86.4532L117.577 86.4169L117.759 86.3807L117.94 86.3445L118.121 86.3083L118.302 86.272L118.483 86.2358L118.664 86.1996L118.845 86.1633H119.643L119.86 86.1996L120.077 86.2358H120.258L120.476 86.272L120.657 86.3083L120.874 86.3445L121.055 86.3807L121.237 86.4169L121.418 86.4532L121.599 86.4894L121.78 86.5256L121.961 86.5981L122.142 86.6706L122.324 86.7068L122.505 86.7792L122.686 86.8517L122.867 86.9241L123.048 86.9966L123.229 87.0691L123.41 87.1778L123.555 87.2502L123.736 87.3589L123.918 87.4676L124.063 87.5763L124.244 87.685L124.389 87.7937L124.533 87.9024L124.678 88.011L124.823 88.1197L124.715 88.2646L124.606 88.4096L124.497 88.5545L124.389 88.6994L124.28 88.8805L124.171 89.0255L124.063 89.1704L123.954 89.3153L123.845 89.4602L123.736 89.6051L123.628 89.7501L123.519 89.895L123.41 90.0761L123.302 90.221L123.193 90.366L122.831 91.163L122.722 91.3079L122.577 91.1992L122.396 91.0905L122.251 90.9819L122.106 90.8732L121.925 90.8007L121.78 90.692L121.599 90.6196L121.454 90.5471L121.273 90.4746L121.128 90.4022L120.947 90.3297L120.802 90.2573L120.584 90.1848L120.403 90.1124L120.222 90.0399L120.041 90.0037L119.932 90.0761L119.751 90.0399L119.57 90.0037L119.389 89.9674L119.208 89.9312H118.809L118.592 89.9674L118.411 90.0037L118.23 90.0399L118.085 90.1124L117.94 90.1848L117.759 90.3297L117.65 90.5109L117.577 90.692L117.541 90.8732V90.9094L117.577 91.163L117.65 91.3804L117.722 91.4891L117.867 91.634L118.048 91.7427L118.193 91.8514L118.374 91.9238L118.592 91.9963L118.809 92.0687L118.954 92.105L119.099 92.1774L119.28 92.2137L119.461 92.2861L119.643 92.3223L119.86 92.3948L120.077 92.4673L120.295 92.5397L120.512 92.576L120.693 92.6484L120.911 92.7209L121.092 92.7571L121.273 92.8296L121.454 92.902L121.635 92.9745L121.816 93.0469L121.997 93.1194L122.179 93.1556L122.396 93.2281L122.577 93.3368L122.758 93.4092L122.939 93.5179L123.121 93.6266L123.302 93.7353L123.447 93.844L123.592 93.9527L123.736 94.0614L123.881 94.2063L124.026 94.3512L124.171 94.4961L124.316 94.641L124.425 94.7859L124.533 94.9671L124.642 95.112L124.751 95.2932L124.823 95.4381L124.896 95.6192L124.932 95.8004L124.968 95.9815L125.041 96.3438L125.077 96.525L125.113 96.7423V97.1771L124.86 96.9597ZM111.998 100.655H101.455V87.214H112.071V90.2573H104.97V92.4673H111.346V95.3294H104.97V97.6118H112.179V100.655H111.998ZM98.557 100.655H95.1876V92.7209L95.0789 92.8658L94.9703 93.0469L94.8616 93.1919L94.7529 93.3368L94.6442 93.5179L94.5355 93.6628L94.4268 93.8078L94.3181 93.9889L94.2094 94.1338L94.1007 94.2787L93.9921 94.4237L93.8834 94.6048L93.7747 94.7497L93.666 94.8946L93.5573 95.0758L93.4486 95.2207L93.3399 95.3656L93.2312 95.5468L93.1588 95.6917L93.0501 95.8366L92.9414 96.0177L92.8327 96.1627L92.724 96.3076L92.6153 96.4887L92.5066 96.6337L92.4342 96.7786L92.3255 96.9235L92.2168 97.1046L92.1081 97.2495L91.9994 97.3945L91.927 97.5756L91.8183 97.7205L91.7096 97.8655L91.6009 98.0466L91.4922 98.1915H91.4198L91.3111 98.0104L91.2024 97.8655L91.0937 97.6843L90.985 97.5394L90.8763 97.3582L90.7676 97.2133L90.6589 97.0322L90.5503 96.8873L90.4416 96.7061L90.3691 96.5612L90.2604 96.38L90.1517 96.2351L90.043 96.054L90.2242 95.8728L90.1155 95.6917L90.0068 95.5468L89.8981 95.3656L89.7894 95.2207L89.6807 95.0395L89.5721 94.8946L89.4996 94.7859L89.3909 94.641L89.2822 94.4599L89.1735 94.315L89.0648 94.1338L88.9562 93.9889L88.8475 93.8078L88.775 93.6991L88.6663 93.5179L88.5576 93.373L88.4489 93.1919L88.3403 93.0469L88.2316 92.8658L88.1229 92.7209V100.619H84.6449V87.1778H88.4127L88.5214 87.3227L88.6301 87.5038L88.7388 87.6487L88.8475 87.8299L88.9562 87.9748L89.0648 88.1559L89.1735 88.3009L89.2822 88.482L89.3909 88.6269L89.4996 88.7719L89.6083 88.953L89.717 89.0979L89.8257 89.2791L89.9344 89.424L90.043 89.6051L90.1517 89.7501L90.2604 89.895L90.3691 90.0761L90.4778 90.221L90.5865 90.4022L90.6952 90.5471L90.8039 90.7282L90.9125 90.8732L90.985 91.0543L91.0937 91.1992L91.1662 91.3442L91.2748 91.5253L91.3835 91.6702L91.4922 91.8514L91.6009 91.9963L91.6734 92.1774L91.7821 92.3223L91.8907 92.5035L91.9994 92.6484L92.1081 92.5035L92.2168 92.3223L92.3255 92.1774L92.4342 91.9963L92.5429 91.8514L92.6516 91.6702L92.7603 91.5253L92.8689 91.3442L92.9776 91.1992L93.0501 91.0543L93.1588 90.8732L93.2675 90.7282L93.3762 90.5471L93.4848 90.4022L93.5935 90.221L93.7022 90.0761L93.8109 89.895L93.9196 89.7501L94.0283 89.6051L94.137 89.424L94.2457 89.2791L94.3543 89.0979L94.463 88.953L94.5717 88.7719L94.6442 88.6269L94.7529 88.482L94.8616 88.3009L94.9703 88.1559L95.0789 87.9748L95.1876 87.8299L95.2963 87.6487L95.405 87.5038L95.5137 87.3227L95.6224 87.1778H99.3902V100.619L98.557 100.655ZM77.254 95.112L77.1816 94.9309L77.1091 94.7497L77.0367 94.5686L76.9642 94.3874L76.8917 94.2063L76.8193 94.0251L76.7468 93.844L76.6744 93.6628L76.6019 93.4817L76.5294 93.3005L76.457 93.1194L76.3845 92.9382L76.3121 92.7571L76.2396 92.576L76.1672 92.3948L76.0947 92.2137L76.0222 92.0325L75.9498 91.8514L75.8773 91.6702L75.8049 91.4891L75.7324 91.3079L75.6599 91.1268L75.5875 91.3079L75.515 91.4891L75.4426 91.6702L75.3701 91.8514L75.2976 92.0325L75.2252 92.2137L75.1527 92.3948L75.0803 92.576L75.0078 92.7571L74.9354 92.9382L74.8629 93.1194L74.7904 93.3005L74.718 93.4817L74.6455 93.6628L74.5731 93.844L74.5006 94.0251L74.4281 94.2063L74.3557 94.3874L74.2832 94.5686L74.2108 94.7497L74.1383 94.9309L74.0658 95.112L73.9934 95.2932H77.1091L77.254 95.112ZM83.0145 100.655H79.4278L79.3553 100.474L79.2829 100.293L79.2104 100.112L79.138 99.9305L79.0655 99.7494L78.9931 99.5682L78.9206 99.3871L78.8481 99.2059L78.7757 99.0248L78.7032 98.8436L78.6308 98.6625L78.5583 98.4813L78.4858 98.3002L78.4134 98.1191L78.3409 97.9379H73.1239L73.0514 98.1191L72.979 98.3002L72.9065 98.4813L72.834 98.6625L72.7616 98.8436L72.6167 99.1697L72.5442 99.3509L72.4718 99.532L72.3993 99.7132L72.3268 99.8943L72.2544 100.075L72.1819 100.257L72.1095 100.438L72.037 100.619H68.4141L68.4865 100.438L68.6314 100.112L68.7039 99.9305L68.7763 99.7494L68.9213 99.4233L68.9937 99.2422L69.0662 99.061L69.1386 98.8799L69.2111 98.7712L69.2836 98.59L69.356 98.4089L69.4285 98.2277L69.5009 98.0466L69.5734 97.8655L69.6459 97.6843L69.7183 97.5032L69.7908 97.322L69.8632 97.1409L69.9357 96.9597L70.0081 96.7786L70.1531 96.4525L70.2255 96.2714L70.298 96.0902L70.3704 95.9091L70.4429 95.7279L70.5154 95.5468L70.5878 95.3656L70.6603 95.1845L70.7327 95.0033L70.8052 94.8222L70.8777 94.641L70.9501 94.4599L71.0226 94.2787L71.095 94.0976L71.1675 93.9164L71.2399 93.7353L71.3124 93.5541L71.3849 93.373L71.4573 93.1919L71.5298 93.0107L71.6022 92.8296L71.6747 92.6484L71.7472 92.4673L71.8196 92.2861L71.8921 92.105L71.9645 91.9238L72.037 91.7427L72.1095 91.5615L72.1819 91.3804L72.2544 91.1992L72.3268 91.0181L72.3993 90.8369L72.4718 90.6558L72.6167 90.3297L72.6891 90.1486L72.7616 89.9674L72.834 89.7863L72.9065 89.6051L72.979 89.424L73.0514 89.2428L73.1239 89.0617L73.1963 88.8805L73.2688 88.6994L73.3413 88.5182L73.3775 88.3371L73.4499 88.1559L73.5224 87.9748L73.5949 87.7937L73.6673 87.6125L73.7398 87.4314L73.8122 87.2502L73.8847 87.0691L73.9572 86.8879L74.1021 86.5619L74.1745 86.3807H77.5801L77.6526 86.5619L77.725 86.743L77.7975 86.9241L77.8699 87.1053L77.9424 87.2864L78.0149 87.4676L78.0873 87.6487L78.1598 87.8299L78.2322 88.011L78.3047 88.1922L78.3772 88.3733L78.4496 88.5545L78.5221 88.7356L78.5945 88.9168L78.667 89.0979L78.7394 89.2791L78.8119 89.4602L78.8844 89.6414L78.9568 89.8225L79.0293 90.0037L79.1017 90.1848L79.1742 90.366L79.2467 90.5471L79.3191 90.7282L79.3916 90.9094L79.464 91.0905L79.5365 91.2717L79.609 91.4528L79.6814 91.634L79.7539 91.8151L79.8988 92.1412L79.9712 92.3223L80.0437 92.5035L80.1162 92.6846L80.1886 92.8658L80.2611 93.0469L80.3335 93.2281L80.406 93.4092L80.4785 93.5904L80.5509 93.7715L80.6234 93.9527L80.6958 94.1338L80.7683 94.315L80.8408 94.4961L80.9132 94.6773L80.9857 94.8584L81.0581 95.0395L81.1306 95.2207L81.2031 95.4018L81.2755 95.583L81.348 95.7641L81.4204 95.9453L81.4929 96.1264L81.5653 96.3076L81.6378 96.4887L81.7103 96.6699L81.7827 96.851L81.8552 97.0322L81.9276 97.2133L82.0001 97.3945L82.0726 97.5756L82.145 97.7568L82.2175 97.9379L82.2899 98.1191L82.3624 98.3002L82.4349 98.4813L82.5073 98.6625L82.5798 98.8436L82.6522 99.0248L82.7247 99.2059L82.7971 99.3871L82.8696 99.5682L82.9421 99.7494L83.0145 99.9305L83.087 100.112L83.1594 100.293L83.2319 100.474L83.3768 100.8L83.0145 100.655ZM66.9286 98.9161L66.7837 99.0248L66.6388 99.1335L66.4939 99.2422L66.349 99.3509L66.2041 99.4595L66.0591 99.5682L65.9142 99.6769L65.7331 99.7856L65.5519 99.8943L65.3708 100.003L65.1896 100.075L65.0085 100.184L64.8273 100.257L64.6462 100.329L64.465 100.402L64.2839 100.474L64.1027 100.546L63.9216 100.619L63.7404 100.691L63.5593 100.764L63.3782 100.836L63.197 100.872L63.0159 100.909L62.8347 100.945L62.6536 100.981L62.4724 101.017L62.255 101.054L62.0739 101.09L61.8565 101.126L61.6754 101.162L61.458 101.199H60.8783L60.6972 101.162L60.4798 101.126L60.2986 101.09L60.1175 101.054L59.9364 101.017L59.7552 100.981L59.5741 100.945L59.3929 100.909L59.2118 100.872L59.0306 100.836L58.8495 100.8L58.6683 100.728L58.4872 100.655L58.306 100.583L58.1249 100.51L57.9437 100.438L57.7626 100.365L57.5814 100.293L57.4003 100.184L57.2554 100.112L57.0742 100.003L56.9293 99.8943L56.7844 99.7856L56.6395 99.6769L56.4946 99.5682L56.3496 99.4595L56.2047 99.3509L56.0598 99.2422L55.9149 99.0973L55.77 98.9886L55.625 98.8436L55.4801 98.6987L55.3714 98.5538L55.2628 98.4089L55.1541 98.264L55.0454 98.1191L54.9367 97.9741L54.828 97.8292L54.7555 97.6843L54.6469 97.5032L54.5382 97.3582L54.4657 97.1771L54.3932 96.9959L54.3208 96.8148L54.2483 96.6337L54.1759 96.4887L54.1034 96.3076L54.0672 96.1264L53.9947 95.9453L53.9585 95.7641L53.886 95.583L53.8498 95.4018V95.2207L53.8136 95.0395V94.8584L53.7773 94.6773V93.1194L53.8136 92.902L53.8498 92.7209L53.886 92.5397L53.9223 92.3586L53.9947 92.1774L54.0309 91.9963L54.1034 91.8151L54.1759 91.634L54.2483 91.4528L54.3208 91.2717L54.3932 91.0905L54.4657 90.9094L54.5382 90.7282L54.6106 90.5471L54.7193 90.366L54.828 90.221L54.9005 90.0761L55.0091 89.9312L55.1178 89.7863L55.2265 89.6414L55.3352 89.4964L55.4439 89.3515L55.5526 89.2066L55.6975 89.0617L55.8062 88.9168L55.9511 88.7719L56.096 88.6269L56.2409 88.5182L56.3859 88.3733L56.5308 88.2646L56.6757 88.1559L56.8206 88.0473L56.9655 87.9386L57.1105 87.8299L57.2554 87.7212L57.4365 87.6125L57.6177 87.5038L57.7988 87.3951L57.98 87.3227L58.1611 87.2502L58.3423 87.1415L58.4872 87.0691L58.6683 86.9966L58.8495 86.9241L59.0306 86.8879L59.2118 86.8155L59.3929 86.7792L59.5741 86.7068L59.7552 86.6706L59.9364 86.6343L60.1175 86.5981L60.2986 86.5619L60.4798 86.5256L60.6609 86.4894L60.8421 86.4532H61.6029L61.8203 86.4894L62.0377 86.5256H62.2188L62.4 86.5619L62.6173 86.5981L62.7985 86.6343L62.9796 86.6706L63.1608 86.7068L63.3419 86.743L63.5231 86.7792L63.7042 86.8155L63.8854 86.8879L64.0665 86.9241L64.2114 86.9966L64.3926 87.0691L64.7186 87.214L64.8998 87.2864L65.0809 87.3951L65.2621 87.4676L65.407 87.5763L65.5882 87.685L65.7331 87.7937L65.9142 87.9024L66.0591 88.011L66.2041 88.1197L66.349 88.2284L66.4939 88.3371L66.6388 88.482L66.7837 88.5907L66.675 88.7356L66.5301 88.8805L66.4214 89.0255L66.2765 89.1704L66.1678 89.3153L66.0591 89.4602L65.9142 89.6051L65.8055 89.7501L65.6968 89.895L65.5519 90.0399L65.4432 90.1848L65.2983 90.3297L65.1896 90.4746L65.0809 90.6196L64.936 90.7645L64.8273 90.9094L64.6824 91.0543L64.5737 91.1992L64.4288 91.0905L64.2839 90.9456L64.139 90.8369L63.9941 90.7282L63.8491 90.6196L63.7042 90.5109L63.5593 90.4022L63.3782 90.2935L63.2332 90.221L63.0883 90.1486L62.9434 90.0761L62.7623 90.0037L62.5811 89.9312L62.4 89.895L62.2188 89.8587L62.0377 89.8225L61.8565 89.7863L61.6391 89.7501L61.4218 89.7138H61.0232L60.8421 89.7501L60.6609 89.7863L60.4798 89.8225L60.2986 89.8587L60.1175 89.9312L59.9364 90.0037L59.7914 90.4384L59.6103 90.5109L59.4654 90.6196L59.3205 90.7282L59.1755 90.8369L59.0306 90.9456L58.8857 91.0543L58.7408 91.163L58.6321 91.3079L58.4872 91.4528L58.3785 91.5977L58.2698 91.7427L58.1611 91.8876L58.0886 92.0687L57.98 92.2137L57.9075 92.3948L57.835 92.576L57.7626 92.7571L57.6901 92.9382L57.6539 93.1194L57.6177 93.3005L57.5814 93.5179V94.8584L57.6177 95.0395L57.6539 95.2207L57.6901 95.4018L57.7626 95.583L57.98 95.5105L58.0524 95.6917L58.1249 95.8728L58.2336 96.054L58.4147 96.3438L58.5234 96.4887L58.6321 96.6337L58.777 96.7786L58.8857 96.9235L59.0306 97.0322L59.1755 97.1409L59.3205 97.2495L59.4654 97.3582L59.6103 97.4669L59.7914 97.5394L59.9726 97.6118L60.1537 97.6843L60.3349 97.7568L60.516 97.8292L60.6972 97.8655L60.8783 97.9017L61.0595 97.9379L61.2768 97.9741H61.6029L61.8203 97.9379L62.0377 97.9017L62.2188 97.8655L62.4 97.8292L62.5811 97.793L62.7623 97.7568L62.9434 97.7205L63.1245 97.6481L63.2695 97.5756L63.4506 97.5032L63.5955 97.4307L63.7404 97.322V95.5105H61.0595V92.8296H67.0373V98.8436L66.9286 98.9161ZM61.0232 56.8175H68.9937V50.6585H61.0232V38.0868H69.3198V31.9278H54.2483V76.3814H69.4285V70.2224H61.0232V56.8175ZM118.048 58.158V68.1935C118.048 69.9688 117.215 70.802 115.512 70.802H114.244C112.469 70.802 111.636 69.9688 111.636 68.1935V40.1157C111.636 38.3404 112.469 37.5072 114.244 37.5072H115.367C117.07 37.5072 117.904 38.3404 117.904 40.1157V48.8108H124.533V39.7172C124.533 34.2103 121.889 31.5293 116.382 31.5293H113.085C107.578 31.5293 104.861 34.2465 104.861 39.7896V68.4834C104.861 74.0265 107.578 76.7437 113.085 76.7437H116.418C121.925 76.7437 124.642 74.0265 124.642 68.4834V58.1217H118.048M94.5717 31.9278H101.347V76.3814H94.5717V31.9278ZM84.7535 51.6729C84.7535 53.4481 83.9203 54.2814 82.2175 54.2814H79.4278V37.9057H82.2175C83.9203 37.9057 84.7535 38.739 84.7535 40.5142V51.6729ZM83.3044 31.9278H72.6891V76.3814H79.464V60.2593H83.3044C88.8112 60.2593 91.5285 57.5421 91.5285 51.9989V40.1881C91.5285 34.645 88.8112 31.9278 83.3044 31.9278ZM70.1893 116.56H108.919L89.1735 123.081L70.1893 116.56Z" fill="white"/>
</g>
</g>
<defs>
<filter id="filter0_d_3_3637" x="0" y="-11" width="178" height="178" filterUnits="userSpaceOnUse" color-interpolation-filters="sRGB">
<feFlood flood-opacity="0" result="BackgroundImageFix"/>
<feColorMatrix in="SourceAlpha" type="matrix" values="0 0 0 0 0 0 0 0 0 0 0 0 0 0 0 0 0 0 127 0" result="hardAlpha"/>
<feOffset dy="3"/>
<feGaussianBlur stdDeviation="7"/>
<feComposite in2="hardAlpha" operator="out"/>
<feColorMatrix type="matrix" values="0 0 0 0 0 0 0 0 0 0 0 0 0 0 0 0 0 0 0.19 0"/>
<feBlend mode="normal" in2="BackgroundImageFix" result="effect1_dropShadow_3_3637"/>
<feBlend mode="normal" in="SourceGraphic" in2="effect1_dropShadow_3_3637" result="shape"/>
</filter>
<linearGradient id="paint0_linear_3_3637" x1="164" y1="150" x2="24.9271" y2="11.4238" gradientUnits="userSpaceOnUse">
<stop stop-color="#FF4500"/>
<stop offset="1" stop-color="#FFBEA6"/>
</linearGradient>
<clipPath id="clip0_3_3637">
<rect width="100" height="116.659" fill="white" transform="translate(39.5 16.1699)"/>
</clipPath>
</defs>
</svg>
