<svg width="178" height="150" viewBox="0 0 178 150" fill="none" xmlns="http://www.w3.org/2000/svg">
<g filter="url(#filter0_d_3_3654)">
<rect x="14" width="150" height="150" rx="30" fill="url(#paint0_linear_3_3654)" shape-rendering="crispEdges"/>
<g clip-path="url(#clip0_3_3654)">
<path d="M89.5 26.8764C115.783 26.8764 137.124 48.2643 137.124 74.5C137.124 100.736 115.736 122.124 89.5 122.124C63.2643 122.124 41.8764 100.783 41.8764 74.5C41.8764 48.2167 63.2643 26.8764 89.5 26.8764ZM89.5 24.5C61.8859 24.5 39.5 46.8859 39.5 74.5C39.5 102.114 61.8859 124.5 89.5 124.5C117.114 124.5 139.5 102.114 139.5 74.5C139.5 46.8859 117.162 24.5 89.5 24.5Z" fill="white"/>
<path d="M86.0291 44.5625C86.0291 44.5625 74.7648 47.7469 64.6412 58.4884C54.5176 69.2298 53.2344 76.8819 53.2344 82.5853C55.4682 78.783 69.2515 57.823 72.4834 67.8039V91.6633C72.4834 91.6633 72.2933 94.8952 67.3503 93.6119C68.8237 96.3686 76.4283 103.165 90.164 104.543C93.3009 101.407 97.3884 96.8914 97.3884 96.8914L104.232 102.69C104.232 102.69 116.542 94.7051 121.39 83.1081C116.875 86.0549 111.409 92.899 108.558 88.0986V59.0587C108.558 59.0587 115.877 48.0796 117.018 47.5568C114.118 48.0796 103.9 51.4541 98.529 58.3933C97.0081 56.7298 92.7781 56.6823 92.7781 56.6823C92.7781 56.6823 96.1051 59.4389 96.1526 61.9579C96.2002 64.477 96.1526 85.4846 96.1526 87.9085C93.8713 90.2374 91.4473 91.4731 89.8789 91.4731C86.2192 91.4731 85.1735 90.1899 84.1754 88.9066V58.3933C84.1754 58.3933 82.3694 59.9142 80.9435 57.4427C79.5176 54.9712 79.4701 50.1709 86.0291 44.5625Z" fill="white"/>
</g>
</g>
<defs>
<filter id="filter0_d_3_3654" x="0" y="-11" width="178" height="178" filterUnits="userSpaceOnUse" color-interpolation-filters="sRGB">
<feFlood flood-opacity="0" result="BackgroundImageFix"/>
<feColorMatrix in="SourceAlpha" type="matrix" values="0 0 0 0 0 0 0 0 0 0 0 0 0 0 0 0 0 0 127 0" result="hardAlpha"/>
<feOffset dy="3"/>
<feGaussianBlur stdDeviation="7"/>
<feComposite in2="hardAlpha" operator="out"/>
<feColorMatrix type="matrix" values="0 0 0 0 0 0 0 0 0 0 0 0 0 0 0 0 0 0 0.19 0"/>
<feBlend mode="normal" in2="BackgroundImageFix" result="effect1_dropShadow_3_3654"/>
<feBlend mode="normal" in="SourceGraphic" in2="effect1_dropShadow_3_3654" result="shape"/>
</filter>
<linearGradient id="paint0_linear_3_3654" x1="164" y1="150" x2="24.9271" y2="11.4238" gradientUnits="userSpaceOnUse">
<stop stop-color="#A70066"/>
<stop offset="1" stop-color="#F5A5D5"/>
</linearGradient>
<clipPath id="clip0_3_3654">
<rect width="100" height="100" fill="white" transform="translate(39.5 24.5)"/>
</clipPath>
</defs>
</svg>
