<svg width="178" height="150" viewBox="0 0 178 150" fill="none" xmlns="http://www.w3.org/2000/svg">
<g filter="url(#filter0_d_3_3634)">
<rect x="14" width="150" height="150" rx="30" fill="url(#paint0_linear_3_3634)" shape-rendering="crispEdges"/>
<g clip-path="url(#clip0_3_3634)">
<path d="M157.908 64.9337H157.261V63.3173L156.615 64.3841H156.291L155.968 63.3173V64.9337H155.321V62.1858H155.968L156.615 63.6729L157.261 62.1858H157.908V64.9337ZM154.998 62.6708H154.352V64.9337H153.705V62.6708H153.059V62.1858H154.998V62.6708ZM151.442 72.8539H149.503V66.647L147.24 70.6879H145.947L144.007 66.647V72.8539H141.744V62.1858H144.007L146.593 67.9401L149.503 62.1858H151.442V72.8539ZM138.835 72.8539H136.572L135.925 70.9789H132.369L131.723 72.8539H129.46L133.339 62.1858H134.955L138.835 72.8539ZM135.602 69.2009L134.309 65.3216L133.016 69.2009H135.602ZM126.227 72.8539H119.115V62.1858H126.227V64.0285H121.378V66.55H125.58V68.3927H121.378V71.0112H126.227V72.8539ZM115.882 64.0285H113.296V72.8539H111.033V64.0285H108.124V62.1858H115.882V64.0285ZM105.537 69.7181C105.537 71.9164 103.598 72.9185 101.658 72.9508C99.7185 72.9508 98.4254 72.4983 97.7789 71.5284L99.072 70.203C99.7185 70.7849 100.365 71.1082 101.658 71.1082C102.951 71.1082 103.598 70.6556 103.598 69.7828C103.598 68.9746 102.951 68.619 102.305 68.4897L101.012 68.328C99.072 68.0694 98.1021 67.0673 98.1021 65.3216C98.1021 64.3518 98.4254 63.5759 99.072 62.9617C99.7185 62.3798 100.688 62.0889 101.658 62.0889C103.275 62.0889 104.244 62.5091 105.214 63.3173L103.921 64.6427C103.275 64.1578 102.628 63.8992 101.658 63.8992C100.688 63.9638 100.042 64.3194 100.042 65.2569C100.042 66.0005 100.688 66.3561 101.335 66.4207L102.628 66.6147C104.244 66.8087 105.537 67.9078 105.537 69.7181ZM89.0505 67.7785C89.0505 70.6879 86.4643 73.0478 83.5549 73.0478C80.6454 73.0478 78.3825 70.6879 78.3825 67.7785C78.3825 64.9013 80.6454 62.5414 83.5549 62.5414C86.4643 62.5414 89.0505 64.9013 89.0505 67.7785ZM83.5549 58.0156C78.3825 58.0156 73.8567 62.3475 73.8567 67.7461L67.7145 76.5068C67.3912 76.4742 67.3912 76.4422 67.0679 76.4422C65.7748 76.4422 64.4817 76.8301 63.1887 77.4767L35.5811 66.3561C34.8376 63.0587 31.8958 60.6018 28.4045 60.6018C24.3959 60.6018 21.092 63.8992 21.092 67.9401C21.092 71.9487 24.3959 75.2461 28.4045 75.2461C29.7949 75.2461 31.0553 74.8905 32.1548 74.2116L59.9562 85.3322C60.6028 88.7266 63.5122 90.9895 67.0683 90.9895C70.6243 90.9895 73.857 88.08 74.1803 84.4917L83.5552 77.6383C89.0508 77.6383 93.5766 73.2418 93.5766 67.8108C93.5763 62.4121 89.0505 58.0156 83.5549 58.0156ZM83.5549 61.2484C87.4341 61.2484 90.3436 64.1901 90.3436 67.8108C90.3436 71.4638 87.4341 74.4056 83.5549 74.4056C79.9988 74.4056 77.0894 71.4638 77.0894 67.8108C77.0894 64.1901 79.9988 61.2484 83.5549 61.2484ZM28.4045 62.5414C30.4734 62.5414 32.2838 63.6729 33.1892 65.3862L30.5058 64.3194C28.3398 63.5436 25.9476 64.6104 25.0748 66.744C24.2343 68.9099 25.2041 71.3345 27.3053 72.272L29.5683 73.1771C29.2123 73.2741 28.8247 73.3064 28.4042 73.3064C25.4304 73.3064 23.0378 70.9142 23.0378 67.9401C23.0381 64.9337 25.4304 62.5414 28.4045 62.5414ZM67.0679 78.3818C69.9774 78.3818 72.2403 80.8064 72.2403 83.7805C72.2403 86.7869 69.9774 89.0498 67.0679 89.0498C64.805 89.0498 63.1887 88.08 62.2188 86.302C63.1887 86.7869 63.8352 87.1102 64.805 87.4335C67.0679 88.4033 69.3308 87.1102 70.3007 85.0412C70.9472 83.0373 70.3007 80.2895 68.0377 79.4166L65.7748 78.5115C66.0981 78.4465 66.7447 78.3818 67.0679 78.3818Z" fill="black"/>
</g>
</g>
<defs>
<filter id="filter0_d_3_3634" x="0" y="-11" width="178" height="178" filterUnits="userSpaceOnUse" color-interpolation-filters="sRGB">
<feFlood flood-opacity="0" result="BackgroundImageFix"/>
<feColorMatrix in="SourceAlpha" type="matrix" values="0 0 0 0 0 0 0 0 0 0 0 0 0 0 0 0 0 0 127 0" result="hardAlpha"/>
<feOffset dy="3"/>
<feGaussianBlur stdDeviation="7"/>
<feComposite in2="hardAlpha" operator="out"/>
<feColorMatrix type="matrix" values="0 0 0 0 0 0 0 0 0 0 0 0 0 0 0 0 0 0 0.19 0"/>
<feBlend mode="normal" in2="BackgroundImageFix" result="effect1_dropShadow_3_3634"/>
<feBlend mode="normal" in="SourceGraphic" in2="effect1_dropShadow_3_3634" result="shape"/>
</filter>
<linearGradient id="paint0_linear_3_3634" x1="164" y1="150" x2="24.9271" y2="11.4238" gradientUnits="userSpaceOnUse">
<stop stop-color="#FFE500"/>
<stop offset="1" stop-color="#FDF5B2"/>
</linearGradient>
<clipPath id="clip0_3_3634">
<rect width="136.816" height="33" fill="white" transform="translate(21.092 58)"/>
</clipPath>
</defs>
</svg>
