<svg width="263" height="62" viewBox="0 0 263 62" fill="none" xmlns="http://www.w3.org/2000/svg">
<g filter="url(#filter0_d_3_23786)">
<mask id="path-1-inside-1_3_23786" fill="white">
<path d="M0 10C0 4.47715 4.47715 0 10 0H252.688C258.21 0 262.688 4.47715 262.688 10V48C262.688 53.5229 258.21 58 252.688 58H10C4.47716 58 0 53.5228 0 48V10Z"/>
</mask>
<path d="M0 10C0 4.47715 4.47715 0 10 0H252.688C258.21 0 262.688 4.47715 262.688 10V48C262.688 53.5229 258.21 58 252.688 58H10C4.47716 58 0 53.5228 0 48V10Z" fill="white" shape-rendering="crispEdges"/>
<path d="M10 0V2H252.688V0V-2H10V0ZM262.688 10H260.688V48H262.688H264.688V10H262.688ZM252.688 58V56H10V58V60H252.688V58ZM0 48H2V10H0H-2V48H0ZM10 58V56C5.58172 56 2 52.4183 2 48H0H-2C-2 54.6274 3.37259 60 10 60V58ZM262.688 48H260.688C260.688 52.4183 257.106 56 252.688 56V58V60C259.315 60 264.688 54.6274 264.688 48H262.688ZM252.688 0V2C257.106 2 260.688 5.58172 260.688 10H262.688H264.688C264.688 3.37258 259.315 -2 252.688 -2V0ZM10 0V-2C3.37258 -2 -2 3.37258 -2 10H0H2C2 5.58172 5.58172 2 10 2V0Z" fill="#06C7F2" mask="url(#path-1-inside-1_3_23786)"/>
<path d="M38.6163 36.38C38.0963 36.38 37.6229 36.3 37.1963 36.14C36.7829 35.98 36.4229 35.78 36.1163 35.54C35.8229 35.3 35.5829 35.0733 35.3963 34.86C35.2096 34.6333 35.0896 34.46 35.0363 34.34C34.8229 34.0067 34.6896 33.7267 34.6363 33.5C34.5829 33.2733 34.6096 33.06 34.7163 32.86C34.8363 32.66 35.0363 32.4333 35.3163 32.18C35.5963 31.9267 35.8763 31.78 36.1563 31.74C36.4363 31.7 36.6963 31.7533 36.9363 31.9C37.1896 32.0333 37.3829 32.26 37.5163 32.58C37.6896 32.9667 37.9029 33.2133 38.1563 33.32C38.4229 33.4267 38.6096 33.48 38.7163 33.48C38.8629 33.48 39.0229 33.46 39.1963 33.42C39.3696 33.38 39.5229 33.28 39.6563 33.12C39.7896 32.9467 39.8563 32.68 39.8563 32.32C39.8563 32.0533 39.7829 31.8133 39.6363 31.6C39.4896 31.3733 39.2896 31.1667 39.0363 30.98C38.7829 30.78 38.5029 30.5867 38.1963 30.4C37.9029 30.2 37.5896 29.9933 37.2563 29.78C37.0296 29.6067 36.7963 29.4267 36.5563 29.24C36.3163 29.0533 36.0896 28.8467 35.8763 28.62C35.6763 28.38 35.4963 28.12 35.3363 27.84C35.1763 27.56 35.0496 27.2533 34.9563 26.92C34.8629 26.5867 34.8162 26.22 34.8162 25.82C34.8162 25.06 34.9496 24.3933 35.2163 23.82C35.4963 23.2467 35.9163 22.8 36.4763 22.48C37.0363 22.1467 37.7363 21.98 38.5763 21.98C38.9629 21.98 39.3296 22.04 39.6763 22.16C40.0229 22.2667 40.3363 22.4 40.6163 22.56C40.8963 22.72 41.1229 22.8733 41.2963 23.02C41.4829 23.1667 41.6096 23.28 41.6763 23.36C42.0496 23.6933 42.2496 23.9867 42.2763 24.24C42.3029 24.48 42.1629 24.82 41.8563 25.26C41.5363 25.7267 41.2296 26.0333 40.9363 26.18C40.6563 26.3133 40.3429 26.24 39.9963 25.96C39.8629 25.8267 39.7296 25.6733 39.5963 25.5C39.4629 25.3267 39.3163 25.18 39.1562 25.06C39.0096 24.9267 38.8363 24.86 38.6363 24.86C38.4896 24.86 38.3563 24.8867 38.2363 24.94C38.1163 24.98 38.0163 25.04 37.9363 25.12C37.8563 25.2 37.7896 25.3 37.7363 25.42C37.6963 25.54 37.6763 25.6667 37.6763 25.8C37.6763 26.04 37.7429 26.26 37.8763 26.46C38.0096 26.66 38.1896 26.8467 38.4163 27.02C38.6563 27.1933 38.9163 27.3667 39.1963 27.54C39.4763 27.7133 39.7563 27.8933 40.0362 28.08C40.3563 28.2933 40.6763 28.5267 40.9963 28.78C41.3296 29.02 41.6229 29.3 41.8763 29.62C42.1429 29.9267 42.3496 30.2867 42.4963 30.7C42.6563 31.1133 42.7363 31.5867 42.7363 32.12C42.7363 32.92 42.6096 33.6 42.3563 34.16C42.1029 34.7067 41.7696 35.1467 41.3563 35.48C40.9563 35.8 40.5163 36.0267 40.0362 36.16C39.5563 36.3067 39.0829 36.38 38.6163 36.38ZM46.7592 36.16C46.2392 36.16 45.7926 36.0667 45.4192 35.88C45.0592 35.68 44.7592 35.3933 44.5192 35.02C44.2792 34.6467 44.0992 34.2 43.9792 33.68C43.8726 33.16 43.8192 32.5667 43.8192 31.9V27.66C43.8192 27.3933 43.8459 27.1533 43.8992 26.94C43.9526 26.7133 44.0859 26.5267 44.2992 26.38C44.5126 26.2333 44.8592 26.16 45.3392 26.16C45.8326 26.16 46.1792 26.2333 46.3792 26.38C46.5926 26.5267 46.7259 26.72 46.7792 26.96C46.8326 27.1867 46.8592 27.4267 46.8592 27.68V31.92C46.8592 32.2 46.8792 32.4333 46.9192 32.62C46.9592 32.8067 47.0392 32.9467 47.1592 33.04C47.2792 33.1333 47.4326 33.18 47.6192 33.18C47.8192 33.18 47.9792 33.14 48.0992 33.06C48.2326 32.9667 48.3259 32.84 48.3792 32.68C48.4459 32.5067 48.4792 32.3067 48.4792 32.08V27.66C48.4792 27.3933 48.5059 27.1533 48.5592 26.94C48.6126 26.7133 48.7459 26.5267 48.9592 26.38C49.1726 26.2333 49.5192 26.16 49.9992 26.16C50.4792 26.16 50.8192 26.2333 51.0192 26.38C51.2192 26.5267 51.3459 26.7133 51.3992 26.94C51.4526 27.1667 51.4792 27.4133 51.4792 27.68V34.72C51.4792 34.96 51.4526 35.1933 51.3992 35.42C51.3459 35.6333 51.2126 35.8133 50.9992 35.96C50.7992 36.0933 50.4592 36.16 49.9792 36.16C49.5392 36.16 49.2192 36.1067 49.0192 36C48.8192 35.88 48.6859 35.74 48.6192 35.58C48.5659 35.42 48.5392 35.2733 48.5392 35.14C48.5392 34.9933 48.5259 34.8933 48.4992 34.84L48.5392 34.52C48.5659 34.68 48.5259 34.8533 48.4192 35.04C48.3259 35.2267 48.1859 35.4067 47.9992 35.58C47.8259 35.7533 47.6259 35.8933 47.3992 36C47.1859 36.1067 46.9726 36.16 46.7592 36.16ZM57.8013 36.16C57.2679 36.16 56.8346 36.04 56.5013 35.8C56.1679 35.56 55.9146 35.22 55.7413 34.78C55.5813 34.34 55.4679 33.82 55.4013 33.22C55.3479 32.6067 55.3213 31.9267 55.3213 31.18C55.3213 30.4333 55.3546 29.7533 55.4213 29.14C55.4879 28.5267 55.6079 28 55.7813 27.56C55.9546 27.12 56.2013 26.7867 56.5213 26.56C56.8546 26.32 57.2813 26.2 57.8013 26.2C58.3479 26.2 58.8346 26.3133 59.2613 26.54C59.6879 26.7667 60.0413 27.1 60.3213 27.54C60.6146 27.9667 60.8346 28.4867 60.9813 29.1C61.1279 29.7 61.2013 30.38 61.2013 31.14C61.2013 31.9133 61.1279 32.6067 60.9813 33.22C60.8346 33.8333 60.6146 34.36 60.3213 34.8C60.0413 35.24 59.6879 35.58 59.2613 35.82C58.8346 36.0467 58.3479 36.16 57.8013 36.16ZM57.2013 33.2C57.4146 33.2 57.5946 33.12 57.7413 32.96C57.8879 32.8 58.0013 32.5667 58.0813 32.26C58.1746 31.9533 58.2213 31.5933 58.2213 31.18C58.2213 30.7533 58.1746 30.3933 58.0813 30.1C58.0013 29.8067 57.8879 29.58 57.7413 29.42C57.6079 29.26 57.4346 29.18 57.2213 29.18C56.9946 29.18 56.8013 29.2667 56.6413 29.44C56.4946 29.6 56.3813 29.8333 56.3013 30.14C56.2346 30.4333 56.2013 30.78 56.2013 31.18C56.2013 31.58 56.2346 31.9333 56.3013 32.24C56.3813 32.5467 56.4946 32.7867 56.6413 32.96C56.7879 33.12 56.9746 33.2 57.2013 33.2ZM54.6613 36.18C54.1679 36.18 53.8146 36.1133 53.6012 35.98C53.3879 35.8333 53.2546 35.6467 53.2013 35.42C53.1613 35.18 53.1413 34.9267 53.1413 34.66V23.16C53.1413 22.8933 53.1613 22.6467 53.2013 22.42C53.2413 22.1933 53.3679 22.0067 53.5813 21.86C53.7946 21.7133 54.1413 21.64 54.6213 21.64C55.1279 21.64 55.4813 21.7133 55.6813 21.86C55.8813 21.9933 56.0013 22.1733 56.0413 22.4C56.0813 22.6267 56.1013 22.8733 56.1013 23.14V35.26C56.0346 35.58 55.8879 35.8133 55.6613 35.96C55.4479 36.1067 55.1146 36.18 54.6613 36.18ZM64.9447 36.34C64.718 36.34 64.4714 36.3133 64.2047 36.26C63.9514 36.2067 63.6914 36.1333 63.4247 36.04C63.1714 35.9467 62.9314 35.8333 62.7047 35.7C62.4914 35.5667 62.3047 35.4133 62.1447 35.24C61.9714 35.0533 61.858 34.88 61.8047 34.72C61.7647 34.56 61.7714 34.3933 61.8247 34.22C61.878 34.0333 61.9714 33.8267 62.1047 33.6C62.3314 33.2267 62.558 32.9933 62.7847 32.9C63.0247 32.7933 63.318 32.8733 63.6647 33.14C63.7847 33.2333 63.9047 33.32 64.0247 33.4C64.1447 33.48 64.2647 33.56 64.3847 33.64C64.518 33.72 64.6514 33.7867 64.7847 33.84C64.918 33.88 65.0514 33.9 65.1847 33.9C65.438 33.9 65.6247 33.8333 65.7447 33.7C65.8647 33.5533 65.9247 33.38 65.9247 33.18C65.9247 33.0867 65.8914 33 65.8247 32.92C65.7714 32.8267 65.6847 32.7467 65.5647 32.68C65.458 32.6 65.3247 32.5267 65.1647 32.46C65.018 32.38 64.858 32.3067 64.6847 32.24C64.5247 32.16 64.3514 32.0733 64.1647 31.98C63.8714 31.82 63.598 31.6533 63.3447 31.48C63.1047 31.2933 62.8914 31.08 62.7047 30.84C62.518 30.6 62.3714 30.3267 62.2647 30.02C62.1714 29.7133 62.1247 29.3533 62.1247 28.94C62.1247 28.3933 62.258 27.9067 62.5247 27.48C62.7914 27.04 63.1647 26.6933 63.6447 26.44C64.138 26.1733 64.7114 26.04 65.3647 26.04C65.5247 26.04 65.698 26.0533 65.8847 26.08C66.0714 26.1067 66.2647 26.1533 66.4647 26.22C66.6647 26.2733 66.8647 26.3467 67.0647 26.44C67.278 26.5333 67.478 26.64 67.6647 26.76C68.0514 27 68.2647 27.2533 68.3047 27.52C68.358 27.7733 68.2514 28.1 67.9847 28.5C67.838 28.7133 67.678 28.8733 67.5047 28.98C67.3314 29.0867 67.178 29.12 67.0447 29.08C66.8847 29.04 66.7114 28.9667 66.5247 28.86C66.3514 28.74 66.1647 28.6267 65.9647 28.52C65.778 28.4133 65.5714 28.36 65.3447 28.36C65.2114 28.36 65.098 28.3867 65.0047 28.44C64.9114 28.48 64.8314 28.5467 64.7647 28.64C64.7114 28.7333 64.6847 28.84 64.6847 28.96C64.6847 29.0933 64.718 29.22 64.7847 29.34C64.8647 29.4467 64.9647 29.5467 65.0847 29.64C65.218 29.72 65.3714 29.8067 65.5447 29.9C65.718 29.98 65.9047 30.06 66.1047 30.14C66.4114 30.26 66.7047 30.4067 66.9847 30.58C67.278 30.74 67.5447 30.94 67.7847 31.18C68.0247 31.4067 68.218 31.6867 68.3647 32.02C68.5114 32.34 68.5847 32.7267 68.5847 33.18C68.5847 34.1667 68.2514 34.94 67.5847 35.5C66.9314 36.06 66.0514 36.34 64.9447 36.34ZM73.6777 36.26C73.0377 36.26 72.4577 36.14 71.9377 35.9C71.431 35.66 70.991 35.3133 70.6177 34.86C70.2577 34.4067 69.9777 33.8733 69.7777 33.26C69.591 32.6333 69.4977 31.9333 69.4977 31.16C69.4977 30.4 69.591 29.7133 69.7777 29.1C69.9777 28.4733 70.2577 27.94 70.6177 27.5C70.9777 27.0467 71.411 26.7 71.9177 26.46C72.4243 26.22 72.9977 26.1 73.6377 26.1C73.9843 26.1 74.311 26.1467 74.6177 26.24C74.9243 26.32 75.191 26.42 75.4177 26.54C75.6577 26.66 75.8177 26.7733 75.8977 26.88C76.111 27.0133 76.3043 27.18 76.4777 27.38C76.6643 27.5667 76.751 27.8 76.7377 28.08C76.7243 28.2267 76.6777 28.3733 76.5977 28.52C76.531 28.6667 76.431 28.8267 76.2977 29C75.8977 29.56 75.4977 29.8133 75.0977 29.76C74.9243 29.72 74.7843 29.6667 74.6777 29.6C74.571 29.52 74.471 29.4467 74.3777 29.38C74.2977 29.3133 74.2043 29.26 74.0977 29.22C73.991 29.1667 73.8377 29.14 73.6377 29.14C73.3977 29.14 73.1977 29.2267 73.0377 29.4C72.891 29.5733 72.7777 29.8133 72.6977 30.12C72.6177 30.4133 72.5777 30.7667 72.5777 31.18C72.5777 31.58 72.6177 31.9333 72.6977 32.24C72.7777 32.5333 72.891 32.7667 73.0377 32.94C73.1843 33.1133 73.371 33.2067 73.5977 33.22C73.691 33.22 73.7777 33.22 73.8577 33.22C73.9377 33.2067 74.011 33.1867 74.0777 33.16C74.1577 33.12 74.231 33.0733 74.2977 33.02C74.431 32.9667 74.5643 32.8933 74.6977 32.8C74.831 32.7067 74.971 32.6333 75.1177 32.58C75.3043 32.5 75.4977 32.5467 75.6977 32.72C75.8977 32.8933 76.1177 33.1333 76.3577 33.44C76.5843 33.72 76.731 33.9733 76.7977 34.2C76.8643 34.4267 76.831 34.6467 76.6977 34.86C76.5643 35.06 76.2977 35.28 75.8977 35.52C75.791 35.64 75.6243 35.76 75.3977 35.88C75.171 35.9867 74.9043 36.0733 74.5977 36.14C74.3043 36.22 73.9977 36.26 73.6777 36.26ZM79.5222 36.18C79.0422 36.18 78.6955 36.1133 78.4822 35.98C78.2822 35.8333 78.1555 35.64 78.1022 35.4C78.0622 35.16 78.0422 34.9133 78.0422 34.66V27.68C78.0422 27.4133 78.0622 27.1667 78.1022 26.94C78.1555 26.7133 78.2889 26.5333 78.5022 26.4C78.7155 26.2533 79.0622 26.18 79.5422 26.18C80.0222 26.18 80.3622 26.2467 80.5622 26.38C80.7755 26.5 80.9022 26.6467 80.9422 26.82C80.9955 26.98 81.0222 27.12 81.0222 27.24L80.9022 27.52C80.9689 27.3467 81.0489 27.18 81.1422 27.02C81.2355 26.8467 81.3555 26.6867 81.5022 26.54C81.6622 26.3933 81.8289 26.28 82.0022 26.2C82.1889 26.12 82.3955 26.08 82.6222 26.08C82.7289 26.08 82.8489 26.0933 82.9822 26.12C83.1289 26.1333 83.2689 26.1667 83.4022 26.22C83.5355 26.26 83.6555 26.3267 83.7622 26.42C83.8689 26.5133 83.9555 26.6333 84.0222 26.78C84.0889 26.9133 84.1222 27.0867 84.1222 27.3C84.1222 27.8467 84.0289 28.3133 83.8422 28.7C83.6689 29.0867 83.3889 29.28 83.0022 29.28C82.8555 29.28 82.7355 29.2667 82.6422 29.24C82.5489 29.2133 82.4555 29.1733 82.3622 29.12C82.2822 29.0667 82.1822 29.0267 82.0622 29C81.9555 28.96 81.8289 28.94 81.6822 28.94C81.5489 28.94 81.4355 28.9667 81.3422 29.02C81.2622 29.0733 81.2022 29.14 81.1622 29.22C81.1222 29.2867 81.0955 29.38 81.0822 29.5C81.0689 29.6067 81.0622 29.7133 81.0622 29.82V34.7C81.0622 34.9533 81.0355 35.2 80.9822 35.44C80.9422 35.6667 80.8155 35.8467 80.6022 35.98C80.3889 36.1133 80.0289 36.18 79.5222 36.18ZM86.8283 36.18C86.3483 36.18 86.0016 36.1133 85.7883 35.98C85.5749 35.8333 85.4416 35.6467 85.3883 35.42C85.3483 35.18 85.3283 34.9333 85.3283 34.68V27.7C85.3283 27.4333 85.3549 27.1867 85.4083 26.96C85.4616 26.7333 85.5883 26.5533 85.7883 26.42C86.0016 26.2733 86.3549 26.2 86.8483 26.2C87.3283 26.2 87.6683 26.2733 87.8683 26.42C88.0816 26.5667 88.2083 26.7533 88.2483 26.98C88.3016 27.2067 88.3283 27.46 88.3283 27.74V34.7C88.3283 34.9533 88.3016 35.2 88.2483 35.44C88.2083 35.6667 88.0816 35.8467 87.8683 35.98C87.6683 36.1133 87.3216 36.18 86.8283 36.18ZM86.8283 24.74C86.3349 24.74 85.9749 24.6667 85.7483 24.52C85.5349 24.3733 85.4016 24.18 85.3483 23.94C85.3083 23.7 85.2883 23.4467 85.2883 23.18C85.2883 22.9 85.3149 22.6467 85.3683 22.42C85.4216 22.18 85.5549 21.9933 85.7683 21.86C85.9949 21.7133 86.3549 21.64 86.8483 21.64C87.3416 21.64 87.6949 21.7133 87.9083 21.86C88.1216 22.0067 88.2549 22.2 88.3083 22.44C88.3616 22.68 88.3883 22.9333 88.3883 23.2C88.3883 23.4667 88.3616 23.72 88.3083 23.96C88.2549 24.2 88.1216 24.3933 87.9083 24.54C87.6949 24.6733 87.3349 24.74 86.8283 24.74ZM94.7153 36.16C94.182 36.16 93.7486 36.04 93.4153 35.8C93.082 35.56 92.8286 35.22 92.6553 34.78C92.4953 34.34 92.382 33.82 92.3153 33.22C92.262 32.6067 92.2353 31.9267 92.2353 31.18C92.2353 30.4333 92.2686 29.7533 92.3353 29.14C92.402 28.5267 92.522 28 92.6953 27.56C92.8686 27.12 93.1153 26.7867 93.4353 26.56C93.7686 26.32 94.1953 26.2 94.7153 26.2C95.262 26.2 95.7486 26.3133 96.1753 26.54C96.602 26.7667 96.9553 27.1 97.2353 27.54C97.5286 27.9667 97.7486 28.4867 97.8953 29.1C98.042 29.7 98.1153 30.38 98.1153 31.14C98.1153 31.9133 98.042 32.6067 97.8953 33.22C97.7486 33.8333 97.5286 34.36 97.2353 34.8C96.9553 35.24 96.602 35.58 96.1753 35.82C95.7486 36.0467 95.262 36.16 94.7153 36.16ZM94.1153 33.2C94.3286 33.2 94.5086 33.12 94.6553 32.96C94.802 32.8 94.9153 32.5667 94.9953 32.26C95.0886 31.9533 95.1353 31.5933 95.1353 31.18C95.1353 30.7533 95.0886 30.3933 94.9953 30.1C94.9153 29.8067 94.802 29.58 94.6553 29.42C94.522 29.26 94.3486 29.18 94.1353 29.18C93.9086 29.18 93.7153 29.2667 93.5553 29.44C93.4086 29.6 93.2953 29.8333 93.2153 30.14C93.1486 30.4333 93.1153 30.78 93.1153 31.18C93.1153 31.58 93.1486 31.9333 93.2153 32.24C93.2953 32.5467 93.4086 32.7867 93.5553 32.96C93.702 33.12 93.8886 33.2 94.1153 33.2ZM91.5753 36.18C91.082 36.18 90.7286 36.1133 90.5153 35.98C90.302 35.8333 90.1686 35.6467 90.1153 35.42C90.0753 35.18 90.0553 34.9267 90.0553 34.66V23.16C90.0553 22.8933 90.0753 22.6467 90.1153 22.42C90.1553 22.1933 90.282 22.0067 90.4953 21.86C90.7086 21.7133 91.0553 21.64 91.5353 21.64C92.042 21.64 92.3953 21.7133 92.5953 21.86C92.7953 21.9933 92.9153 22.1733 92.9553 22.4C92.9953 22.6267 93.0153 22.8733 93.0153 23.14V35.26C92.9486 35.58 92.802 35.8133 92.5753 35.96C92.362 36.1067 92.0286 36.18 91.5753 36.18ZM103.152 36.38C102.312 36.38 101.618 36.2267 101.072 35.92C100.525 35.6133 100.092 35.2067 99.7717 34.7C99.4651 34.1933 99.2451 33.6333 99.1117 33.02C98.9784 32.4067 98.9117 31.7933 98.9117 31.18C98.9117 30.18 99.0717 29.2933 99.3917 28.52C99.7251 27.7467 100.205 27.14 100.832 26.7C101.472 26.2467 102.238 26.02 103.132 26.02C103.785 26.02 104.332 26.1467 104.772 26.4C105.212 26.64 105.565 26.96 105.832 27.36C106.112 27.7467 106.312 28.1667 106.432 28.62C106.565 29.0733 106.632 29.5067 106.632 29.92C106.632 30.64 106.465 31.2067 106.132 31.62C105.798 32.02 105.352 32.22 104.792 32.22H101.992C101.992 32.5133 102.038 32.7733 102.132 33C102.238 33.2267 102.385 33.4 102.572 33.52C102.772 33.64 102.998 33.7 103.252 33.7C103.478 33.7 103.678 33.6867 103.852 33.66C104.025 33.62 104.172 33.5733 104.292 33.52C104.425 33.4667 104.552 33.4133 104.672 33.36C104.792 33.2933 104.905 33.2467 105.012 33.22C105.118 33.18 105.225 33.16 105.332 33.16C105.532 33.16 105.712 33.2267 105.872 33.36C106.032 33.48 106.178 33.6733 106.312 33.94C106.405 34.0867 106.465 34.22 106.492 34.34C106.518 34.46 106.532 34.5867 106.532 34.72C106.532 35.0267 106.365 35.3067 106.032 35.56C105.712 35.8133 105.292 36.0133 104.772 36.16C104.252 36.3067 103.712 36.38 103.152 36.38ZM101.952 30.42H103.412C103.612 30.42 103.752 30.3933 103.832 30.34C103.912 30.2733 103.952 30.14 103.952 29.94C103.952 29.7133 103.925 29.5133 103.872 29.34C103.818 29.1533 103.725 29.0133 103.592 28.92C103.472 28.8133 103.312 28.76 103.112 28.76C102.872 28.76 102.658 28.84 102.472 29C102.298 29.1467 102.165 29.3467 102.072 29.6C101.992 29.8533 101.952 30.1267 101.952 30.42ZM114.071 36.2C113.605 36.2 113.265 36.1267 113.051 35.98C112.838 35.8333 112.705 35.6467 112.651 35.42C112.611 35.18 112.591 34.9267 112.591 34.66V25.3C112.591 24.86 112.651 24.4267 112.771 24C112.891 23.56 113.078 23.16 113.331 22.8C113.598 22.44 113.945 22.1533 114.371 21.94C114.798 21.7133 115.331 21.6 115.971 21.6C116.185 21.6 116.398 21.6267 116.611 21.68C116.825 21.72 116.998 21.8467 117.131 22.06C117.278 22.26 117.351 22.6067 117.351 23.1C117.351 23.5933 117.278 23.9467 117.131 24.16C116.985 24.36 116.798 24.4867 116.571 24.54C116.358 24.58 116.145 24.6 115.931 24.6C115.878 24.6 115.831 24.6133 115.791 24.64C115.751 24.6667 115.711 24.7133 115.671 24.78C115.645 24.8333 115.625 24.9067 115.611 25C115.598 25.08 115.591 25.1667 115.591 25.26V34.72C115.591 34.9733 115.565 35.2133 115.511 35.44C115.471 35.6667 115.345 35.8533 115.131 36C114.918 36.1333 114.565 36.2 114.071 36.2ZM112.471 26.34H114.451L116.071 26.26C116.325 26.2467 116.565 26.2667 116.791 26.32C117.018 26.3733 117.205 26.5067 117.351 26.72C117.498 26.9333 117.571 27.2867 117.571 27.78C117.571 28.2333 117.505 28.5667 117.371 28.78C117.251 28.9933 117.085 29.1333 116.871 29.2C116.671 29.2533 116.438 29.28 116.171 29.28L114.451 29.22H112.391C112.005 29.2333 111.731 29.1267 111.571 28.9C111.425 28.66 111.351 28.28 111.351 27.76C111.351 27.28 111.445 26.9267 111.631 26.7C111.818 26.46 112.098 26.34 112.471 26.34ZM122.507 36.34C121.893 36.34 121.333 36.22 120.827 35.98C120.32 35.74 119.88 35.4 119.507 34.96C119.147 34.5067 118.867 33.9667 118.667 33.34C118.467 32.7 118.367 31.9867 118.367 31.2C118.367 30.4533 118.447 29.7667 118.607 29.14C118.78 28.5 119.033 27.9467 119.367 27.48C119.713 27.0133 120.147 26.6533 120.667 26.4C121.187 26.1333 121.787 26 122.467 26C123.4 26 124.173 26.2267 124.787 26.68C125.413 27.12 125.873 27.7267 126.167 28.5C126.46 29.2733 126.607 30.1667 126.607 31.18C126.607 32.0067 126.507 32.74 126.307 33.38C126.107 34.02 125.82 34.56 125.447 35C125.087 35.44 124.653 35.7733 124.147 36C123.653 36.2267 123.107 36.34 122.507 36.34ZM122.467 33.52C122.72 33.52 122.927 33.4333 123.087 33.26C123.26 33.0733 123.387 32.8067 123.467 32.46C123.547 32.1 123.587 31.66 123.587 31.14C123.587 30.6733 123.553 30.2667 123.487 29.92C123.42 29.5733 123.307 29.3067 123.147 29.12C122.987 28.9333 122.76 28.84 122.467 28.84C122.2 28.84 121.987 28.94 121.827 29.14C121.667 29.3267 121.553 29.5933 121.487 29.94C121.42 30.2867 121.387 30.6933 121.387 31.16C121.387 31.68 121.427 32.1133 121.507 32.46C121.587 32.8067 121.707 33.0733 121.867 33.26C122.04 33.4333 122.24 33.52 122.467 33.52ZM129.366 36.18C128.886 36.18 128.539 36.1133 128.326 35.98C128.126 35.8333 127.999 35.64 127.946 35.4C127.906 35.16 127.886 34.9133 127.886 34.66V27.68C127.886 27.4133 127.906 27.1667 127.946 26.94C127.999 26.7133 128.133 26.5333 128.346 26.4C128.559 26.2533 128.906 26.18 129.386 26.18C129.866 26.18 130.206 26.2467 130.406 26.38C130.619 26.5 130.746 26.6467 130.786 26.82C130.839 26.98 130.866 27.12 130.866 27.24L130.746 27.52C130.813 27.3467 130.893 27.18 130.986 27.02C131.079 26.8467 131.199 26.6867 131.346 26.54C131.506 26.3933 131.673 26.28 131.846 26.2C132.033 26.12 132.239 26.08 132.466 26.08C132.573 26.08 132.693 26.0933 132.826 26.12C132.973 26.1333 133.113 26.1667 133.246 26.22C133.379 26.26 133.499 26.3267 133.606 26.42C133.713 26.5133 133.799 26.6333 133.866 26.78C133.933 26.9133 133.966 27.0867 133.966 27.3C133.966 27.8467 133.873 28.3133 133.686 28.7C133.513 29.0867 133.233 29.28 132.846 29.28C132.699 29.28 132.579 29.2667 132.486 29.24C132.393 29.2133 132.299 29.1733 132.206 29.12C132.126 29.0667 132.026 29.0267 131.906 29C131.799 28.96 131.673 28.94 131.526 28.94C131.393 28.94 131.279 28.9667 131.186 29.02C131.106 29.0733 131.046 29.14 131.006 29.22C130.966 29.2867 130.939 29.38 130.926 29.5C130.913 29.6067 130.906 29.7133 130.906 29.82V34.7C130.906 34.9533 130.879 35.2 130.826 35.44C130.786 35.6667 130.659 35.8467 130.446 35.98C130.233 36.1133 129.873 36.18 129.366 36.18ZM140.715 36.18C140.248 36.18 139.908 36.1067 139.695 35.96C139.482 35.8133 139.348 35.6267 139.295 35.4C139.255 35.16 139.235 34.9067 139.235 34.64V23.66C139.235 23.4067 139.262 23.1733 139.315 22.96C139.368 22.7467 139.502 22.5733 139.715 22.44C139.942 22.2933 140.295 22.22 140.775 22.22C141.268 22.22 141.608 22.28 141.795 22.4C141.982 22.52 142.148 22.68 142.295 22.88L146.375 30.24V23.66C146.375 23.4067 146.402 23.1733 146.455 22.96C146.522 22.7467 146.662 22.5733 146.875 22.44C147.088 22.2933 147.435 22.22 147.915 22.22C148.408 22.22 148.755 22.2933 148.955 22.44C149.168 22.5867 149.295 22.78 149.335 23.02C149.388 23.2467 149.415 23.4867 149.415 23.74V34.66C149.415 34.9133 149.388 35.16 149.335 35.4C149.282 35.6267 149.142 35.8133 148.915 35.96C148.702 36.1067 148.348 36.18 147.855 36.18C147.482 36.18 147.188 36.1467 146.975 36.08C146.775 36.0133 146.608 35.88 146.475 35.68L142.255 28.26V34.66C142.255 34.9133 142.228 35.16 142.175 35.4C142.122 35.6267 141.988 35.8133 141.775 35.96C141.562 36.1067 141.208 36.18 140.715 36.18ZM154.91 36.38C154.07 36.38 153.376 36.2267 152.83 35.92C152.283 35.6133 151.85 35.2067 151.53 34.7C151.223 34.1933 151.003 33.6333 150.87 33.02C150.736 32.4067 150.67 31.7933 150.67 31.18C150.67 30.18 150.83 29.2933 151.15 28.52C151.483 27.7467 151.963 27.14 152.59 26.7C153.23 26.2467 153.996 26.02 154.89 26.02C155.543 26.02 156.09 26.1467 156.53 26.4C156.97 26.64 157.323 26.96 157.59 27.36C157.87 27.7467 158.07 28.1667 158.19 28.62C158.323 29.0733 158.39 29.5067 158.39 29.92C158.39 30.64 158.223 31.2067 157.89 31.62C157.556 32.02 157.11 32.22 156.55 32.22H153.75C153.75 32.5133 153.796 32.7733 153.89 33C153.996 33.2267 154.143 33.4 154.33 33.52C154.53 33.64 154.756 33.7 155.01 33.7C155.236 33.7 155.436 33.6867 155.61 33.66C155.783 33.62 155.93 33.5733 156.05 33.52C156.183 33.4667 156.31 33.4133 156.43 33.36C156.55 33.2933 156.663 33.2467 156.77 33.22C156.876 33.18 156.983 33.16 157.09 33.16C157.29 33.16 157.47 33.2267 157.63 33.36C157.79 33.48 157.936 33.6733 158.07 33.94C158.163 34.0867 158.223 34.22 158.25 34.34C158.276 34.46 158.29 34.5867 158.29 34.72C158.29 35.0267 158.123 35.3067 157.79 35.56C157.47 35.8133 157.05 36.0133 156.53 36.16C156.01 36.3067 155.47 36.38 154.91 36.38ZM153.71 30.42H155.17C155.37 30.42 155.51 30.3933 155.59 30.34C155.67 30.2733 155.71 30.14 155.71 29.94C155.71 29.7133 155.683 29.5133 155.63 29.34C155.576 29.1533 155.483 29.0133 155.35 28.92C155.23 28.8133 155.07 28.76 154.87 28.76C154.63 28.76 154.416 28.84 154.23 29C154.056 29.1467 153.923 29.3467 153.83 29.6C153.75 29.8533 153.71 30.1267 153.71 30.42ZM162.865 36.2C162.518 36.2 162.245 36.1467 162.045 36.04C161.858 35.9333 161.718 35.8 161.625 35.64C161.532 35.48 161.458 35.3267 161.405 35.18L159.345 28.06C159.225 27.6733 159.172 27.38 159.185 27.18C159.198 26.9667 159.285 26.8 159.445 26.68C159.605 26.5467 159.845 26.4133 160.165 26.28C160.632 26.08 161.045 26.0133 161.405 26.08C161.778 26.1333 162.018 26.4133 162.125 26.92L163.025 31.74L163.685 27.22C163.712 27.0067 163.772 26.82 163.865 26.66C163.958 26.4867 164.105 26.36 164.305 26.28C164.505 26.1867 164.772 26.14 165.105 26.14C165.478 26.14 165.765 26.1867 165.965 26.28C166.178 26.3733 166.338 26.5 166.445 26.66C166.552 26.82 166.612 27.0133 166.625 27.24L167.245 31.74L168.085 27.16C168.205 26.6 168.445 26.2533 168.805 26.12C169.165 25.9867 169.578 26.02 170.045 26.22C170.525 26.42 170.845 26.66 171.005 26.94C171.178 27.2067 171.158 27.5867 170.945 28.08L168.865 35.2C168.812 35.3333 168.738 35.48 168.645 35.64C168.552 35.8 168.405 35.9333 168.205 36.04C168.018 36.1467 167.758 36.2 167.425 36.2C167.078 36.2 166.805 36.1333 166.605 36C166.405 35.8667 166.258 35.7 166.165 35.5C166.072 35.2867 165.998 35.08 165.945 34.88L165.145 31.18L164.345 34.88C164.292 35.12 164.218 35.3467 164.125 35.56C164.045 35.76 163.905 35.9133 163.705 36.02C163.518 36.14 163.238 36.2 162.865 36.2ZM179.983 36.38C179.463 36.38 178.99 36.3 178.563 36.14C178.15 35.98 177.79 35.78 177.483 35.54C177.19 35.3 176.95 35.0733 176.763 34.86C176.577 34.6333 176.457 34.46 176.403 34.34C176.19 34.0067 176.057 33.7267 176.003 33.5C175.95 33.2733 175.977 33.06 176.083 32.86C176.203 32.66 176.403 32.4333 176.683 32.18C176.963 31.9267 177.243 31.78 177.523 31.74C177.803 31.7 178.063 31.7533 178.303 31.9C178.557 32.0333 178.75 32.26 178.883 32.58C179.057 32.9667 179.27 33.2133 179.523 33.32C179.79 33.4267 179.977 33.48 180.083 33.48C180.23 33.48 180.39 33.46 180.563 33.42C180.737 33.38 180.89 33.28 181.023 33.12C181.157 32.9467 181.223 32.68 181.223 32.32C181.223 32.0533 181.15 31.8133 181.003 31.6C180.857 31.3733 180.657 31.1667 180.403 30.98C180.15 30.78 179.87 30.5867 179.563 30.4C179.27 30.2 178.957 29.9933 178.623 29.78C178.397 29.6067 178.163 29.4267 177.923 29.24C177.683 29.0533 177.457 28.8467 177.243 28.62C177.043 28.38 176.863 28.12 176.703 27.84C176.543 27.56 176.417 27.2533 176.323 26.92C176.23 26.5867 176.183 26.22 176.183 25.82C176.183 25.06 176.317 24.3933 176.583 23.82C176.863 23.2467 177.283 22.8 177.843 22.48C178.403 22.1467 179.103 21.98 179.943 21.98C180.33 21.98 180.697 22.04 181.043 22.16C181.39 22.2667 181.703 22.4 181.983 22.56C182.263 22.72 182.49 22.8733 182.663 23.02C182.85 23.1667 182.977 23.28 183.043 23.36C183.417 23.6933 183.617 23.9867 183.643 24.24C183.67 24.48 183.53 24.82 183.223 25.26C182.903 25.7267 182.597 26.0333 182.303 26.18C182.023 26.3133 181.71 26.24 181.363 25.96C181.23 25.8267 181.097 25.6733 180.963 25.5C180.83 25.3267 180.683 25.18 180.523 25.06C180.377 24.9267 180.203 24.86 180.003 24.86C179.857 24.86 179.723 24.8867 179.603 24.94C179.483 24.98 179.383 25.04 179.303 25.12C179.223 25.2 179.157 25.3 179.103 25.42C179.063 25.54 179.043 25.6667 179.043 25.8C179.043 26.04 179.11 26.26 179.243 26.46C179.377 26.66 179.557 26.8467 179.783 27.02C180.023 27.1933 180.283 27.3667 180.563 27.54C180.843 27.7133 181.123 27.8933 181.403 28.08C181.723 28.2933 182.043 28.5267 182.363 28.78C182.697 29.02 182.99 29.3 183.243 29.62C183.51 29.9267 183.717 30.2867 183.863 30.7C184.023 31.1133 184.103 31.5867 184.103 32.12C184.103 32.92 183.977 33.6 183.723 34.16C183.47 34.7067 183.137 35.1467 182.723 35.48C182.323 35.8 181.883 36.0267 181.403 36.16C180.923 36.3067 180.45 36.38 179.983 36.38ZM189.506 36.18C188.933 36.18 188.433 36.1133 188.006 35.98C187.593 35.8333 187.246 35.6133 186.966 35.32C186.7 35.0267 186.493 34.66 186.346 34.22C186.213 33.78 186.146 33.2667 186.146 32.68V24.3C186.146 24.0333 186.166 23.7933 186.206 23.58C186.26 23.3667 186.386 23.1933 186.586 23.06C186.8 22.9133 187.153 22.84 187.646 22.84C188.126 22.84 188.473 22.9133 188.686 23.06C188.9 23.2067 189.026 23.3933 189.066 23.62C189.12 23.8467 189.146 24.0933 189.146 24.36V32.4C189.146 32.56 189.146 32.7 189.146 32.82C189.16 32.9267 189.18 33.02 189.206 33.1C189.246 33.1667 189.3 33.22 189.366 33.26C189.446 33.3 189.546 33.32 189.666 33.32C189.866 33.32 190.053 33.3467 190.226 33.4C190.413 33.4533 190.566 33.5733 190.686 33.76C190.806 33.9467 190.866 34.26 190.866 34.7C190.866 35.18 190.793 35.5267 190.646 35.74C190.5 35.9533 190.32 36.08 190.106 36.12C189.906 36.16 189.706 36.18 189.506 36.18ZM185.946 26.34H187.926L189.606 26.26C189.86 26.2467 190.1 26.2667 190.326 26.32C190.553 26.3733 190.74 26.5067 190.886 26.72C191.033 26.9333 191.106 27.2867 191.106 27.78C191.106 28.2333 191.04 28.5667 190.906 28.78C190.786 28.9933 190.62 29.1333 190.406 29.2C190.206 29.2533 189.973 29.28 189.706 29.28L187.926 29.22H185.886C185.486 29.2333 185.213 29.1267 185.066 28.9C184.92 28.66 184.846 28.28 184.846 27.76C184.846 27.28 184.933 26.9267 185.106 26.7C185.293 26.46 185.573 26.34 185.946 26.34ZM196.042 36.34C195.429 36.34 194.869 36.22 194.362 35.98C193.855 35.74 193.415 35.4 193.042 34.96C192.682 34.5067 192.402 33.9667 192.202 33.34C192.002 32.7 191.902 31.9867 191.902 31.2C191.902 30.4533 191.982 29.7667 192.142 29.14C192.315 28.5 192.569 27.9467 192.902 27.48C193.249 27.0133 193.682 26.6533 194.202 26.4C194.722 26.1333 195.322 26 196.002 26C196.935 26 197.709 26.2267 198.322 26.68C198.949 27.12 199.409 27.7267 199.702 28.5C199.995 29.2733 200.142 30.1667 200.142 31.18C200.142 32.0067 200.042 32.74 199.842 33.38C199.642 34.02 199.355 34.56 198.982 35C198.622 35.44 198.189 35.7733 197.682 36C197.189 36.2267 196.642 36.34 196.042 36.34ZM196.002 33.52C196.255 33.52 196.462 33.4333 196.622 33.26C196.795 33.0733 196.922 32.8067 197.002 32.46C197.082 32.1 197.122 31.66 197.122 31.14C197.122 30.6733 197.089 30.2667 197.022 29.92C196.955 29.5733 196.842 29.3067 196.682 29.12C196.522 28.9333 196.295 28.84 196.002 28.84C195.735 28.84 195.522 28.94 195.362 29.14C195.202 29.3267 195.089 29.5933 195.022 29.94C194.955 30.2867 194.922 30.6933 194.922 31.16C194.922 31.68 194.962 32.1133 195.042 32.46C195.122 32.8067 195.242 33.0733 195.402 33.26C195.575 33.4333 195.775 33.52 196.002 33.52ZM202.901 36.18C202.421 36.18 202.074 36.1133 201.861 35.98C201.661 35.8333 201.534 35.64 201.481 35.4C201.441 35.16 201.421 34.9133 201.421 34.66V27.68C201.421 27.4133 201.441 27.1667 201.481 26.94C201.534 26.7133 201.668 26.5333 201.881 26.4C202.094 26.2533 202.441 26.18 202.921 26.18C203.401 26.18 203.741 26.2467 203.941 26.38C204.154 26.5 204.281 26.6467 204.321 26.82C204.374 26.98 204.401 27.12 204.401 27.24L204.281 27.52C204.348 27.3467 204.428 27.18 204.521 27.02C204.614 26.8467 204.734 26.6867 204.881 26.54C205.041 26.3933 205.208 26.28 205.381 26.2C205.568 26.12 205.774 26.08 206.001 26.08C206.108 26.08 206.228 26.0933 206.361 26.12C206.508 26.1333 206.648 26.1667 206.781 26.22C206.914 26.26 207.034 26.3267 207.141 26.42C207.248 26.5133 207.334 26.6333 207.401 26.78C207.468 26.9133 207.501 27.0867 207.501 27.3C207.501 27.8467 207.408 28.3133 207.221 28.7C207.048 29.0867 206.768 29.28 206.381 29.28C206.234 29.28 206.114 29.2667 206.021 29.24C205.928 29.2133 205.834 29.1733 205.741 29.12C205.661 29.0667 205.561 29.0267 205.441 29C205.334 28.96 205.208 28.94 205.061 28.94C204.928 28.94 204.814 28.9667 204.721 29.02C204.641 29.0733 204.581 29.14 204.541 29.22C204.501 29.2867 204.474 29.38 204.461 29.5C204.448 29.6067 204.441 29.7133 204.441 29.82V34.7C204.441 34.9533 204.414 35.2 204.361 35.44C204.321 35.6667 204.194 35.8467 203.981 35.98C203.768 36.1133 203.408 36.18 202.901 36.18ZM210.207 36.18C209.727 36.18 209.381 36.1133 209.167 35.98C208.954 35.8333 208.821 35.6467 208.767 35.42C208.727 35.18 208.707 34.9333 208.707 34.68V27.7C208.707 27.4333 208.734 27.1867 208.787 26.96C208.841 26.7333 208.967 26.5533 209.167 26.42C209.381 26.2733 209.734 26.2 210.227 26.2C210.707 26.2 211.047 26.2733 211.247 26.42C211.461 26.5667 211.587 26.7533 211.627 26.98C211.681 27.2067 211.707 27.46 211.707 27.74V34.7C211.707 34.9533 211.681 35.2 211.627 35.44C211.587 35.6667 211.461 35.8467 211.247 35.98C211.047 36.1133 210.701 36.18 210.207 36.18ZM210.207 24.74C209.714 24.74 209.354 24.6667 209.127 24.52C208.914 24.3733 208.781 24.18 208.727 23.94C208.687 23.7 208.667 23.4467 208.667 23.18C208.667 22.9 208.694 22.6467 208.747 22.42C208.801 22.18 208.934 21.9933 209.147 21.86C209.374 21.7133 209.734 21.64 210.227 21.64C210.721 21.64 211.074 21.7133 211.287 21.86C211.501 22.0067 211.634 22.2 211.687 22.44C211.741 22.68 211.767 22.9333 211.767 23.2C211.767 23.4667 211.741 23.72 211.687 23.96C211.634 24.2 211.501 24.3933 211.287 24.54C211.074 24.6733 210.714 24.74 210.207 24.74ZM217.214 36.38C216.374 36.38 215.681 36.2267 215.134 35.92C214.588 35.6133 214.154 35.2067 213.834 34.7C213.528 34.1933 213.308 33.6333 213.174 33.02C213.041 32.4067 212.974 31.7933 212.974 31.18C212.974 30.18 213.134 29.2933 213.454 28.52C213.788 27.7467 214.268 27.14 214.894 26.7C215.534 26.2467 216.301 26.02 217.194 26.02C217.848 26.02 218.394 26.1467 218.834 26.4C219.274 26.64 219.628 26.96 219.894 27.36C220.174 27.7467 220.374 28.1667 220.494 28.62C220.628 29.0733 220.694 29.5067 220.694 29.92C220.694 30.64 220.528 31.2067 220.194 31.62C219.861 32.02 219.414 32.22 218.854 32.22H216.054C216.054 32.5133 216.101 32.7733 216.194 33C216.301 33.2267 216.448 33.4 216.634 33.52C216.834 33.64 217.061 33.7 217.314 33.7C217.541 33.7 217.741 33.6867 217.914 33.66C218.088 33.62 218.234 33.5733 218.354 33.52C218.488 33.4667 218.614 33.4133 218.734 33.36C218.854 33.2933 218.968 33.2467 219.074 33.22C219.181 33.18 219.288 33.16 219.394 33.16C219.594 33.16 219.774 33.2267 219.934 33.36C220.094 33.48 220.241 33.6733 220.374 33.94C220.468 34.0867 220.528 34.22 220.554 34.34C220.581 34.46 220.594 34.5867 220.594 34.72C220.594 35.0267 220.428 35.3067 220.094 35.56C219.774 35.8133 219.354 36.0133 218.834 36.16C218.314 36.3067 217.774 36.38 217.214 36.38ZM216.014 30.42H217.474C217.674 30.42 217.814 30.3933 217.894 30.34C217.974 30.2733 218.014 30.14 218.014 29.94C218.014 29.7133 217.988 29.5133 217.934 29.34C217.881 29.1533 217.788 29.0133 217.654 28.92C217.534 28.8133 217.374 28.76 217.174 28.76C216.934 28.76 216.721 28.84 216.534 29C216.361 29.1467 216.228 29.3467 216.134 29.6C216.054 29.8533 216.014 30.1267 216.014 30.42ZM224.691 36.34C224.464 36.34 224.217 36.3133 223.951 36.26C223.697 36.2067 223.437 36.1333 223.171 36.04C222.917 35.9467 222.677 35.8333 222.451 35.7C222.237 35.5667 222.051 35.4133 221.891 35.24C221.717 35.0533 221.604 34.88 221.551 34.72C221.511 34.56 221.517 34.3933 221.571 34.22C221.624 34.0333 221.717 33.8267 221.851 33.6C222.077 33.2267 222.304 32.9933 222.531 32.9C222.771 32.7933 223.064 32.8733 223.411 33.14C223.531 33.2333 223.651 33.32 223.771 33.4C223.891 33.48 224.011 33.56 224.131 33.64C224.264 33.72 224.397 33.7867 224.531 33.84C224.664 33.88 224.797 33.9 224.931 33.9C225.184 33.9 225.371 33.8333 225.491 33.7C225.611 33.5533 225.671 33.38 225.671 33.18C225.671 33.0867 225.637 33 225.571 32.92C225.517 32.8267 225.431 32.7467 225.311 32.68C225.204 32.6 225.071 32.5267 224.911 32.46C224.764 32.38 224.604 32.3067 224.431 32.24C224.271 32.16 224.097 32.0733 223.911 31.98C223.617 31.82 223.344 31.6533 223.091 31.48C222.851 31.2933 222.637 31.08 222.451 30.84C222.264 30.6 222.117 30.3267 222.011 30.02C221.917 29.7133 221.871 29.3533 221.871 28.94C221.871 28.3933 222.004 27.9067 222.271 27.48C222.537 27.04 222.911 26.6933 223.391 26.44C223.884 26.1733 224.457 26.04 225.111 26.04C225.271 26.04 225.444 26.0533 225.631 26.08C225.817 26.1067 226.011 26.1533 226.211 26.22C226.411 26.2733 226.611 26.3467 226.811 26.44C227.024 26.5333 227.224 26.64 227.411 26.76C227.797 27 228.011 27.2533 228.051 27.52C228.104 27.7733 227.997 28.1 227.731 28.5C227.584 28.7133 227.424 28.8733 227.251 28.98C227.077 29.0867 226.924 29.12 226.791 29.08C226.631 29.04 226.457 28.9667 226.271 28.86C226.097 28.74 225.911 28.6267 225.711 28.52C225.524 28.4133 225.317 28.36 225.091 28.36C224.957 28.36 224.844 28.3867 224.751 28.44C224.657 28.48 224.577 28.5467 224.511 28.64C224.457 28.7333 224.431 28.84 224.431 28.96C224.431 29.0933 224.464 29.22 224.531 29.34C224.611 29.4467 224.711 29.5467 224.831 29.64C224.964 29.72 225.117 29.8067 225.291 29.9C225.464 29.98 225.651 30.06 225.851 30.14C226.157 30.26 226.451 30.4067 226.731 30.58C227.024 30.74 227.291 30.94 227.531 31.18C227.771 31.4067 227.964 31.6867 228.111 32.02C228.257 32.34 228.331 32.7267 228.331 33.18C228.331 34.1667 227.997 34.94 227.331 35.5C226.677 36.06 225.797 36.34 224.691 36.34Z" fill="#06C7F2"/>
</g>
<defs>
<filter id="filter0_d_3_23786" x="0" y="0" width="262.688" height="62" filterUnits="userSpaceOnUse" color-interpolation-filters="sRGB">
<feFlood flood-opacity="0" result="BackgroundImageFix"/>
<feColorMatrix in="SourceAlpha" type="matrix" values="0 0 0 0 0 0 0 0 0 0 0 0 0 0 0 0 0 0 127 0" result="hardAlpha"/>
<feOffset dy="4"/>
<feComposite in2="hardAlpha" operator="out"/>
<feColorMatrix type="matrix" values="0 0 0 0 0.0235294 0 0 0 0 0.780392 0 0 0 0 0.94902 0 0 0 1 0"/>
<feBlend mode="normal" in2="BackgroundImageFix" result="effect1_dropShadow_3_23786"/>
<feBlend mode="normal" in="SourceGraphic" in2="effect1_dropShadow_3_23786" result="shape"/>
</filter>
</defs>
</svg>
