<svg width="234" height="68" viewBox="0 0 234 68" fill="none" xmlns="http://www.w3.org/2000/svg">
<rect width="234" height="68" rx="5.66929" fill="#06C7F2"/>
<path fill-rule="evenodd" clip-rule="evenodd" d="M9.75452 0C4.36725 0 0 2.53823 0 5.66929V62.3307C0 65.4618 4.36725 68 9.75452 68H224.245C229.633 68 234 65.4618 234 62.3307V5.66929C234 2.53823 229.633 0 224.245 0H9.75452ZM26.9616 3C21.5737 3 17.2059 5.53854 17.2059 8.67V50.33C17.2059 53.4615 21.5737 56 26.9616 56H207.038C212.426 56 216.794 53.4615 216.794 50.33V8.67C216.794 5.53855 212.426 3 207.038 3H26.9616Z" fill="#9E9E9E" fill-opacity="0.5"/>
<g filter="url(#filter0_i_3_3597)" style="mix-blend-mode:overlay">
<rect width="234" height="68" rx="5.66929" fill="white" fill-opacity="0.01"/>
</g>
<rect x="17.2059" y="3" width="199.588" height="53" rx="5.67" fill="url(#paint0_linear_3_3597)" fill-opacity="0.2"/>
<rect x="17.7059" y="3.5" width="198.588" height="52" rx="5.17" stroke="url(#paint1_linear_3_3597)" stroke-opacity="0.4"/>
<path d="M200.144 28.5341L193.278 21.6684C193.12 21.5094 192.908 21.4219 192.681 21.4219C192.455 21.4219 192.243 21.5094 192.085 21.6684L191.579 22.1739C191.25 22.5032 191.25 23.0386 191.579 23.3675L197.345 29.133L191.573 34.9048C191.414 35.0638 191.326 35.2756 191.326 35.5015C191.326 35.7277 191.414 35.9395 191.573 36.0986L192.078 36.604C192.237 36.7629 192.449 36.8504 192.675 36.8504C192.901 36.8504 193.113 36.7629 193.272 36.604L200.144 29.7319C200.303 29.5725 200.391 29.3596 200.39 29.1333C200.391 28.9062 200.303 28.6934 200.144 28.5341Z" fill="white"/>
<path opacity="0.5" d="M190.985 56V68H224.246C229.633 68 234 65.4618 234 62.3307V43H216.794V50.33C216.794 53.4615 212.426 56 207.038 56H190.985Z" fill="url(#paint2_linear_3_3597)"/>
<rect opacity="0.5" x="43.0146" y="56" width="147.971" height="12" fill="white" fill-opacity="0.2"/>
<path opacity="0.5" d="M17.2059 43H0V62.3307C0 65.4618 4.36725 68 9.75452 68H43.0147V56H26.9616C21.5737 56 17.2059 53.4615 17.2059 50.33V43Z" fill="url(#paint3_linear_3_3597)"/>
<rect opacity="0.5" y="25" width="17.2059" height="18" fill="white" fill-opacity="0.7"/>
<path opacity="0.5" d="M224.246 0H190.985V3H207.038C212.426 3 216.794 5.53855 216.794 8.67V25H234V5.66929C234 2.53823 229.633 0 224.246 0Z" fill="url(#paint4_linear_3_3597)"/>
<rect opacity="0.5" x="43.0146" width="147.971" height="3" fill="white" fill-opacity="0.15"/>
<path opacity="0.5" d="M9.75452 0C4.36725 0 0 2.53823 0 5.66929V25H17.2059V8.67C17.2059 5.53854 21.5737 3 26.9616 3H43.0147V0H9.75452Z" fill="url(#paint5_linear_3_3597)"/>
<mask id="mask0_3_3597" style="mask-type:alpha" maskUnits="userSpaceOnUse" x="204" y="0" width="30" height="68">
<rect x="234" y="68" width="29.25" height="68" rx="5.66929" transform="rotate(-180 234 68)" fill="#343436"/>
</mask>
<g mask="url(#mask0_3_3597)">
<g opacity="0.2" filter="url(#filter1_d_3_3597)" style="mix-blend-mode:overlay">
<path d="M270.132 59.33C270.132 62.4615 267.594 65 264.462 65L236.176 65C229.273 65 223.676 59.4036 223.676 52.5L223.676 14.5C223.676 7.59644 229.273 2 236.176 2L264.462 2C267.594 2 270.132 4.53855 270.132 7.67001L270.132 59.33Z" fill="black" fill-opacity="0.01"/>
</g>
</g>
<mask id="mask1_3_3597" style="mask-type:alpha" maskUnits="userSpaceOnUse" x="0" y="0" width="30" height="68">
<rect width="29.25" height="68" rx="5.66929" fill="#343436"/>
</mask>
<g mask="url(#mask1_3_3597)">
<g opacity="0.2" filter="url(#filter2_d_3_3597)" style="mix-blend-mode:overlay">
<path d="M-36.1323 10.67C-36.1323 7.53854 -33.5938 5 -30.4623 5H1.21237C4.34383 5 6.88238 7.53855 6.88238 10.67V55.5C6.88238 62.4036 1.28594 68 -5.61762 68H-30.4623C-33.5938 68 -36.1323 65.4615 -36.1323 62.33V10.67Z" fill="black" fill-opacity="0.01"/>
</g>
</g>
<g filter="url(#filter3_d_3_3597)">
<path d="M39.3604 37.3826C39.023 37.3826 38.737 37.3093 38.5024 37.1626C38.2824 37.0306 38.1284 36.84 38.0404 36.5906L34.2344 23.5886C34.0877 23.134 34.073 22.7966 34.1904 22.5766C34.3224 22.3566 34.6157 22.1733 35.0704 22.0266C35.3784 21.924 35.6424 21.88 35.8624 21.8946C36.0824 21.9093 36.2657 21.99 36.4124 22.1366C36.559 22.2833 36.669 22.496 36.7424 22.7746L39.3604 33.4666L41.9564 22.9066C42.0297 22.6133 42.1324 22.386 42.2644 22.2246C42.411 22.0486 42.6017 21.946 42.8364 21.9166C43.071 21.8726 43.3644 21.9093 43.7164 22.0266C44.2297 22.2026 44.5157 22.43 44.5744 22.7086C44.6331 22.9726 44.5891 23.31 44.4424 23.7206L40.6804 36.5686C40.5924 36.818 40.431 37.016 40.1964 37.1626C39.9764 37.3093 39.6977 37.3826 39.3604 37.3826ZM47.5709 37.3606C47.1602 37.3606 46.8595 37.2946 46.6689 37.1626C46.4929 37.0453 46.3829 36.8913 46.3389 36.7006C46.2949 36.4953 46.2729 36.268 46.2729 36.0186V27.8346C46.2729 27.6 46.2949 27.3873 46.3389 27.1966C46.3829 26.9913 46.5002 26.83 46.6909 26.7126C46.8815 26.5953 47.1822 26.5366 47.5929 26.5366C48.0035 26.5366 48.2969 26.5953 48.4729 26.7126C48.6489 26.83 48.7589 26.9913 48.8029 27.1966C48.8615 27.402 48.8909 27.6293 48.8909 27.8786V36.0406C48.8909 36.29 48.8615 36.5173 48.8029 36.7226C48.7589 36.9133 48.6415 37.0673 48.4509 37.1846C48.2749 37.302 47.9815 37.3606 47.5709 37.3606ZM47.5709 24.4026C47.1309 24.4026 46.8082 24.344 46.6029 24.2266C46.4122 24.0946 46.2875 23.9186 46.2289 23.6986C46.1849 23.4786 46.1629 23.2366 46.1629 22.9726C46.1629 22.694 46.1922 22.452 46.2509 22.2466C46.3095 22.0413 46.4342 21.88 46.6249 21.7626C46.8302 21.6306 47.1529 21.5646 47.5929 21.5646C48.0182 21.5646 48.3262 21.6306 48.5169 21.7626C48.7222 21.8946 48.8469 22.0706 48.8909 22.2906C48.9495 22.496 48.9789 22.738 48.9789 23.0166C48.9789 23.266 48.9495 23.5006 48.8909 23.7206C48.8469 23.9406 48.7222 24.1093 48.5169 24.2266C48.3262 24.344 48.0109 24.4026 47.5709 24.4026ZM54.6279 37.4926C53.8505 37.4926 53.1905 37.3386 52.6479 37.0306C52.1199 36.7226 51.7019 36.3046 51.3939 35.7766C51.0859 35.234 50.8585 34.6326 50.7119 33.9726C50.5799 33.298 50.5139 32.6013 50.5139 31.8826C50.5139 30.8266 50.6679 29.888 50.9759 29.0666C51.2985 28.2453 51.7605 27.6 52.3619 27.1306C52.9632 26.6613 53.7112 26.4266 54.6059 26.4266C55.2072 26.4266 55.7205 26.5513 56.1459 26.8006C56.5859 27.05 56.9452 27.38 57.2239 27.7906C57.5025 28.1866 57.7079 28.6266 57.8399 29.1106C57.9719 29.5946 58.0379 30.064 58.0379 30.5186C58.0379 31.296 57.8692 31.8753 57.5319 32.2566C57.2092 32.638 56.7619 32.8286 56.1899 32.8286H53.2199C53.2052 33.3126 53.2639 33.7306 53.3959 34.0826C53.5279 34.4346 53.7039 34.706 53.9239 34.8966C54.1585 35.0726 54.4225 35.1606 54.7159 35.1606C54.9505 35.1606 55.1559 35.1386 55.3319 35.0946C55.5225 35.0506 55.6839 34.9993 55.8159 34.9406C55.9479 34.882 56.0652 34.816 56.1679 34.7426C56.2852 34.6693 56.3952 34.6106 56.4979 34.5666C56.6152 34.5226 56.7399 34.5006 56.8719 34.5006C57.0625 34.5006 57.2239 34.5593 57.3559 34.6766C57.4879 34.794 57.6052 34.9553 57.7079 35.1606C57.7959 35.3073 57.8472 35.432 57.8619 35.5346C57.8912 35.6373 57.9059 35.7546 57.9059 35.8866C57.9059 36.1506 57.7445 36.4073 57.4219 36.6566C57.1139 36.906 56.7105 37.104 56.2119 37.2506C55.7132 37.412 55.1852 37.4926 54.6279 37.4926ZM53.1759 31.1566H55.0239C55.2732 31.1566 55.4419 31.1273 55.5299 31.0686C55.6325 31.01 55.6839 30.8413 55.6839 30.5626C55.6839 30.2253 55.6399 29.9246 55.5519 29.6606C55.4785 29.3966 55.3612 29.184 55.1999 29.0226C55.0385 28.8613 54.8332 28.7806 54.5839 28.7806C54.2905 28.7806 54.0339 28.8906 53.8139 29.1106C53.5939 29.316 53.4325 29.602 53.3299 29.9686C53.2272 30.3206 53.1759 30.7166 53.1759 31.1566ZM62.6271 37.3386C62.3191 37.3386 62.0771 37.2873 61.9011 37.1846C61.7398 37.0966 61.6151 36.9866 61.5271 36.8546C61.4538 36.708 61.3951 36.5686 61.3511 36.4366L59.2611 28.1426C59.1731 27.82 59.1291 27.5706 59.1291 27.3946C59.1438 27.204 59.2171 27.05 59.3491 26.9326C59.4958 26.8006 59.7084 26.6833 59.9871 26.5806C60.4271 26.4046 60.8011 26.346 61.1091 26.4046C61.4318 26.4633 61.6298 26.72 61.7031 27.1746L62.7591 33.1586L63.8151 27.4166C63.8444 27.2113 63.9031 27.0426 63.9911 26.9106C64.0791 26.764 64.2111 26.654 64.3871 26.5806C64.5631 26.4926 64.7904 26.4486 65.0691 26.4486C65.3918 26.4486 65.6411 26.4926 65.8171 26.5806C66.0078 26.654 66.1471 26.764 66.2351 26.9106C66.3378 27.0426 66.3964 27.2113 66.4111 27.4166L67.4671 33.2026L68.4351 27.3726C68.5378 26.8593 68.7431 26.5513 69.0511 26.4486C69.3738 26.3313 69.7478 26.3533 70.1731 26.5146C70.5984 26.6906 70.8771 26.896 71.0091 27.1306C71.1411 27.3653 71.1191 27.71 70.9431 28.1646L68.8531 36.4366C68.8091 36.5833 68.7431 36.7226 68.6551 36.8546C68.5671 36.9866 68.4424 37.0966 68.2811 37.1846C68.1198 37.2873 67.8924 37.3386 67.5991 37.3386C67.3058 37.3386 67.0711 37.28 66.8951 37.1626C66.7338 37.06 66.6091 36.9206 66.5211 36.7446C66.4331 36.554 66.3598 36.3706 66.3011 36.1946L65.1131 30.7606L63.9031 36.1946C63.8591 36.4146 63.7931 36.6126 63.7051 36.7886C63.6318 36.9646 63.5071 37.0966 63.3311 37.1846C63.1698 37.2873 62.9351 37.3386 62.6271 37.3386ZM78.3339 37.3386C77.9232 37.3386 77.6226 37.28 77.4319 37.1626C77.2559 37.0453 77.1459 36.884 77.1019 36.6786C77.0579 36.4733 77.0359 36.2533 77.0359 36.0186V27.7906C77.0359 27.556 77.0579 27.3433 77.1019 27.1526C77.1606 26.962 77.2779 26.808 77.4539 26.6906C77.6446 26.5733 77.9452 26.5146 78.3559 26.5146C78.7959 26.5146 79.1112 26.6026 79.3019 26.7786C79.4926 26.9546 79.5879 27.2333 79.5879 27.6146L79.4779 27.9446C79.5512 27.7686 79.6539 27.6 79.7859 27.4386C79.9326 27.2626 80.1012 27.1086 80.2919 26.9766C80.4826 26.83 80.6952 26.7126 80.9299 26.6246C81.1792 26.5366 81.4506 26.4926 81.7439 26.4926C82.0812 26.4926 82.3966 26.5586 82.6899 26.6906C82.9979 26.8226 83.2766 27.028 83.5259 27.3066C83.7899 27.5706 84.0172 27.93 84.2079 28.3846C84.4572 27.93 84.7212 27.5706 84.9999 27.3066C85.2932 27.028 85.5939 26.8226 85.9019 26.6906C86.2099 26.5586 86.5326 26.4926 86.8699 26.4926C87.5739 26.4926 88.1459 26.676 88.5859 27.0426C89.0406 27.4093 89.3706 27.9593 89.5759 28.6926C89.7812 29.426 89.8839 30.3353 89.8839 31.4206V36.0186C89.8839 36.268 89.8619 36.4953 89.8179 36.7006C89.7739 36.8913 89.6566 37.0453 89.4659 37.1626C89.2899 37.28 88.9892 37.3386 88.5639 37.3386C88.1532 37.3386 87.8526 37.2726 87.6619 37.1406C87.4859 37.0233 87.3759 36.8693 87.3319 36.6786C87.2879 36.4733 87.2659 36.246 87.2659 35.9966V31.3766C87.2659 30.8633 87.2219 30.438 87.1339 30.1006C87.0459 29.7633 86.9139 29.5066 86.7379 29.3306C86.5766 29.1546 86.3712 29.0666 86.1219 29.0666C85.8579 29.0666 85.6232 29.1546 85.4179 29.3306C85.2126 29.5066 85.0512 29.7706 84.9339 30.1226C84.8312 30.46 84.7799 30.8853 84.7799 31.3986V36.0186C84.7799 36.268 84.7506 36.4953 84.6919 36.7006C84.6479 36.8913 84.5306 37.0453 84.3399 37.1626C84.1639 37.28 83.8706 37.3386 83.4599 37.3386C83.0492 37.3386 82.7486 37.2726 82.5579 37.1406C82.3672 37.0233 82.2499 36.8693 82.2059 36.6786C82.1619 36.4733 82.1399 36.246 82.1399 35.9966V31.3766C82.1399 30.8633 82.0886 30.438 81.9859 30.1006C81.8832 29.7633 81.7366 29.5066 81.5459 29.3306C81.3552 29.1546 81.1426 29.0666 80.9079 29.0666C80.6146 29.0666 80.3726 29.1473 80.1819 29.3086C80.0059 29.4553 79.8739 29.6973 79.7859 30.0346C79.6979 30.372 79.6539 30.8193 79.6539 31.3766V36.0406C79.6539 36.2753 79.6319 36.4953 79.5879 36.7006C79.5439 36.906 79.4266 37.06 79.2359 37.1626C79.0452 37.28 78.7446 37.3386 78.3339 37.3386ZM95.4487 37.4706C94.8327 37.4706 94.268 37.3533 93.7547 37.1186C93.256 36.8693 92.8307 36.51 92.4787 36.0406C92.1267 35.5566 91.8554 34.9773 91.6647 34.3026C91.474 33.6133 91.3787 32.8286 91.3787 31.9486C91.3787 31.1126 91.4594 30.3573 91.6207 29.6826C91.7967 28.9933 92.046 28.4066 92.3687 27.9226C92.706 27.4386 93.1314 27.0646 93.6447 26.8006C94.158 26.522 94.7447 26.3826 95.4047 26.3826C96.3287 26.3826 97.0914 26.6173 97.6927 27.0866C98.294 27.5413 98.7414 28.1866 99.0347 29.0226C99.3427 29.844 99.4967 30.812 99.4967 31.9266C99.4967 32.8213 99.4014 33.6133 99.2107 34.3026C99.02 34.992 98.7414 35.5713 98.3747 36.0406C98.0227 36.51 97.5974 36.8693 97.0987 37.1186C96.6147 37.3533 96.0647 37.4706 95.4487 37.4706ZM95.4047 35.0506C95.7274 35.0506 95.9987 34.9333 96.2187 34.6986C96.4387 34.464 96.6 34.112 96.7027 33.6426C96.82 33.1733 96.8787 32.594 96.8787 31.9046C96.8787 31.2446 96.8274 30.6873 96.7247 30.2326C96.622 29.778 96.4607 29.4333 96.2407 29.1986C96.0354 28.9493 95.7567 28.8246 95.4047 28.8246C95.0674 28.8246 94.796 28.9493 94.5907 29.1986C94.3854 29.448 94.2314 29.8073 94.1287 30.2766C94.0407 30.7313 93.9967 31.2813 93.9967 31.9266C93.9967 32.6013 94.048 33.1733 94.1507 33.6426C94.2534 34.112 94.4074 34.464 94.6127 34.6986C94.8327 34.9333 95.0967 35.0506 95.4047 35.0506ZM102.375 37.3606C101.964 37.3606 101.664 37.2946 101.473 37.1626C101.297 37.0453 101.187 36.884 101.143 36.6786C101.099 36.4733 101.077 36.246 101.077 35.9966V27.8346C101.077 27.5706 101.099 27.3433 101.143 27.1526C101.202 26.9473 101.319 26.7933 101.495 26.6906C101.686 26.5733 101.986 26.5146 102.397 26.5146C102.793 26.5146 103.079 26.566 103.255 26.6686C103.446 26.7713 103.563 26.9033 103.607 27.0646C103.666 27.2113 103.695 27.358 103.695 27.5046L103.607 27.7906C103.666 27.6 103.746 27.424 103.849 27.2626C103.966 27.0866 104.098 26.9326 104.245 26.8006C104.392 26.6686 104.553 26.566 104.729 26.4926C104.905 26.4193 105.096 26.3826 105.301 26.3826C105.404 26.3826 105.514 26.3973 105.631 26.4266C105.763 26.4413 105.895 26.478 106.027 26.5366C106.159 26.5806 106.276 26.6466 106.379 26.7346C106.496 26.808 106.584 26.9106 106.643 27.0426C106.716 27.1746 106.753 27.3286 106.753 27.5046C106.753 27.974 106.665 28.3846 106.489 28.7366C106.313 29.074 106.064 29.2426 105.741 29.2426C105.609 29.2426 105.492 29.228 105.389 29.1986C105.301 29.1546 105.213 29.1106 105.125 29.0666C105.037 29.008 104.934 28.964 104.817 28.9346C104.714 28.9053 104.582 28.8906 104.421 28.8906C104.289 28.8906 104.179 28.92 104.091 28.9786C104.003 29.0226 103.93 29.096 103.871 29.1986C103.812 29.2866 103.768 29.3966 103.739 29.5286C103.724 29.646 103.717 29.778 103.717 29.9246V36.0406C103.717 36.29 103.688 36.5173 103.629 36.7226C103.585 36.9133 103.468 37.0673 103.277 37.1846C103.101 37.302 102.8 37.3606 102.375 37.3606ZM111.97 37.4926C111.192 37.4926 110.532 37.3386 109.99 37.0306C109.462 36.7226 109.044 36.3046 108.736 35.7766C108.428 35.234 108.2 34.6326 108.054 33.9726C107.922 33.298 107.856 32.6013 107.856 31.8826C107.856 30.8266 108.01 29.888 108.318 29.0666C108.64 28.2453 109.102 27.6 109.704 27.1306C110.305 26.6613 111.053 26.4266 111.948 26.4266C112.549 26.4266 113.062 26.5513 113.488 26.8006C113.928 27.05 114.287 27.38 114.566 27.7906C114.844 28.1866 115.05 28.6266 115.182 29.1106C115.314 29.5946 115.38 30.064 115.38 30.5186C115.38 31.296 115.211 31.8753 114.874 32.2566C114.551 32.638 114.104 32.8286 113.532 32.8286H110.562C110.547 33.3126 110.606 33.7306 110.738 34.0826C110.87 34.4346 111.046 34.706 111.266 34.8966C111.5 35.0726 111.764 35.1606 112.058 35.1606C112.292 35.1606 112.498 35.1386 112.674 35.0946C112.864 35.0506 113.026 34.9993 113.158 34.9406C113.29 34.882 113.407 34.816 113.51 34.7426C113.627 34.6693 113.737 34.6106 113.84 34.5666C113.957 34.5226 114.082 34.5006 114.214 34.5006C114.404 34.5006 114.566 34.5593 114.698 34.6766C114.83 34.794 114.947 34.9553 115.05 35.1606C115.138 35.3073 115.189 35.432 115.204 35.5346C115.233 35.6373 115.248 35.7546 115.248 35.8866C115.248 36.1506 115.086 36.4073 114.764 36.6566C114.456 36.906 114.052 37.104 113.554 37.2506C113.055 37.412 112.527 37.4926 111.97 37.4926ZM110.518 31.1566H112.366C112.615 31.1566 112.784 31.1273 112.872 31.0686C112.974 31.01 113.026 30.8413 113.026 30.5626C113.026 30.2253 112.982 29.9246 112.894 29.6606C112.82 29.3966 112.703 29.184 112.542 29.0226C112.38 28.8613 112.175 28.7806 111.926 28.7806C111.632 28.7806 111.376 28.8906 111.156 29.1106C110.936 29.316 110.774 29.602 110.672 29.9686C110.569 30.3206 110.518 30.7166 110.518 31.1566ZM124.901 37.5586C124.432 37.5586 123.992 37.4853 123.581 37.3386C123.185 37.192 122.833 37.0086 122.525 36.7886C122.232 36.554 121.983 36.3193 121.777 36.0846C121.587 35.8353 121.447 35.6226 121.359 35.4466C121.183 35.124 121.066 34.8673 121.007 34.6766C120.963 34.4713 120.985 34.2806 121.073 34.1046C121.176 33.9286 121.359 33.7233 121.623 33.4886C121.887 33.2686 122.144 33.144 122.393 33.1146C122.657 33.0853 122.892 33.144 123.097 33.2906C123.317 33.4226 123.493 33.6426 123.625 33.9506C123.801 34.376 124.029 34.662 124.307 34.8086C124.601 34.9406 124.821 35.0066 124.967 35.0066C125.173 35.0066 125.385 34.97 125.605 34.8966C125.84 34.8086 126.038 34.6473 126.199 34.4126C126.361 34.178 126.441 33.8186 126.441 33.3346C126.441 32.968 126.361 32.6453 126.199 32.3666C126.038 32.0733 125.825 31.802 125.561 31.5526C125.297 31.2886 125.004 31.0393 124.681 30.8046C124.359 30.5553 124.036 30.2986 123.713 30.0346C123.479 29.8586 123.244 29.668 123.009 29.4626C122.775 29.2426 122.555 29.0006 122.349 28.7366C122.144 28.4726 121.953 28.1866 121.777 27.8786C121.616 27.5706 121.484 27.2406 121.381 26.8886C121.293 26.522 121.249 26.126 121.249 25.7006C121.249 24.9233 121.389 24.2413 121.667 23.6546C121.946 23.0533 122.357 22.584 122.899 22.2466C123.457 21.9093 124.153 21.7406 124.989 21.7406C125.371 21.7406 125.723 21.7993 126.045 21.9166C126.383 22.0193 126.683 22.1513 126.947 22.3126C127.226 22.4593 127.461 22.6206 127.651 22.7966C127.842 22.958 127.974 23.0973 128.047 23.2146C128.37 23.552 128.546 23.8306 128.575 24.0506C128.605 24.2706 128.48 24.5713 128.201 24.9526C127.908 25.3486 127.622 25.6053 127.343 25.7226C127.079 25.8253 126.801 25.7446 126.507 25.4806C126.361 25.2753 126.207 25.0846 126.045 24.9086C125.899 24.7326 125.745 24.586 125.583 24.4686C125.422 24.3513 125.239 24.2926 125.033 24.2926C124.828 24.2926 124.645 24.3293 124.483 24.4026C124.337 24.4613 124.212 24.5566 124.109 24.6886C124.007 24.806 123.926 24.9526 123.867 25.1286C123.809 25.3046 123.779 25.4953 123.779 25.7006C123.779 26.0086 123.853 26.2946 123.999 26.5586C124.146 26.808 124.329 27.05 124.549 27.2846C124.784 27.5046 125.041 27.7246 125.319 27.9446C125.613 28.15 125.899 28.3553 126.177 28.5606C126.5 28.8246 126.823 29.1033 127.145 29.3966C127.483 29.6753 127.791 29.998 128.069 30.3646C128.348 30.7166 128.568 31.12 128.729 31.5746C128.891 32.0293 128.971 32.5573 128.971 33.1586C128.971 33.9653 128.847 34.6546 128.597 35.2266C128.363 35.784 128.047 36.2386 127.651 36.5906C127.255 36.928 126.815 37.17 126.331 37.3166C125.862 37.478 125.385 37.5586 124.901 37.5586ZM134.402 37.3606C133.859 37.3606 133.397 37.2873 133.016 37.1406C132.635 37.0086 132.319 36.8033 132.07 36.5246C131.821 36.246 131.637 35.9013 131.52 35.4906C131.403 35.08 131.344 34.6033 131.344 34.0606V24.1826C131.344 23.9186 131.366 23.6913 131.41 23.5006C131.469 23.31 131.586 23.1633 131.762 23.0606C131.938 22.9433 132.231 22.8846 132.642 22.8846C133.053 22.8846 133.346 22.9433 133.522 23.0606C133.713 23.178 133.83 23.3393 133.874 23.5446C133.933 23.7353 133.962 23.948 133.962 24.1826V33.8626C133.962 34.0533 133.969 34.2073 133.984 34.3246C133.999 34.442 134.028 34.5446 134.072 34.6326C134.116 34.706 134.167 34.7646 134.226 34.8086C134.299 34.838 134.395 34.8526 134.512 34.8526C134.717 34.8526 134.901 34.8746 135.062 34.9186C135.223 34.9626 135.355 35.0726 135.458 35.2486C135.561 35.41 135.612 35.6813 135.612 36.0626C135.612 36.4733 135.553 36.774 135.436 36.9646C135.319 37.1406 135.165 37.2506 134.974 37.2946C134.783 37.3386 134.593 37.3606 134.402 37.3606ZM131.058 26.7346L132.84 26.7566L134.512 26.6686C134.761 26.654 134.981 26.676 135.172 26.7346C135.377 26.7786 135.539 26.896 135.656 27.0866C135.773 27.2773 135.832 27.578 135.832 27.9886C135.832 28.37 135.781 28.656 135.678 28.8466C135.575 29.0373 135.436 29.162 135.26 29.2206C135.084 29.2646 134.871 29.2866 134.622 29.2866L132.84 29.2426L130.992 29.2646C130.625 29.2646 130.369 29.162 130.222 28.9566C130.09 28.7513 130.024 28.4213 130.024 27.9666C130.024 27.5413 130.105 27.226 130.266 27.0206C130.442 26.8153 130.706 26.72 131.058 26.7346ZM141.017 37.4706C140.401 37.4706 139.836 37.3533 139.323 37.1186C138.824 36.8693 138.399 36.51 138.047 36.0406C137.695 35.5566 137.424 34.9773 137.233 34.3026C137.042 33.6133 136.947 32.8286 136.947 31.9486C136.947 31.1126 137.028 30.3573 137.189 29.6826C137.365 28.9933 137.614 28.4066 137.937 27.9226C138.274 27.4386 138.7 27.0646 139.213 26.8006C139.726 26.522 140.313 26.3826 140.973 26.3826C141.897 26.3826 142.66 26.6173 143.261 27.0866C143.862 27.5413 144.31 28.1866 144.603 29.0226C144.911 29.844 145.065 30.812 145.065 31.9266C145.065 32.8213 144.97 33.6133 144.779 34.3026C144.588 34.992 144.31 35.5713 143.943 36.0406C143.591 36.51 143.166 36.8693 142.667 37.1186C142.183 37.3533 141.633 37.4706 141.017 37.4706ZM140.973 35.0506C141.296 35.0506 141.567 34.9333 141.787 34.6986C142.007 34.464 142.168 34.112 142.271 33.6426C142.388 33.1733 142.447 32.594 142.447 31.9046C142.447 31.2446 142.396 30.6873 142.293 30.2326C142.19 29.778 142.029 29.4333 141.809 29.1986C141.604 28.9493 141.325 28.8246 140.973 28.8246C140.636 28.8246 140.364 28.9493 140.159 29.1986C139.954 29.448 139.8 29.8073 139.697 30.2766C139.609 30.7313 139.565 31.2813 139.565 31.9266C139.565 32.6013 139.616 33.1733 139.719 33.6426C139.822 34.112 139.976 34.464 140.181 34.6986C140.401 34.9333 140.665 35.0506 140.973 35.0506ZM147.943 37.3606C147.533 37.3606 147.232 37.2946 147.041 37.1626C146.865 37.0453 146.755 36.884 146.711 36.6786C146.667 36.4733 146.645 36.246 146.645 35.9966V27.8346C146.645 27.5706 146.667 27.3433 146.711 27.1526C146.77 26.9473 146.887 26.7933 147.063 26.6906C147.254 26.5733 147.555 26.5146 147.965 26.5146C148.361 26.5146 148.647 26.566 148.823 26.6686C149.014 26.7713 149.131 26.9033 149.175 27.0646C149.234 27.2113 149.263 27.358 149.263 27.5046L149.175 27.7906C149.234 27.6 149.315 27.424 149.417 27.2626C149.535 27.0866 149.667 26.9326 149.813 26.8006C149.96 26.6686 150.121 26.566 150.297 26.4926C150.473 26.4193 150.664 26.3826 150.869 26.3826C150.972 26.3826 151.082 26.3973 151.199 26.4266C151.331 26.4413 151.463 26.478 151.595 26.5366C151.727 26.5806 151.845 26.6466 151.947 26.7346C152.065 26.808 152.153 26.9106 152.211 27.0426C152.285 27.1746 152.321 27.3286 152.321 27.5046C152.321 27.974 152.233 28.3846 152.057 28.7366C151.881 29.074 151.632 29.2426 151.309 29.2426C151.177 29.2426 151.06 29.228 150.957 29.1986C150.869 29.1546 150.781 29.1106 150.693 29.0666C150.605 29.008 150.503 28.964 150.385 28.9346C150.283 28.9053 150.151 28.8906 149.989 28.8906C149.857 28.8906 149.747 28.92 149.659 28.9786C149.571 29.0226 149.498 29.096 149.439 29.1986C149.381 29.2866 149.337 29.3966 149.307 29.5286C149.293 29.646 149.285 29.778 149.285 29.9246V36.0406C149.285 36.29 149.256 36.5173 149.197 36.7226C149.153 36.9133 149.036 37.0673 148.845 37.1846C148.669 37.302 148.369 37.3606 147.943 37.3606ZM155.165 37.3606C154.754 37.3606 154.453 37.2946 154.263 37.1626C154.087 37.0453 153.977 36.8913 153.933 36.7006C153.889 36.4953 153.867 36.268 153.867 36.0186V27.8346C153.867 27.6 153.889 27.3873 153.933 27.1966C153.977 26.9913 154.094 26.83 154.285 26.7126C154.475 26.5953 154.776 26.5366 155.187 26.5366C155.597 26.5366 155.891 26.5953 156.067 26.7126C156.243 26.83 156.353 26.9913 156.397 27.1966C156.455 27.402 156.485 27.6293 156.485 27.8786V36.0406C156.485 36.29 156.455 36.5173 156.397 36.7226C156.353 36.9133 156.235 37.0673 156.045 37.1846C155.869 37.302 155.575 37.3606 155.165 37.3606ZM155.165 24.4026C154.725 24.4026 154.402 24.344 154.197 24.2266C154.006 24.0946 153.881 23.9186 153.823 23.6986C153.779 23.4786 153.757 23.2366 153.757 22.9726C153.757 22.694 153.786 22.452 153.845 22.2466C153.903 22.0413 154.028 21.88 154.219 21.7626C154.424 21.6306 154.747 21.5646 155.187 21.5646C155.612 21.5646 155.92 21.6306 156.111 21.7626C156.316 21.8946 156.441 22.0706 156.485 22.2906C156.543 22.496 156.573 22.738 156.573 23.0166C156.573 23.266 156.543 23.5006 156.485 23.7206C156.441 23.9406 156.316 24.1093 156.111 24.2266C155.92 24.344 155.605 24.4026 155.165 24.4026ZM162.222 37.4926C161.444 37.4926 160.784 37.3386 160.242 37.0306C159.714 36.7226 159.296 36.3046 158.988 35.7766C158.68 35.234 158.452 34.6326 158.306 33.9726C158.174 33.298 158.108 32.6013 158.108 31.8826C158.108 30.8266 158.262 29.888 158.57 29.0666C158.892 28.2453 159.354 27.6 159.956 27.1306C160.557 26.6613 161.305 26.4266 162.2 26.4266C162.801 26.4266 163.314 26.5513 163.74 26.8006C164.18 27.05 164.539 27.38 164.818 27.7906C165.096 28.1866 165.302 28.6266 165.434 29.1106C165.566 29.5946 165.632 30.064 165.632 30.5186C165.632 31.296 165.463 31.8753 165.126 32.2566C164.803 32.638 164.356 32.8286 163.784 32.8286H160.814C160.799 33.3126 160.858 33.7306 160.99 34.0826C161.122 34.4346 161.298 34.706 161.518 34.8966C161.752 35.0726 162.016 35.1606 162.31 35.1606C162.544 35.1606 162.75 35.1386 162.926 35.0946C163.116 35.0506 163.278 34.9993 163.41 34.9406C163.542 34.882 163.659 34.816 163.762 34.7426C163.879 34.6693 163.989 34.6106 164.092 34.5666C164.209 34.5226 164.334 34.5006 164.466 34.5006C164.656 34.5006 164.818 34.5593 164.95 34.6766C165.082 34.794 165.199 34.9553 165.302 35.1606C165.39 35.3073 165.441 35.432 165.456 35.5346C165.485 35.6373 165.5 35.7546 165.5 35.8866C165.5 36.1506 165.338 36.4073 165.016 36.6566C164.708 36.906 164.304 37.104 163.806 37.2506C163.307 37.412 162.779 37.4926 162.222 37.4926ZM160.77 31.1566H162.618C162.867 31.1566 163.036 31.1273 163.124 31.0686C163.226 31.01 163.278 30.8413 163.278 30.5626C163.278 30.2253 163.234 29.9246 163.146 29.6606C163.072 29.3966 162.955 29.184 162.794 29.0226C162.632 28.8613 162.427 28.7806 162.178 28.7806C161.884 28.7806 161.628 28.8906 161.408 29.1106C161.188 29.316 161.026 29.602 160.924 29.9686C160.821 30.3206 160.77 30.7166 160.77 31.1566ZM169.827 37.4926C169.563 37.4926 169.292 37.4633 169.013 37.4046C168.749 37.346 168.485 37.258 168.221 37.1406C167.972 37.038 167.737 36.9133 167.517 36.7666C167.312 36.6053 167.136 36.4293 166.989 36.2386C166.843 36.0626 166.747 35.9013 166.703 35.7546C166.659 35.5933 166.659 35.432 166.703 35.2706C166.762 35.0946 166.85 34.9186 166.967 34.7426C167.217 34.3906 167.451 34.1926 167.671 34.1486C167.906 34.09 168.17 34.2073 168.463 34.5006C168.551 34.6033 168.654 34.706 168.771 34.8086C168.889 34.9113 169.006 35.0066 169.123 35.0946C169.255 35.168 169.387 35.2266 169.519 35.2706C169.666 35.3146 169.82 35.3366 169.981 35.3366C170.304 35.3366 170.553 35.234 170.729 35.0286C170.92 34.8233 171.015 34.5593 171.015 34.2366C171.015 34.1193 170.979 34.002 170.905 33.8846C170.847 33.7526 170.759 33.6353 170.641 33.5326C170.524 33.43 170.392 33.3273 170.245 33.2246C170.099 33.122 169.937 33.0193 169.761 32.9166C169.585 32.814 169.402 32.7113 169.211 32.6086C168.859 32.3886 168.544 32.1686 168.265 31.9486C168.001 31.714 167.774 31.472 167.583 31.2226C167.407 30.9586 167.275 30.6726 167.187 30.3646C167.099 30.0566 167.055 29.712 167.055 29.3306C167.055 28.7733 167.18 28.2746 167.429 27.8346C167.693 27.3946 168.06 27.05 168.529 26.8006C168.999 26.5513 169.556 26.4266 170.201 26.4266C170.377 26.4266 170.561 26.4486 170.751 26.4926C170.942 26.522 171.133 26.5733 171.323 26.6466C171.529 26.7053 171.727 26.7933 171.917 26.9106C172.123 27.0133 172.313 27.1306 172.489 27.2626C172.812 27.4973 172.995 27.7393 173.039 27.9886C173.083 28.2233 172.995 28.502 172.775 28.8246C172.614 29.0446 172.438 29.1986 172.247 29.2866C172.071 29.3746 171.917 29.3673 171.785 29.2646C171.639 29.1913 171.477 29.096 171.301 28.9786C171.14 28.8466 170.964 28.7366 170.773 28.6486C170.597 28.546 170.399 28.4946 170.179 28.4946C170.018 28.4946 169.871 28.5313 169.739 28.6046C169.607 28.6633 169.505 28.7586 169.431 28.8906C169.358 29.008 169.321 29.1546 169.321 29.3306C169.321 29.5213 169.358 29.69 169.431 29.8366C169.505 29.9833 169.607 30.1226 169.739 30.2546C169.886 30.372 170.055 30.4893 170.245 30.6066C170.436 30.7093 170.641 30.8266 170.861 30.9586C171.184 31.12 171.492 31.3033 171.785 31.5086C172.079 31.714 172.343 31.9486 172.577 32.2126C172.812 32.462 172.995 32.7553 173.127 33.0926C173.259 33.43 173.325 33.8113 173.325 34.2366C173.325 35.2486 173.01 36.048 172.379 36.6346C171.749 37.2066 170.898 37.4926 169.827 37.4926Z" fill="white"/>
</g>
<defs>
<filter id="filter0_i_3_3597" x="-1" y="0" width="235" height="68" filterUnits="userSpaceOnUse" color-interpolation-filters="sRGB">
<feFlood flood-opacity="0" result="BackgroundImageFix"/>
<feBlend mode="normal" in="SourceGraphic" in2="BackgroundImageFix" result="shape"/>
<feColorMatrix in="SourceAlpha" type="matrix" values="0 0 0 0 0 0 0 0 0 0 0 0 0 0 0 0 0 0 127 0" result="hardAlpha"/>
<feOffset dx="-1"/>
<feGaussianBlur stdDeviation="5"/>
<feComposite in2="hardAlpha" operator="arithmetic" k2="-1" k3="1"/>
<feColorMatrix type="matrix" values="0 0 0 0 0.258333 0 0 0 0 0.258333 0 0 0 0 0.258333 0 0 0 0.6 0"/>
<feBlend mode="normal" in2="shape" result="effect1_innerShadow_3_3597"/>
</filter>
<filter id="filter1_d_3_3597" x="220.676" y="-1" width="52.4559" height="69" filterUnits="userSpaceOnUse" color-interpolation-filters="sRGB">
<feFlood flood-opacity="0" result="BackgroundImageFix"/>
<feColorMatrix in="SourceAlpha" type="matrix" values="0 0 0 0 0 0 0 0 0 0 0 0 0 0 0 0 0 0 127 0" result="hardAlpha"/>
<feMorphology radius="1" operator="dilate" in="SourceAlpha" result="effect1_dropShadow_3_3597"/>
<feOffset/>
<feGaussianBlur stdDeviation="1"/>
<feColorMatrix type="matrix" values="0 0 0 0 0 0 0 0 0 0 0 0 0 0 0 0 0 0 1 0"/>
<feBlend mode="normal" in2="BackgroundImageFix" result="effect1_dropShadow_3_3597"/>
<feBlend mode="normal" in="SourceGraphic" in2="effect1_dropShadow_3_3597" result="shape"/>
</filter>
<filter id="filter2_d_3_3597" x="-39.1323" y="2" width="49.0146" height="69" filterUnits="userSpaceOnUse" color-interpolation-filters="sRGB">
<feFlood flood-opacity="0" result="BackgroundImageFix"/>
<feColorMatrix in="SourceAlpha" type="matrix" values="0 0 0 0 0 0 0 0 0 0 0 0 0 0 0 0 0 0 127 0" result="hardAlpha"/>
<feMorphology radius="1" operator="dilate" in="SourceAlpha" result="effect1_dropShadow_3_3597"/>
<feOffset/>
<feGaussianBlur stdDeviation="1"/>
<feColorMatrix type="matrix" values="0 0 0 0 0 0 0 0 0 0 0 0 0 0 0 0 0 0 1 0"/>
<feBlend mode="normal" in2="BackgroundImageFix" result="effect1_dropShadow_3_3597"/>
<feBlend mode="normal" in="SourceGraphic" in2="effect1_dropShadow_3_3597" result="shape"/>
</filter>
<filter id="filter3_d_3_3597" x="24.0144" y="11.5645" width="159.311" height="35.9941" filterUnits="userSpaceOnUse" color-interpolation-filters="sRGB">
<feFlood flood-opacity="0" result="BackgroundImageFix"/>
<feColorMatrix in="SourceAlpha" type="matrix" values="0 0 0 0 0 0 0 0 0 0 0 0 0 0 0 0 0 0 127 0" result="hardAlpha"/>
<feOffset/>
<feGaussianBlur stdDeviation="5"/>
<feColorMatrix type="matrix" values="0 0 0 0 0.466667 0 0 0 0 0.466667 0 0 0 0 0.466667 0 0 0 0.25 0"/>
<feBlend mode="normal" in2="BackgroundImageFix" result="effect1_dropShadow_3_3597"/>
<feBlend mode="normal" in="SourceGraphic" in2="effect1_dropShadow_3_3597" result="shape"/>
</filter>
<linearGradient id="paint0_linear_3_3597" x1="17.2059" y1="29.0182" x2="216.794" y2="29.0182" gradientUnits="userSpaceOnUse">
<stop stop-opacity="0.4"/>
<stop offset="0.0625" stop-color="#C5C5C5" stop-opacity="0.44375"/>
<stop offset="0.5" stop-color="white" stop-opacity="0.75"/>
<stop offset="1" stop-color="white"/>
</linearGradient>
<linearGradient id="paint1_linear_3_3597" x1="17.2059" y1="29.0182" x2="216.794" y2="29.0182" gradientUnits="userSpaceOnUse">
<stop stop-color="white" stop-opacity="0.56"/>
<stop offset="0.51098" stop-color="white" stop-opacity="0"/>
<stop offset="1" stop-color="white" stop-opacity="0.14"/>
</linearGradient>
<linearGradient id="paint2_linear_3_3597" x1="211.632" y1="63" x2="220.646" y2="49.9398" gradientUnits="userSpaceOnUse">
<stop stop-color="white" stop-opacity="0.2"/>
<stop offset="0.5" stop-color="white" stop-opacity="0.3"/>
<stop offset="1" stop-color="white" stop-opacity="0"/>
</linearGradient>
<linearGradient id="paint3_linear_3_3597" x1="21.5074" y1="63" x2="11.4204" y2="49.9834" gradientUnits="userSpaceOnUse">
<stop stop-color="white" stop-opacity="0.2"/>
<stop offset="0.5" stop-color="white" stop-opacity="0.5"/>
<stop offset="1" stop-color="white" stop-opacity="0.7"/>
</linearGradient>
<linearGradient id="paint4_linear_3_3597" x1="211.632" y1="2" x2="214.91" y2="14.4068" gradientUnits="userSpaceOnUse">
<stop stop-color="white" stop-opacity="0.15"/>
<stop offset="0.505208" stop-color="white" stop-opacity="0.5"/>
<stop offset="1" stop-color="white" stop-opacity="0"/>
</linearGradient>
<linearGradient id="paint5_linear_3_3597" x1="22.3676" y1="2" x2="19.09" y2="14.4068" gradientUnits="userSpaceOnUse">
<stop stop-color="white" stop-opacity="0.15"/>
<stop offset="0.494792" stop-color="white" stop-opacity="0.5"/>
<stop offset="1" stop-color="white" stop-opacity="0.7"/>
</linearGradient>
</defs>
</svg>
